<svg id="레이어_1" data-name="레이어 1" xmlns="http://www.w3.org/2000/svg" viewBox="0 0 300 300"><defs><style>.cls-1{fill:#80d0ea;opacity:0.5;}.cls-2{fill:#b8cbd1;}</style></defs><path class="cls-1" d="M207.12,103.57a40.75,40.75,0,0,0-6.55.51,50.82,50.82,0,0,0,.73-8.34A53,53,0,0,0,95.38,93.49a50.22,50.22,0,0,0-30.51,88A32.19,32.19,0,0,1,97,149.69a17.72,17.72,0,0,1,13.78,28.87h98.13a17.71,17.71,0,0,1,16.54,11.5,45.19,45.19,0,0,0-18.36-86.49Z"/><path class="cls-2" d="M208.94,214H138.4a20.35,20.35,0,1,0,0,40.69,5.91,5.91,0,0,0,0-11.82,8.53,8.53,0,1,1,0-17h70.54a5.91,5.91,0,0,0,0-11.82Z"/><path class="cls-2" d="M208.94,190.38H97a8.53,8.53,0,1,1,0-17,5.91,5.91,0,0,0,0-11.82,20.35,20.35,0,1,0,0,40.69H208.94a5.91,5.91,0,0,0,0-11.82Z"/></svg>