<svg id="레이어_1" data-name="레이어 1" xmlns="http://www.w3.org/2000/svg" viewBox="0 0 300 300"><defs><style>.cls-1{fill:#b8cbd1;}</style></defs><path class="cls-1" d="M179,147.45H122.14c-4.52,14.9-7.51,30.38-7.51,45.27,0,22.25,13.88,36.62,35.37,36.62s35.37-14.37,35.37-36.62A172.63,172.63,0,0,0,179,147.45Z"/><path class="cls-1" d="M155,45.27a6.47,6.47,0,0,0-10.25.35c-2.25,3.15-55.27,77.92-55.27,147.1,0,36.38,24.89,61.78,60.53,61.78s60.53-25.4,60.53-61.78C210.53,113.35,157.25,48,155,45.27Zm-5,196.3c-28.47,0-47.59-19.64-47.59-48.85,0-53,34.76-111.82,47.9-132.17,13.35,18.63,47.28,71.92,47.28,132.17C197.59,221.93,178.47,241.57,150,241.57Z"/></svg>