<svg id="레이어_1" data-name="레이어 1" xmlns="http://www.w3.org/2000/svg" viewBox="0 0 300 300"><defs><style>.cls-1{fill:#f7cf47;}.cls-2{fill:#ff6c6c;}</style></defs><path class="cls-1" d="M58.74,186.55H241.23a9.13,9.13,0,0,0,0-18.25H213.8a70.12,70.12,0,0,0-4-15l23.71-13.69a9.11,9.11,0,1,0-9.12-15.77L200.7,137.6a64.68,64.68,0,0,0-10.88-10.87l13.72-23.82a9.14,9.14,0,0,0-15.85-9.12L174,117.6a63.59,63.59,0,0,0-14.85-4V86.21a9.13,9.13,0,1,0-18.25,0v27.43a64.44,64.44,0,0,0-14.86,4l-13.7-23.72A9.14,9.14,0,1,0,96.47,103l13.71,23.74a64.94,64.94,0,0,0-10.86,10.87L75.57,123.89a9.11,9.11,0,1,0-9.12,15.77l23.73,13.71a68.56,68.56,0,0,0-4,14.94H58.77a9.12,9.12,0,0,0,0,18.24Z"/><path class="cls-2" d="M66.55,220.34H39.32a9.12,9.12,0,1,1,0-18.24H260.68a9.12,9.12,0,0,1,0,18.24H66.55Z"/></svg>