<svg id="레이어_1" data-name="레이어 1" xmlns="http://www.w3.org/2000/svg" viewBox="0 0 300 300"><defs><style>.cls-1{fill:#ff6c6c;}.cls-2{fill:#fff;}</style></defs><rect class="cls-1" x="16.29" y="76.81" width="267.41" height="146.37" rx="18.23"/><path class="cls-2" d="M117.32,176a26.56,26.56,0,0,1-.39,3.12,4.29,4.29,0,0,1-1.69,2.68,4.6,4.6,0,0,1-2.34,1,6.84,6.84,0,0,1-2.55-.14,8.59,8.59,0,0,1-2.38-.95,5.67,5.67,0,0,1-1.82-1.6,83.16,83.16,0,0,1-5.4-7.48l-5-7.75-7.27-11q-1.47-2.34-3.11-5.24c-1.1-1.93-2.22-3.73-3.38-5.41l-.25,33.06v.77a8,8,0,0,1-.48,2.73,5.28,5.28,0,0,1-1.6,2.29,5,5,0,0,1-2.25.95,5.62,5.62,0,0,1-3.59-.25,5.7,5.7,0,0,1-2.25-1.91,7.32,7.32,0,0,1-1.13-2.81,10.86,10.86,0,0,1-.13-3.16v-1.47l.18-6.75.08-12.54q.09-2.78.09-5.67v-5.93c-.06-2.48,0-5.1,0-7.87s.19-5.37.31-7.79a8.14,8.14,0,0,1,1-3.37,3.65,3.65,0,0,1,1.81-2.08,6,6,0,0,1,2.47-.78,7.56,7.56,0,0,1,2.64.09,7.34,7.34,0,0,1,.86.39c.29.14.58.3.87.47s.56.47.82.69a9.17,9.17,0,0,1,.74.78A9.4,9.4,0,0,1,83,124c.23.32.46.62.69.91a10.4,10.4,0,0,0,.52,1,7.54,7.54,0,0,0,.6.87l1,1.38,20,31.5v-5.71c0-1.85,0-3.74,0-5.67s-.08-3.94-.13-6q0-3.63,0-7.78t.22-7.79a8.41,8.41,0,0,1,.86-3.37,3.75,3.75,0,0,1,1.48-1.82,6.65,6.65,0,0,1,4.93-.95,5.07,5.07,0,0,1,2.25,1,5.32,5.32,0,0,1,.51.6,3.28,3.28,0,0,1,.44.78,7.84,7.84,0,0,1,.52,2,10.69,10.69,0,0,1,.26,2.16q0,10.81,0,22.07t.13,22.06c0,.81,0,1.6.09,2.38A18.9,18.9,0,0,1,117.32,176Z"/><path class="cls-2" d="M137.47,123.36a26.3,26.3,0,0,1,10.52-1.9,18.88,18.88,0,0,1,8.43,2.38,20.46,20.46,0,0,1,6.36,5.67,31.81,31.81,0,0,1,4.29,8,39.5,39.5,0,0,1,2,6.92,48.38,48.38,0,0,1,.82,7.22,47.18,47.18,0,0,1-.26,7.06,38.4,38.4,0,0,1-1.25,6.4,27,27,0,0,1-1.22,3.63,29.63,29.63,0,0,1-1.64,3.29,18.46,18.46,0,0,1-5.58,6.06,22.14,22.14,0,0,1-7.49,3.28,21.66,21.66,0,0,1-5.71.65,25.14,25.14,0,0,1-5.79-.77,24.69,24.69,0,0,1-5.5-2.17,20.61,20.61,0,0,1-4.8-3.59,22.17,22.17,0,0,1-4.41-6,34.25,34.25,0,0,1-2.68-7.18,42.9,42.9,0,0,1-1.22-7.58,51.71,51.71,0,0,1,0-7.26,38.45,38.45,0,0,1,1.26-6.84,30.63,30.63,0,0,1,2.9-7,28.14,28.14,0,0,1,4.63-6.1A18,18,0,0,1,137.47,123.36Zm20.25,37a32.94,32.94,0,0,0,.87-9.18,34.71,34.71,0,0,0-1.65-9.6,20.22,20.22,0,0,0-2.38-4.89,10.27,10.27,0,0,0-3.37-3.24,8.92,8.92,0,0,0-4.54-1.13,13.44,13.44,0,0,0-5.8,1.56,9.73,9.73,0,0,0-3.24,2.59,13.93,13.93,0,0,0-2.17,3.73,26.67,26.67,0,0,0-1.3,4.32,27.2,27.2,0,0,0-.56,4.33,42.93,42.93,0,0,0-.08,4.71,30.76,30.76,0,0,0,.56,4.94,25.73,25.73,0,0,0,1.34,4.67,13.61,13.61,0,0,0,2.34,3.93,11.7,11.7,0,0,0,5.23,3.59,10.64,10.64,0,0,0,5.93.31q4.75-1,7.27-6.32A15.87,15.87,0,0,0,157.72,160.4Z"/><path class="cls-2" d="M236.54,124.75a8.76,8.76,0,0,1,0,3.46q-.16.87-.3,1.68c-.09.55-.19,1.12-.3,1.69l-.09.35q-1.2,5.37-2.72,11.29t-2.73,11.21q-1,4.32-2.16,9.51c-.75,3.46-1.53,6.64-2.34,9.52-.29,1-.59,2-.91,2.94a22.47,22.47,0,0,1-1.17,2.94,10.5,10.5,0,0,1-1.42,2.3,5.36,5.36,0,0,1-1.86,1.47,4.15,4.15,0,0,1-2.21.34,5.58,5.58,0,0,1-2.55-1.08,8.52,8.52,0,0,1-3.07-4.07c-.67-1.72-1.34-3.31-2-4.75a19,19,0,0,1-1-2.69q-.7-2.07-1.48-4.54t-1.51-4.76a34.53,34.53,0,0,0-1.25-3.41q-.78,1.9-1.56,4.32c-.52,1.62-1,3.2-1.47,4.76s-.88,3-1.26,4.2-.65,2.15-.82,2.72c-.46,1.16-1,2.43-1.51,3.81a14,14,0,0,1-2,3.55,5.47,5.47,0,0,1-2.81,1.94,4.79,4.79,0,0,1-3.9-1,5.57,5.57,0,0,1-2.42-2.94q-.43-1.22-.87-2.34a16.47,16.47,0,0,1-.69-2.33l-1.73-6.49-3.55-13.93c-.46-1.79-.9-3.62-1.34-5.5s-.94-3.82-1.51-5.84c-.29-1-.54-2-.74-2.9s-.4-2-.6-3.11-.44-2.41-.7-3.85-.56-3.12-.9-5a13.69,13.69,0,0,1-.22-1.78,6.45,6.45,0,0,1,.13-1.68,3.6,3.6,0,0,1,1.21-2.25,3.34,3.34,0,0,1,1-.7,9.43,9.43,0,0,1,1.3-.43,6.78,6.78,0,0,1,2.16-.34,4.14,4.14,0,0,1,2.16.69,3.39,3.39,0,0,1,1.22,1.12l1,1.82c.12.4.23.77.35,1.08l.35,1a10.11,10.11,0,0,1,.25,1.08c.06.32.12.62.18.91q.78,4.5,1.9,8.74c.75,2.82,1.44,5.54,2.08,8.13.23,1,.52,2.32.86,3.85s.7,3.11,1,4.76.69,3.21,1,4.71a24.6,24.6,0,0,0,1,3.55q1.13-3.89,2.29-7.79t2.55-7.87c.46-1.38.94-2.64,1.43-3.76a11.07,11.07,0,0,1,1.69-2.81,4.38,4.38,0,0,1,2.16-1.47,4.57,4.57,0,0,1,2.86.25,5.63,5.63,0,0,1,2.59,2.6,38.24,38.24,0,0,1,2,4.07c.52,1.27,1,2.61,1.52,4s1,2.8,1.47,4.15,1,2.64,1.42,3.85a30,30,0,0,0,1.39,3.12c.17-.64.37-1.44.61-2.43s.47-2,.73-3.15.5-2.24.74-3.33.46-2.11.69-3c.75-3.12,1.53-6.24,2.33-9.39s1.59-6.24,2.34-9.3l.43-1.47a3.11,3.11,0,0,0,.22-.91,5.6,5.6,0,0,1,.22-1.08c.11-.35.23-.68.34-1s.23-.68.35-1.08.24-.59.39-.91a4.38,4.38,0,0,1,.56-.91,2.39,2.39,0,0,1,.6-.69,4.71,4.71,0,0,1,.7-.43,4.37,4.37,0,0,1,2.07-.69,6.89,6.89,0,0,1,2.17.34,5.89,5.89,0,0,1,2.51,1.13A3.75,3.75,0,0,1,236.54,124.75Z"/></svg>