<svg xmlns="http://www.w3.org/2000/svg" viewBox="0 0 500 500"><defs><style>.cls-1{fill:#a7cbd1;}.cls-2{fill:#3f352f;}.cls-3{fill:#fff;}</style></defs><g id="레이어_3" data-name="레이어 3"><polygon class="cls-1" points="149.05 310.06 169.23 314.35 172.44 302.75 149.87 297.82 149.05 310.06"/><path class="cls-1" d="M253.25,99.89v6.88c21.24-1.94,29.88-19.92,32.33-26.45l-6.36-3.8C276.61,88.38,265.68,98.38,253.25,99.89Z"/><polygon class="cls-1" points="327.56 302.75 330.77 314.35 350.95 310.06 350.13 297.82 327.56 302.75"/><path class="cls-1" d="M220.78,76.52l-6.36,3.8c2.45,6.53,11.09,24.51,32.33,26.45V99.89C234.32,98.37,223.39,88.38,220.78,76.52Z"/><path class="cls-1" d="M272.07,77.81H227.93c3.25,8.75,12.45,15.78,22.07,15.78S268.82,86.56,272.07,77.81Z"/><path class="cls-2" d="M328.42,103.93a25.45,25.45,0,0,0-12-16.59L291,76l-12.76-7.62a3.24,3.24,0,0,0-4.91,2.78c0,.06,0,.12,0,.18H226.69c0-.06,0-.12,0-.18a3.24,3.24,0,0,0-4.91-2.78L209,76,183.72,87.26a26.22,26.22,0,0,0-12.14,16.67c-1.39,3.95-23.11,67.86-27.94,189.74l-1.26,18.76a3.25,3.25,0,0,0,2.56,3.4s26.38,5.58,26.61,5.58a3.26,3.26,0,0,0,3.13-2.38l4.94-17.85s2.19-8.3,4.67-20.36V417.44a3.12,3.12,0,0,0,.22,1.17c1.22,3.17,9.54,13.49,65.49,13.49s64.28-10.32,65.49-13.49a3.12,3.12,0,0,0,.22-1.17V280.82c2.48,12.06,4.67,20.34,4.67,20.35L325.32,319a3.26,3.26,0,0,0,3.13,2.38c.23,0,26.61-5.58,26.61-5.58a3.25,3.25,0,0,0,2.56-3.4l-1.26-18.77C351.53,171.81,329.81,107.9,328.42,103.93Zm-49.2-27.41,6.36,3.8c-2.45,6.53-11.09,24.51-32.33,26.45V99.89C265.68,98.38,276.61,88.38,279.22,76.52Zm-110,237.83-20.18-4.29.82-12.24,22.57,4.93Zm15.06-76.29c-2.29,25.07-8.09,50-10.18,58.41l-23.87-5.22c4-94.55,18.1-153.25,24.42-175.33l9.63,31.84Zm62.46,187.53c-43.74-.33-54.07-7.47-56-9.24V147.28a3.29,3.29,0,0,0-.14-.94l-12.59-41.62a18.89,18.89,0,0,1,8.42-11.58l22.14-9.87a55.29,55.29,0,0,0,7.45,13.11c7.81,10.13,18.37,15.92,30.68,16.9Zm0-318.82c-21.24-1.94-29.88-19.92-32.33-26.45l6.36-3.8c2.61,11.86,13.54,21.85,26,23.37Zm-18.82-29h44.14c-3.25,8.75-12.45,15.78-22.07,15.78S231.18,86.56,227.93,77.81Zm81.42,68.53a3.29,3.29,0,0,0-.14.94V416.35c-1.89,1.77-12.22,8.91-56,9.25V113.28c12.31-1,22.87-6.77,30.68-16.9a55.29,55.29,0,0,0,7.45-13.11l22.14,9.87a18.86,18.86,0,0,1,8.42,11.58Zm16.54,150.13c-2.09-8.43-7.89-33.34-10.18-58.41v-90.3l9.63-31.85c6.32,22.06,20.45,80.69,24.42,175.34Zm4.88,17.88-3.21-11.6,22.57-4.93.82,12.24Z"/><path class="cls-1" d="M499.85,190.44h-.51a1.06,1.06,0,0,0-.58.13,1.14,1.14,0,0,0-.48.31,1,1,0,0,0-.31.48,1.15,1.15,0,0,0-.13.58l.05.39a1.56,1.56,0,0,0,.39.67l.3.23a1.48,1.48,0,0,0,.76.21h.51a1.27,1.27,0,0,0,.58-.13,1.17,1.17,0,0,0,.48-.31,1.11,1.11,0,0,0,.31-.49,1,1,0,0,0,.13-.57l-.05-.4a1.39,1.39,0,0,0-.39-.66l-.3-.24a1.57,1.57,0,0,0-.76-.2Z"/><path class="cls-3" d="M150.24,291.25l23.87,5.22c2.09-8.43,7.89-33.34,10.18-58.41v-90.3l-9.63-31.84C168.34,138,154.2,196.7,150.24,291.25Z"/><path class="cls-3" d="M216.07,96.38a55.29,55.29,0,0,1-7.45-13.11l-22.14,9.87a18.89,18.89,0,0,0-8.42,11.58l12.59,41.62a3.29,3.29,0,0,1,.14.94V416.35c1.89,1.77,12.22,8.91,56,9.24V113.28C234.44,112.3,223.88,106.51,216.07,96.38Z"/><path class="cls-3" d="M325.34,115.91l-9.63,31.85v90.3c2.29,25.07,8.09,50,10.18,58.41l23.87-5.22C345.79,196.6,331.66,138,325.34,115.91Z"/><path class="cls-3" d="M313.52,93.14l-22.14-9.87a55.29,55.29,0,0,1-7.45,13.11c-7.81,10.13-18.37,15.92-30.68,16.9V425.6c43.74-.34,54.07-7.48,56-9.25V147.28a3.29,3.29,0,0,1,.14-.94l12.59-41.62A18.86,18.86,0,0,0,313.52,93.14Z"/></g></svg>