<svg xmlns="http://www.w3.org/2000/svg" viewBox="0 0 500 500"><defs><style>.cls-1{fill:#404040;}.cls-2{fill:#333;}.cls-3{fill:#ed2f2f;}.cls-4{fill:#ffdc48;}.cls-5{fill:#c1ff4a;}.cls-6{fill:#505050;}</style></defs><g id="레이어_3" data-name="레이어 3"><path class="cls-1" d="M313.71,316.65l18.89-2V310.3c-6.81.93-15.14,1.52-19.06,1.76C313.6,313.66,313.66,315.19,313.71,316.65Z"/><path class="cls-1" d="M165.71,310.05v4.6l19.5,2.07V312c-4.44-.29-12.3-.89-18.59-1.79Z"/><path class="cls-2" d="M334.4,316.27l-20.63,2.19c0,.62.05,1.22.07,1.8l20.75-2.19a1.82,1.82,0,0,0,1.61-1.8v-6.63c-.55.15-1.15.27-1.8.39Zm0,0h0Z"/><path class="cls-2" d="M332.6,310.3v4.35l-18.89,2c0,.62,0,1.22.06,1.81l20.63-2.19V310l-1,.16Z"/><path class="cls-2" d="M163.91,316.27v-6.6a10.52,10.52,0,0,1-1.8-.61v7.21a1.82,1.82,0,0,0,1.61,1.8l22.43,2.37c0-.58,0-1.19.07-1.8Z"/><path class="cls-2" d="M185.21,312v4.74l-19.5-2.07v-4.6c-.65-.11-1.25-.24-1.8-.38v6.6l22.31,2.37c.07-2.05.15-4.25.24-6.58Z"/><path class="cls-3" d="M237.25,350.16V314c-4.3.35-8.67.5-12.95.5a248,248,0,0,1-34.23-2.59c-.47,13.12-.81,22.25-.82,22.5l-.21,4.48C192.79,341.15,212.55,352.4,237.25,350.16Z"/><path class="cls-3" d="M188.43,375.63A76,76,0,0,0,237.25,387V353.79q-3.39.29-6.65.29a86.62,86.62,0,0,1-41.76-11.15l-1.52,32.37A1.81,1.81,0,0,1,188.43,375.63Z"/><path class="cls-3" d="M228.82,391.08a78.7,78.7,0,0,1-41.68-12l-1.21,25.61a1.88,1.88,0,0,1-.05.33c0,.27-1.36,7.39,10.34,13.24,10.5,5.25,25.72,7,41,7.56V390.61A76.81,76.81,0,0,1,228.82,391.08Z"/><path class="cls-1" d="M185.4,166.21c4.06-2,24-10.78,51.85-8.84V134.3c-16.45-.43-27.44-11.91-30.8-16-5.47,1.54-18.13,6-23.42,15.08a112.32,112.32,0,0,0-7.7,17.34l0,0Z"/><path class="cls-4" d="M240.85,105.71V426c3.08.08,6.14.11,9.15.11,1.87,0,3.76,0,5.66,0V105.71Z"/><path class="cls-4" d="M260.07,105h-.8v25.9a1.91,1.91,0,0,1,.68-.13c16.55,0,27.6-12.93,29.58-15.43.08-2.55.4-13.22.47-22.62C285.62,97.85,276.6,105,260.07,105Z"/><path class="cls-5" d="M188.82,237.42c.05-2.37.1-4.61.15-6.7.14-7.3.09-14.15-.07-20.4a46.37,46.37,0,0,1-9.71,1.07A42,42,0,0,1,164.88,209c0,4-.57,10-1.27,17.38-.27,2.9-.56,6-.85,9.34l.16,0A46.84,46.84,0,0,0,188.82,237.42Z"/><path class="cls-5" d="M188.78,206.67q-.08-2.4-.18-4.65a1.83,1.83,0,0,1-.45-1,1.8,1.8,0,0,1,.34-1.31c-.7-14-1.85-23.44-2.11-25.43l-12.54-19.24A160.7,160.7,0,0,0,168.65,174c-.25,1.32-.57,2.95-.94,4.77-1.6,8-4,19.93-3.07,26.2A39.65,39.65,0,0,0,188.78,206.67Z"/><path class="cls-5" d="M162.92,266.59a46.89,46.89,0,0,0,25,1.89c.3-9.65.58-19.1.79-27.35a47.63,47.63,0,0,1-9.83,1,49.94,49.94,0,0,1-16.44-2.74c-.69,8.54-1.26,18-1.26,27.39A1.78,1.78,0,0,1,162.92,266.59Z"/><path class="cls-5" d="M186.7,305.09c.35-9.8.73-21.1,1.09-32.34a1.86,1.86,0,0,1-.49-.48,49.82,49.82,0,0,1-25.77-2.36,1.74,1.74,0,0,1-.33-.18c0,2,.08,4.06.17,6.07.35,7.91.38,13.9.4,18.27,0,7.18,0,10,1.25,11.26a1.82,1.82,0,0,1,.89-.24Z"/><path class="cls-5" d="M311.46,240.8l-.2-.07c.21,8.24.49,17.71.8,27.4l.26,0a46.81,46.81,0,0,0,26.41-1.57l.08,0c0-9.14-.55-18.31-1.22-26.63a51.11,51.11,0,0,1-14.82,2.2A47.5,47.5,0,0,1,311.46,240.8Z"/><path class="cls-5" d="M312.18,271.82c.37,11.55.76,23.2,1.12,33.27h21.1a1.79,1.79,0,0,1,1.55.9c2.23-.87,2.24-3.09,2.28-11.92,0-4.37,0-10.36.4-18.27.08-1.78.12-3.58.15-5.39a50.29,50.29,0,0,1-16,2.59A47.82,47.82,0,0,1,312.18,271.82Z"/><path class="cls-5" d="M335.12,209.16a51.09,51.09,0,0,1-14.57,2.12,47.87,47.87,0,0,1-9.45-.93c-.16,6.25-.21,13.09-.07,20.37.05,2.08.1,4.32.15,6.68a1.84,1.84,0,0,1,1.14-.1,47.08,47.08,0,0,0,25-1.05c-.3-3.51-.61-6.84-.9-9.9C335.7,219,335.16,213.19,335.12,209.16Z"/><path class="cls-5" d="M311.21,206.69a47.24,47.24,0,0,0,24.11-1.39.13.13,0,0,0,0-.06c1-6.21-1.42-18.4-3-26.47-.37-1.82-.7-3.45-.94-4.77a172.39,172.39,0,0,0-6.65-23.15l-11.06,23.34C313.38,176.15,311.84,188.52,311.21,206.69Z"/><path class="cls-4" d="M250.33,101.25c2.69,0,5.57,0,8.66.11H260c20,0,27.87-11.37,29.69-14.55-2.08-8.88-16.27-13.22-43.22-13.22-26,0-33.91,11.71-35.69,15.24C222.44,101,231.28,101.1,250.33,101.25ZM221,87.24c1.4-.49,34.53-12,55.32-2.76a1.78,1.78,0,0,1,1.06,1.73,3.81,3.81,0,0,1-1.49,2.72c-4.22,3.65-18.62,6-30.17,6-2.24,0-4.36-.08-6.29-.26-13.9-1.31-18.33-3.89-18.79-4.18a1.81,1.81,0,0,1,.36-3.22Z"/><path class="cls-4" d="M237.25,130.7V104.54c-10.66-.66-18.24-2.87-26.76-11v22.35a1.8,1.8,0,0,1-.39,1.1C213.94,121.27,223.67,130.29,237.25,130.7Z"/><path class="cls-3" d="M309.49,318.72v-7.79a248.64,248.64,0,0,1-38.15,3.33c-3.94,0-7.91-.14-11.76-.46a1.55,1.55,0,0,1-.31-.06v36.41a1.8,1.8,0,0,1,.7-.07c26.69,2.63,47.49-9.24,51-11.38l-.21-4.33c0-.2-.21-5.68-.52-14.2l-.14-.11A1.8,1.8,0,0,1,309.49,318.72Z"/><path class="cls-3" d="M259.91,390.5a1.73,1.73,0,0,1-.64-.21V426c16.45-.39,33.22-2,44.51-7.66,11.7-5.85,10.39-13,10.33-13.27a2.72,2.72,0,0,1,0-.3l-1.19-25.27a85.43,85.43,0,0,1-53,11.05Z"/><path class="cls-3" d="M259.61,353.67a1.86,1.86,0,0,1-.34-.07v33.53a1.81,1.81,0,0,1,1.06-.21c29.78,3.53,51.65-11.16,51.87-11.31a1.83,1.83,0,0,1,.49-.23l-1.54-32.6a90,90,0,0,1-43.26,11.3C265.21,354.08,262.44,354,259.61,353.67Z"/><path class="cls-3" d="M308,198.09h0c.81-15.07,2.09-24.51,2.11-24.66a2,2,0,0,1,.16-.53l1.65-3.48c-4.88-2.27-25.24-10.73-52.64-8.57v34.87C273,194.56,306.54,197.94,308,198.09Z"/><path class="cls-1" d="M260,134.33a1.72,1.72,0,0,1-.68-.14v23.05c28.4-2.16,49,6.46,54.19,8.91l8.75-18.46a1.79,1.79,0,0,1,1-.91A100.05,100.05,0,0,0,317,133.43C311.1,123.3,296.15,119,292,118,289.06,121.63,277.53,134.33,260,134.33Z"/><path class="cls-3" d="M309.49,307.28v-.39a1.72,1.72,0,0,1,.24-.87c-.36-10-.76-21.71-1.13-33.31a1.88,1.88,0,0,1-.74.31c-1.09.17-21.64,3.42-38.1,3.42a79.61,79.61,0,0,1-10.49-.6v34.43a1.76,1.76,0,0,1,.61-.06C280.57,312,304.61,308.11,309.49,307.28Z"/><path class="cls-3" d="M307.29,269.46a1.68,1.68,0,0,1,1.21.24c-.37-11.81-.71-23.37-.93-32.87l-.22,0c-.23,0-19.4,1.15-36.84,1.15-3.5,0-6.93-.05-10.12-.16a1.73,1.73,0,0,1-1.12-.45v34.78C274.92,274.58,307,269.51,307.29,269.46Z"/><path class="cls-3" d="M307.13,233.27a1.45,1.45,0,0,1,.36,0c0-.85,0-1.69-.06-2.5-.21-10.84,0-20.71.38-29.11h-.2c-.35,0-35.18-3.55-48.34-2.33v35.38a2,2,0,0,1,1.24-.46C279.46,234.93,306.86,233.29,307.13,233.27Z"/><path class="cls-3" d="M192.22,202.34c.36,8.26.56,17.9.35,28.45,0,.82,0,1.67-.06,2.53,4,.17,27,1.05,43.34.64a1.92,1.92,0,0,1,1.4.63V199.35C226.1,198.29,199.73,201.4,192.22,202.34Z"/><path class="cls-3" d="M235.94,237.56c-3,.08-6.22.11-9.51.11-14.64,0-30.56-.61-34-.74-.22,9.4-.56,20.83-.93,32.51l0,0a2.23,2.23,0,0,1,0,.36c7.92,1.14,32.63,4.38,45.68,2.33V237A1.79,1.79,0,0,1,235.94,237.56Z"/><path class="cls-3" d="M191.38,273.45c-.4,12.23-.82,24.5-1.18,34.79,6.17.93,27.39,3.76,46.92,2.1h.13V275.81a76.83,76.83,0,0,1-10.66.63C213.48,276.44,197.77,274.38,191.38,273.45Z"/><path class="cls-3" d="M187.38,169.26l2.24,3.43a1.84,1.84,0,0,1,.27.74c0,.15,1.35,9.86,2.16,25.3,7.91-1,33.5-4,45.2-3V161C211.25,159.09,192,167.12,187.38,169.26Z"/><path class="cls-3" d="M309.49,310.93v7.79a1.8,1.8,0,0,0,.6,1.34l.14.11c-.09-2.59-.2-5.45-.31-8.54a1.75,1.75,0,0,1-.41-.7Z"/><path class="cls-5" d="M334.4,305.09H313.3l.06,1.8h17.53l2-.27A14.36,14.36,0,0,0,336,306,1.79,1.79,0,0,0,334.4,305.09Z"/><path class="cls-6" d="M309.49,307.28l.28,0c0-.4,0-.8,0-1.21a1.72,1.72,0,0,0-.24.87Z"/><path class="cls-5" d="M313.42,308.46c3.66-.23,11.08-.76,17.47-1.57H313.36Z"/><path class="cls-5" d="M186.7,305.09H163.91a1.82,1.82,0,0,0-.89.24c.78.81,2,1,4.11,1.29l2,.27h17.53Z"/><path class="cls-5" d="M169.11,306.89c6.39.81,13.81,1.34,17.47,1.57l.06-1.57Z"/><path class="cls-1" d="M272.64,86.88c-14.8-5.26-35.74-.52-45.3,2.18a81.9,81.9,0,0,0,12.44,2C252.67,92.26,268.19,89.28,272.64,86.88Z"/><path class="cls-2" d="M220.65,90.46c.46.29,4.89,2.87,18.79,4.18,1.93.18,4.05.26,6.29.26,11.55,0,26-2.32,30.17-6a3.81,3.81,0,0,0,1.49-2.72,1.78,1.78,0,0,0-1.06-1.73c-20.79-9.29-53.92,2.27-55.32,2.76a1.81,1.81,0,0,0-.36,3.22Zm55-4.34c-.22,4.34-22.12,8-36,6.72s-18-3.9-18-3.9S255.22,77,275.6,86.12Z"/><path class="cls-2" d="M275.6,86.12c-20.38-9.1-54,2.82-54,2.82s4.11,2.6,18,3.9S275.38,90.46,275.6,86.12Zm-3,.76c-4.45,2.4-20,5.38-32.86,4.17a81.9,81.9,0,0,1-12.44-2C236.9,86.36,257.84,81.62,272.64,86.88Z"/><path class="cls-2" d="M312.55,334.29l.18,3.8a1.77,1.77,0,0,1,1.25.78,1.8,1.8,0,0,1-.5,2.5l-.58.37,1.61,34.11a2.11,2.11,0,0,1,.19.23,1.79,1.79,0,0,1-.08,2.13l1.25,26.43s2,8.63-11.28,15.26c-11.14,5.57-27.43,7.4-45.32,7.84v.46a1.79,1.79,0,0,1-.64,1.37c17.1-.38,34.71-2,46.76-8.05,13.45-6.73,12.53-15.63,12.27-17.09l-3.31-70.21c0-.19-.21-5.57-.51-14l-1.8.2C312.35,328.92,312.55,334.29,312.55,334.29Z"/><path class="cls-2" d="M313.1,312.09v4.63l.61-.07c0-1.46-.11-3-.17-4.59Z"/><path class="cls-2" d="M312,318.65c0,.62,0,1.22.06,1.81l1.8-.2c0-.58,0-1.18-.07-1.8Z"/><path class="cls-2" d="M313.1,316.72v-4.63l-1.36.08c.09,2.29.16,4.46.24,6.48l1.79-.19c0-.59,0-1.19-.06-1.81Z"/><path class="cls-2" d="M322.21,147.69l-8.75,18.46c.72.34,1.15.56,1.26.62A1.8,1.8,0,1,1,313,170l-1.13-.54-1.65,3.48a2,2,0,0,0-.16.53c0,.15-1.3,9.59-2.11,24.66a1.8,1.8,0,0,1-.18,3.59c-.38,8.4-.59,18.27-.38,29.11,0,.81,0,1.65.06,2.5A1.81,1.81,0,0,1,309,235a1.79,1.79,0,0,1-1.47,1.87c.22,9.5.56,21.06.93,32.87a1.79,1.79,0,0,1,.1,3c.37,11.6.77,23.28,1.13,33.31a1.77,1.77,0,0,1,1.57-.93h2c-.36-10.07-.75-21.72-1.12-33.27l-.72-.16a1.8,1.8,0,0,1-1.32-2.18,1.77,1.77,0,0,1,1.92-1.35c-.31-9.69-.59-19.16-.8-27.4a1.79,1.79,0,0,1-.08-3.33c-.05-2.36-.1-4.6-.15-6.68-.14-7.28-.09-14.12.07-20.37-.61-.13-1.23-.26-1.86-.41a1.8,1.8,0,1,1,.86-3.5l1.11.25c.63-18.17,2.17-30.54,2.43-32.5l11.06-23.34c-.49-1.36-1-2.72-1.52-4.07A1.79,1.79,0,0,0,322.21,147.69Z"/><path class="cls-2" d="M311.3,320.52a1.85,1.85,0,0,1-1.07-.35c.31,8.52.52,14,.52,14.2l.21,4.33.53-.33a1.79,1.79,0,0,1,1.24-.28l-.18-3.8s-.2-5.37-.51-13.83l-.56.05Z"/><path class="cls-2" d="M251.16,426.07a1.79,1.79,0,0,1,1,.33h3.46V426c-1.9,0-3.79,0-5.66,0Z"/><path class="cls-2" d="M312.69,375.38a1.81,1.81,0,0,1,1.82.47l-1.61-34.11c-.39.25-1,.6-1.75,1Z"/><path class="cls-2" d="M314.24,378.58c-.12.08-.59.4-1.36.87l1.19,25.27a2.72,2.72,0,0,0,0,.3c.06.3,1.37,7.42-10.33,13.27-11.29,5.65-28.06,7.27-44.51,7.66v1.79c17.89-.44,34.18-2.27,45.32-7.84,13.27-6.63,11.28-15.26,11.28-15.26l-1.25-26.43A1.67,1.67,0,0,1,314.24,378.58Z"/><path class="cls-2" d="M311.3,312.19h-.08a1.78,1.78,0,0,1-1.3-.57c.11,3.09.22,5.95.31,8.54a1.85,1.85,0,0,0,1.07.35h.18l.56-.05c0-.59,0-1.19-.06-1.81l-.68.07Z"/><path class="cls-2" d="M309.73,306c0,.41,0,.81,0,1.21l.63-.11a1.72,1.72,0,0,1,.9.07v-.3h2.06l-.06-1.8h-2A1.77,1.77,0,0,0,309.73,306Z"/><path class="cls-2" d="M311.32,312.19h0v6.53l.68-.07c-.08-2-.15-4.19-.24-6.48Z"/><path class="cls-2" d="M311.3,306.89v.3a1.79,1.79,0,0,1,1.18,1.33l.94-.06-.06-1.57Z"/><path class="cls-2" d="M208.3,114.88s.14.2.39.5V91.81c-.33-.33-.66-.67-1-1l1-.92v-.64s6-17.42,37.83-17.42c29.32,0,43,5.07,45,14.8l1.94.86a20,20,0,0,1-1.65,2.84c0,8.89-.32,19.65-.44,23.84a1.77,1.77,0,0,1,1,.34,1.79,1.79,0,0,1,.7,1.87c5,1.3,19.47,5.84,25.46,16.18a105.24,105.24,0,0,1,6.92,15.15,1.66,1.66,0,0,1,.12.31,177.86,177.86,0,0,1,7.56,25.69c1.28,7.07,5,22.82,4.07,31a1.79,1.79,0,0,1,1.67,1.1,0,0,0,0,1,0,0v0c1.14-6.86-1.39-19.44-3.07-27.77-.36-1.8-.68-3.4-.92-4.71-1.44-7.94-7.46-29-14.82-41.72-6.5-11.25-22-15.89-26.92-17.12.12-4.12.45-16,.45-25.29,0-13.11-15-19.22-47.1-19.22C213.75,70,207.24,87.88,207,88.64a1.91,1.91,0,0,0-.1.58v24.92A1.82,1.82,0,0,1,208.3,114.88Z"/><path class="cls-2" d="M337.91,208.19l-1,.38c0,5.53,1.11,15.33,2.12,27.06a1.82,1.82,0,0,1,1.88.74c-.32-3.67-.64-7.16-.94-10.36-.77-8.15-1.39-14.83-1.24-18.53A1.76,1.76,0,0,1,337.91,208.19Z"/><path class="cls-2" d="M159.57,275.88a304,304,0,0,1,1.15-37.5,1.79,1.79,0,0,1,.19-2.21c1.05-12.21,2.24-22.4,2.17-27.94l-.17-.09a1.8,1.8,0,0,1-.82-2.41,1.87,1.87,0,0,1,.73-.77c-1.07-8.15,2.76-24.15,4.05-31.28a165,165,0,0,1,5.72-20.53l-.26-.39a1.79,1.79,0,0,1,.53-2.49,1.65,1.65,0,0,1,.84-.28,112.17,112.17,0,0,1,7.77-17.46c5.44-9.38,17.81-14,23.8-15.72a1.78,1.78,0,0,1,.11-1.91c-6,1.67-19.51,6.43-25.47,16.73-7.35,12.7-13.36,33.77-14.81,41.72-.24,1.31-.56,2.91-.92,4.71-1.68,8.33-4.21,20.91-3.07,27.77.52,3.07-.19,10.62-1.09,20.18-1.28,13.65-3,32.35-2.25,49.95.35,7.84.38,13.79.4,18.13,0,9.53.06,13.23,3.94,15v-2C158.92,304.77,160.58,298.54,159.57,275.88Z"/><path class="cls-2" d="M341.06,238.14a1.8,1.8,0,0,1-.93.91l-.77.3c.69,8.62,1.26,18.08,1.26,27.56a1.69,1.69,0,0,1,.47.64,1.79,1.79,0,0,1-.49,2.06c0,2.1-.08,4.19-.17,6.27-1.15,25.9,1.18,30.34-4.23,31.93v1.83c5.56-1.47,5.58-4.79,5.63-15.55,0-4.34.05-10.29.4-18.13A304.75,304.75,0,0,0,341.06,238.14Z"/><path class="cls-2" d="M313.54,312.06c3.92-.24,12.25-.83,19.06-1.76v-1.61H331c-6.49.82-13.91,1.34-17.53,1.57Q313.51,311.18,313.54,312.06Z"/><path class="cls-2" d="M169,308.69h-3.27v1.36l.91.14c6.29.9,14.15,1.5,18.59,1.79v-1.8C181.29,309.92,174.77,309.42,169,308.69Z"/><path class="cls-2" d="M334.4,308.2V310c.65-.12,1.25-.24,1.8-.39v-1.83A15.92,15.92,0,0,1,334.4,308.2Z"/><path class="cls-2" d="M331,308.69h1.59v1.61l.78-.11,1-.16V308.2c-.4.07-.82.14-1.27.2Z"/><path class="cls-2" d="M163.91,307.84a5.66,5.66,0,0,1-1.8-.8v2a10.52,10.52,0,0,0,1.8.61Z"/><path class="cls-2" d="M165.71,308.69H169l-2.11-.29a21.85,21.85,0,0,1-3-.56v1.83c.55.14,1.15.27,1.8.38Z"/><path class="cls-2" d="M185.21,310.18V312l1.25.08c0-.5,0-1,0-1.52a2.52,2.52,0,0,1-.12-.29Z"/><path class="cls-2" d="M336.39,226.35c.29,3.06.6,6.39.9,9.9.91-.3,1.42-.51,1.44-.52l.31-.1c-1-11.73-2.14-21.53-2.12-27.06-.46.16-1.07.37-1.8.59C335.16,213.19,335.7,219,336.39,226.35Z"/><path class="cls-2" d="M338.78,270.41c0,1.81-.07,3.61-.15,5.39-.35,7.91-.38,13.9-.4,18.27,0,8.83-.05,11.05-2.28,11.92a1.84,1.84,0,0,1,.25.9v.92c5.41-1.59,3.08-6,4.23-31.93.09-2.08.14-4.17.17-6.27a1.64,1.64,0,0,1-.47.3C340,270,339.56,270.14,338.78,270.41Z"/><path class="cls-2" d="M338.81,266.57a1.79,1.79,0,0,1,1.81.34c0-9.48-.57-18.94-1.26-27.56-.43.16-1,.36-1.77.59C338.26,248.26,338.8,257.43,338.81,266.57Z"/><path class="cls-2" d="M164.5,204.91l.14.06c-.93-6.27,1.47-18.24,3.07-26.2.37-1.82.69-3.45.94-4.77a160.7,160.7,0,0,1,5.19-18.92l-1.25-1.93a165,165,0,0,0-5.72,20.53c-1.29,7.13-5.12,23.13-4.05,31.28A1.81,1.81,0,0,1,164.5,204.91Z"/><path class="cls-2" d="M175.33,150.77a112.32,112.32,0,0,1,7.7-17.34c5.29-9.13,17.95-13.54,23.42-15.08-.63-.75-1-1.25-1.07-1.36a1.74,1.74,0,0,1-.11-.18c-6,1.74-18.36,6.34-23.8,15.72A112.17,112.17,0,0,0,173.7,150,1.77,1.77,0,0,1,175.33,150.77Z"/><path class="cls-2" d="M210.49,115.94V93.59c-.6-.56-1.2-1.15-1.8-1.78v23.57c.3.38.77,1,1.41,1.66A1.8,1.8,0,0,0,210.49,115.94Z"/><path class="cls-2" d="M162.76,235.68c.29-3.3.58-6.44.85-9.34.7-7.42,1.25-13.34,1.27-17.38-.91-.33-1.52-.6-1.8-.73.07,5.54-1.12,15.73-2.17,27.94A1.79,1.79,0,0,1,162.76,235.68Z"/><path class="cls-2" d="M210.82,88.84c1.78-3.53,9.64-15.24,35.69-15.24,26.95,0,41.14,4.34,43.22,13.22.28-.49.42-.79.43-.81l1.36.59c-2-9.73-15.68-14.8-45-14.8-31.86,0-37.83,17.42-37.83,17.42v.64l1.64-1.54C210.5,88.5,210.66,88.66,210.82,88.84Z"/><path class="cls-2" d="M163,305.33c-1.2-1.27-1.22-4.08-1.25-11.26,0-4.37-.05-10.36-.4-18.27-.09-2-.14-4-.17-6.07a1.8,1.8,0,0,1-.63-2.18,1.72,1.72,0,0,1,.62-.76c0-9.41.57-18.85,1.26-27.39-.53-.19-.85-.32-.92-.35a1.78,1.78,0,0,1-.81-.67,304,304,0,0,0-1.15,37.5c1,22.66-.65,28.89,2.54,31.16v-.15A1.8,1.8,0,0,1,163,305.33Z"/><path class="cls-2" d="M325.46,149.23l-.76,1.62A172.39,172.39,0,0,1,331.35,174c.24,1.32.57,2.95.94,4.77,1.62,8.07,4.08,20.26,3,26.47a.13.13,0,0,1,0,.06c.75-.25,1.18-.42,1.2-.43a1.63,1.63,0,0,1,.68-.14c1-8.23-2.79-24-4.07-31A177.86,177.86,0,0,0,325.57,148,1.84,1.84,0,0,1,325.46,149.23Z"/><path class="cls-2" d="M289.53,115.3c.2-.25.31-.4.32-.42a1.81,1.81,0,0,1,1.52-.74c.12-4.19.42-15,.44-23.84A27.44,27.44,0,0,1,290,92.68C289.93,102.08,289.61,112.75,289.53,115.3Z"/><path class="cls-2" d="M292,118c4.12,1,19.07,5.35,24.94,15.48a100.05,100.05,0,0,1,6.21,13.35,1.78,1.78,0,0,1,2.27.9,105.24,105.24,0,0,0-6.92-15.15c-6-10.34-20.45-14.88-25.46-16.18a2,2,0,0,1-.29.64C292.71,117.08,292.46,117.42,292,118Z"/><path class="cls-2" d="M331,308.69H313.42l.06,1.57C317.1,310,324.52,309.51,331,308.69Z"/><path class="cls-2" d="M185.21,308.69H169c5.79.73,12.31,1.23,16.23,1.49Z"/><path class="cls-2" d="M336,306a14.36,14.36,0,0,1-3.08.63l-2,.27h3.51v1.31a15.92,15.92,0,0,0,1.8-.39v-.92A1.84,1.84,0,0,0,336,306Z"/><path class="cls-2" d="M309.51,310.93a1.75,1.75,0,0,0,.41.7c0-.25,0-.51,0-.76Z"/><path class="cls-2" d="M330.89,306.89c-6.39.81-13.81,1.34-17.47,1.57v.23H331l2.12-.29c.45-.06.87-.13,1.27-.2v-1.31Z"/><path class="cls-2" d="M169.11,306.89l-2-.27c-2.07-.29-3.33-.48-4.11-1.29a1.8,1.8,0,0,0-.91,1.56V307a5.66,5.66,0,0,0,1.8.8v-.95Z"/><path class="cls-2" d="M169,308.69h16.23v1.49l1.18.07a1.74,1.74,0,0,1,0-.82,1.59,1.59,0,0,1,.23-.62v-.35c-3.66-.23-11.08-.76-17.47-1.57h-5.2v.95a21.85,21.85,0,0,0,3,.56Z"/><path class="cls-2" d="M325.45,147.68l.12.31A1.66,1.66,0,0,0,325.45,147.68Z"/><path class="cls-2" d="M313.48,310.26l-.38,0v1.8l.44,0Q313.51,311.18,313.48,310.26Z"/><path class="cls-2" d="M311.76,310.37l-.08,0c0,.6,0,1.18.06,1.76l1.36-.08v-1.8Z"/><path class="cls-2" d="M324.61,146.83a1.79,1.79,0,0,0-1.43-.05c.52,1.35,1,2.71,1.52,4.07l.76-1.62a1.84,1.84,0,0,0,.11-1.24l-.12-.31A1.78,1.78,0,0,0,324.61,146.83Z"/><path class="cls-2" d="M313.1,310.29l.38,0-.06-1.57h-.32Z"/><path class="cls-2" d="M311.06,310.66l-1.16.21c0,.25,0,.51,0,.76a1.78,1.78,0,0,0,1.3.57h.08v-1.6A1.09,1.09,0,0,1,311.06,310.66Z"/><path class="cls-2" d="M311.3,310.59v1.6h0l.42,0c0-.58,0-1.16-.06-1.76A1.46,1.46,0,0,1,311.3,310.59Z"/><path class="cls-2" d="M312.5,308.56a1.82,1.82,0,0,1-.74,1.81l1.34-.08v-1.6h.32v-.23l-.94.06S312.49,308.55,312.5,308.56Z"/><path class="cls-2" d="M237.25,427.64c-16.52-.6-31.43-2.53-41.84-7.74-13.27-6.63-11.28-15.26-11.28-15.26l3-62.76c-.39-.24-.63-.4-.71-.46a1.79,1.79,0,0,1,.89-3.28l.18-3.85s.2-5.46.51-14a1.75,1.75,0,0,1-1,.27h-.19l-.67-.07c-.3,8.28-.49,13.58-.5,13.76l-3.31,70.23c-.26,1.46-1.18,10.36,12.27,17.09,11.2,5.6,27.22,7.41,43.16,8a1.83,1.83,0,0,1-.52-1.27Z"/><path class="cls-2" d="M187,320.52a1.75,1.75,0,0,0,1-.27c.09-2.46.19-5.17.29-8.08L187,312.1v6.62l-.79-.08c0,.61,0,1.22-.07,1.8l.67.07Z"/><path class="cls-2" d="M186.22,318.64l.79.08V312.1l-.55,0C186.37,314.39,186.29,316.59,186.22,318.64Z"/><path class="cls-2" d="M250,426.06c-3,0-6.07,0-9.15-.11v.45h7a1.79,1.79,0,0,1,1-.33Z"/><path class="cls-2" d="M191.5,269.44c.37-11.68.71-23.11.93-32.51l-.69,0a1.8,1.8,0,0,1,.16-3.6l.61,0c0-.86,0-1.71.06-2.53.21-10.55,0-20.19-.35-28.45l-2.05.26a1,1,0,0,1-.24,0,1.79,1.79,0,0,1-1.33-.6q.1,2.25.18,4.65l.42-.1a1.8,1.8,0,0,1,.85,3.5c-.39.1-.77.16-1.15.25.16,6.25.21,13.1.07,20.4-.05,2.09-.1,4.33-.15,6.7l.52-.12a1.8,1.8,0,1,1,.86,3.5l-1.48.33c-.21,8.25-.49,17.7-.79,27.35.47-.1.94-.2,1.41-.32A1.8,1.8,0,0,1,191.5,269.44Z"/><path class="cls-2" d="M188.39,338.43a7.25,7.25,0,0,0,.65.41l.21-4.48c0-.25.35-9.38.82-22.5l-.17,0a1.61,1.61,0,0,1-1.09.36v6.53a1.79,1.79,0,0,1-.59,1.34,2.48,2.48,0,0,1-.26.19c-.31,8.58-.51,14-.51,14l-.18,3.85A1.75,1.75,0,0,1,188.39,338.43Z"/><path class="cls-2" d="M188.49,273a1.86,1.86,0,0,1-.7-.27c-.36,11.24-.74,22.54-1.09,32.34H187a1.79,1.79,0,0,1,1.8,1.8V308l1.39.22c.36-10.29.78-22.56,1.18-34.79Z"/><path class="cls-2" d="M196.22,418.29c-11.7-5.85-10.39-13-10.34-13.24a1.88,1.88,0,0,0,.05-.33l1.21-25.61-.81-.55a1.8,1.8,0,0,1,1-3.26l1.52-32.37c-.74-.43-1.34-.79-1.75-1.05l-3,62.76s-2,8.63,11.28,15.26c10.41,5.21,25.32,7.14,41.84,7.74v-1.79C221.94,425.31,206.72,423.54,196.22,418.29Z"/><path class="cls-2" d="M188.49,199.75a1.81,1.81,0,0,1,1.21-.72l2.35-.3c-.81-15.44-2.13-25.15-2.16-25.3a1.84,1.84,0,0,0-.27-.74l-2.24-3.43c-.66.31-1,.49-1,.51a1.81,1.81,0,1,1-1.69-3.19l.75-.37-10.05-15.42,0,0c-.52,1.44-1,2.89-1.49,4.31l12.54,19.24C186.64,176.31,187.79,185.73,188.49,199.75Z"/><path class="cls-2" d="M188.42,308l.39.06v-1.13a1.79,1.79,0,0,0-1.8-1.8h-.31l-.06,1.8H187v1.43A1.84,1.84,0,0,1,188.42,308Z"/><path class="cls-2" d="M188.81,318.72v-6.53h-.13l-.43,0c-.1,2.91-.2,5.62-.29,8.08a2.48,2.48,0,0,0,.26-.19A1.79,1.79,0,0,0,188.81,318.72Z"/><path class="cls-2" d="M187,308.32v-1.43h-.37l-.06,1.57.25,0A1.37,1.37,0,0,1,187,308.32Z"/><path class="cls-2" d="M250,426.06h-1.16a1.79,1.79,0,0,0-1,.33h4.4a1.79,1.79,0,0,0-1-.33Z"/><path class="cls-2" d="M172.86,150.27a1.79,1.79,0,0,0-.53,2.49l.26.39c.36-1.05.73-2.11,1.11-3.16A1.65,1.65,0,0,0,172.86,150.27Z"/><path class="cls-2" d="M187.81,311.51a1.83,1.83,0,0,1-.8-.36v1l1.24.07,0-.59Z"/><path class="cls-2" d="M186.51,310.54c0,.52,0,1,0,1.52l.55,0v-1A1.84,1.84,0,0,1,186.51,310.54Z"/><path class="cls-2" d="M175.33,150.77a1.77,1.77,0,0,0-1.63-.78c-.38,1-.75,2.11-1.11,3.16l1.25,1.93C174.32,153.66,174.81,152.21,175.33,150.77Z"/><path class="cls-2" d="M188.81,312.19a1.61,1.61,0,0,0,1.09-.36l-1.09-.16Z"/><path class="cls-2" d="M188.81,312.19v-.52l-.53-.09,0,.59.43,0Z"/><path class="cls-2" d="M186.83,308.48l-.25,0v.35A1.64,1.64,0,0,1,186.83,308.48Z"/><path class="cls-2" d="M237.25,103.91a1.8,1.8,0,0,1,1.8-1.81h18.42a1.81,1.81,0,0,1,1.8,1.81v1h.8c16.53,0,25.55-7.12,29.93-12.29,0-1.18,0-2.34,0-3.46a10.51,10.51,0,0,0-.28-2.4C287.91,90,280,101.37,260,101.37H259c-3.09-.06-6-.09-8.66-.11-19.05-.15-27.89-.24-39.51-12.41-.15.3-.26.55-.33.72v4c8.52,8.08,16.1,10.29,26.76,11Z"/><path class="cls-2" d="M291.81,86.73l-.17.35a13.64,13.64,0,0,1,.17,2.14V90.3a20,20,0,0,0,1.65-2.84l-1.94-.86c0,.05,0,.1,0,.14Z"/><path class="cls-2" d="M207.7,90.78c.33.36.66.7,1,1v-2Z"/><path class="cls-2" d="M289.73,86.82a10.51,10.51,0,0,1,.28,2.4c0,1.12,0,2.28,0,3.46a27.44,27.44,0,0,0,1.81-2.38V89.22a13.64,13.64,0,0,0-.17-2.14l.17-.35h-.25s0-.09,0-.14L290.16,86S290,86.33,289.73,86.82Z"/><path class="cls-2" d="M210.49,93.59v-4c.07-.17.18-.42.33-.72-.16-.18-.32-.34-.49-.52l-1.64,1.54v2C209.29,92.44,209.89,93,210.49,93.59Z"/><path class="cls-2" d="M251.16,429.67h-2.4c-3.62,0-7.3-.07-11-.19a1.8,1.8,0,0,0,1.28.53h18.42a1.84,1.84,0,0,0,1.16-.43c-2.48.05-4.95.08-7.39.09Z"/><path class="cls-2" d="M258.33,388.5a1.78,1.78,0,0,1,.94-1.37V353.6a1.8,1.8,0,0,1,0-3.45V313.74a1.79,1.79,0,0,1,0-3.47V275.84l-1.1-.17a1.8,1.8,0,1,1,.59-3.55l.51.07V237.41a1.81,1.81,0,0,1-.62-1.41,1.73,1.73,0,0,1,.62-1.28V199.34l-.3,0a1.8,1.8,0,0,1-.36-3.58l.66-.06V160.85l-.33,0a1.83,1.83,0,0,1-1.94-1.65,1.8,1.8,0,0,1,1.65-1.94l.62,0V134.19a1.8,1.8,0,0,1,0-3.33V105h-.35c-3.08-.06-5.94-.08-8.62-.11-4.89,0-9.17-.07-13.05-.31V130.7c.31,0,.63,0,.95,0a1.8,1.8,0,0,1,0,3.6c-.32,0-.64,0-.95,0v23.07l1.28.09a1.79,1.79,0,0,1,1.64,1.94,1.84,1.84,0,0,1-1.94,1.65l-1-.07v34.76l.48,0a1.8,1.8,0,0,1,1.62,2,1.78,1.78,0,0,1-2,1.61h-.13v35.24a1.74,1.74,0,0,1,.45,1.13,1.79,1.79,0,0,1-.45,1.23v35.22l.34-.05a1.8,1.8,0,0,1,.59,3.55l-.93.14v34.54a1.79,1.79,0,0,1,.18,3.58l-.18,0v36.21c.31,0,.63,0,.94-.08a1.8,1.8,0,1,1,.37,3.59l-1.31.12V387l.59-.06a1.8,1.8,0,1,1,.44,3.58l-1,.11v35.24c1.2,0,2.4.08,3.6.1V105.71h14.81V426l3.61-.07V390.29A1.8,1.8,0,0,1,258.33,388.5Z"/><path class="cls-2" d="M259.27,428.2v-.46l-1.8.05v.41h-4.54a1.79,1.79,0,0,1-1.69,1.46c2.44,0,4.91,0,7.39-.09A1.79,1.79,0,0,0,259.27,428.2Z"/><path class="cls-2" d="M248.84,429.67h0Z"/><path class="cls-2" d="M255.66,426v.38H252.2a1.79,1.79,0,0,1,.76,1.47,1.84,1.84,0,0,1,0,.33h4.54v-.41l1.8-.05V426Z"/><path class="cls-2" d="M247.07,428.2h-8v-.5l-1.8-.06v.56a1.83,1.83,0,0,0,.52,1.27c3.69.12,7.37.18,11,.19A1.79,1.79,0,0,1,247.07,428.2Z"/><path class="cls-2" d="M251.16,429.67h0Z"/><path class="cls-2" d="M247.8,426.4h-7V426c-1.2,0-2.4-.06-3.6-.1v1.79l1.8.06v.5h8a1.84,1.84,0,0,1,0-.33A1.79,1.79,0,0,1,247.8,426.4Z"/><path class="cls-2" d="M248.76,429.66h2.48a1.79,1.79,0,0,0,1.69-1.46h-5.86A1.79,1.79,0,0,0,248.76,429.66Z"/><path class="cls-2" d="M252.2,426.4h-4.4a1.79,1.79,0,0,0-.76,1.47,1.84,1.84,0,0,0,0,.33h5.86a1.84,1.84,0,0,0,0-.33A1.79,1.79,0,0,0,252.2,426.4Z"/><path class="cls-2" d="M257.47,102.1H239.05a1.8,1.8,0,0,0-1.8,1.81v.63c3.88.24,8.16.27,13.05.31,2.68,0,5.54.05,8.62.11h.35v-1A1.81,1.81,0,0,0,257.47,102.1Z"/><path class="cls-2" d="M260,130.73a1.91,1.91,0,0,0-.68.13v3.33a1.72,1.72,0,0,0,.68.14c17.58,0,29.11-12.7,32.08-16.38L291,117.7a1.81,1.81,0,0,1-1.45-1.82s0-.23,0-.58C287.55,117.8,276.5,130.73,260,130.73Z"/><path class="cls-2" d="M293.07,116.35a1.79,1.79,0,0,0-.7-1.87,1.77,1.77,0,0,0-1-.34c0,1.13-.06,1.8-.06,1.8S292,116.07,293.07,116.35Z"/><path class="cls-2" d="M289.85,114.88s-.12.17-.32.42c0,.35,0,.56,0,.58A1.81,1.81,0,0,0,291,117.7L292,118c.43-.53.68-.87.75-1a2,2,0,0,0,.29-.64c-1.1-.28-1.76-.41-1.76-.41s0-.67.06-1.8A1.81,1.81,0,0,0,289.85,114.88Z"/><path class="cls-2" d="M258.15,132.53a1.79,1.79,0,0,0,1.12,1.66v-3.33A1.81,1.81,0,0,0,258.15,132.53Z"/><path class="cls-2" d="M206.88,114.14a1.81,1.81,0,0,0-1.1.34,1.77,1.77,0,0,0-.4.42l1.5-.4Z"/><path class="cls-2" d="M237.25,134.3v-3.6c-13.58-.41-23.31-9.43-27.15-13.66a1.77,1.77,0,0,1-1.06.66s-1,.21-2.59.65C209.81,122.39,220.8,133.87,237.25,134.3Z"/><path class="cls-2" d="M205.27,116.81c.71-.21,1.34-.37,1.85-.5l-.28-.37.56.29c.79-.19,1.29-.29,1.29-.29v-.56c-.25-.3-.38-.48-.39-.5a1.82,1.82,0,0,0-1.42-.74v.36l-1.5.4A1.78,1.78,0,0,0,205.27,116.81Z"/><path class="cls-2" d="M206.45,118.35c1.57-.44,2.55-.64,2.59-.65a1.77,1.77,0,0,0,1.06-.66c-.64-.71-1.11-1.28-1.41-1.66v.56s-.5.1-1.29.29l-.56-.29.28.37c-.51.13-1.14.29-1.85.5a1.74,1.74,0,0,0,.11.18C205.45,117.1,205.82,117.6,206.45,118.35Z"/><path class="cls-2" d="M238.2,134.33a1.8,1.8,0,0,0,0-3.6c-.32,0-.64,0-.95,0v3.6C237.56,134.31,237.88,134.33,238.2,134.33Z"/><path class="cls-2" d="M307.61,201.67h.2c.06-1.23.11-2.43.18-3.59h0c-1.44-.15-35-3.53-48.71-2.37v3.62C272.43,198.12,307.26,201.64,307.61,201.67Z"/><path class="cls-2" d="M309.59,200.06a1.81,1.81,0,0,0-1.6-2c-.07,1.16-.12,2.36-.18,3.59A1.81,1.81,0,0,0,309.59,200.06Z"/><path class="cls-2" d="M258.61,195.78a1.8,1.8,0,0,0,.36,3.58l.3,0v-3.62Z"/><path class="cls-2" d="M270.51,238c17.44,0,36.61-1.14,36.84-1.15l.22,0c0-1.22-.06-2.4-.08-3.54a1.45,1.45,0,0,0-.36,0c-.27,0-27.67,1.66-46.62,1a2,2,0,0,0-1.24.46v2.69a1.73,1.73,0,0,0,1.12.45C263.58,238,267,238,270.51,238Z"/><path class="cls-2" d="M309,235a1.81,1.81,0,0,0-1.55-1.67c0,1.14.05,2.32.08,3.54A1.79,1.79,0,0,0,309,235Z"/><path class="cls-2" d="M258.65,236a1.81,1.81,0,0,0,.62,1.41v-2.69A1.73,1.73,0,0,0,258.65,236Z"/><path class="cls-2" d="M307.86,273a1.88,1.88,0,0,0,.74-.31c0-1-.06-2-.1-3a1.68,1.68,0,0,0-1.21-.24c-.33.05-32.37,5.12-48,2.73v3.65a79.61,79.61,0,0,0,10.49.6C286.22,276.44,306.77,273.19,307.86,273Z"/><path class="cls-2" d="M309.35,271a1.76,1.76,0,0,0-.85-1.25c0,1,.07,2,.1,3A1.78,1.78,0,0,0,309.35,271Z"/><path class="cls-2" d="M258.76,272.12a1.8,1.8,0,1,0-.59,3.55l1.1.17v-3.65Z"/><path class="cls-2" d="M309.43,310.49a2.09,2.09,0,0,1,.06-.56v-2.65c-4.88.83-28.92,4.67-49.61,2.93a1.76,1.76,0,0,0-.61.06v3.47a1.55,1.55,0,0,0,.31.06c3.85.32,7.82.46,11.76.46a248.64,248.64,0,0,0,38.15-3.33v-.05A1.59,1.59,0,0,1,309.43,310.49Z"/><path class="cls-2" d="M309.49,310.93h0s0,0,0-.05Z"/><path class="cls-2" d="M309.49,309.93a1.91,1.91,0,0,1,.35-.68c0-.66,0-1.34-.07-2l-.28,0Z"/><path class="cls-2" d="M310.4,307.12l-.63.11c0,.68.05,1.36.07,2a1.78,1.78,0,0,1,1.29-.65h.17v-1.4A1.72,1.72,0,0,0,310.4,307.12Z"/><path class="cls-2" d="M312.48,308.52a1.79,1.79,0,0,0-1.18-1.33v1.4Z"/><path class="cls-2" d="M309.49,310.88v-.95a2.09,2.09,0,0,0-.06.56A1.59,1.59,0,0,0,309.49,310.88Z"/><path class="cls-2" d="M309.49,309.93v.95s0,0,0,.05l.39-.06-.06-1.62A1.91,1.91,0,0,0,309.49,309.93Z"/><path class="cls-2" d="M311.68,310.41l.08,0h-.08Z"/><path class="cls-2" d="M311.13,308.6a1.78,1.78,0,0,0-1.29.65l.06,1.62,1.16-.21a1.09,1.09,0,0,0,.24-.07v-2Z"/><path class="cls-2" d="M311.3,310.59a1.46,1.46,0,0,0,.38-.18v0h.08a1.82,1.82,0,0,0,.74-1.81s0,0,0,0l-1.18.07Z"/><path class="cls-2" d="M257.93,311.85a1.81,1.81,0,0,0,1.34,1.89v-3.47A1.8,1.8,0,0,0,257.93,311.85Z"/><path class="cls-2" d="M260,350.08a1.8,1.8,0,0,0-.7.07v3.45a1.86,1.86,0,0,0,.34.07c2.83.28,5.6.41,8.28.41a90,90,0,0,0,43.26-11.3L311,338.7C307.46,340.84,286.66,352.71,260,350.08Z"/><path class="cls-2" d="M313.48,341.37a1.8,1.8,0,0,0,.5-2.5,1.77,1.77,0,0,0-1.25-.78l.17,3.65Z"/><path class="cls-2" d="M311.49,338.37l-.53.33.19,4.08c.77-.44,1.36-.79,1.75-1l-.17-3.65A1.79,1.79,0,0,0,311.49,338.37Z"/><path class="cls-2" d="M258,351.7a1.79,1.79,0,0,0,1.27,1.9v-3.45A1.78,1.78,0,0,0,258,351.7Z"/><path class="cls-2" d="M260.33,386.92a1.81,1.81,0,0,0-1.06.21v3.16a1.73,1.73,0,0,0,.64.21,85.43,85.43,0,0,0,53-11.05l-.19-4.07a1.83,1.83,0,0,0-.49.23C312,375.76,290.11,390.45,260.33,386.92Z"/><path class="cls-2" d="M314.7,376.08a2.11,2.11,0,0,0-.19-.23l.11,2.36A1.79,1.79,0,0,0,314.7,376.08Z"/><path class="cls-2" d="M312.69,375.38l.19,4.07c.77-.47,1.24-.79,1.36-.87a1.67,1.67,0,0,0,.38-.37l-.11-2.36A1.81,1.81,0,0,0,312.69,375.38Z"/><path class="cls-2" d="M258.33,388.5a1.8,1.8,0,0,0,.94,1.79v-3.16A1.78,1.78,0,0,0,258.33,388.5Z"/><path class="cls-2" d="M192.05,198.73c.06,1.17.11,2.38.17,3.61,7.51-.94,33.88-4.05,45-3v-3.61C225.55,194.71,200,197.73,192.05,198.73Z"/><path class="cls-2" d="M188.15,201.06a1.83,1.83,0,0,0,.45,1c0-.77-.07-1.53-.11-2.27A1.8,1.8,0,0,0,188.15,201.06Z"/><path class="cls-2" d="M189.93,202.62a1,1,0,0,0,.24,0l2.05-.26c-.06-1.23-.11-2.44-.17-3.61l-2.35.3a1.81,1.81,0,0,0-1.21.72c0,.74.07,1.5.11,2.27A1.79,1.79,0,0,0,189.93,202.62Z"/><path class="cls-2" d="M237.38,199.36a1.78,1.78,0,0,0,2-1.61,1.8,1.8,0,0,0-1.62-2l-.48,0v3.61Z"/><path class="cls-2" d="M235.85,234c-16.33.41-39.33-.47-43.34-.64,0,1.17,0,2.37-.08,3.61,3.44.13,19.36.74,34,.74,3.29,0,6.51,0,9.51-.11a1.79,1.79,0,0,0,1.31-.61v-2.36A1.92,1.92,0,0,0,235.85,234Z"/><path class="cls-2" d="M190,235a1.81,1.81,0,0,0,1.72,1.88l.69,0c0-1.24.06-2.44.08-3.61l-.61,0A1.83,1.83,0,0,0,190,235Z"/><path class="cls-2" d="M237.7,235.72a1.74,1.74,0,0,0-.45-1.13V237A1.79,1.79,0,0,0,237.7,235.72Z"/><path class="cls-2" d="M187.3,272.27a1.86,1.86,0,0,0,.49.48c0-.2,0-.39,0-.58Z"/><path class="cls-2" d="M191.57,269.84a1.86,1.86,0,0,1-.1.66l-.09,2.95c6.39.93,22.1,3,35.21,3a76.83,76.83,0,0,0,10.66-.63v-3.64C224.2,274.22,199.49,271,191.57,269.84Z"/><path class="cls-2" d="M191.38,273.45l.09-2.95a1.77,1.77,0,0,1-1.27,1.16c-.81.2-1.6.36-2.39.51,0,.19,0,.38,0,.58a1.86,1.86,0,0,0,.7.27Z"/><path class="cls-2" d="M238.18,275.67a1.8,1.8,0,0,0-.59-3.55l-.34.05v3.64Z"/><path class="cls-2" d="M237.25,314v-3.6h-.13c-19.53,1.66-40.75-1.17-46.92-2.1,0,.34,0,.68,0,1a1.76,1.76,0,0,1,.41,1.24,1.82,1.82,0,0,1-.5,1.18v.19a248,248,0,0,0,34.23,2.59C228.58,314.45,233,314.3,237.25,314Z"/><path class="cls-2" d="M186.39,310.25a2.52,2.52,0,0,0,.12.29v-.28Z"/><path class="cls-2" d="M190.57,310.49a1.76,1.76,0,0,0-.41-1.24c0,.82-.06,1.63-.09,2.42A1.82,1.82,0,0,0,190.57,310.49Z"/><path class="cls-2" d="M186.57,308.81a1.59,1.59,0,0,0-.23.62,1.74,1.74,0,0,0,0,.82h.13C186.54,309.78,186.55,309.3,186.57,308.81Z"/><path class="cls-2" d="M189.9,311.83l.17,0v-.19A1.29,1.29,0,0,1,189.9,311.83Z"/><path class="cls-2" d="M188.81,308.59h.06a1.82,1.82,0,0,1,1.29.65c0-.33,0-.67,0-1l-1.39-.22Z"/><path class="cls-2" d="M188.42,308a1.84,1.84,0,0,0-1.41.36v.17l1.8.1V308Z"/><path class="cls-2" d="M186.83,308.48H187v-.17A1.37,1.37,0,0,0,186.83,308.48Z"/><path class="cls-2" d="M187,310.29v.86a1.83,1.83,0,0,0,.8.36l.47.07c0-.4,0-.8,0-1.21Z"/><path class="cls-2" d="M186.52,310.26v.28a1.84,1.84,0,0,0,.5.61v-.86Z"/><path class="cls-2" d="M190.07,311.67c0-.79.06-1.6.09-2.42a1.82,1.82,0,0,0-1.29-.65h-.06v3.08l1.09.16A1.29,1.29,0,0,0,190.07,311.67Z"/><path class="cls-2" d="M187,308.49v1.8l1.31.08c0,.41,0,.81,0,1.21l.53.09v-3.08Z"/><path class="cls-2" d="M187,310.29v-1.8h-.18a1.64,1.64,0,0,0-.26.33c0,.49,0,1,0,1.45Z"/><path class="cls-2" d="M237.43,313.93a1.79,1.79,0,0,0-.18-3.58V314Z"/><path class="cls-2" d="M237.25,353.79v-3.63c-24.7,2.24-44.46-9-48.21-11.32l-.2,4.09a86.62,86.62,0,0,0,41.76,11.15Q233.86,354.08,237.25,353.79Z"/><path class="cls-2" d="M185.89,338.92a1.8,1.8,0,0,0,.49,2.5c.08.06.32.22.71.46l.18-3.74A1.8,1.8,0,0,0,185.89,338.92Z"/><path class="cls-2" d="M189,338.84a7.25,7.25,0,0,1-.65-.41,1.75,1.75,0,0,0-1.12-.29l-.18,3.74c.41.26,1,.62,1.75,1.05Z"/><path class="cls-2" d="M238.56,353.67a1.8,1.8,0,1,0-.37-3.59c-.31,0-.63.06-.94.08v3.63Z"/><path class="cls-2" d="M237.25,390.61V387a76,76,0,0,1-48.82-11.35,1.81,1.81,0,0,0-1.11-.33l-.18,3.81a78.7,78.7,0,0,0,41.68,12A76.81,76.81,0,0,0,237.25,390.61Z"/><path class="cls-2" d="M185.92,376.05a1.8,1.8,0,0,0,.41,2.51l.81.55.18-3.81A1.8,1.8,0,0,0,185.92,376.05Z"/><path class="cls-2" d="M238.28,390.5a1.8,1.8,0,1,0-.44-3.58l-.59.06v3.63Z"/><path class="cls-2" d="M188.9,210.32c0-1.24-.07-2.46-.12-3.65a39.65,39.65,0,0,1-24.14-1.7,2.48,2.48,0,0,0,0,.27,22.82,22.82,0,0,1,.21,3.72,42,42,0,0,0,14.31,2.43A46.37,46.37,0,0,0,188.9,210.32Z"/><path class="cls-2" d="M162.82,205a1.87,1.87,0,0,0-.73.77,1.8,1.8,0,0,0,.82,2.41l.17.09a17.84,17.84,0,0,0-.19-2.7C162.86,205.35,162.85,205.15,162.82,205Z"/><path class="cls-2" d="M164.67,205.24a2.48,2.48,0,0,1,0-.27l-.14-.06a1.81,1.81,0,0,0-1.68.05c0,.19,0,.39.07.57a17.84,17.84,0,0,1,.19,2.7c.28.13.89.4,1.8.73A22.82,22.82,0,0,0,164.67,205.24Z"/><path class="cls-2" d="M191.37,207.89a1.79,1.79,0,0,0-2.17-1.32l-.42.1c.05,1.19.08,2.41.12,3.65.38-.09.76-.15,1.15-.25A1.8,1.8,0,0,0,191.37,207.89Z"/><path class="cls-2" d="M188.72,241.13c0-1.26.07-2.5.1-3.71a46.84,46.84,0,0,1-25.9-1.69l-.16,0c-.11,1.22-.21,2.46-.31,3.72a49.94,49.94,0,0,0,16.44,2.74A47.63,47.63,0,0,0,188.72,241.13Z"/><path class="cls-2" d="M160.57,236.69a1.8,1.8,0,0,0,.15,1.69c.06-.74.13-1.48.19-2.21A1.8,1.8,0,0,0,160.57,236.69Z"/><path class="cls-2" d="M161.53,239.05c.07,0,.39.16.92.35.1-1.26.2-2.5.31-3.72a1.79,1.79,0,0,0-1.85.49c-.06.73-.13,1.47-.19,2.21A1.78,1.78,0,0,0,161.53,239.05Z"/><path class="cls-2" d="M191.52,238.62a1.81,1.81,0,0,0-2.18-1.32l-.52.12c0,1.21-.06,2.45-.1,3.71l1.48-.33A1.8,1.8,0,0,0,191.52,238.62Z"/><path class="cls-2" d="M178.89,273a48.48,48.48,0,0,0,8.41-.73A1.78,1.78,0,0,1,187,271a1.83,1.83,0,0,1,.89-1.29c0-.39,0-.79,0-1.18a46.89,46.89,0,0,1-25-1.89,1.78,1.78,0,0,0-1.73.2c0,1,0,2,0,2.94a1.74,1.74,0,0,0,.33.18A48.27,48.27,0,0,0,178.89,273Z"/><path class="cls-2" d="M191.57,269.84a2.23,2.23,0,0,0,0-.36l0,0v.38Z"/><path class="cls-2" d="M160.57,267.55a1.8,1.8,0,0,0,.63,2.18c0-1,0-2,0-2.94A1.72,1.72,0,0,0,160.57,267.55Z"/><path class="cls-2" d="M189.06,269.46c.05,0,.93.15,2.43.36v-.38a1.8,1.8,0,0,0-2.16-1.28c-.47.12-.94.22-1.41.32,0,.39,0,.79,0,1.18A1.73,1.73,0,0,1,189.06,269.46Z"/><path class="cls-2" d="M187.89,269.66A1.83,1.83,0,0,0,187,271a1.78,1.78,0,0,0,.3,1.32l.51-.1C187.84,271.34,187.87,270.5,187.89,269.66Z"/><path class="cls-2" d="M191.47,270.5a1.86,1.86,0,0,0,.1-.66l-.08,0Z"/><path class="cls-2" d="M190.2,271.66a1.77,1.77,0,0,0,1.27-1.16l0-.68c-1.5-.21-2.38-.35-2.43-.36a1.73,1.73,0,0,0-1.17.2c0,.84,0,1.68-.08,2.51C188.6,272,189.39,271.86,190.2,271.66Z"/><path class="cls-2" d="M338.88,205.86a13.61,13.61,0,0,0-.14,1.62A1.78,1.78,0,0,0,338.88,205.86Z"/><path class="cls-2" d="M311.21,206.69c0,1.19-.07,2.42-.11,3.66a47.87,47.87,0,0,0,9.45.93,51.09,51.09,0,0,0,14.57-2.12,23.56,23.56,0,0,1,.2-3.86A47.24,47.24,0,0,1,311.21,206.69Z"/><path class="cls-2" d="M310.1,206.44a1.8,1.8,0,1,0-.86,3.5c.63.15,1.25.28,1.86.41,0-1.24.07-2.47.11-3.66Z"/><path class="cls-2" d="M337.2,204.73c0,.27-.05.55-.09.8a19.4,19.4,0,0,0-.19,3l1-.38a1.76,1.76,0,0,0,.83-.71,13.61,13.61,0,0,1,.14-1.62,0,0,0,0,0,0,0A1.79,1.79,0,0,0,337.2,204.73Z"/><path class="cls-2" d="M335.32,205.3a23.56,23.56,0,0,0-.2,3.86c.73-.22,1.34-.43,1.8-.59a19.4,19.4,0,0,1,.19-3c0-.25.06-.53.09-.8a1.63,1.63,0,0,0-.68.14S336.07,205.05,335.32,205.3Z"/><path class="cls-2" d="M341.09,236.69a3.24,3.24,0,0,0-.17-.32c.05.59.09,1.18.14,1.77A1.78,1.78,0,0,0,341.09,236.69Z"/><path class="cls-2" d="M312.32,237.3a1.84,1.84,0,0,0-1.14.1c0,1.09.06,2.2.08,3.33l.2.07a47.5,47.5,0,0,0,11.31,1.34,51.11,51.11,0,0,0,14.82-2.2q-.15-1.87-.3-3.69A47.08,47.08,0,0,1,312.32,237.3Z"/><path class="cls-2" d="M310.14,238.62a1.8,1.8,0,0,0,1.12,2.11c0-1.13-.05-2.24-.08-3.33A1.8,1.8,0,0,0,310.14,238.62Z"/><path class="cls-2" d="M339,235.63c.11,1.22.21,2.46.32,3.72l.77-.3a1.8,1.8,0,0,0,.93-.91c-.05-.59-.09-1.18-.14-1.77A1.82,1.82,0,0,0,339,235.63Z"/><path class="cls-2" d="M338.73,235.73s-.53.22-1.44.52q.15,1.81.3,3.69c.75-.23,1.34-.43,1.77-.59-.11-1.26-.21-2.5-.32-3.72Z"/><path class="cls-2" d="M312.32,268.16l-.26,0,.12,3.69A47.82,47.82,0,0,0,322.77,273a50.29,50.29,0,0,0,16-2.59c0-1.28,0-2.56,0-3.84l-.08,0A46.81,46.81,0,0,1,312.32,268.16Z"/><path class="cls-2" d="M310.14,269.48a1.8,1.8,0,0,0,1.32,2.18l.72.16-.12-3.69A1.77,1.77,0,0,0,310.14,269.48Z"/><path class="cls-2" d="M340.6,269.61a1.79,1.79,0,0,0,.49-2.06,1.69,1.69,0,0,0-.47-.64C340.62,267.81,340.61,268.71,340.6,269.61Z"/><path class="cls-2" d="M338.81,266.57c0,1.28,0,2.56,0,3.84.78-.27,1.26-.46,1.35-.5a1.64,1.64,0,0,0,.47-.3c0-.9,0-1.8,0-2.7A1.79,1.79,0,0,0,338.81,266.57Z"/><path class="cls-2" d="M185.4,166.21l2,3c4.6-2.14,23.87-10.17,49.87-8.28v-3.61C209.36,155.43,189.46,164.23,185.4,166.21Z"/><path class="cls-2" d="M184.65,166.58a1.81,1.81,0,0,0,1.69,3.19s.38-.2,1-.51l-2-3Z"/><path class="cls-2" d="M238.23,161.05a1.84,1.84,0,0,0,1.94-1.65,1.79,1.79,0,0,0-1.64-1.94l-1.28-.09V161Z"/><path class="cls-2" d="M311.91,169.42l1.55-3.27c-5.2-2.45-25.79-11.07-54.19-8.91v3.61C286.67,158.69,307,167.15,311.91,169.42Z"/><path class="cls-2" d="M313,170a1.8,1.8,0,0,0,1.68-3.19c-.11-.06-.54-.28-1.26-.62l-1.55,3.27Z"/><path class="cls-2" d="M258.65,157.28a1.8,1.8,0,0,0-1.65,1.94,1.83,1.83,0,0,0,1.94,1.65l.33,0v-3.61Z"/></g></svg>