<svg xmlns="http://www.w3.org/2000/svg" viewBox="0 0 500 500"><defs><style>.cls-1{fill:#ac88b5;}.cls-2{fill:#726675;}.cls-3{fill:#3f352f;}</style></defs><g id="레이어_3" data-name="레이어 3"><path class="cls-1" d="M297.26,104.07a2.4,2.4,0,0,0,.87,1.87c2.5,2.46,9.41,4.09,18.26,4.43-1.36-8.56-2.57-14.73-3.3-18.25H297.26Z"/><rect class="cls-1" x="221.78" y="71.44" width="23.73" height="11.72"/><path class="cls-1" d="M278.22,71.44H254.48V83.15h23.74Zm-13.61,9a4.5,4.5,0,1,1,1.31-3.18A4.52,4.52,0,0,1,264.61,80.47Z"/><path class="cls-2" d="M262,127.77V92.12h-7.51v52a8.8,8.8,0,0,0,3-1.76C260.42,139.74,262,134.68,262,127.77Z"/><path class="cls-1" d="M175.67,428.56h59.08c0-2.61,0-6.32.05-10.93H175.67Z"/><rect class="cls-1" x="187.79" y="71.44" width="25.03" height="11.72"/><path class="cls-1" d="M202.73,104.07V92.12H186.91c-.73,3.52-1.94,9.69-3.3,18.24,8.85-.33,15.76-2,18.26-4.42A2.38,2.38,0,0,0,202.73,104.07Z"/><path class="cls-2" d="M193.33,408.67h41.54c.43-52.38,2.34-175.37,10.65-230.48V92.12H211.7v11.95a11.43,11.43,0,0,1-3.54,8.27c-2.94,2.88-7.47,4.64-12.49,5.69,0,.6-.1,1.21-.15,1.86a4.47,4.47,0,0,1-4.46,4.13c-.12,0-4.41,0-4.48-4.82-1.45.1-2.9.16-4.32.18a720.33,720.33,0,0,0-6.59,99.5V408.67h8.69"/><path class="cls-1" d="M265.25,428.56h59.08V417.63H265.2C265.23,422.24,265.24,426,265.25,428.56Z"/><rect class="cls-1" x="287.18" y="71.44" width="25.03" height="11.72"/><path class="cls-2" d="M315.63,408.67h8.7V218.88a720.33,720.33,0,0,0-6.59-99.5c-1.42,0-2.87-.08-4.33-.18,0,4.37-3.38,4.71-4.47,4.71a4.47,4.47,0,0,1-4.46-4.13c-.05-.61-.1-1.18-.15-1.75-5-1-9.55-2.8-12.49-5.69a11.39,11.39,0,0,1-3.54-8.27V92.12H271v35.65c0,9.78-2.6,17-7.71,21.47a18.14,18.14,0,0,1-8.77,4.18v24.77c8.31,55.11,10.21,178.1,10.65,230.48h41.54"/><path class="cls-3" d="M261.44,72.81a4.54,4.54,0,0,0-3.17,1.31,4.5,4.5,0,0,0,0,6.35,4.48,4.48,0,0,0,7.65-3.18,4.47,4.47,0,0,0-4.48-4.48Z"/><path class="cls-3" d="M321.17,67a4.48,4.48,0,0,0-4.48-4.48H183.31A4.49,4.49,0,0,0,178.82,67V87.14c-1.31,5.74-12.12,55.35-12.12,131.74V433.05a4.49,4.49,0,0,0,4.48,4.48h68a4.48,4.48,0,0,0,4.48-4.48c0-1.53.09-128.95,6.3-211.54,6.21,82.59,6.29,210,6.29,211.54a4.49,4.49,0,0,0,4.49,4.48h68a4.49,4.49,0,0,0,4.48-4.48V218.88c0-76.41-10.82-126-12.13-131.74ZM187.79,71.44h25V83.15h-25Zm-.88,20.68h15.82v11.95a2.38,2.38,0,0,1-.86,1.87c-2.5,2.46-9.41,4.09-18.26,4.42C185,101.81,186.18,95.64,186.91,92.12Zm47.84,336.44H175.67V417.63H234.8C234.77,422.24,234.76,426,234.75,428.56Zm-50.39-19.89h-8.69V218.88a720.33,720.33,0,0,1,6.59-99.5c1.42,0,2.87-.08,4.32-.18.07,4.85,4.36,4.82,4.48,4.82a4.47,4.47,0,0,0,4.46-4.13c0-.65.1-1.26.15-1.86,5-1,9.55-2.81,12.49-5.69a11.43,11.43,0,0,0,3.54-8.27V92.12h33.82v86.07c-8.31,55.11-10.22,178.1-10.65,230.48H193.33M245.52,83.15H221.78V71.44h23.74Zm70.87,27.22c-8.85-.34-15.76-2-18.26-4.43a2.4,2.4,0,0,1-.87-1.87V92.12h15.83C313.82,95.64,315,101.81,316.39,110.37ZM287.18,71.44h25V83.15h-25Zm-32.7,0h23.74V83.15H254.48Zm0,20.68H262v35.65c0,6.91-1.57,12-4.55,14.63a8.8,8.8,0,0,1-3,1.76Zm69.85,336.44H265.25c0-2.61,0-6.32-.05-10.93h59.13Zm-17.66-19.89H265.13c-.44-52.38-2.34-175.37-10.65-230.48V153.42a18.14,18.14,0,0,0,8.77-4.18c5.11-4.47,7.71-11.69,7.71-21.47V92.12H288.3v11.95a11.39,11.39,0,0,0,3.54,8.27c2.94,2.89,7.47,4.65,12.49,5.69.05.57.1,1.14.15,1.75a4.47,4.47,0,0,0,4.46,4.13c1.09,0,4.43-.34,4.47-4.71,1.46.1,2.91.16,4.33.18a720.33,720.33,0,0,1,6.59,99.5V408.67h-8.7"/></g></svg>