<svg xmlns="http://www.w3.org/2000/svg" viewBox="0 0 500 500"><defs><style>.cls-1{fill:#ac88b5;}.cls-2{fill:#d64f3c;}.cls-3{fill:#3f352f;}.cls-4{fill:none;stroke:#3f352f;stroke-linecap:round;stroke-miterlimit:10;stroke-width:6px;}</style></defs><g id="레이어_3" data-name="레이어 3"><path class="cls-1" d="M155.61,148.5c-3.1,6.38-10.51,23.55-17.26,53.5-8,35.41-16.59,96.32-12.69,186.24h31.68l10.28-43.36c-6.72-45.39-1.58-102.27,1.76-139.17,1.21-13.37,2.17-23.94,2.17-29.85C171.55,158.16,160.88,151,155.61,148.5Z"/><polygon class="cls-2" points="125.83 407.63 153.65 407.63 155.78 395.93 125.83 395.93 125.83 407.63"/><path class="cls-3" d="M250,147.52a57.53,57.53,0,0,1-8.28-.6l8.28,8.86,8.28-8.86a57.63,57.63,0,0,1-8.28.6Z"/><path class="cls-1" d="M320.76,175.86c0-19.84,11.32-29.3,18.57-33.32-12.75-10.54-35.24-20.74-45-24.9-2.12,10.61-10.22,19.66-21.49,24.94l-20.23,21.64a3.88,3.88,0,0,1-2.63,1,3.84,3.84,0,0,1-2.81-1.22l-20.05-21.46c-11.27-5.28-19.37-14.33-21.49-24.94-9.74,4.17-32.24,14.37-45,24.9,7.25,4,18.57,13.48,18.57,33.32,0,6.26-1,17-2.2,30.54-3.32,36.71-8.44,93.44-1.74,137.89,0,.08,3.37,18.29,5.94,26.2H318.75c2.58-7.92,5.93-26.12,5.94-26.19,6.71-44.45,1.59-101.19-1.74-137.9C321.73,192.84,320.76,182.12,320.76,175.86Z"/><polygon class="cls-2" points="185.25 390.71 314.75 390.71 316.94 378.19 183.06 378.19 185.25 390.71"/><path class="cls-1" d="M328.45,175.86c0,5.91,1,16.48,2.16,29.85,3.34,36.9,8.49,93.78,1.77,139.17l10.27,43.36h31.69c6.68-154-22.9-225.15-29.95-239.74C339.13,151,328.45,158.16,328.45,175.86Z"/><polygon class="cls-2" points="346.35 407.63 374.17 407.63 374.17 395.93 344.22 395.93 346.35 407.63"/><path class="cls-3" d="M369,199.72c-9-39.79-19.47-58-19.47-58-16.75-15.07-41.49-26.59-52.06-31.13-3.33-3-12.7-12.14-16.66-21.88-1.12-2.76-4.34-4-7.31-4H226.9c-3.39,0-5.8,2.91-7.21,6-2.54,5.59-6,13.41-11.27,17.62a4,4,0,0,0-.89.23c-1.67.66-38.38,14.08-57.09,33.21-.58.6-10.44,18.19-19.46,58-8.26,36.41-17.19,99.34-12.84,192.44v19.32a3.84,3.84,0,0,0,3.84,3.84h34.87a3.85,3.85,0,0,0,3.79-3.16l3.51-19.29,7-29.67c1,4.2,2.23,8.24,3.57,12.09l3.48,19.93A3.84,3.84,0,0,0,182,398.4H318a3.84,3.84,0,0,0,3.79-3.18l3.48-19.93c1.34-3.85,2.52-7.89,3.57-12.09l7,29.67,3.51,19.29a3.85,3.85,0,0,0,3.78,3.16H378a3.84,3.84,0,0,0,3.84-3.84V392.16C386.21,299.06,377.28,236.13,369,199.72ZM153.65,407.63H125.83v-11.7h30Zm15.73-201.92c-3.34,36.9-8.48,93.78-1.76,139.17l-10.28,43.36H125.66c-3.9-89.92,4.71-150.83,12.69-186.24,6.75-29.95,14.16-47.12,17.26-53.5,5.27,2.47,15.94,9.66,15.94,27.36C171.55,181.77,170.59,192.34,169.38,205.71Zm145.37,185H185.25l-2.19-12.53H316.94Zm9.94-46.41c0,.07-3.36,18.27-5.94,26.19H181.24c-2.57-7.91-5.92-26.12-5.94-26.2-6.7-44.45-1.58-101.18,1.74-137.89,1.23-13.56,2.2-24.28,2.2-30.54,0-19.84-11.32-29.3-18.57-33.32,12.59-10.41,34.7-20.49,44.62-24.74.3.71.63,1.51,1,2.37a30.75,30.75,0,0,0,3.6,7.82c7.6,15.4,21.73,37.69,39.8,37.69,24.07,0,41.7-33.47,47.73-46.71,10.82,4.76,30.36,14,41.91,23.57-7.25,4-18.57,13.48-18.57,33.32,0,6.26,1,17,2.19,30.54C326.28,243.11,331.4,299.85,324.69,344.3Zm49.48,63.33H346.35l-2.13-11.7h29.95Zm.17-19.39H342.65l-10.27-43.36c6.72-45.39,1.57-102.27-1.77-139.17-1.2-13.37-2.16-23.94-2.16-29.85,0-17.7,10.68-24.89,15.94-27.36C351.44,163.09,381,234.24,374.34,388.24Z"/><path class="cls-2" d="M250.7,157.36c-8-.68-23.92-8.28-37.51-40,0,0,7.73-8.74,11.5-14.65a44.31,44.31,0,0,0,5-10h43.14a104.4,104.4,0,0,0,5.66,9.85c3.77,5.91,11.2,14.15,11.2,14.15-15,32-32.19,39.32-37.51,40.68h-1.49"/><path class="cls-4" d="M261.69,90.68s10,39,18,47"/><path class="cls-4" d="M241.69,90.68s-10,39-18,47"/><line class="cls-4" x1="251.69" y1="91.68" x2="251.69" y2="159.68"/><line class="cls-4" x1="302.33" y1="378.17" x2="302.33" y2="394.68"/><line class="cls-4" x1="284.89" y1="378.17" x2="284.89" y2="394.68"/><line class="cls-4" x1="267.45" y1="378.17" x2="267.45" y2="394.68"/><line class="cls-4" x1="250.01" y1="378.17" x2="250.01" y2="394.68"/><line class="cls-4" x1="232.57" y1="378.17" x2="232.57" y2="394.68"/><line class="cls-4" x1="215.13" y1="378.17" x2="215.13" y2="394.68"/><line class="cls-4" x1="197.69" y1="378.17" x2="197.69" y2="394.68"/><line class="cls-4" x1="365.69" y1="393.68" x2="365.69" y2="410.19"/><line class="cls-4" x1="353.39" y1="393.68" x2="353.39" y2="410.19"/><line class="cls-4" x1="146.82" y1="392.27" x2="146.82" y2="408.78"/><line class="cls-4" x1="134.52" y1="392.27" x2="134.52" y2="408.78"/></g></svg>