<svg xmlns="http://www.w3.org/2000/svg" viewBox="0 0 500 500"><defs><style>.cls-1{fill:#333;}.cls-2{fill:#fab777;}.cls-3{fill:#f2d973;}.cls-4{fill:#ccb863;}</style></defs><g id="레이어_3" data-name="레이어 3"><path class="cls-1" d="M414.14,211.93a3.66,3.66,0,0,1-.43,4.55c-1,1-23.78,24-65.39,33.38a3.64,3.64,0,0,1-3.86-1.57L333.77,231.9l-1.08,165.32a3.66,3.66,0,0,1-2.83,3.54,353.51,353.51,0,0,1-160,0,3.64,3.64,0,0,1-2.82-3.54L166,231.9l-10.69,16.39a3.67,3.67,0,0,1-3.87,1.57C109.8,240.48,87,217.46,86,216.48a3.64,3.64,0,0,1-.44-4.55l56-85.53a3.72,3.72,0,0,1,1.56-1.32s79.24-36.24,82.93-35l.43.14a73,73,0,0,0,46.6,0l.44-.15c3.7-1.27,82.94,35,82.94,35a3.84,3.84,0,0,1,1.56,1.32Zm-7.81,1.42-2.76-4.22a216.37,216.37,0,0,1-56.7,29.47l2.32,3.55C380.2,234.58,400.06,218.88,406.33,213.35ZM399.55,203l-42.22-64.42c-2.84,19.13-10.24,61.22-22.77,81.13l8.19,12.56A212.44,212.44,0,0,0,399.55,203Zm-48.49-72.38-53.18-23.95c-3.58,11.09-14.59,29.58-48,29.58s-44.43-18.49-48-29.58l-53.17,23.95c1.68,12.5,9.51,65.82,23.44,86.35a7.32,7.32,0,0,1,.95,1.92,3.52,3.52,0,0,1,.15.79l1.13,174.59a346.44,346.44,0,0,0,151,0l1.14-174.59a2.67,2.67,0,0,1,.15-.79,7,7,0,0,1,.95-1.92C341.56,196.45,349.38,143.13,351.06,130.63Zm-59.91-27-4.08-1.84a8.77,8.77,0,0,1-.3,1.2c-3.15,9.83-12.11,21.55-36.9,21.55S216.11,112.84,213,103a10.52,10.52,0,0,1-.3-1.2l-4.09,1.84.21.69c6.86,21.41,28.69,24.6,41.09,24.6s34.22-3.19,41.08-24.6A5.45,5.45,0,0,0,291.15,103.65Zm-11.34-2.88A3,3,0,0,0,276,97l-.47.16a80.36,80.36,0,0,1-51.28,0l-.46-.16a2.92,2.92,0,0,0-3.09.69,2.94,2.94,0,0,0-.74,3c3.49,10.93,13.57,16.48,29.94,16.48S276.3,111.7,279.81,100.77ZM157,232.28l8.19-12.56c-12.53-19.91-19.93-62-22.77-81.13L100.18,203A212.6,212.6,0,0,0,157,232.28Zm-6.43,9.87,2.3-3.55a216.44,216.44,0,0,1-56.69-29.47l-2.76,4.22C99.67,218.88,119.53,234.58,150.55,242.15Z"/><path class="cls-2" d="M403.57,209.13l2.76,4.22c-6.27,5.53-26.13,21.23-57.14,28.8l-2.32-3.55A216.37,216.37,0,0,0,403.57,209.13Z"/><path class="cls-3" d="M357.33,138.59,399.55,203a212.44,212.44,0,0,1-56.8,29.27l-8.19-12.56C347.09,199.81,354.49,157.72,357.33,138.59Z"/><path class="cls-3" d="M297.88,106.68l53.18,23.95c-1.68,12.5-9.5,65.82-23.43,86.35a7,7,0,0,0-.95,1.92,2.67,2.67,0,0,0-.15.79l-1.14,174.59a346.44,346.44,0,0,1-151,0l-1.13-174.59a3.52,3.52,0,0,0-.15-.79,7.32,7.32,0,0,0-.95-1.92c-13.93-20.53-21.76-73.85-23.44-86.35l53.17-23.95c3.6,11.09,14.6,29.58,48,29.58S294.3,117.77,297.88,106.68Z"/><path class="cls-2" d="M287.07,101.81l4.08,1.84a5.45,5.45,0,0,1-.2.69c-6.86,21.41-28.68,24.6-41.08,24.6s-34.23-3.19-41.09-24.6l-.21-.69,4.09-1.84a10.52,10.52,0,0,0,.3,1.2c3.15,9.83,12.11,21.55,36.91,21.55s33.75-11.72,36.9-21.55A8.77,8.77,0,0,0,287.07,101.81Z"/><path class="cls-4" d="M279.06,97.72a3,3,0,0,1,.75,3c-3.51,10.93-13.58,16.48-29.94,16.48s-26.45-5.55-29.94-16.48a2.94,2.94,0,0,1,.74-3,2.92,2.92,0,0,1,3.09-.69l.46.16a80.36,80.36,0,0,0,51.28,0L276,97A3,3,0,0,1,279.06,97.72Z"/><path class="cls-3" d="M165.17,219.72,157,232.28A212.6,212.6,0,0,1,100.18,203l42.22-64.42C145.24,157.72,152.64,199.81,165.17,219.72Z"/><path class="cls-2" d="M152.85,238.6l-2.3,3.55c-31-7.57-50.88-23.27-57.15-28.8l2.76-4.22A216.44,216.44,0,0,0,152.85,238.6Z"/></g></svg>