<svg xmlns="http://www.w3.org/2000/svg" viewBox="0 0 500 500"><defs><style>.cls-1{fill:#333;}.cls-2{fill:#393e51;}.cls-3{fill:#6e7796;}.cls-4{fill:#2d313d;}</style></defs><g id="레이어_3" data-name="레이어 3"><path class="cls-1" d="M393.4,217.63a3.56,3.56,0,0,1-.41,2.24L391.31,223v10a3.71,3.71,0,0,1-3.44,3.7l-43.52,3.14h-.27a3.73,3.73,0,0,1-3.48-2.41l-2.7-7.23v171a3.71,3.71,0,0,1-3,3.64,467.78,467.78,0,0,1-85.75,7.94,467.59,467.59,0,0,1-85.74-7.94,3.72,3.72,0,0,1-3-3.64v-171l-2.71,7.23a3.72,3.72,0,0,1-3.47,2.41h-.26l-43.53-3.14a3.71,3.71,0,0,1-3.44-3.7V223l-1.69-3.14a3.78,3.78,0,0,1-.41-2.24c10.88-81.15,37.65-95.26,38.78-95.82a3.79,3.79,0,0,1,.71-.26l59.44-15.47L214.85,89A3.72,3.72,0,0,1,218,87.3h62.32A3.71,3.71,0,0,1,283.39,89l11.08,17.09,59.45,15.47a3.79,3.79,0,0,1,.71.26C355.76,122.37,382.53,136.48,393.4,217.63Zm-8.1.9.59-1.1c-8.21-59.92-25.12-80.75-31.8-86.82-12.32,23.51-15.83,73.58-16.17,78.86l2.14,11.13,1.32,1.12Zm-1.41,11v-3.45l-38.55,2.82,1.24,3.32Zm-36.54-102L295.8,114.09c-.47,7.09-2.88,20.11-13.55,29.64a3.72,3.72,0,0,1-3.55.78l-16.22-5v49.89a3.72,3.72,0,0,1-3.71,3.71H239.48a3.71,3.71,0,0,1-3.71-3.71V139.54l-16.23,5a3.64,3.64,0,0,1-1.09.16,3.7,3.7,0,0,1-2.47-.94c-10.67-9.53-13.07-22.55-13.54-29.64L150.88,127.5c12.18,23.69,16,69.06,16.73,79.77.08,1.22.15,4.44.15,4.44V398a459.51,459.51,0,0,0,162.72,0V212.45s.07-4,.16-5.36C331.42,196.05,335.25,151.07,347.35,127.5Zm-68.56,9.28c9.25-9.49,9.73-22.79,9.69-26.31L281.17,99.2a84,84,0,0,1-23.87,31ZM275,94.72H223.24c7.22,17.79,20.85,28.77,25.87,32.37C254.14,123.48,267.8,112.45,275,94.72Zm-19.94,91V137.27l-5.94-1.83-5.93,1.83v48.45Zm-35.61-48.94,21.49-6.59a83.9,83.9,0,0,1-23.87-31l-7.31,11.27C209.71,114,210.2,127.28,219.45,136.78ZM158.18,220.6l2.14-11.13c-.34-5.28-3.86-55.37-16.18-78.87-6.64,6-23.56,26.84-31.79,86.83l.59,1.1,43.92,3.19Zm-6.52,11.6,1.24-3.32-38.55-2.82v3.45Z"/><path class="cls-2" d="M385.89,217.43l-.59,1.1-43.92,3.19-1.32-1.12-2.14-11.13c.34-5.28,3.85-55.35,16.17-78.86C360.77,136.68,377.68,157.51,385.89,217.43Z"/><polygon class="cls-3" points="383.89 226.06 383.89 229.5 346.58 232.2 345.34 228.88 383.89 226.06"/><path class="cls-2" d="M295.8,114.09l51.55,13.41c-12.1,23.57-15.93,68.55-16.71,79.59-.09,1.32-.16,5.36-.16,5.36V398a459.51,459.51,0,0,1-162.72,0V211.71s-.07-3.22-.15-4.44c-.75-10.71-4.55-56.08-16.73-79.77l51.56-13.41c.47,7.09,2.87,20.11,13.54,29.64a3.7,3.7,0,0,0,2.47.94,3.64,3.64,0,0,0,1.09-.16l16.23-5v49.89a3.71,3.71,0,0,0,3.71,3.71h19.29a3.72,3.72,0,0,0,3.71-3.71V139.54l16.22,5a3.72,3.72,0,0,0,3.55-.78C292.92,134.2,295.33,121.18,295.8,114.09Zm29.74,76.33V177.07a3.72,3.72,0,0,0-3.71-3.71H279.29a3.71,3.71,0,0,0-3.71,3.71v13.35a3.71,3.71,0,0,0,3.71,3.71h42.54A3.72,3.72,0,0,0,325.54,190.42Z"/><path class="cls-1" d="M325.54,177.07v13.35a3.72,3.72,0,0,1-3.71,3.71H279.29a3.71,3.71,0,0,1-3.71-3.71V177.07a3.71,3.71,0,0,1,3.71-3.71h42.54A3.72,3.72,0,0,1,325.54,177.07Zm-7.42,9.64v-5.93H283v5.93Z"/><rect class="cls-3" x="283" y="180.78" width="35.12" height="5.94"/><path class="cls-3" d="M288.48,110.47c0,3.52-.44,16.82-9.69,26.31l-21.49-6.59a84,84,0,0,0,23.87-31Z"/><path class="cls-4" d="M223.24,94.72H275c-7.2,17.73-20.86,28.76-25.89,32.37C244.09,123.49,230.46,112.51,223.24,94.72Zm37.26,9.15a3.72,3.72,0,0,0-3.71-3.71H241.45a3.71,3.71,0,1,0,0,7.42h15.34A3.72,3.72,0,0,0,260.5,103.87Z"/><path class="cls-1" d="M256.79,100.16a3.71,3.71,0,0,1,0,7.42H241.45a3.71,3.71,0,1,1,0-7.42Z"/><path class="cls-3" d="M249.12,135.44l-5.93,1.83v48.45h11.87V137.27Zm2.62,44.74a3.71,3.71,0,1,1,1.09-2.62A3.74,3.74,0,0,1,251.74,180.18Zm0-15.58a3.71,3.71,0,1,1,1.09-2.62A3.74,3.74,0,0,1,251.74,164.6Zm0-15.58a3.71,3.71,0,1,1,1.09-2.62A3.74,3.74,0,0,1,251.74,149Z"/><path class="cls-1" d="M251.74,143.77a3.72,3.72,0,1,1-2.62-1.08A3.75,3.75,0,0,1,251.74,143.77Z"/><path class="cls-1" d="M251.74,159.35a3.72,3.72,0,1,1-2.62-1.08A3.75,3.75,0,0,1,251.74,159.35Z"/><path class="cls-1" d="M251.74,174.93a3.72,3.72,0,1,1-2.62-1.08A3.75,3.75,0,0,1,251.74,174.93Z"/><path class="cls-3" d="M240.94,130.19l-21.49,6.59c-9.25-9.5-9.74-22.81-9.69-26.31l7.31-11.27A83.9,83.9,0,0,0,240.94,130.19Z"/><path class="cls-2" d="M160.32,209.47l-2.14,11.13-1.32,1.12-43.92-3.19-.59-1.1c8.23-60,25.15-80.79,31.79-86.83C156.46,154.1,160,204.19,160.32,209.47Z"/><polygon class="cls-3" points="152.9 228.88 151.66 232.2 114.34 229.5 114.34 226.06 152.9 228.88"/></g></svg>