<svg xmlns="http://www.w3.org/2000/svg" viewBox="0 0 500 500"><defs><style>.cls-1{fill:#333;}.cls-2{fill:#fff;}.cls-3{fill:#eaeaea;}</style></defs><g id="레이어_3" data-name="레이어 3"><path class="cls-1" d="M250.62,415.5a361.86,361.86,0,0,1-82.92-9.58,4.51,4.51,0,0,1-3.49-4.33c-.56-32.56,8.53-74.09,16.25-103.21a155.1,155.1,0,0,0,1.8-71.29c-2-9.48-4.18-20.07-6.68-32.37l-2-.09c-24-1.39-34.78-8.85-35.23-9.17a4.5,4.5,0,0,1-1.94-3.74c.18-23.83,2.79-43.27,7.76-57.78a30.15,30.15,0,0,1,26.71-20.51c11.33-.68,17.38-3.59,19.82-5.12l-.15-1.26a4.5,4.5,0,0,1,2.32-4.44l13.65-7.53a4.69,4.69,0,0,1,2.26-.58,4.55,4.55,0,0,1,1.28.18A248.94,248.94,0,0,0,250.65,88a248.59,248.59,0,0,0,41.09-3.44l.08,0h.08a6.84,6.84,0,0,1,2.78.51l13.65,7.54a4.49,4.49,0,0,1,2.31,4.44c0,.42-.09.83-.15,1.25,2.45,1.53,8.49,4.44,19.83,5.12A30.16,30.16,0,0,1,357,123.94c5,14.52,7.57,34,7.76,57.78a4.59,4.59,0,0,1-1.94,3.75c-.46.31-11.48,7.82-35.44,9.17l-1.76.08c-1.11,5.45-3.68,18.06-6.68,32.37a155,155,0,0,0,1.8,71.29c7.72,29.13,16.81,70.67,16.25,103.21a4.52,4.52,0,0,1-3.49,4.33A361.9,361.9,0,0,1,250.62,415.5Zm-77.38-17.6a353.29,353.29,0,0,0,72.85,8.51V134.1a87.47,87.47,0,0,0-2.27,12.41,4.52,4.52,0,0,1-6,3.75,90.38,90.38,0,0,1-21.93-12.12c-11.37-8.53-19.33-19.09-23.07-30.62-4.1,2-10.93,4.32-21.36,5a21.12,21.12,0,0,0-18.69,14.39c-4.47,13.06-6.9,30.64-7.24,52.26,3.57,1.76,12.36,5.3,27,6.36l.71-4a4.53,4.53,0,0,1,4.42-3.74h0a4.54,4.54,0,0,1,4.45,3.64l0,.15c.74,3.71,4.68,23.29,9,43.73a164.09,164.09,0,0,1-1.91,75.48C182,328,173.39,366.85,173.24,397.9Zm81.9,8.51A353.11,353.11,0,0,0,328,397.9c-.14-31-8.74-69.92-16-97.2a164.33,164.33,0,0,1-1.91-75.47c4.3-20.44,8.23-40,9-43.74l0-.16a4.53,4.53,0,0,1,8.9.11l.72,4c14.6-1.06,23.39-4.6,27-6.36-.34-21.62-2.78-39.2-7.25-52.26a21.1,21.1,0,0,0-18.68-14.39c-10.44-.63-17.26-2.93-21.37-4.94-3.73,11.51-11.69,22.08-23.07,30.61a88.4,88.4,0,0,1-21.94,12.12,4.27,4.27,0,0,1-1.48.26,4.54,4.54,0,0,1-4.5-4,87.91,87.91,0,0,0-2.27-12.38ZM200,99c2.12,12.11,9.3,22.83,21.33,31.85a84,84,0,0,0,14.34,8.62c1.74-10.23,4.49-16.85,6.75-20.86-19.26-3.61-31.51-9.8-36.42-18.4a17.92,17.92,0,0,1-1.58-3.65Zm58.81,19.61c2.26,4,5,10.63,6.75,20.86a84.63,84.63,0,0,0,14.49-8.74c11.93-9,19.06-19.66,21.17-31.73l-4.41-2.44a17.49,17.49,0,0,1-1.59,3.65C290.31,108.85,278.07,115,258.81,118.65Zm-45.6-24.32A9.78,9.78,0,0,0,214,96c5.46,9.07,25.22,13.19,36.62,14.86,26.7-3.88,34.48-11.1,36.74-15.07a8.72,8.72,0,0,0,.66-1.43,256.87,256.87,0,0,1-37.39,2.76A257,257,0,0,1,213.21,94.33Z"/><path class="cls-1" d="M363.78,181.72a3.52,3.52,0,0,1-1.51,2.93c-.46.32-11.28,7.66-34.92,9l-2.53.1c-1.69,8.34-4.18,20.53-6.83,33.13a156,156,0,0,0,1.81,71.76c7.7,29.05,16.77,70.5,16.22,102.93a3.51,3.51,0,0,1-2.72,3.37,362.4,362.4,0,0,1-165.38,0,3.51,3.51,0,0,1-2.71-3.37c-.56-32.43,8.51-73.88,16.22-102.93a156.16,156.16,0,0,0,1.81-71.76c-2.65-12.6-5.14-24.79-6.84-33.13-.09,0-1.93-.07-2.72-.12-23.51-1.36-34.26-8.66-34.72-9a3.53,3.53,0,0,1-1.52-2.93c.18-23.71,2.77-43,7.71-57.46A29.12,29.12,0,0,1,171,104.43c12.23-.74,18.43-4,20.84-5.63-.08-.61-.17-1.23-.23-1.85a3.52,3.52,0,0,1,1.8-3.46L207,86a3.63,3.63,0,0,1,2.84-.3,248,248,0,0,0,82-.09,6.22,6.22,0,0,1,2.29.39l13.65,7.53a3.53,3.53,0,0,1,1.8,3.46c-.07.62-.15,1.24-.24,1.85,2.41,1.64,8.61,4.89,20.85,5.63a29.15,29.15,0,0,1,25.82,19.83C361,138.68,363.6,158,363.78,181.72Zm-7.07-2c-.31-22-2.76-39.9-7.31-53.19a22.1,22.1,0,0,0-19.57-15.06c-11-.67-18-3.19-22-5.39-3.52,11.8-11.37,22.48-23.07,31.25a88.44,88.44,0,0,1-21.66,12,3.51,3.51,0,0,1-3-.34,3.53,3.53,0,0,1-1.63-2.58,75.6,75.6,0,0,0-4.26-18.65V407.42A354.18,354.18,0,0,0,329,398.7c0-31.2-8.64-70.45-16-98.25a163.17,163.17,0,0,1-1.9-75c4.73-22.5,9-43.7,9-43.91a3.52,3.52,0,0,1,3.46-2.83h0a3.5,3.5,0,0,1,3.43,2.91l.88,4.93C343.94,185.5,353.25,181.52,356.71,179.73ZM302.33,98.5l-6.17-3.39a15.94,15.94,0,0,1-1.81,4.64c-4.88,8.56-17.36,14.66-37.14,18.17,2.63,4.24,5.75,11.41,7.58,23a86.19,86.19,0,0,0,15.86-9.4C293,122.23,300.32,111.12,302.33,98.5Zm-14.11-2.24a9.32,9.32,0,0,0,1.13-3.14,255.82,255.82,0,0,1-38.73,3,255.76,255.76,0,0,1-38.74-3,9.28,9.28,0,0,0,1.25,3.36c5.68,9.43,25.69,13.65,37.48,15.36C277.82,107.9,285.86,100.4,288.22,96.26ZM247.09,407.42V127.73a75.62,75.62,0,0,0-4.27,18.67,3.53,3.53,0,0,1-3.5,3.12,3.58,3.58,0,0,1-1.16-.2,88.59,88.59,0,0,1-21.67-12c-11.7-8.77-19.54-19.45-23.07-31.25-4.07,2.2-11,4.72-22,5.39a22.13,22.13,0,0,0-19.58,15.06c-4.54,13.29-7,31.18-7.3,53.19,3.44,1.78,12.75,5.77,28.81,6.81l.87-4.93a3.52,3.52,0,0,1,3.44-2.91h0a3.53,3.53,0,0,1,3.47,2.83c0,.21,4.28,21.42,9,43.9a163.07,163.07,0,0,1-1.89,75c-7.37,27.8-16,67.05-16,98.25A354.18,354.18,0,0,0,247.09,407.42ZM236.44,141c1.83-11.64,4.94-18.81,7.57-23-19.78-3.51-32.26-9.61-37.14-18.17a16.22,16.22,0,0,1-1.81-4.64L198.9,98.5c2,12.67,9.35,23.83,21.83,33.19A85.86,85.86,0,0,0,236.44,141Z"/><path class="cls-2" d="M349.4,126.54c4.55,13.29,7,31.18,7.31,53.19-3.46,1.79-12.77,5.77-28.81,6.81l-.88-4.93a3.5,3.5,0,0,0-3.43-2.91h0a3.52,3.52,0,0,0-3.46,2.83c0,.21-4.28,21.41-9,43.91a163.17,163.17,0,0,0,1.9,75c7.37,27.8,16,67.05,16,98.25a354.18,354.18,0,0,1-74.85,8.72V127.75a75.6,75.6,0,0,1,4.26,18.65A3.53,3.53,0,0,0,260,149a3.51,3.51,0,0,0,3,.34,88.44,88.44,0,0,0,21.66-12c11.7-8.77,19.55-19.45,23.07-31.25,4.07,2.2,11,4.72,22,5.39A22.1,22.1,0,0,1,349.4,126.54ZM308,184.1a3.53,3.53,0,0,0-3.53-3.53H275.55a3.53,3.53,0,0,0,0,7.06h28.94A3.53,3.53,0,0,0,308,184.1Z"/><path class="cls-1" d="M304.49,180.57a3.53,3.53,0,0,1,0,7.06H275.55a3.53,3.53,0,0,1,0-7.06Z"/><path class="cls-2" d="M296.16,95.11l6.17,3.39c-2,12.62-9.29,23.73-21.68,33.07a86.19,86.19,0,0,1-15.86,9.4c-1.83-11.64-5-18.81-7.58-23,19.78-3.51,32.26-9.61,37.14-18.17A15.94,15.94,0,0,0,296.16,95.11Z"/><path class="cls-3" d="M289.35,93.12a9.32,9.32,0,0,1-1.13,3.14c-2.36,4.14-10.4,11.64-37.61,15.58-11.79-1.71-31.8-5.93-37.48-15.36a9.28,9.28,0,0,1-1.25-3.36,255.76,255.76,0,0,0,38.74,3A255.82,255.82,0,0,0,289.35,93.12Z"/><path class="cls-2" d="M247.09,127.73V407.42a354.18,354.18,0,0,1-74.85-8.72c0-31.2,8.64-70.45,16-98.25a163.07,163.07,0,0,0,1.89-75c-4.72-22.48-9-43.69-9-43.9a3.53,3.53,0,0,0-3.47-2.83h0a3.52,3.52,0,0,0-3.44,2.91l-.87,4.93c-16.06-1-25.37-5-28.81-6.81.3-22,2.76-39.9,7.3-53.19a22.13,22.13,0,0,1,19.58-15.06c11-.67,17.95-3.19,22-5.39,3.53,11.8,11.37,22.48,23.07,31.25a88.59,88.59,0,0,0,21.67,12,3.58,3.58,0,0,0,1.16.2,3.53,3.53,0,0,0,3.5-3.12A75.62,75.62,0,0,1,247.09,127.73Zm-4.71,34.49a3.54,3.54,0,1,0-3.53,3.53,3.51,3.51,0,0,0,2.49-1A3.56,3.56,0,0,0,242.38,162.22Zm0,222.34a3.53,3.53,0,0,0-3.53-3.52,3.59,3.59,0,0,0-2.5,1,3.53,3.53,0,1,0,6,2.49Zm0-185.28a3.53,3.53,0,1,0-3.53,3.53A3.53,3.53,0,0,0,242.38,199.28Zm0,37.06a3.53,3.53,0,1,0-3.53,3.52A3.53,3.53,0,0,0,242.38,236.34Zm0,37a3.53,3.53,0,1,0-3.53,3.53A3.53,3.53,0,0,0,242.38,273.39Zm0,37.06a3.53,3.53,0,1,0-3.53,3.53A3.53,3.53,0,0,0,242.38,310.45Zm0,37.06a3.53,3.53,0,1,0-3.53,3.53A3.53,3.53,0,0,0,242.38,347.51Z"/><path class="cls-1" d="M241.34,159.73a3.51,3.51,0,0,1,0,5,3.51,3.51,0,0,1-2.49,1,3.53,3.53,0,1,1,2.49-6Z"/><path class="cls-1" d="M241.34,382.07a3.51,3.51,0,0,1,0,5,3.51,3.51,0,0,1-2.49,1,3.53,3.53,0,0,1-2.5-6,3.59,3.59,0,0,1,2.5-1A3.55,3.55,0,0,1,241.34,382.07Z"/><circle class="cls-1" cx="238.85" cy="199.28" r="3.53"/><circle class="cls-1" cx="238.85" cy="236.34" r="3.53"/><path class="cls-1" d="M238.85,269.86a3.53,3.53,0,1,1-3.53,3.53A3.53,3.53,0,0,1,238.85,269.86Z"/><path class="cls-1" d="M238.85,306.92a3.53,3.53,0,1,1-3.53,3.53A3.53,3.53,0,0,1,238.85,306.92Z"/><circle class="cls-1" cx="238.85" cy="347.51" r="3.53"/><path class="cls-2" d="M244,117.92c-2.63,4.24-5.74,11.41-7.57,23a85.86,85.86,0,0,1-15.71-9.28c-12.48-9.36-19.82-20.52-21.83-33.19l6.16-3.39a16.22,16.22,0,0,0,1.81,4.64C211.75,108.31,224.23,114.41,244,117.92Z"/><rect class="cls-1" x="246" y="126" width="4" height="285"/></g></svg>