<svg xmlns="http://www.w3.org/2000/svg" viewBox="0 0 500 500"><defs><style>.cls-1{fill:#333;}.cls-2{fill:#ff8dca;}.cls-3{fill:#e87abb;}</style></defs><g id="레이어_3" data-name="레이어 3"><path class="cls-1" d="M340.47,403.62a3.71,3.71,0,0,1-2.85,3.62,373.72,373.72,0,0,1-176.26,0,3.72,3.72,0,0,1-2.85-3.62c0-14.79,3.61-37.5,10.71-67.53a195.53,195.53,0,0,0,1.43-84c-5.17-24.94-6.65-49.77-7.46-63.11-.07-1.15-.13-2.23-.19-3.2A3.75,3.75,0,0,1,164,183c18.88-21,15.86-85,15.83-85.68a3.73,3.73,0,0,1,2-3.49L203,82.65a3.71,3.71,0,0,1,3-.22,132.2,132.2,0,0,0,87,0,3.71,3.71,0,0,1,3,.22l21.26,11.18a3.77,3.77,0,0,1,2,3.49C319.18,98,316.17,162,335,183a3.71,3.71,0,0,1,.95,2.73c-.06,1-.13,2.05-.2,3.2-.79,13.34-2.29,38.18-7.45,63.11a195.53,195.53,0,0,0,1.43,84C336.87,366.12,340.47,388.84,340.47,403.62Zm-7.5-2.93c-.46-14.16-4-35.78-10.46-62.88A203,203,0,0,1,321,250.53c5-24.41,6.52-48.89,7.31-62.05,0-.58.07-1.16.11-1.7-17.87-21.88-17.19-75.3-16.79-87.44l-13.38-7c.54,14,.75,46.38-7.63,59.43-3.59,5.57-9.44,10.16-17.39,13.64a59.68,59.68,0,0,1-47.55,0c-8-3.48-13.81-8.07-17.4-13.64-8.37-13-8.16-45.41-7.63-59.43l-13.37,7c.4,12.14,1.08,65.56-16.78,87.44,0,.54.06,1.11.09,1.7.79,13.15,2.26,37.64,7.32,62.05a203,203,0,0,1-1.48,87.28c-6.4,27.1-10,48.72-10.45,62.88A366.61,366.61,0,0,0,333,400.69ZM291,109.9c.17-7.09,0-13.78-.19-18.89a139.89,139.89,0,0,1-82.58,0c-.22,5.11-.35,11.81-.18,18.89,5.64,4.81,26.06,24,27.41,51a52.24,52.24,0,0,0,28.12,0C264.91,133.93,285.34,114.7,291,109.9Zm-6.58,37.79c3.5-5.44,5.26-15.92,6.07-27-6.94,7.3-17.2,20.67-19.18,37.35C277.34,155.28,281.75,151.79,284.39,147.69Zm-69.79,0c2.63,4.1,7,7.59,13.11,10.39-2-16.73-12.24-30.08-19.19-37.37C209.33,131.76,211.1,142.25,214.6,147.69Z"/><path class="cls-2" d="M322.51,337.81c6.42,27.1,10,48.72,10.46,62.88a366.61,366.61,0,0,1-167,0c.45-14.16,4-35.78,10.45-62.88A203,203,0,0,0,178,250.53c-5.06-24.41-6.53-48.9-7.32-62.05,0-.59-.06-1.16-.09-1.7,17.86-21.88,17.18-75.3,16.78-87.44l13.37-7c-.53,14-.74,46.38,7.63,59.43,3.59,5.57,9.44,10.16,17.4,13.64a59.68,59.68,0,0,0,47.55,0c8-3.48,13.8-8.07,17.39-13.64,8.38-13,8.17-45.41,7.63-59.43l13.38,7c-.4,12.14-1.08,65.56,16.79,87.44,0,.54-.07,1.12-.11,1.7-.79,13.16-2.26,37.64-7.31,62.05A203,203,0,0,0,322.51,337.81Z"/><path class="cls-3" d="M290.78,91c.23,5.11.36,11.8.19,18.89-5.63,4.8-26.06,24-27.42,51a52.24,52.24,0,0,1-28.12,0c-1.35-27-21.77-46.2-27.41-51-.17-7.08,0-13.78.18-18.89A139.89,139.89,0,0,0,290.78,91Z"/></g></svg>