<svg xmlns="http://www.w3.org/2000/svg" viewBox="0 0 500 500"><defs><style>.cls-1{fill:#a8d6c6;}.cls-2{fill:#cae6dc;}.cls-3{fill:#3f352f;}</style></defs><g id="레이어_3" data-name="레이어 3"><path class="cls-1" d="M216.66,165.23l20.27-5.39-17.75-48.46c-7.81,5.83-11,12.08-10.06,19.42C210.18,138.78,214.72,157.44,216.66,165.23Z"/><polygon class="cls-2" points="244.86 160.64 250.24 168.46 255.62 160.64 270.5 120.01 229.98 120.01 244.86 160.64"/><polygon class="cls-2" points="273.13 112.84 274.38 109.42 226.1 109.42 227.35 112.84 273.13 112.84"/><path class="cls-1" d="M283.81,165.23c1.94-7.79,6.49-26.45,7.54-34.43,1-7.34-2.24-13.59-10.06-19.42l-17.74,48.46Z"/><path class="cls-1" d="M331.81,226l40.48-19.8-26.41-52.34c-4.92,11.5-14.07,35.49-14.07,54.6Z"/><polygon class="cls-1" points="331.81 233.93 331.81 238.9 377.62 216.69 375.53 212.55 331.81 233.93"/><polygon class="cls-1" points="122.86 216.69 168.67 238.9 168.67 233.93 124.95 212.55 122.86 216.69"/><path class="cls-2" d="M298.27,123.69a24.8,24.8,0,0,1,.19,8c-1.39,10.6-8.29,37.63-8.58,38.78a3.66,3.66,0,0,1-1.66,2.21,3.61,3.61,0,0,1-2.74.37l-25.13-6.68-6.53,9.5v29.32a3.59,3.59,0,1,1-7.17,0V175.9l-6.52-9.49L215,173.09a3.79,3.79,0,0,1-2.73-.37,3.6,3.6,0,0,1-1.66-2.21c-.29-1.15-7.19-28.18-8.58-38.78a25,25,0,0,1,.18-8c-19.95,6.54-40,15.72-43.51,21.66,3.32,7.1,17.15,38.18,17.15,63v179c5.89,1,24.26,3.17,74.4,3.17s68.5-2.15,74.4-3.17v-179c0-24.87,13.82-55.95,17.14-63C338.32,139.42,318.23,130.24,298.27,123.69ZM262.09,186.3a3.59,3.59,0,0,1-5.07,0,3.59,3.59,0,1,1,5.07,0Z"/><path class="cls-1" d="M128.18,206.15,168.67,226V208.41c0-19.13-9.16-43.11-14.07-54.6Z"/><path class="cls-3" d="M259.56,180.18A3.59,3.59,0,0,0,257,186.3a3.59,3.59,0,0,0,6.12-2.54,3.58,3.58,0,0,0-3.58-3.58Z"/><path class="cls-3" d="M349,144.18c-1.24-4.13-6-10.64-29.84-20.39-10.65-4.35-20.87-7.61-24.44-8.72q-4.31-6.63-13.35-12.27h0a3.57,3.57,0,0,0-1.88-.55H221a3.57,3.57,0,0,0-1.89.55h0c-6,3.77-10.48,7.85-13.35,12.27-3.58,1.1-13.8,4.37-24.44,8.72-23.84,9.75-28.6,16.26-29.85,20.39l-36.61,72.53a3.57,3.57,0,0,0,1.64,4.84l52.21,25.31V390.29a3.58,3.58,0,0,0,2.38,3.37c1.17.42,13.37,4.09,79.18,4.09h0c65.82,0,78-3.67,79.19-4.09a3.58,3.58,0,0,0,2.38-3.37V246.86L384,221.55a3.6,3.6,0,0,0,1.64-4.84Zm-3.16,9.63,26.41,52.34L331.81,226V208.41C331.81,189.3,341,165.31,345.88,153.81Zm-64.59-42.43c7.82,5.83,11,12.08,10.06,19.42-1.05,8-5.6,26.64-7.54,34.43l-20.26-5.39Zm-25.67,49.26-5.38,7.82-5.38-7.82L230,120H270.5Zm18.76-51.22-1.25,3.42H227.35l-1.25-3.42Zm-55.2,2,17.75,48.46-20.27,5.39c-1.94-7.79-6.48-26.45-7.54-34.43C208.16,123.46,211.37,117.21,219.18,111.38ZM168.67,238.89l-45.81-22.2,2.09-4.14,43.72,21.38Zm0-12.94-40.49-19.8,26.42-52.34c4.91,11.49,14.07,35.47,14.07,54.6Zm156-17.54v179c-5.9,1-24.26,3.17-74.4,3.17s-68.51-2.15-74.4-3.17v-179c0-24.87-13.83-55.95-17.15-63,3.46-5.94,23.56-15.12,43.51-21.66a25,25,0,0,0-.18,8c1.39,10.6,8.29,37.63,8.58,38.78a3.6,3.6,0,0,0,1.66,2.21,3.79,3.79,0,0,0,2.73.37l25.14-6.68,6.52,9.49v29.33a3.59,3.59,0,1,0,7.17,0V175.91l6.53-9.5,25.13,6.68a3.61,3.61,0,0,0,2.74-.37,3.66,3.66,0,0,0,1.66-2.21c.29-1.15,7.19-28.18,8.58-38.78a24.8,24.8,0,0,0-.19-8c20,6.55,40.05,15.73,43.51,21.67C338.46,152.46,324.64,183.54,324.64,208.41Zm7.17,30.48v-5l43.72-21.38,2.09,4.14Z"/></g></svg>