<svg xmlns="http://www.w3.org/2000/svg" viewBox="0 0 500 500"><defs><style>.cls-1{fill:#cae6dc;}.cls-2{fill:#a8d6c6;}.cls-3{fill:#b9d1dd;}.cls-4{fill:#3f352f;}</style></defs><g id="레이어_3" data-name="레이어 3"><path class="cls-1" d="M234.18,153.94c-.74-.62-16.64-14.3-21.18-33.49a341.51,341.51,0,0,0-44.29,23c4.46,6.22,4.13,17.61,4.13,17.61s0,48.57,0,48.66l-8.39,127.87L164,378.1s.84,4.66,10.75,9.17c9.75,4.44,30,9.72,71.39,10V145.22l-6.47,8.17C238.12,155.17,236.23,155.64,234.18,153.94Z"/><path class="cls-1" d="M165.15,161a31.17,31.17,0,0,0-2.05-11.71c-3.79,5-6.33,11.07-8.13,19-2.73,12.08-35,135.33-36,153.89a300.77,300.77,0,0,0,2,50h24.45c2.53-5,9.05-19,11.33-35.18l8.38-127.71S165.15,161.05,165.15,161Z"/><polygon class="cls-2" points="122.73 389.27 140.82 389.27 142.95 379.89 121.86 379.89 122.73 389.27"/><path class="cls-3" d="M244.42,135a58.52,58.52,0,0,1-19.91-26.7l-4.59,7.52c2.11,13.43,11.52,24.53,16.35,29.46Z"/><path class="cls-3" d="M255.58,135l8.15,10.28c4.83-4.95,14.24-16.08,16.35-29.46l-4.59-7.52A58.6,58.6,0,0,1,255.58,135Z"/><polygon class="cls-2" points="276.51 215.09 290.28 221.48 304.05 215.09 304.05 190.37 276.51 190.37 276.51 215.09"/><path class="cls-1" d="M345,168.27c-1.8-8-4.34-14.06-8.12-19A31,31,0,0,0,334.85,161c0,.09,0,48.36,0,48.36L343.22,337c2.28,16.17,8.8,30.18,11.33,35.18H379a302.08,302.08,0,0,0,2-50C380,303.6,347.76,180.35,345,168.27Z"/><polygon class="cls-2" points="359.18 389.27 377.27 389.27 378.14 379.89 357.05 379.89 359.18 389.27"/><path class="cls-1" d="M327.16,209.69c0-.09,0-48.82,0-48.82,0-4.45.69-11.93,4.13-17.45-2.21-1.84-28-16.33-44.29-23-4.53,19.19-20.49,32.82-21.18,33.49a3.68,3.68,0,0,1-5.5-.55l-6.48-8.17V397.29c41.38-.3,61.65-5.58,71.4-10,9.91-4.51,10.7-8.79,10.75-9.16h0l-.44-40.54Zm-15.42,7.86a3.85,3.85,0,0,1-2.22,3.49l-17.62,8.17h0a3.82,3.82,0,0,1-3.24,0L271.05,221a3.86,3.86,0,0,1-2.23-3.49v-31a3.84,3.84,0,0,1,3.85-3.84H307.9a3.84,3.84,0,0,1,3.84,3.84Z"/><path class="cls-2" d="M269.28,102.69H230.73c2,6.41,7.18,18.42,19.27,26.87C262.15,121.08,267.3,109.09,269.28,102.69Z"/><path class="cls-4" d="M307.9,182.68H272.67a3.84,3.84,0,0,0-3.85,3.84v31a3.86,3.86,0,0,0,2.23,3.49l17.61,8.17a3.82,3.82,0,0,0,3.24,0h0L309.52,221a3.85,3.85,0,0,0,2.22-3.49v-31A3.84,3.84,0,0,0,307.9,182.68Zm-3.85,32.41-13.77,6.39-13.77-6.39V190.37h27.54Z"/><path class="cls-4" d="M352.53,166.57c-2.51-11.1-6.61-19.42-13-26-.06-.08-15.68-12.87-52.8-28.64l-9.23-15.11A3.85,3.85,0,0,0,274.11,95H225.89a3.84,3.84,0,0,0-3.37,1.83L213.29,112c-38.76,16.63-52.73,28.56-52.79,28.63-6.42,6.57-9.75,12.72-13,26-2.94,11.91-35.12,135.84-36.14,155.18a302.21,302.21,0,0,0,2.49,54.75l1.58,17a3.85,3.85,0,0,0,3.83,3.49h24.66a3.83,3.83,0,0,0,3.75-3l3.75-16.54a112.48,112.48,0,0,0,5.05-10.78L156.32,378c0,1,.2,4.62,4.07,8.77C168.15,395.08,190,405,250,405s81.85-9.92,89.61-18.25c3.87-4.15,4.1-7.72,4.07-8.77l-.12-11.33a112.48,112.48,0,0,0,5.05,10.78L352.36,394a3.83,3.83,0,0,0,3.75,3h24.66a3.85,3.85,0,0,0,3.83-3.49l1.58-17a302.21,302.21,0,0,0,2.49-54.75C387.65,302.41,355.23,178.53,352.53,166.57Zm-77-58.24,4.59,7.52c-2.11,13.38-11.52,24.51-16.35,29.46L255.58,135A58.6,58.6,0,0,0,275.49,108.33Zm-51,0A58.52,58.52,0,0,0,244.42,135l-8.15,10.28c-4.83-4.93-14.24-16-16.35-29.46ZM140.82,389.27H122.73l-.87-9.38H143Zm16-52.25c-2.28,16.17-8.8,30.18-11.33,35.18H121a300.77,300.77,0,0,1-2-50c1-18.56,33.23-141.81,36-153.89,1.8-8,4.34-14.06,8.13-19A31.17,31.17,0,0,1,165.15,161c0,.1,0,48.36,0,48.36Zm89.37,60.27c-41.37-.3-61.64-5.58-71.39-10-9.91-4.51-10.75-9.16-10.75-9.16l.44-40.55,8.39-127.87c0-.09,0-48.64,0-48.66s.33-11.39-4.13-17.61a341.51,341.51,0,0,1,44.29-23c4.54,19.19,20.44,32.87,21.18,33.49,2,1.7,3.94,1.23,5.5-.55l6.47-8.17Zm-15.42-294.6h38.55c-2,6.4-7.13,18.39-19.28,26.87C237.91,121.11,232.74,109.1,230.73,102.69ZM336,378.11c-.05.37-.84,4.65-10.75,9.16-9.75,4.44-30,9.72-71.4,10V145.22l6.48,8.17a3.68,3.68,0,0,0,5.5.55c.69-.67,16.65-14.3,21.18-33.49,16.28,6.64,42.08,21.13,44.29,23-3.44,5.52-4.09,13-4.13,17.45,0,0,0,48.73,0,48.82l8.39,127.87L336,378.1Zm41.28,11.16H359.18l-2.13-9.38h21.09ZM379,372.2H354.55c-2.53-5-9.05-19-11.33-35.18l-8.38-127.71s0-48.27,0-48.36a31,31,0,0,1,2.06-11.71c3.78,5,6.32,11.07,8.12,19,2.73,12.08,35,135.33,36,153.89A302.08,302.08,0,0,1,379,372.2Z"/></g></svg>