<svg xmlns="http://www.w3.org/2000/svg" viewBox="0 0 500 500"><defs><style>.cls-1{fill:none;}.cls-2{fill:#333;}.cls-3{fill:#c6eeff;}.cls-4{fill:#a2d7e8;}</style></defs><g id="레이어_3" data-name="레이어 3"><path class="cls-1" d="M208.82,205.3c3.07,4.77,8.2,8.85,15.28,12.11-2.3-19.5-14.28-35.07-22.37-43.57C202.67,186.73,204.73,199,208.82,205.3Z"/><path class="cls-1" d="M290.18,205.3c4.07-6.35,6.13-18.56,7.07-31.43-8.08,8.51-20.06,24.09-22.36,43.54C282,214.15,287.1,210.07,290.18,205.3Z"/><path class="cls-2" d="M328.33,364.85c3.3-.47,6.22-.9,8.7-1.29.1-2.78.33-5.54.53-8.31-2.48.39-5.45.83-8.8,1.31C328.59,359.32,328.41,362.07,328.33,364.85Z"/><path class="cls-2" d="M170.23,356.71q-4.46-.84-8.83-1.83c.21,2.78.44,5.56.54,8.35,2.88.64,5.79,1.24,8.71,1.79C170.58,362.25,170.41,359.48,170.23,356.71Z"/><path class="cls-2" d="M166.08,325.19c-5.89-28.47-7.6-57-8.52-72.34,0-.69-.08-1.35-.12-2,20.83-25.5,20-87.78,19.56-101.93l15.6-8.21c-.62,16.35-.87,54.08,8.9,69.28,4.18,6.5,11,11.85,20.28,15.9a69.45,69.45,0,0,0,55.43,0c9.27-4.05,16.09-9.4,20.28-15.9,9.77-15.2,9.52-52.93,8.89-69.28l15.6,8.21c-.47,14.15-1.26,76.43,19.57,101.93-.05.64-.08,1.31-.12,2-.93,15.34-2.64,43.87-8.53,72.34a227.39,227.39,0,0,0-4.14,31.37c3.35-.48,6.32-.92,8.8-1.31a218.6,218.6,0,0,1,3.86-28.3c6-29.07,7.75-58,8.68-73.57.08-1.35.16-2.6.23-3.73a4.34,4.34,0,0,0-1.1-3.19c-22-24.43-18.5-99.13-18.45-99.88a4.39,4.39,0,0,0-2.32-4.07l-24.78-13a4.31,4.31,0,0,0-3.46-.25,154.11,154.11,0,0,1-101.45,0,4.3,4.3,0,0,0-3.46.25l-24.78,13a4.35,4.35,0,0,0-2.32,4.07c0,.75,3.57,75.43-18.44,99.88a4.35,4.35,0,0,0-1.12,3.19c.07,1.13.15,2.38.23,3.73.94,15.54,2.67,44.49,8.69,73.57a216.39,216.39,0,0,1,3.83,27.93q4.38,1,8.83,1.83A226.5,226.5,0,0,0,166.08,325.19ZM208.82,205.3c-4.09-6.35-6.15-18.57-7.09-31.46,8.09,8.5,20.07,24.07,22.37,43.57C217,214.15,211.89,210.07,208.82,205.3Zm81.36,0c-3.08,4.77-8.22,8.85-15.29,12.11,2.3-19.45,14.28-35,22.36-43.54C296.31,186.74,294.25,199,290.18,205.3Zm-88.82-66.09a162.88,162.88,0,0,0,96.27,0c.27,6,.41,13.77.22,22-6.57,5.6-30.38,28-32,59.47a60.92,60.92,0,0,1-32.78,0c-1.57-31.45-25.39-53.86-32-59.46C200.94,153,201.1,145.18,201.36,139.21Z"/><path class="cls-3" d="M328.76,356.56a227.39,227.39,0,0,1,4.14-31.37c5.89-28.47,7.6-57,8.53-72.34,0-.68.07-1.35.12-2-20.83-25.5-20-87.78-19.57-101.93l-15.6-8.21c.63,16.35.88,54.08-8.89,69.28-4.19,6.5-11,11.85-20.28,15.9a69.45,69.45,0,0,1-55.43,0c-9.28-4.05-16.1-9.4-20.28-15.9-9.77-15.2-9.52-52.93-8.9-69.28L177,148.93c.47,14.15,1.27,76.43-19.56,101.93,0,.64.08,1.3.12,2,.92,15.33,2.63,43.87,8.52,72.34a226.5,226.5,0,0,1,4.15,31.52C229.4,368,297.14,361,328.76,356.56Z"/><path class="cls-2" d="M170.23,356.71c.18,2.77.35,5.54.42,8.31,58.81,11.09,126,4.28,157.68-.17.08-2.78.26-5.53.43-8.29C297.14,361,229.4,368,170.23,356.71Z"/><path class="cls-4" d="M233.1,220.7a60.92,60.92,0,0,0,32.78,0c1.59-31.46,25.4-53.87,32-59.47.19-8.26,0-16.06-.22-22a162.88,162.88,0,0,1-96.27,0c-.26,6-.42,13.78-.22,22C207.71,166.84,231.53,189.25,233.1,220.7Z"/></g></svg>