<svg xmlns="http://www.w3.org/2000/svg" viewBox="0 0 500 500"><defs><style>.cls-1{fill:#c5bca5;}.cls-2{fill:#a99c83;}.cls-3{fill:#3f352f;}</style></defs><g id="레이어_3" data-name="레이어 3"><path class="cls-1" d="M135.61,249.88l-3.15,16.29,39.2,7.7c-.66-5.9-1.52-11.59-2.45-17.27Z"/><path class="cls-2" d="M167.83,248.4c-.08-.46-5.49-32-5.87-50.56-.56-27.63-10.12-54.37-14.83-66-4.25,7.29-10.85,24.09-10.28,57.64.56,32.86.2,46.83-.15,52.66Z"/><path class="cls-1" d="M249.87,121.07c27.84,0,36.21-17.93,37.05-19.6-7.08,2.75-18.7,5.45-37.05,5.45s-30.05-2.71-37.14-5.48C217,109.81,227,121.07,249.87,121.07Z"/><path class="cls-2" d="M331.9,248.4,363,242.18c-.35-5.83-.71-19.8-.15-52.66.57-33.55-6-50.35-10.28-57.64-4.72,11.58-14.27,38.33-14.83,66C337.39,216.43,332,247.94,331.9,248.4Z"/><path class="cls-2" d="M346.4,126.52C320,117.27,303.54,106,296,100.05a42.9,42.9,0,0,1-6.13,11.33c-5.67,7.48-16.47,16.32-36.11,17.36v79a3.89,3.89,0,0,1-7.77,0V128.73c-19.64-1-30.44-9.87-36.11-17.35a42.9,42.9,0,0,1-6.13-11.33c-7.55,6-24,17.22-50.41,26.47,4.47,10.45,15.76,39.83,16.4,71.16.36,18,3,33.26,5.52,48,2.75,16,5.6,32.61,5.6,52.72,0,17.18-1.15,40.57-3.16,64.17-1.1,12.91-2.62,28.2-4.2,35.62,5,1.57,21.85,4.79,76.38,4.79s71.39-3.22,76.37-4.79c-1.58-7.42-3.1-22.71-4.2-35.62-2-23.6-3.16-47-3.16-64.17,0-20.11,2.85-36.69,5.6-52.72,2.54-14.76,5.16-30,5.52-48C330.64,166.35,341.93,137,346.4,126.52Zm-83.84,73.1a3.86,3.86,0,1,1,1.14-2.74A3.87,3.87,0,0,1,262.56,199.62Zm0-27.86a3.89,3.89,0,0,1-6.63-2.74,3.89,3.89,0,1,1,6.63,2.74Zm0-27.85a3.87,3.87,0,1,1,1.14-2.75A3.91,3.91,0,0,1,262.56,143.91Z"/><path class="cls-1" d="M330.52,256.6c-.93,5.68-1.78,11.37-2.45,17.27l39.2-7.7-3.15-16.29Z"/><path class="cls-3" d="M371,244.59s-1.13-9.54-.37-54.94c.91-53.35-15.77-67.84-16.48-68.43v0a3.94,3.94,0,0,0-1.26-.72c-38-12.51-56.13-30-56.31-30.17a3.85,3.85,0,0,0-5.55.12h0c-.08.09-9,8.69-41.15,8.69-31.94,0-41.13-8.66-41.22-8.75l.06.06h0a3.75,3.75,0,0,0-1.57-1,3.9,3.9,0,0,0-4,.91c-.18.17-18.17,17.6-56.31,30.17a3.94,3.94,0,0,0-1.26.72v0c-.71.59-17.38,15.08-16.48,68.43.76,45.4-.36,54.92-.37,54.95l-4.62,23.89a3.88,3.88,0,0,0,3.06,4.55l45.27,8.9c.41,5.23.65,10.68.65,16.48,0,38.7-5.64,94.73-7.56,99.94a3.91,3.91,0,0,0-.22,3.21c.86,2.27,3.47,9.2,84.57,9.2s83.7-6.93,84.56-9.2a3.91,3.91,0,0,0-.22-3.21c-1.92-5.21-7.56-61.24-7.56-99.94,0-5.8.24-11.25.65-16.48l45.27-8.9a3.88,3.88,0,0,0,3.06-4.55Zm-8.13-55.07c-.56,32.86-.2,46.83.15,52.66L331.9,248.4c.08-.46,5.49-32,5.87-50.56.56-27.63,10.11-54.38,14.83-66C356.85,139.17,363.45,156,362.88,189.52Zm-113-82.6c18.35,0,30-2.7,37.05-5.45-.84,1.67-9.21,19.6-37.05,19.6-22.92,0-32.89-11.26-37.14-19.63C219.82,104.21,231.45,106.92,249.87,106.92Zm-113,82.6c-.57-33.55,6-50.35,10.28-57.64,4.71,11.59,14.27,38.33,14.83,66,.38,18.59,5.79,50.1,5.87,50.56l-31.13-6.22C137.05,236.35,137.41,222.38,136.85,189.52Zm-4.39,76.65,3.15-16.29,33.6,6.72c.93,5.68,1.79,11.37,2.45,17.27Zm192-20.47c-2.75,16-5.6,32.61-5.6,52.72,0,17.18,1.15,40.57,3.16,64.17,1.1,12.91,2.62,28.2,4.2,35.62-5,1.57-21.85,4.79-76.37,4.79s-71.4-3.22-76.38-4.79c1.58-7.42,3.1-22.71,4.2-35.62,2-23.6,3.16-47,3.16-64.17,0-20.11-2.85-36.69-5.6-52.72-2.54-14.76-5.16-30-5.52-48-.64-31.33-11.93-60.71-16.4-71.16,26.41-9.25,42.86-20.5,50.41-26.47a42.9,42.9,0,0,0,6.13,11.33c5.67,7.48,16.47,16.32,36.11,17.35v79.06a3.89,3.89,0,0,0,7.77,0v-79c19.64-1,30.44-9.88,36.11-17.36A42.9,42.9,0,0,0,296,100.05c7.55,6,24,17.22,50.41,26.47-4.47,10.45-15.76,39.83-16.4,71.16C329.64,215.69,327,230.94,324.48,245.7Zm3.59,28.17c.67-5.9,1.52-11.59,2.45-17.27l33.6-6.72,3.15,16.29Z"/><path class="cls-3" d="M259.81,137.28a3.89,3.89,0,1,0,2.75,1.14A3.93,3.93,0,0,0,259.81,137.28Z"/><path class="cls-3" d="M259.81,165.14a3.88,3.88,0,0,0,0,7.76A3.89,3.89,0,0,0,263.7,169a3.88,3.88,0,0,0-3.89-3.88Z"/><path class="cls-3" d="M259.81,193a3.89,3.89,0,1,0,2.75,1.14A3.89,3.89,0,0,0,259.81,193Z"/></g></svg>