<svg xmlns="http://www.w3.org/2000/svg" viewBox="0 0 500 500"><defs><style>.cls-1{fill:#333;}.cls-2{fill:#f2d973;}.cls-3{fill:#f08181;}.cls-4{fill:#cf6d6d;}</style></defs><g id="레이어_3" data-name="레이어 3"><path class="cls-1" d="M393.34,163.32a3.71,3.71,0,0,1-.09,3.73c-.65,1.07-16.24,26.21-49.74,30.11a3.73,3.73,0,0,1-4-2.58l-.75-2.36c-4.26,22.83-11.88,65.86-11.36,77.89.73,16.77,16.22,123.09,16.37,124.16a3.73,3.73,0,0,1-2.58,4.1,308.41,308.41,0,0,1-184.18,0,3.73,3.73,0,0,1-2.58-4.1c.15-1.07,15.64-107.4,16.37-124.16.52-12-7.11-55.06-11.36-77.89l-.75,2.36a3.73,3.73,0,0,1-4,2.58c-33.49-3.9-49.09-29-49.74-30.11a3.76,3.76,0,0,1-.08-3.73l21.89-39.93a45,45,0,0,1,25.82-21.32l44.66-14.33a3.75,3.75,0,0,1,2.77.19,111.75,111.75,0,0,0,98.16,0,3.74,3.74,0,0,1,2.77-.19l44.67,14.33a45,45,0,0,1,25.81,21.32Zm-7.65,1.58-1.44-2.63a71,71,0,0,1-39.57,23.92l1,3.14C368.74,185.51,381.86,170.09,385.69,164.9Zm-5.32-9.73L364.91,127a37.57,37.57,0,0,0-16.54-15.78c.06,9.93-.7,32.34-6.67,65.61l.71,2.24A63,63,0,0,0,380.37,155.17Zm-44.92,14c5.46-32.77,5.57-53.86,5.41-60.79l-27.68-8.88c-6.84,25.37-22.11,40.15-34,48.16a79.91,79.91,0,0,1-27.2,12s-2.6.49-2.84.49-2.85-.49-2.85-.49c-1.35-.26-13.56-2.81-27.19-12-11.91-8-27.19-22.78-34-48.15l-27.67,8.88c-.16,6.84,0,27.52,5.19,59.46.45,2.77,2,11.37,2.68,14.81,3.58,18.76,13.66,73.16,13,87.79-.57,13.16-9.57,77.09-14,108.11a301.78,301.78,0,0,0,169.74,0c-4.45-31-13.45-95-14-108.11-.64-14.8,9.66-70.26,13.14-88.4C333.7,178.93,335.06,171.51,335.45,169.16Zm.5,223c-.22-1.57-.53-3.67-.9-6.18a309.49,309.49,0,0,1-171.87,0c-.36,2.51-.66,4.61-.89,6.18A300.85,300.85,0,0,0,336,392.18Zm-29.88-295-3.55-1.14c-5.88,22.34-19.18,35.28-29.6,42.29a69.28,69.28,0,0,1-23.08,10.28,3.51,3.51,0,0,1-.72.07,3.35,3.35,0,0,1-.71-.07,69.1,69.1,0,0,1-23.09-10.28c-10.42-7-23.72-20-29.6-42.29l-3.56,1.14c6.21,23.37,20.19,36.92,31.08,44.25a73.43,73.43,0,0,0,24.44,10.84l1.44.28,1.43-.28A73.44,73.44,0,0,0,275,141.46C285.89,134.13,299.87,120.58,306.07,97.21ZM269,132a63.29,63.29,0,0,0,25.23-34.16,120.62,120.62,0,0,1-45.12,8.83A120.62,120.62,0,0,1,204,97.84c10.67,33.44,40.14,42.08,45.12,43.32A65.23,65.23,0,0,0,269,132ZM155.83,179l.71-2.24c-6-33.27-6.72-55.68-6.67-65.61A37.52,37.52,0,0,0,133.33,127l-15.46,28.2A62.75,62.75,0,0,0,155.83,179Zm-3.28,10.29,1-3.14A70.72,70.72,0,0,1,114,162.27l-1.44,2.63C116.37,170.08,129.49,185.51,152.55,189.33Z"/><path class="cls-2" d="M384.25,162.27l1.44,2.63c-3.83,5.19-16.95,20.61-40,24.43l-1-3.14A71,71,0,0,0,384.25,162.27Z"/><path class="cls-3" d="M364.91,127l15.46,28.2a63,63,0,0,1-38,23.87l-.71-2.24c6-33.27,6.73-55.68,6.67-65.61A37.57,37.57,0,0,1,364.91,127Z"/><path class="cls-3" d="M340.86,108.37c.16,6.93.05,28-5.41,60.79-.39,2.35-1.75,9.77-2.34,12.87-3.48,18.14-13.78,73.6-13.14,88.4.57,13.16,9.57,77.09,14,108.11a301.78,301.78,0,0,1-169.74,0c4.45-31,13.45-95,14-108.11.64-14.63-9.44-69-13-87.79-.66-3.44-2.23-12-2.68-14.81-5.23-31.94-5.35-52.62-5.19-59.46l27.67-8.88c6.84,25.37,22.12,40.15,34,48.15,13.63,9.17,25.84,11.72,27.19,12,0,0,2.61.49,2.85.49s2.84-.49,2.84-.49a79.91,79.91,0,0,0,27.2-12c11.91-8,27.18-22.79,34-48.16Z"/><path class="cls-2" d="M335.05,386c.37,2.51.68,4.61.9,6.18a300.85,300.85,0,0,1-173.66,0c.23-1.57.53-3.67.89-6.18a309.49,309.49,0,0,0,171.87,0Z"/><path class="cls-2" d="M302.52,96.07l3.55,1.14c-6.2,23.37-20.18,36.92-31.07,44.25a73.44,73.44,0,0,1-24.45,10.84l-1.43.28-1.44-.28a73.43,73.43,0,0,1-24.44-10.84c-10.89-7.33-24.87-20.88-31.08-44.25l3.56-1.14c5.88,22.34,19.18,35.28,29.6,42.29a69.1,69.1,0,0,0,23.09,10.28,3.35,3.35,0,0,0,.71.07,3.51,3.51,0,0,0,.72-.07,69.28,69.28,0,0,0,23.08-10.28C283.34,131.35,296.64,118.41,302.52,96.07Z"/><path class="cls-4" d="M294.24,97.84A63.29,63.29,0,0,1,269,132a65.23,65.23,0,0,1-19.89,9.16c-5-1.24-34.45-9.88-45.12-43.32a120.62,120.62,0,0,0,45.12,8.83A120.62,120.62,0,0,0,294.24,97.84Z"/><path class="cls-3" d="M156.54,176.8l-.71,2.24a62.75,62.75,0,0,1-38-23.87L133.33,127a37.52,37.52,0,0,1,16.54-15.78C149.82,121.12,150.56,143.53,156.54,176.8Z"/><path class="cls-2" d="M153.55,186.19l-1,3.14c-23.06-3.82-36.18-19.25-40-24.43l1.44-2.63A70.72,70.72,0,0,0,153.55,186.19Z"/></g></svg>