<svg xmlns="http://www.w3.org/2000/svg" viewBox="0 0 500 500"><defs><style>.cls-1{fill:#333;}.cls-2{fill:#e3a167;}.cls-3{fill:#fab777;}.cls-4{fill:#d4935f;}</style></defs><g id="레이어_3" data-name="레이어 3"><path class="cls-1" d="M357.7,262.6a3.35,3.35,0,0,1-2,3.36c-.87.39-17.43,7.7-34.05,7.7a46.22,46.22,0,0,1-10.78-1.2q-.36,7.59-.4,15.41c0,47.85,18.33,100.33,18.51,100.85a3.35,3.35,0,0,1-.65,3.33c-.41.47-4.36,4.66-16,8.73-15.13,5.3-35.92,8-61.78,8s-46.65-2.68-61.78-8c-11.62-4.07-15.57-8.26-16-8.73a3.32,3.32,0,0,1-.65-3.33c.18-.52,18.51-53,18.51-100.87,0-5.2-.16-10.34-.41-15.39a46,46,0,0,1-10.77,1.2c-16.63,0-33.18-7.31-34.05-7.7a3.33,3.33,0,0,1-2-3.36l2.23-23.16a3.32,3.32,0,0,1,2-2.73l3.5-1.58c1-16.38,5.66-92.87,10.38-104,3-7.21,12.46-9.56,22.43-12,8.64-2.16,17.56-4.38,21.58-9.54.2-.26,1-1.43,1.23-1.75,5.26-7.63,15-14.9,16.43-15.91a3.32,3.32,0,0,1,2.92-.5l.91.26a85.14,85.14,0,0,0,47.13,0l.82-.23a3.32,3.32,0,0,1,2.92.5c1.39,1,11.1,8.23,16.37,15.82.26.36,1.13,1.63,1.34,1.9,4.05,5.12,12.93,7.34,21.54,9.48,10,2.49,19.37,4.84,22.43,12,4.71,11.13,9.41,87.62,10.37,104l3.51,1.58a3.33,3.33,0,0,1,2,2.73Zm-6.89-1.83L349,242l-1.65-.75c-3.89,2.62-14.84,8.59-34.78,9.38q-.78,7.37-1.28,15C325.5,269.77,344.43,263.25,350.81,260.77Zm-7.45-24.86c-1.6-27.64-4.38-65.85-7.09-87.15a426.33,426.33,0,0,0-22.93,95.16C330.83,243.05,340.2,238,343.36,235.91Zm-9.19-100a15.83,15.83,0,0,0-.69-2.22c-1.75-4.13-10-6.19-17.89-8.16-5.93-1.49-12.32-3.08-17.59-5.85,0,9.22-3,21-3.19,21.57a3.33,3.33,0,0,1-5.87,1.19l-6.58-8.55a4.19,4.19,0,0,0-6.92.42l-16.77,28.41c-1.82,3.25-3.31,5.75-4.24,7.26l3.18,6.34a3.33,3.33,0,0,1,.35,1.49V402c26.15-.57,42.2-4.15,51.26-7.19,7-2.35,10.88-4.71,12.76-6.06-3.5-10.59-18.15-57.54-18.15-100.9C304.24,208.71,330.42,144.7,334.17,136Zm-44.31-3.21c1.08-5.66,2-12.81,1.13-17-.8-3.78-6.14-9.43-11.29-13.92-.18,7.19-1.77,15.4-4.73,24.58a11.15,11.15,0,0,1,3.41-.78l.66,0a10.85,10.85,0,0,1,8.61,4.25ZM272,111.27a58.52,58.52,0,0,0,1-12.42,91.55,91.55,0,0,1-44.78,0,57.87,57.87,0,0,0,1,12.42ZM270.47,118H230.75c4.2,16.1,12.64,32.62,17.95,42.09l1.91,3.23,1.91-3.23C257.83,150.56,266.27,134.05,270.47,118ZM251.28,402.07V178.64l-25.5-44.29a4.19,4.19,0,0,0-6.92-.42l-6.57,8.55a3.34,3.34,0,0,1-5.88-1.19c-.16-.59-3.21-12.35-3.19-21.57-5.27,2.77-11.67,4.36-17.58,5.85-7.95,2-16.16,4-17.91,8.16a17.52,17.52,0,0,0-.68,2.22c3.75,8.75,29.93,72.76,30.34,151.88,0,43.39-14.65,90.34-18.15,100.92,1.86,1.35,5.77,3.71,12.76,6.06,9.88,3.32,28.07,7.27,58.61,7.27Zm-25-275.66c-2.65-8.24-4.51-16.72-4.72-24.58-5.16,4.49-10.5,10.15-11.29,13.92-.88,4.19,0,11.34,1.11,17l2.22-2.88a10.89,10.89,0,0,1,9.27-4.23A11.22,11.22,0,0,1,226.25,126.41ZM189.92,265.65q-.51-7.65-1.28-15c-19.94-.79-30.89-6.76-34.77-9.38l-1.65.75-1.81,18.76C156.78,263.25,175.72,269.77,189.92,265.65Zm-2-21.73A426.77,426.77,0,0,0,165,148.76c-2.7,21.29-5.49,59.49-7.09,87.14C161.06,238,170.56,243.05,187.89,243.92Z"/><path class="cls-2" d="M349,242l1.8,18.76c-6.38,2.48-25.31,9-39.51,4.88q.49-7.65,1.28-15c19.94-.79,30.89-6.76,34.78-9.38Z"/><path class="cls-3" d="M336.27,148.76c2.71,21.3,5.49,59.51,7.09,87.15-3.16,2.09-12.53,7.14-30,8A426.33,426.33,0,0,1,336.27,148.76Z"/><path class="cls-3" d="M333.48,133.73a15.83,15.83,0,0,1,.69,2.22c-3.75,8.75-29.93,72.76-30.34,151.9,0,43.36,14.65,90.31,18.15,100.9-1.88,1.35-5.79,3.71-12.76,6.06-9.06,3-25.11,6.62-51.26,7.19V177.85a3.33,3.33,0,0,0-.35-1.49L254.43,170c.93-1.51,2.42-4,4.24-7.26l16.77-28.41a4.19,4.19,0,0,1,6.92-.42l6.58,8.55a3.33,3.33,0,0,0,5.87-1.19c.16-.59,3.22-12.35,3.19-21.57,5.27,2.77,11.66,4.36,17.59,5.85C323.53,127.54,331.73,129.6,333.48,133.73ZM308.19,196a3.35,3.35,0,0,0-2.47-4c-.86-.2-21.17-5-40.13-4.09a3.34,3.34,0,0,0,.32,6.67c18-.86,38.06,3.87,38.26,3.92a3.44,3.44,0,0,0,.77.09A3.35,3.35,0,0,0,308.19,196Z"/><path class="cls-1" d="M305.72,192a3.34,3.34,0,0,1-.78,6.59,3.44,3.44,0,0,1-.77-.09c-.2-.05-20.28-4.78-38.26-3.92a3.34,3.34,0,0,1-.32-6.67C284.55,187,304.86,191.77,305.72,192Z"/><path class="cls-2" d="M291,115.75c.87,4.18-.05,11.33-1.13,17l-2.21-2.88a10.85,10.85,0,0,0-8.61-4.25l-.66,0a11.15,11.15,0,0,0-3.41.78c3-9.18,4.55-17.39,4.73-24.58C284.85,106.32,290.19,112,291,115.75Z"/><path class="cls-4" d="M273,98.85a58.52,58.52,0,0,1-1,12.42h-42.7a57.87,57.87,0,0,1-1-12.42,91.55,91.55,0,0,0,44.78,0Z"/><path class="cls-4" d="M230.75,118h39.72c-4.2,16.1-12.64,32.61-18,42.09l-1.91,3.23L248.7,160C243.39,150.57,235,134.05,230.75,118Z"/><path class="cls-3" d="M251.28,178.64V402.07h-.67c-30.54,0-48.73-3.95-58.61-7.27-7-2.35-10.9-4.71-12.76-6.06,3.5-10.58,18.15-57.53,18.15-100.92C197,208.71,170.8,144.7,167.05,136a17.52,17.52,0,0,1,.68-2.22c1.75-4.13,10-6.19,17.91-8.16,5.91-1.49,12.31-3.08,17.58-5.85,0,9.22,3,21,3.19,21.57a3.34,3.34,0,0,0,5.88,1.19l6.57-8.55a4.19,4.19,0,0,1,6.92.42Zm-1.78,5.44a3.38,3.38,0,0,0-3.34-3.34,3.41,3.41,0,0,0-2.37,1,3.36,3.36,0,0,0,0,4.72,3.4,3.4,0,0,0,2.37,1,3.35,3.35,0,0,0,3.34-3.34Zm0,186.16a3.33,3.33,0,0,0-1-2.36,3.28,3.28,0,0,0-2.35-1,3.34,3.34,0,0,0-2.37,5.7,3.41,3.41,0,0,0,2.37,1,3.36,3.36,0,0,0,3.34-3.34Zm0-155.13a3.34,3.34,0,1,0-3.34,3.34A3.35,3.35,0,0,0,249.5,215.11Zm0,31a3.34,3.34,0,1,0-3.34,3.34A3.34,3.34,0,0,0,249.5,246.14Zm0,31a3.34,3.34,0,1,0-3.34,3.34A3.35,3.35,0,0,0,249.5,277.16Zm0,31a3.34,3.34,0,1,0-3.34,3.34A3.34,3.34,0,0,0,249.5,308.19Zm0,31a3.34,3.34,0,1,0-3.34,3.34A3.34,3.34,0,0,0,249.5,339.22ZM238.8,191.37a3.33,3.33,0,0,0-3.17-3.49c-19-.9-39.27,3.89-40.13,4.09a3.34,3.34,0,0,0,.78,6.59,3.59,3.59,0,0,0,.78-.09c.2-.05,20.26-4.78,38.25-3.92A3.32,3.32,0,0,0,238.8,191.37Z"/><path class="cls-1" d="M248.51,181.73a3.33,3.33,0,0,1-2.35,5.69,3.4,3.4,0,0,1-2.37-1,3.36,3.36,0,0,1,0-4.72,3.41,3.41,0,0,1,2.37-1A3.35,3.35,0,0,1,248.51,181.73Z"/><path class="cls-1" d="M248.51,367.88a3.34,3.34,0,0,1-2.35,5.7,3.41,3.41,0,0,1-2.37-1,3.34,3.34,0,0,1,2.37-5.7A3.28,3.28,0,0,1,248.51,367.88Z"/><path class="cls-1" d="M246.16,211.77a3.34,3.34,0,1,1-3.34,3.34A3.35,3.35,0,0,1,246.16,211.77Z"/><path class="cls-1" d="M246.16,242.8a3.34,3.34,0,1,1-3.34,3.34A3.34,3.34,0,0,1,246.16,242.8Z"/><path class="cls-1" d="M246.16,273.82a3.34,3.34,0,1,1-3.34,3.34A3.35,3.35,0,0,1,246.16,273.82Z"/><path class="cls-1" d="M246.16,304.85a3.34,3.34,0,1,1-3.34,3.34A3.34,3.34,0,0,1,246.16,304.85Z"/><path class="cls-1" d="M246.16,335.88a3.34,3.34,0,1,1-3.34,3.34A3.34,3.34,0,0,1,246.16,335.88Z"/><path class="cls-1" d="M235.63,187.88a3.34,3.34,0,0,1-.32,6.67c-18-.86-38.05,3.87-38.25,3.92a3.59,3.59,0,0,1-.78.09,3.34,3.34,0,0,1-.78-6.59C196.36,191.77,216.66,187,235.63,187.88Z"/><path class="cls-2" d="M221.53,101.83c.21,7.86,2.07,16.34,4.72,24.58a11.22,11.22,0,0,0-3.41-.78,10.89,10.89,0,0,0-9.27,4.23l-2.22,2.88c-1.07-5.65-2-12.8-1.11-17C211,112,216.37,106.32,221.53,101.83Z"/><path class="cls-2" d="M188.64,250.64q.78,7.37,1.28,15c-14.2,4.12-33.14-2.4-39.51-4.88L152.22,242l1.65-.75C157.75,243.88,168.7,249.85,188.64,250.64Z"/><path class="cls-3" d="M165,148.76a426.77,426.77,0,0,1,22.94,95.16c-17.33-.87-26.83-5.95-30-8C159.46,208.25,162.25,170.05,165,148.76Z"/></g></svg>