<svg xmlns="http://www.w3.org/2000/svg" viewBox="0 0 500 500"><defs><style>.cls-1{fill:#519db8;}.cls-2{fill:#76cde6;}.cls-3{fill:#3f352f;}</style></defs><g id="레이어_3" data-name="레이어 3"><rect class="cls-1" x="160.76" y="332.87" width="178.95" height="60.08"/><path class="cls-2" d="M108.29,182.83l32.34,34.25,12.64-4.7V187.22c.14-11.48-.42-40.07-4.07-53.69Z"/><path class="cls-1" d="M273.9,116.45a117.18,117.18,0,0,1-23.74,2.17,115.12,115.12,0,0,1-24.48-2.32l23.1,39.56Z"/><rect class="cls-2" x="160.76" y="265.3" width="178.95" height="60.08"/><path class="cls-2" d="M347.21,187.17v25.21l12.63,4.7,32.35-34.25-40.92-49.3C347.63,147.15,347.07,175.73,347.21,187.17Z"/><path class="cls-2" d="M251.8,165.07a3.75,3.75,0,0,1-6.4-.12l-33.78-57.87c-29,.69-50.08,15.14-56.61,20.21,6.1,15.55,5.75,62.94,5.75,62.94h179s-.36-47.38,5.74-62.94c-6.55-5.07-27.77-19.55-56.71-20.2Z"/><rect class="cls-1" x="160.76" y="197.72" width="178.95" height="60.08"/><path class="cls-3" d="M352.62,123.47c-1.2-.83-26.88-23.91-65.9-23.91h0a3.75,3.75,0,0,0-3.16,1.73l-3.43,5.38c-4.4,2.14-14.51,4.45-30,4.45-15.71,0-25.82-2.35-30.14-4.53l-3-5.17a3.75,3.75,0,0,0-3.24-1.86c-39,0-64.67,23.13-65.9,23.91-2.94,1.86-47.46,57.13-47.46,57.13a3.74,3.74,0,0,0,.16,5L136.89,224a3.72,3.72,0,0,0,4,.94l12.35-4.59V396.69a3.74,3.74,0,0,0,3.74,3.75H343.46a3.75,3.75,0,0,0,3.75-3.75V220.38L359.56,225a3.65,3.65,0,0,0,1.3.24,3.74,3.74,0,0,0,2.73-1.18l36.33-38.47a3.74,3.74,0,0,0,.16-5S355.66,125.58,352.62,123.47ZM153.27,187.22v25.16l-12.64,4.7-32.34-34.25,40.91-49.3C152.85,147.15,153.41,175.74,153.27,187.22Zm96.89-68.6a117.18,117.18,0,0,0,23.74-2.17l-25.12,39.41-23.1-39.56A115.12,115.12,0,0,0,250.16,118.62ZM339.72,393h-179V332.87h179Zm0-67.58h-179V265.3h179Zm0-67.57h-179V197.72h179Zm0-67.57h-179s.35-47.39-5.75-62.94c6.53-5.07,27.63-19.52,56.61-20.21L245.4,165a3.75,3.75,0,0,0,6.4.12l36.95-58c28.94.65,50.16,15.13,56.71,20.2C339.36,142.85,339.72,190.23,339.72,190.23Zm20.12,26.85-12.63-4.7V187.17c-.14-11.44.42-40,4.06-53.64l40.92,49.3Z"/></g></svg>