<svg xmlns="http://www.w3.org/2000/svg" viewBox="0 0 500 500"><defs><style>.cls-1{fill:#333;}.cls-2{fill:#ef8716;}</style></defs><g id="레이어_3" data-name="레이어 3"><path class="cls-1" d="M360.29,347.28A24.77,24.77,0,0,1,358,359.69l-2.17,4.61.57,12.13a3.11,3.11,0,0,1-2.45,3.21l-17.72,3.93a3.23,3.23,0,0,1-.69.07,3.13,3.13,0,0,1-3.07-2.53l-2.38-12.24a24.8,24.8,0,0,1-6.44-14.53l-7.33-66.53c-.16,23.5,0,49.91,1,66.55a16.52,16.52,0,0,1-6.39,14v19.14a3.11,3.11,0,0,1-2.45,3.05,269.51,269.51,0,0,1-117,0,3.12,3.12,0,0,1-2.45-3.05V368.38a16.51,16.51,0,0,1-6.38-14c1-16.64,1.13-43,1-66.53l-7.33,66.51a24.68,24.68,0,0,1-6.44,14.53l-2.38,12.24a3.14,3.14,0,0,1-3.76,2.46L146,379.64a3.13,3.13,0,0,1-2.46-3.21l.58-12.13L142,359.69a24.85,24.85,0,0,1-2.28-12.36l14.17-157.49a36.56,36.56,0,0,1,19.3-29.58l12.4-6.63A128.57,128.57,0,0,1,189.16,127a3.24,3.24,0,0,1,.13-.49,14.07,14.07,0,0,1,5.75-7.63,87.26,87.26,0,0,1,36.4-14.63c9.8-1.6,27.33-1.6,37.12,0A87.13,87.13,0,0,1,305,118.83a14.07,14.07,0,0,1,5.79,7.74c0,.09,0,.19.07.28l0,.09a128,128,0,0,1,3.58,26.69l12.4,6.63a36.56,36.56,0,0,1,19.3,29.63Zm-8,9.74a18.39,18.39,0,0,0,1.7-9.22L339.88,190.41a30.34,30.34,0,0,0-16-24.62L311.23,159c-9.55,7-22.37,13-38.18,17.77l-1.76.52v87.87a3.13,3.13,0,1,1-6.26,0V179c-8.1,2.09-13.79,3.05-14.48,3.16a3.31,3.31,0,0,1-.55.05h0a3.41,3.41,0,0,1-.55-.05c-.69-.11-6.37-1.07-14.48-3.16v86.14a3.13,3.13,0,0,1-6.26,0V177.31l-1.75-.52C211.14,172,198.32,166,188.77,159l-12.63,6.77a30.33,30.33,0,0,0-16,24.57L146,347.85a18.31,18.31,0,0,0,1.7,9.18l1.82,3.86,16.4,3.07a18.19,18.19,0,0,0,2.56-4,17.84,17.84,0,0,0,1.66-6.16.17.17,0,0,1,0-.07L183,237.17a3.13,3.13,0,0,1,6.24.27c0,.81,1.94,81.44-.25,117.3a10.25,10.25,0,0,0,7.61,10.51,209.81,209.81,0,0,0,106.9,0,10.28,10.28,0,0,0,7.61-10.51c-2.19-35.86-.27-116.49-.25-117.3a3.13,3.13,0,0,1,6.24-.27L329.9,353.69v.07a18.42,18.42,0,0,0,4.23,10.2l16.39-3.07ZM350,374.1l-.31-6.69-13.05,2.45,1.34,6.9ZM308.15,153.5a120.76,120.76,0,0,0-1-12.58c-4.48,6.57-12.66,14-24.65,22.29-4,2.79-8.07,5.41-11.89,7.76C282.47,167.41,297.13,161.78,308.15,153.5Zm-5.79-16.81c2.1-3.26,2.93-6.07,2.38-8.33h0a.32.32,0,0,1,0-.09v0a8,8,0,0,0-3.37-4.3,80.45,80.45,0,0,0-31.26-13.06c-11.37-2.2-28.76-2.17-40.07,0a80.36,80.36,0,0,0-31.35,13.06,8,8,0,0,0-3.37,4.3v0s0,0,0,0a.35.35,0,0,1,0,.06c-.55,2.27.28,5.08,2.37,8.34a88.83,88.83,0,0,1,37.19-13.36,150.16,150.16,0,0,1,30.35,0A88.58,88.58,0,0,1,302.36,136.69ZM304.66,385V371.41a216.09,216.09,0,0,1-109.32,0V385A263.24,263.24,0,0,0,304.66,385ZM278.93,158c8.54-5.94,15.14-11.5,19.56-16.39a82.86,82.86,0,0,0-33.46-12,128.13,128.13,0,0,0-29.94,0,83.05,83.05,0,0,0-33.58,12c4.43,4.89,11.05,10.47,19.61,16.43A308.39,308.39,0,0,0,250,175.58,310.25,310.25,0,0,0,278.93,158ZM229.45,171c-3.82-2.35-7.89-5-11.9-7.77-12-8.33-20.17-15.72-24.65-22.29a120.76,120.76,0,0,0-1.05,12.58C202.89,161.79,217.55,167.43,229.45,171ZM162,376.76l1.35-6.9-13.05-2.45L150,374.1Z"/><path class="cls-2" d="M354,347.8a18.39,18.39,0,0,1-1.7,9.22l-1.82,3.87L334.13,364a18.42,18.42,0,0,1-4.23-10.2v-.07L317.05,237.17a3.13,3.13,0,0,0-6.24.27c0,.81-1.94,81.44.25,117.3a10.28,10.28,0,0,1-7.61,10.51,209.81,209.81,0,0,1-106.9,0,10.25,10.25,0,0,1-7.61-10.51c2.19-35.86.27-116.49.25-117.3a3.13,3.13,0,0,0-6.24-.27L170.11,353.69a.17.17,0,0,0,0,.07,17.84,17.84,0,0,1-1.66,6.16,18.19,18.19,0,0,1-2.56,4l-16.4-3.07L147.66,357a18.31,18.31,0,0,1-1.7-9.18l14.16-157.49a30.33,30.33,0,0,1,16-24.57L188.77,159c9.55,7,22.37,13,38.19,17.77l1.75.52v87.87a3.13,3.13,0,0,0,6.26,0V179c8.11,2.09,13.79,3.05,14.48,3.16a3.41,3.41,0,0,0,.55.05h0a3.31,3.31,0,0,0,.55-.05c.69-.11,6.38-1.07,14.48-3.16v86.14a3.13,3.13,0,1,0,6.26,0V177.31l1.76-.52C288.86,172,301.68,166,311.23,159l12.63,6.77a30.34,30.34,0,0,1,16,24.62Z"/><polygon class="cls-2" points="349.72 367.41 350.03 374.1 338.01 376.76 336.67 369.86 349.72 367.41"/><path class="cls-2" d="M307.1,140.92a120.76,120.76,0,0,1,1,12.58c-11,8.28-25.68,13.91-37.59,17.47,3.82-2.35,7.88-5,11.89-7.76C294.44,154.88,302.62,147.49,307.1,140.92Z"/><path class="cls-2" d="M304.74,128.36c.55,2.26-.28,5.07-2.38,8.33a88.58,88.58,0,0,0-37.18-13.35,150.16,150.16,0,0,0-30.35,0,88.83,88.83,0,0,0-37.19,13.36c-2.09-3.26-2.92-6.07-2.37-8.34a.35.35,0,0,0,0-.06s0,0,0,0v0a8,8,0,0,1,3.37-4.3A80.36,80.36,0,0,1,230,110.88c11.31-2.17,28.7-2.2,40.07,0a80.45,80.45,0,0,1,31.26,13.06,8,8,0,0,1,3.37,4.3v0a.32.32,0,0,0,0,.09Z"/><path class="cls-2" d="M304.66,371.41V385a263.24,263.24,0,0,1-109.32,0V371.41A216.09,216.09,0,0,0,304.66,371.41Z"/><path class="cls-2" d="M298.49,141.64c-4.42,4.89-11,10.45-19.56,16.39A310.25,310.25,0,0,1,250,175.58a308.39,308.39,0,0,1-28.88-17.51c-8.56-6-15.18-11.54-19.61-16.43a83.05,83.05,0,0,1,33.58-12,128.13,128.13,0,0,1,29.94,0A82.86,82.86,0,0,1,298.49,141.64Z"/><path class="cls-2" d="M217.55,163.21c4,2.79,8.08,5.42,11.9,7.77-11.9-3.55-26.56-9.19-37.6-17.48a120.76,120.76,0,0,1,1.05-12.58C197.38,147.49,205.56,154.88,217.55,163.21Z"/><polygon class="cls-2" points="163.33 369.86 161.98 376.76 149.96 374.1 150.28 367.41 163.33 369.86"/></g></svg>