<svg xmlns="http://www.w3.org/2000/svg" viewBox="0 0 500 500"><defs><style>.cls-1{fill:#beab95;}.cls-2{fill:#333;}.cls-3{fill:#997c60;}.cls-4{fill:#532c03;}.cls-5{fill:#fff;}</style></defs><g id="레이어_3" data-name="레이어 3"><path class="cls-1" d="M274.17,79.45l-3.64,32.21L255.2,139.42l-10.78,8.7-4.14-14.91L226.19,90.53l.91-11.08s-38.55,14.27-42.4,22-28.53,177.71-28.53,177.71l33.54,11.18L204,180.83l4.63,33.54s-7.33,34.31-8.87,58.59-6.17,151.11-6.17,151.11H307.71S303.08,297.25,301.54,273s-8.86-58.59-8.86-58.59l4.62-33.54,14.27,109.48,33.53-11.18s-24.67-170-28.52-177.71-42.41-22-42.41-22"/><path class="cls-2" d="M307.71,426H193.57a1.9,1.9,0,0,1-1.37-.57,2,2,0,0,1-.53-1.39c.05-1.26,4.65-127.12,6.17-151.16,1.46-22.88,8.09-54.95,8.84-58.54L204,195.07l-12.44,95.48a1.92,1.92,0,0,1-.88,1.37,2,2,0,0,1-1.6.19l-33.54-11.18a1.9,1.9,0,0,1-1.27-2.07c2.53-17.43,24.83-170.52,28.71-178.28,4.07-8.15,39.42-21.42,43.44-22.9a1.86,1.86,0,0,1,1.8.27,1.89,1.89,0,0,1,.74,1.66l-.88,10.69,14,42.31,3.4,12.23,8.24-6.66,15-27.11,3.6-31.83a1.93,1.93,0,0,1,.89-1.4,1.85,1.85,0,0,1,1.65-.16c4,1.48,39.37,14.75,43.44,22.9,3.88,7.76,26.18,160.85,28.71,178.28a1.9,1.9,0,0,1-1.28,2.07l-33.54,11.18a2,2,0,0,1-1.6-.19,1.88,1.88,0,0,1-.87-1.37l-12.44-95.48L294.6,214.3c.75,3.59,7.38,35.66,8.83,58.54,1.53,24,6.13,149.9,6.17,151.16a1.88,1.88,0,0,1-1.89,2Zm-112.18-3.78H305.75c-.6-16.16-4.68-126.76-6.1-149.1-1.51-23.86-8.75-58-8.82-58.31a1.84,1.84,0,0,1,0-.66l4.63-33.53a1.89,1.89,0,0,1,1.87-1.64h0a1.9,1.9,0,0,1,1.87,1.65l14,107.2,29.86-10c-9.91-68.22-25.41-170.15-28.12-175.57-2.43-4.87-24.37-14.59-39.1-20.19l-3.37,29.79a2,2,0,0,1-.23.71l-15.33,27.76a1.91,1.91,0,0,1-.47.55l-10.77,8.7a1.88,1.88,0,0,1-3-1l-4.14-14.92L224.4,91.12a1.86,1.86,0,0,1-.09-.74l.66-8.1c-14.72,5.63-36.17,15.18-38.58,20-2.71,5.42-18.21,107.35-28.12,175.57l29.86,10,14-107.2a1.89,1.89,0,0,1,1.86-1.65h0a1.9,1.9,0,0,1,1.88,1.64l4.62,33.53a1.83,1.83,0,0,1,0,.66c-.07.34-7.31,34.45-8.83,58.31C200.2,295.42,196.12,406,195.53,422.18Z"/><path class="cls-3" d="M274.26,80.07,266,77.17s-4.56,2.9-14.92,2.9-12.43-3.73-12.43-3.73L227,81.73l-3.73,35.63,28.18,40.19,29-61.74Z"/><path class="cls-2" d="M251.47,159.44a1.89,1.89,0,0,1-1.55-.8l-28.18-40.19a1.91,1.91,0,0,1-.33-1.29l3.73-35.63A1.9,1.9,0,0,1,226.22,80l11.61-5.39a1.89,1.89,0,0,1,2.45.8h0s2.07,2.76,10.77,2.76c9.55,0,13.87-2.59,13.91-2.62a2,2,0,0,1,1.63-.18l8.29,2.9A1.94,1.94,0,0,1,276,79.37l6.21,15.75a1.87,1.87,0,0,1-.05,1.5l-29,61.73a1.9,1.9,0,0,1-1.55,1.08Zm-26.22-42.59,25.89,36.94,27.27-58-5.6-14.18-6.69-2.34c-1.85.89-6.7,2.73-15.07,2.73-7.54,0-11.2-1.93-12.86-3.33L228.79,83Z"/><path class="cls-1" d="M251.36,135.73c-12.58-12.25-20.67-44.09-23.4-56.38a4.38,4.38,0,0,0-5.82-3.14l-13.87,5.24L207,124.54s16.57-9.11,22.37-7-19.47,19.06-19.47,19.06,8.67,7.42,26.9,16.54S267.11,151.06,251.36,135.73Z"/><path class="cls-2" d="M248.61,157.79a30.89,30.89,0,0,1-13.46-3.55c-18.24-9.12-26.14-16-26.47-16.26a1.89,1.89,0,0,1,.19-3c8.44-5.67,17.64-13,19.27-15.86-4.17-.64-14.4,3.88-20.2,7.07a1.89,1.89,0,0,1-2.8-1.71l1.24-43.09a1.9,1.9,0,0,1,1.22-1.72l13.87-5.24a6.26,6.26,0,0,1,8.33,4.5c2.84,12.73,10.75,43.62,22.88,55.43h0c7.28,7.08,9.55,14.22,6.09,19.1C256.72,156.34,253.07,157.79,248.61,157.79Zm-35.49-21.12a155.91,155.91,0,0,0,23.72,14.18c9.27,4.64,16.5,3.72,18.84.42s.09-8.61-5.64-14.19h0c-12.86-12.52-21-44.26-23.93-57.32a2.44,2.44,0,0,0-1.24-1.64,2.48,2.48,0,0,0-2.06-.14l-12.68,4.79L209,121.36c5.43-2.74,16-7.46,21-5.65a3,3,0,0,1,2.1,2.48C232.64,122.24,222.54,130.2,213.12,136.67Z"/><path class="cls-1" d="M221.63,200c2.08-14.5,13.68-48.89,29.42-64.22,12.59-12.25,20.67-44.09,23.41-56.38a4.37,4.37,0,0,1,5.82-3.14l13.86,5.24,1.25,43.09s-16.58-9.11-22.38-7,19.48,19.06,19.48,19.06-26.11,17-44.34,26.1S221.63,200,221.63,200Z"/><path class="cls-2" d="M221.63,201.84a1.87,1.87,0,0,1-.4,0,1.9,1.9,0,0,1-1.47-2.12c2.15-15.06,14-49.76,30-65.31,12.13-11.81,20-42.7,22.88-55.43a6.27,6.27,0,0,1,8.34-4.5l13.86,5.24A1.88,1.88,0,0,1,296,81.4l1.25,43.09a1.9,1.9,0,0,1-2.81,1.71c-5.8-3.19-16-7.71-20.19-7.08,1.62,2.85,10.83,10.2,19.26,15.87a1.88,1.88,0,0,1,0,3.15c-.26.17-26.4,17.15-44.52,26.21-17.27,8.64-25.47,35.86-25.55,36.13A1.89,1.89,0,0,1,221.63,201.84Zm57.09-124a2.45,2.45,0,0,0-1.17.3,2.41,2.41,0,0,0-1.24,1.64c-2.92,13.06-11.08,44.8-23.94,57.32-9.9,9.65-18.18,27.06-23.36,42.12,4.39-7.11,10.43-14.3,18.3-18.23,14.73-7.37,34.89-20.07,41.75-24.46-9.35-6.44-19.28-14.3-18.78-18.32a3,3,0,0,1,2.1-2.48c5.05-1.8,15.59,2.91,21,5.65l-1.11-38.59L279.61,78A2.5,2.5,0,0,0,278.72,77.82Z"/><rect class="cls-2" x="220.85" y="199.85" width="3.78" height="11.91" transform="translate(-34.31 44.89) rotate(-10.69)"/><path class="cls-1" d="M251,212.4a81.77,81.77,0,0,1-44.85-13.73l.44,18.65s23.33,11.19,44.41,11.19,44.4-11.19,44.4-11.19l.45-18.65A81.77,81.77,0,0,1,251,212.4Z"/><path class="cls-2" d="M251,230.4c-21.27,0-44.25-10.91-45.22-11.38a1.9,1.9,0,0,1-1.08-1.66l-.44-18.64a1.87,1.87,0,0,1,1-1.72,1.9,1.9,0,0,1,2,.15,78.23,78.23,0,0,0,87.45,0,1.9,1.9,0,0,1,3,1.57l-.45,18.64a1.87,1.87,0,0,1-1.07,1.66C295.2,219.49,272.22,230.4,251,230.4Zm-42.54-14.31c4.73,2.12,24.62,10.52,42.54,10.52s37.81-8.4,42.54-10.52l.33-13.85a84.36,84.36,0,0,1-42.87,12h0a84.44,84.44,0,0,1-42.88-12Z"/><rect class="cls-3" x="228.47" y="216.28" width="20.51" height="6.42" rx="2.13" transform="matrix(0.06, -1, 1, 0.06, 5.72, 445.04)"/><path class="cls-2" d="M239.33,231.69h-.23l-2.16-.12a4,4,0,0,1-2.77-1.34,4.05,4.05,0,0,1-1-2.92l.94-16.21a4,4,0,0,1,4.25-3.79l2.16.13a4,4,0,0,1,3.78,4.25l-.94,16.22A4,4,0,0,1,239.33,231.69Zm0-3.79a.27.27,0,0,0,.25-.22l.94-16.22a.26.26,0,0,0-.22-.25l-2.16-.13a.23.23,0,0,0-.25.23l-.94,16.22a.27.27,0,0,0,.22.25Z"/><circle class="cls-4" cx="261.36" cy="200.11" r="3.93"/><circle class="cls-4" cx="235.21" cy="200.11" r="3.93"/><circle class="cls-4" cx="263.84" cy="258.99" r="3.93"/><circle class="cls-4" cx="235.21" cy="258.99" r="3.93"/><circle class="cls-4" cx="266.33" cy="307.93" r="3.93"/><circle class="cls-4" cx="235.21" cy="307.93" r="3.93"/><path class="cls-2" d="M213.67,423.28c0-1.21-2.45-121.78,1.11-156.57,1.23-12,5.49-43.39,5.53-43.71l3.75.51c0,.32-4.29,31.65-5.52,43.58-3.53,34.57-1.12,154.9-1.09,156.12Z"/><path class="cls-3" d="M344.79,254.34s-19.45,11-27.06,12.26l2.12,8.87s18.17-4.22,26.63-11.41Z"/><path class="cls-2" d="M319.85,277.37a1.89,1.89,0,0,1-1.84-1.46L315.89,267a1.9,1.9,0,0,1,1.53-2.31c7.2-1.2,26.24-11.93,26.43-12a1.89,1.89,0,0,1,2.8,1.33l1.69,9.72a1.89,1.89,0,0,1-.64,1.76c-8.7,7.4-26.66,11.64-27.42,11.82A2.18,2.18,0,0,1,319.85,277.37ZM320,268l1.22,5.16c4.55-1.22,16.5-4.74,23.18-9.88l-1-6C338.42,260,326.85,266.1,320,268Z"/><path class="cls-3" d="M155.22,254.34s19.44,11,27.05,12.26l-2.12,8.87s-18.17-4.22-26.63-11.41Z"/><path class="cls-2" d="M180.15,277.37a2.18,2.18,0,0,1-.43-.05c-.76-.18-18.72-4.42-27.42-11.82a1.89,1.89,0,0,1-.64-1.76l1.69-9.72a1.9,1.9,0,0,1,2.8-1.33c.19.11,19.24,10.84,26.43,12a1.88,1.88,0,0,1,1.26.82,1.92,1.92,0,0,1,.27,1.49L182,275.91A1.89,1.89,0,0,1,180.15,277.37Zm-24.57-14.08c6.68,5.14,18.63,8.66,23.18,9.88L180,268c-6.84-1.91-18.41-8-23.37-10.73Z"/><path class="cls-5" d="M261.89,90s-11.63,4.65-22.72.53l-.11,7.51s13.58,3.85,22.78-.59Z"/><path class="cls-2" d="M250.85,101.51a49.82,49.82,0,0,1-12.3-1.63A1.91,1.91,0,0,1,237.17,98l.11-7.5a1.89,1.89,0,0,1,2.55-1.75c10.24,3.8,21.25-.47,21.36-.51a1.9,1.9,0,0,1,1.76.19,1.92,1.92,0,0,1,.83,1.58l0,7.45a1.9,1.9,0,0,1-1.07,1.69A27.45,27.45,0,0,1,250.85,101.51ZM241,96.58c3.39.75,12.28,2.3,19-.35l0-3.59c-3.81,1.08-11.26,2.54-19,.49Z"/><path class="cls-2" d="M261.36,205.93a5.82,5.82,0,1,1,5.82-5.82A5.83,5.83,0,0,1,261.36,205.93Zm0-7.86a2,2,0,1,0,2,2A2,2,0,0,0,261.36,198.07Z"/><path class="cls-2" d="M235.21,205.93a5.82,5.82,0,1,1,5.82-5.82A5.83,5.83,0,0,1,235.21,205.93Zm0-7.86a2,2,0,1,0,2,2A2,2,0,0,0,235.21,198.07Z"/><path class="cls-2" d="M263.84,264.81a5.82,5.82,0,1,1,5.83-5.82A5.83,5.83,0,0,1,263.84,264.81Zm0-7.86a2,2,0,1,0,2,2A2,2,0,0,0,263.84,257Z"/><path class="cls-2" d="M235.21,264.81A5.82,5.82,0,1,1,241,259,5.83,5.83,0,0,1,235.21,264.81Zm0-7.86a2,2,0,1,0,2,2A2,2,0,0,0,235.21,257Z"/><path class="cls-2" d="M266.33,313.76a5.83,5.83,0,1,1,5.82-5.83A5.83,5.83,0,0,1,266.33,313.76Zm0-7.86a2,2,0,1,0,2,2A2,2,0,0,0,266.33,305.9Z"/><path class="cls-2" d="M235.21,313.76a5.83,5.83,0,1,1,5.82-5.83A5.83,5.83,0,0,1,235.21,313.76Zm0-7.86a2,2,0,1,0,2,2A2,2,0,0,0,235.21,305.9Z"/></g></svg>