<svg xmlns="http://www.w3.org/2000/svg" viewBox="0 0 500 500"><defs><style>.cls-1{fill:#c5bca5;}.cls-2{fill:#a99c83;}.cls-3{fill:#3f352f;}</style></defs><g id="레이어_3" data-name="레이어 3"><polygon class="cls-1" points="133.67 385.56 133.67 372.13 130.06 385.56 133.67 385.56"/><path class="cls-2" d="M216,178.13c.25,1.85.58,4.29,1,7.24l6.52-7.58Z"/><path class="cls-2" d="M212.36,206.28l-4.88-4A3.72,3.72,0,0,1,207,197l3.54-4.1c-.88-6.42-1.56-11.39-2-14.43l-9.67.44a3.71,3.71,0,0,1-3.79-4.53l7.94-35.2-30.64,12.7c6.48,8.53,16.8,30.88,5.27,80.08l-13.42,50.7c.61,3.57,3.16,18.55,5.76,35.66l20.77-60.15a3.72,3.72,0,0,1,7,2.43l-25.46,73.72c.4,2.88.79,5.74,1.16,8.54A538,538,0,0,0,230.76,348C226.52,311.84,218,247.61,212.36,206.28Z"/><path class="cls-2" d="M172.17,167.77a37.85,37.85,0,0,0-5.59-11.3c-7.05,11.49-28,49.9-43.78,123.28-.13.58-11.92,53.22-10.14,105.81h9.7L133.8,343a3.71,3.71,0,0,1,7.3,1v41.61h2.76c.9-15,4.78-72.88,13-104h0l13.59-51.33C178.06,197.77,175.59,178.35,172.17,167.77Z"/><path class="cls-2" d="M233.69,240.53,284.85,199l-19.67-22.85a3.72,3.72,0,0,1,3-6.14l28.37,1.29-9.23-40.89-10.51-9c0,11.37-4.68,31.63-20.42,69.33C255.42,193,236,235.85,233.69,240.53Z"/><path class="cls-1" d="M268.12,114.44H231.86c-2.18,4.29-3.79,19.51,18.13,72.28C271.94,133.9,270.28,118.7,268.12,114.44Z"/><path class="cls-2" d="M235.33,172.06a3.71,3.71,0,0,1-.52,4.05L215.14,199l21.7,17.63c2.95-6.37,6-13.25,9.11-20.33-17.62-41.22-22.76-62.92-22.77-74.85l-10.5,9-9.24,40.89L231.82,170A3.7,3.7,0,0,1,235.33,172.06Z"/><path class="cls-2" d="M233.6,223.54l-12.81-10.41c1.21,9,2.52,18.73,3.88,28.9C227.09,237.14,230.18,230.8,233.6,223.54Z"/><path class="cls-2" d="M327.58,151.88l-30.66-12.71,7.95,35.21a3.72,3.72,0,0,1-3.79,4.53l-24.64-1.12L293,197a3.72,3.72,0,0,1-.47,5.32l-66,53.62c4.43,33.45,9,68.93,11.76,92.27,26,.67,57-.3,88.19-5.33.36-2.8.75-5.66,1.16-8.54L302.16,260.6a3.72,3.72,0,0,1,7-2.43L330,318.34c2.6-17.12,5.15-32.11,5.76-35.68L322.31,232C310.78,182.76,321.1,160.41,327.58,151.88Zm-30.51,168.4a3.71,3.71,0,0,1-2.27,3.42l-15.7,6.66a3.69,3.69,0,0,1-1.45.3,3.8,3.8,0,0,1-1.45-.3h0l-15.7-6.66a3.71,3.71,0,0,1-2.26-3.42V308.81a3.72,3.72,0,0,1,3.71-3.72h31.4a3.72,3.72,0,0,1,3.72,3.72ZM313.91,205,276,240.51a3.72,3.72,0,1,1-5.08-5.43l37.89-35.48a3.72,3.72,0,1,1,5.08,5.43Z"/><path class="cls-2" d="M333.44,156.5c-5.11,6.87-14.83,27.06-3.9,73.71l13.58,51.33h0c8.23,31.13,12.11,89,13,104h2.76V344a3.72,3.72,0,0,1,7.31-1l11.43,42.58h9.7c1.78-52.59-10-105.23-10.13-105.77C361.41,206.45,340.51,168,333.44,156.5Z"/><polygon class="cls-1" points="366.33 385.56 369.94 385.56 366.33 372.13 366.33 385.56"/><path class="cls-2" d="M239.13,355.66c.46,4.14.84,7.72,1.11,10.61,3.22.1,6.48.15,9.76.15,33.67,0,65.27-5.29,74.51-7,.28-2.78.61-5.77,1-8.9a477.36,477.36,0,0,1-72.68,5.28Q245.79,355.83,239.13,355.66Z"/><polygon class="cls-1" points="265.67 317.82 277.65 322.9 289.63 317.82 289.63 312.53 265.67 312.53 265.67 317.82"/><path class="cls-2" d="M174.5,350.52c.38,3.14.71,6.14,1,8.93A462.1,462.1,0,0,0,232.74,366c-.28-2.92-.66-6.47-1.12-10.54A561.77,561.77,0,0,1,174.5,350.52Z"/><path class="cls-3" d="M308.83,199.6l-37.89,35.48a3.72,3.72,0,0,0,5.08,5.43L313.91,205a3.72,3.72,0,1,0-5.08-5.43Z"/><path class="cls-3" d="M337,148.32h0a3.72,3.72,0,0,0-1.58-1.24l-40.49-16.79-.63-2.76a3.69,3.69,0,0,0-1.21-2l-20.65-17.63h0A3.73,3.73,0,0,0,270,107H230a3.7,3.7,0,0,0-2.4.9h0l-20.65,17.63a3.76,3.76,0,0,0-1.22,2l-.62,2.77-40.48,16.78a3.72,3.72,0,0,0-1.58,1.24h0c-1.13,1.55-27.89,39-47.47,129.82-.13.56-12.67,56.54-10.16,111.31a3.71,3.71,0,0,0,3.71,3.55h38.28a3.73,3.73,0,0,0,3.72-3.52c0-.6,2.72-50.45,8.95-86.86,2.86,17.75,6.8,43.65,8.32,60.3a3.71,3.71,0,0,0,3,3.31c.38.08,37.92,7.58,78.48,7.63h.4c40.56-.05,78.1-7.55,78.48-7.63a3.73,3.73,0,0,0,3-3.31c1.51-16.64,5.45-42.55,8.31-60.3,6.23,36.41,8.92,86.26,9,86.86a3.73,3.73,0,0,0,3.71,3.52h38.29a3.71,3.71,0,0,0,3.71-3.55c2.51-54.77-10-110.75-10.15-111.27C364.88,187.28,338.12,149.87,337,148.32ZM276.8,121.4l10.51,9,9.23,40.89L268.17,170a3.72,3.72,0,0,0-3,6.14L284.85,199l-51.16,41.57c2.28-4.68,21.73-47.49,22.69-49.8C272.12,153,276.78,132.77,276.8,121.4Zm-44.94-7h36.26c2.16,4.26,3.82,19.46-18.13,72.28C228.07,134,229.68,118.73,231.86,114.44Zm-19.18,15.93,10.5-9c0,11.93,5.15,33.63,22.77,74.85-3.06,7.08-6.16,14-9.11,20.33L215.14,199l19.67-22.85a3.72,3.72,0,0,0-3-6.14l-28.38,1.29Zm20.92,93.17c-3.42,7.26-6.51,13.6-8.93,18.49-1.36-10.17-2.67-19.94-3.88-28.9ZM216,178.13l7.51-.34L217,185.37C216.62,182.42,216.29,180,216,178.13ZM133.67,385.56h-3.61l3.61-13.43Zm23.21-104h0c-8.23,31.13-12.11,89-13,104H141.1V344a3.71,3.71,0,0,0-7.3-1l-11.44,42.58h-9.7c-1.78-52.59,10-105.23,10.14-105.81,15.81-73.38,36.73-111.79,43.78-123.28a37.85,37.85,0,0,1,5.59,11.3c3.42,10.58,5.89,30-1.7,62.44Zm15.49,52.78,25.46-73.72a3.72,3.72,0,0,0-7-2.43L170,318.32c-2.6-17.11-5.15-32.09-5.76-35.66L177.69,232c11.53-49.2,1.21-71.55-5.27-80.08l30.64-12.7-7.94,35.2a3.71,3.71,0,0,0,3.79,4.53l9.67-.44c.41,3,1.09,8,2,14.43L207,197a3.72,3.72,0,0,0,.47,5.32l4.88,4C218,247.61,226.52,311.84,230.76,348a538,538,0,0,1-57.23-5.11C173.16,340.06,172.77,337.2,172.37,334.32Zm3.12,25.13c-.28-2.79-.61-5.79-1-8.93a561.77,561.77,0,0,0,57.12,4.92c.46,4.07.84,7.62,1.12,10.54A462.1,462.1,0,0,1,175.49,359.45Zm149,0c-9.24,1.68-40.84,6.95-74.51,7-3.28,0-6.54-.05-9.76-.15-.27-2.89-.65-6.47-1.11-10.61q6.65.16,13.69.17a477.36,477.36,0,0,0,72.68-5.28C325.12,353.68,324.79,356.67,324.51,359.45ZM330,318.34l-20.78-60.17a3.72,3.72,0,0,0-7,2.43l25.47,73.74c-.41,2.88-.8,5.74-1.16,8.54-31.21,5-62.19,6-88.19,5.33-2.73-23.34-7.33-58.82-11.76-92.27l66-53.62A3.72,3.72,0,0,0,293,197l-16.54-19.21,24.64,1.12a3.72,3.72,0,0,0,3.79-4.53l-7.95-35.21,30.66,12.71c-6.48,8.53-16.8,30.88-5.27,80.08l13.42,50.7C335.12,286.23,332.57,301.22,330,318.34Zm36.36,67.22V372.13l3.61,13.43Zm21,0h-9.7L366.21,343a3.72,3.72,0,0,0-7.31,1v41.61h-2.76c-.9-15-4.78-72.88-13-104h0l-13.58-51.33c-10.93-46.65-1.21-66.84,3.9-73.71,7.07,11.54,28,49.95,43.77,123.29C377.33,280.33,389.12,333,387.34,385.56Z"/><path class="cls-3" d="M293.35,305.09H262a3.72,3.72,0,0,0-3.71,3.72v11.47a3.71,3.71,0,0,0,2.26,3.42l15.7,6.66h0a3.8,3.8,0,0,0,1.45.3,3.69,3.69,0,0,0,1.45-.3l15.7-6.66a3.71,3.71,0,0,0,2.27-3.42V308.81A3.72,3.72,0,0,0,293.35,305.09Zm-3.72,12.73-12,5.08-12-5.08v-5.29h24Z"/></g></svg>