<svg xmlns="http://www.w3.org/2000/svg" viewBox="0 0 500 500"><defs><style>.cls-1{fill:#333;}.cls-2{fill:#f08181;}.cls-3{fill:#cf6d6d;}</style></defs><g id="레이어_3" data-name="레이어 3"><path class="cls-1" d="M341.11,295c1.32,4,5.26,18.68.33,37.49.53,3.83,2.51,22.78-7.16,38v9.77a3,3,0,0,1-2.59,3A604,604,0,0,1,250,388.79a604,604,0,0,1-81.69-5.56,3,3,0,0,1-2.59-3v-9.77c-9.67-15.24-7.69-34.19-7.17-38-4.92-18.81-1-33.47.33-37.49-6.32-18.9-.56-33.31,1.35-37.27-1.9-9.72,1.54-18.92,1.69-19.31a2.77,2.77,0,0,1,.72-1.09l.9-.89a61.62,61.62,0,0,0,13.7-65.83l-6.44-16.66a3,3,0,0,1,.21-2.57c7.28-12.65,21.6-14.87,27.78-15.23l.92-12.77a13.12,13.12,0,0,1,13-12.15h74.5a13.13,13.13,0,0,1,13.05,12.15l.91,12.77c6.18.36,20.51,2.58,27.79,15.23a3,3,0,0,1,.19,2.57l-6.42,16.66a61.6,61.6,0,0,0,13.69,65.83l.9.89a2.89,2.89,0,0,1,.72,1.09c.16.39,3.59,9.59,1.69,19.31C341.68,261.67,347.43,276.08,341.11,295Zm-5.33-3a46.53,46.53,0,0,0,1.44-22.61,39.23,39.23,0,0,0-2.49-8.26H253V292h53q.7-12.45,2.46-24.82a3,3,0,0,1,1.17-2,3.08,3.08,0,0,1,2.22-.57l11.43,1.64a3,3,0,0,1,2.55,3.38q-1.57,11.14-2.26,22.35Zm.27,37.3a64,64,0,0,0-.3-31.31h-12.5a279.55,279.55,0,0,0,.52,31.31Zm-7.11,38.41c7.66-11.71,7.29-26.58,6.78-32.41H324.28c.41,4.35.91,8.68,1.53,13a3,3,0,0,1-.57,2.23,3.07,3.07,0,0,1-2,1.17l-11.43,1.62-.42,0a3,3,0,0,1-3-2.57q-1.1-7.72-1.79-15.49H253v37.64A598,598,0,0,0,328.94,367.7Zm5.17-112.58a33.88,33.88,0,0,0-1.43-14l-.46-.45A66.64,66.64,0,0,1,320,223.86H253v31.26Zm-5.83,122.52v-3.81A603.28,603.28,0,0,1,250,378.94a603.28,603.28,0,0,1-78.28-5.11v3.81A597.22,597.22,0,0,0,328.28,377.64ZM317.17,168.43l5.89-15.27c-6.32-9.47-18.47-10.87-22.88-11.06A48.84,48.84,0,0,1,257.52,167a10.38,10.38,0,0,1-4.52-1V179.5l59.91,6.87A68.62,68.62,0,0,1,317.17,168.43Zm2.3,103.34L314,271a291,291,0,0,0,0,76l5.5-.78A285.16,285.16,0,0,1,319.47,271.77ZM253,217.86h64.28a67.78,67.78,0,0,1-4.7-25.5L253,185.54Zm0,111.43h53.18a297.3,297.3,0,0,1-.49-31.31H253Zm42.36-190.87-1.05-14.63a7.1,7.1,0,0,0-7.06-6.58h-74.5a7.12,7.12,0,0,0-7.07,6.58l-1,14.63A42.89,42.89,0,0,0,242.48,161a4.54,4.54,0,0,0,4.52-4.53v-21h-4.09a45.76,45.76,0,0,1-28.75-10.21,3,3,0,0,1,3.79-4.66,39.62,39.62,0,0,0,25,8.87h14.17a39.67,39.67,0,0,0,25-8.87,3,3,0,0,1,3.78,4.66,45.79,45.79,0,0,1-28.76,10.21H253v21a4.54,4.54,0,0,0,4.52,4.53A42.89,42.89,0,0,0,295.36,138.42ZM247,372.93V335.29H193.35q-.69,7.75-1.79,15.49a3,3,0,0,1-1.17,2,3,3,0,0,1-1.8.6l-.42,0-11.44-1.62a3.07,3.07,0,0,1-2-1.17,3,3,0,0,1-.57-2.23q.92-6.49,1.53-13H164.29c-.51,5.83-.87,20.74,6.77,32.41A597.82,597.82,0,0,0,247,372.93Zm0-43.64V298H194.31a297.3,297.3,0,0,1-.49,31.31Zm0-37.3V261.12H165.28c-1.74,4-5.71,15.8-1.06,30.87h12.23q-.69-11.21-2.26-22.35a3,3,0,0,1,2.54-3.38l11.44-1.64a3.08,3.08,0,0,1,2.22.57,3,3,0,0,1,1.17,2Q193.32,279.55,194,292Zm0-36.87V223.86H180a66.22,66.22,0,0,1-12.23,16.8l-.45.45a34.08,34.08,0,0,0-1.44,14Zm0-37.26V185.54l-59.58,6.82a68,68,0,0,1-4.69,25.5Zm0-38.36V165.92a10.38,10.38,0,0,1-4.52,1,48.87,48.87,0,0,1-42.67-24.85c-4.39.19-16.55,1.59-22.87,11.06l5.89,15.27a68.62,68.62,0,0,1,4.26,17.94ZM186,347a290.11,290.11,0,0,0,0-76l-5.5.78a284.29,284.29,0,0,1,0,74.41Zm-9.8-17.67a279.55,279.55,0,0,0,.52-31.31H164.24a64.18,64.18,0,0,0-.29,31.31Z"/><path class="cls-2" d="M337.22,269.38A46.53,46.53,0,0,1,335.78,292H323.55q.69-11.21,2.26-22.35a3,3,0,0,0-2.55-3.38l-11.43-1.64a3.08,3.08,0,0,0-2.22.57,3,3,0,0,0-1.17,2Q306.68,279.55,306,292H253V261.12h81.73A39.23,39.23,0,0,1,337.22,269.38Z"/><path class="cls-2" d="M335.75,298a64,64,0,0,1,.3,31.31H323.77a279.55,279.55,0,0,1-.52-31.31Z"/><path class="cls-2" d="M335.72,335.29c.51,5.83.88,20.7-6.78,32.41A598,598,0,0,1,253,372.93V335.29h53.65q.71,7.75,1.79,15.49a3,3,0,0,0,3,2.57l.42,0,11.43-1.62a3.07,3.07,0,0,0,2-1.17,3,3,0,0,0,.57-2.23c-.62-4.33-1.12-8.66-1.53-13Z"/><path class="cls-2" d="M332.68,241.11a33.88,33.88,0,0,1,1.43,14H253V223.86h67a66.64,66.64,0,0,0,12.23,16.8Z"/><path class="cls-3" d="M328.28,373.83v3.81a597.22,597.22,0,0,1-156.56,0v-3.81A603.28,603.28,0,0,0,250,378.94,603.28,603.28,0,0,0,328.28,373.83Z"/><path class="cls-2" d="M323.06,153.16l-5.89,15.27a68.62,68.62,0,0,0-4.26,17.94L253,179.5V165.92a10.38,10.38,0,0,0,4.52,1,48.84,48.84,0,0,0,42.66-24.85C304.59,142.29,316.74,143.69,323.06,153.16Z"/><path class="cls-3" d="M314,271l5.5.78a285.16,285.16,0,0,0,0,74.41L314,347A291,291,0,0,1,314,271Z"/><path class="cls-2" d="M317.28,217.86H253V185.54l59.58,6.82A67.78,67.78,0,0,0,317.28,217.86Z"/><path class="cls-2" d="M306.18,329.29H253V298h52.69A297.3,297.3,0,0,0,306.18,329.29Z"/><path class="cls-3" d="M294.31,123.79l1.05,14.63A42.89,42.89,0,0,1,257.52,161a4.54,4.54,0,0,1-4.52-4.53v-21h4.08a45.79,45.79,0,0,0,28.76-10.21,3,3,0,0,0-3.78-4.66,39.67,39.67,0,0,1-25,8.87H242.91a39.62,39.62,0,0,1-25-8.87,3,3,0,0,0-3.79,4.66,45.76,45.76,0,0,0,28.75,10.21H247v21a4.54,4.54,0,0,1-4.52,4.53,42.89,42.89,0,0,1-37.84-22.54l1-14.63a7.12,7.12,0,0,1,7.07-6.58h74.5A7.1,7.1,0,0,1,294.31,123.79Z"/><path class="cls-2" d="M247,335.29v37.64a597.82,597.82,0,0,1-75.94-5.23c-7.64-11.67-7.28-26.58-6.77-32.41h11.43q-.61,6.52-1.53,13a3,3,0,0,0,.57,2.23,3.07,3.07,0,0,0,2,1.17l11.44,1.62.42,0a3,3,0,0,0,1.8-.6,3,3,0,0,0,1.17-2q1.09-7.72,1.79-15.49Z"/><path class="cls-2" d="M247,298v31.31H193.82a297.3,297.3,0,0,0,.49-31.31Z"/><path class="cls-2" d="M247,261.12V292H194q-.71-12.45-2.46-24.82a3,3,0,0,0-1.17-2,3.08,3.08,0,0,0-2.22-.57l-11.44,1.64a3,3,0,0,0-2.54,3.38q1.59,11.14,2.26,22.35H164.22c-4.65-15.07-.68-26.84,1.06-30.87Z"/><path class="cls-2" d="M247,223.86v31.26H165.89a34.08,34.08,0,0,1,1.44-14l.45-.45A66.22,66.22,0,0,0,180,223.86Z"/><path class="cls-2" d="M247,185.54v32.32H182.73a68,68,0,0,0,4.69-25.5Z"/><path class="cls-2" d="M247,165.92V179.5l-59.91,6.87a68.62,68.62,0,0,0-4.26-17.94l-5.89-15.27c6.32-9.47,18.48-10.87,22.87-11.06A48.87,48.87,0,0,0,242.48,167,10.38,10.38,0,0,0,247,165.92Z"/><path class="cls-3" d="M186,271a290.11,290.11,0,0,1,0,76l-5.5-.78a284.29,284.29,0,0,0,0-74.41Z"/><path class="cls-2" d="M176.75,298a279.55,279.55,0,0,1-.52,31.31H164a64.18,64.18,0,0,1,.29-31.31Z"/></g></svg>