<svg xmlns="http://www.w3.org/2000/svg" viewBox="0 0 500 500"><defs><style>.cls-1{fill:#7e7081;}.cls-2{fill:#d34831;}.cls-3{fill:#a99c83;}.cls-4{fill:#3f352f;}</style></defs><g id="레이어_3" data-name="레이어 3"><path class="cls-1" d="M191.39,348.76v16.9H246V293.24H211.64C208.27,320.24,194.59,343.59,191.39,348.76Z"/><polygon class="cls-2" points="178.53 389.74 246 389.74 246 373.65 174.88 373.65 178.53 389.74"/><path class="cls-1" d="M210.35,117.05c1.81,1.43,12.51,8.94,15.74,11.5h47.82c3.23-2.56,13.93-10.07,15.73-11.5-7.31-.7-20.83-1.34-39.64-1.34S217.67,116.35,210.35,117.05Z"/><path class="cls-2" d="M212.24,128.3c-6.18-4.31-11.72-8.2-14.68-13.61a16.76,16.76,0,0,0-.4,3.37c-.07,7.72,5.54,13.46,5.85,13.76a119.26,119.26,0,0,0,12.3,9.62,4,4,0,0,1-2.16,7.35,3.93,3.93,0,0,1-2.15-.63,116.79,116.79,0,0,1-11.81-9.07c-15.92,3.93-24.11,12.11-27.14,15.84,18.21,30.51,6.11,69,4.87,72.69-9.38,43.3-4.59,120.41-3.33,138h9.81V347.6a4,4,0,0,1,.65-2.18c.17-.26,17.42-27,20-56.53a4,4,0,0,1,4-3.64H246s0-103.12,0-103.22c0-2.88-.82-24-17.62-40.79A114.06,114.06,0,0,0,212.24,128.3Zm22.31,33V266.09a4,4,0,0,1-8,0V161.3c0-5.49-.79-7.61-1.08-8.21a4,4,0,0,1,3-7.24C231.28,146.44,234.55,149.61,234.55,161.3Z"/><path class="cls-2" d="M216,108.61c9.09-.57,21.16-.89,34-.89s24.89.32,34,.89c4.49.29,11.45,1.13,11.94,1.22a7,7,0,0,0-1.51-7.63C290.84,98.47,280.51,92,250,92h0c-31.15,0-41.34,6.66-44.72,10.56a6.43,6.43,0,0,0-1.2,7.28C204.57,109.74,211.53,108.9,216,108.61Z"/><path class="cls-2" d="M167.26,162.86c-3.39,6.73-9,19.73-14.85,41.12-8.45,31-19.07,86.17-22,174.25L158,382l7.12-23.75c-1.69-26.73-4.64-92.61,4.09-132.59C169.2,225.55,180.89,190.52,167.26,162.86Z"/><polygon class="cls-1" points="130.27 404.81 149.32 407.58 155.45 389.75 130.27 386.27 130.27 404.81"/><polygon class="cls-1" points="350.68 407.58 369.73 404.81 369.73 386.27 344.55 389.75 350.68 407.58"/><path class="cls-2" d="M332.74,162.86c-13.63,27.66-1.94,62.69-1.91,62.84,8.73,40,5.78,105.86,4.09,132.59L342,382l27.58-3.81C365,239.21,341.43,180.16,332.74,162.86Z"/><path class="cls-3" d="M235,136.54A67.79,67.79,0,0,1,250,160.91a67.79,67.79,0,0,1,15.05-24.37Z"/><path class="cls-2" d="M328,154.93c-3-3.72-11.22-11.9-27.15-15.84A116.79,116.79,0,0,1,289,148.16a4,4,0,0,1-2.15.63,4,4,0,0,1-2.16-7.35,121.77,121.77,0,0,0,12.3-9.61c.27-.27,6-6.05,5.84-13.85a15.34,15.34,0,0,0-.4-3.29c-2.95,5.41-8.49,9.3-14.67,13.61a114.06,114.06,0,0,0-16.15,12.94C254.88,158,254,182.36,254,182.37s0,102.88,0,102.88H292a4,4,0,0,1,4,3.64c2.6,29.49,19.85,56.27,20,56.53a4,4,0,0,1,.65,2.18v18.06h9.81c1.26-17.63,6-94.74-3.33-138C321.84,223.91,309.74,185.44,328,154.93Zm-53.45-1.84c-.3.6-1.08,2.72-1.08,8.21V266.09a4,4,0,0,1-8,0V161.3c0-11.69,3.28-14.86,6-15.45a4,4,0,0,1,3.05,7.24Z"/><polygon class="cls-2" points="254 389.74 321.47 389.74 325.11 373.65 254 373.65 254 389.74"/><path class="cls-1" d="M288.36,293.24H254v72.42h54.61v-16.9C305.41,343.59,291.73,320.24,288.36,293.24Z"/><path class="cls-4" d="M223.79,148.91a4,4,0,0,0,1.7,4.18c.29.6,1.08,2.72,1.08,8.21V266.09a4,4,0,0,0,8,0V161.3c0-11.69-3.27-14.86-6-15.45A4,4,0,0,0,223.79,148.91Z"/><path class="cls-4" d="M271.46,145.85c-2.74.59-6,3.76-6,15.45V266.09a4,4,0,0,0,8,0V161.3c0-5.49.78-7.61,1.08-8.21a4,4,0,0,0-3.05-7.24Z"/><path class="cls-4" d="M355.05,201c-9.28-33.67-18-47-18.94-48.4s-9.26-14-29.55-20.19A27,27,0,0,0,310.82,118c-.08-7.77-3.84-15.12-11.18-21.85C291.94,89.38,274.93,84,250,84h0c-24.92,0-40.79,4.51-49.63,12.12h0C193,102.85,189.26,110.2,189.18,118a27.07,27.07,0,0,0,4.25,14.42c-20.27,6.2-28.59,18.67-29.54,20.19S154.23,167.31,145,201c-8.78,31.84-19.84,89-22.67,180.58v26.7a4,4,0,0,0,3.42,4S151.83,416,152,416a4,4,0,0,0,3.78-2.7l8.78-25.54s3-10.1,3-10.1l3.83,16.95a4,4,0,0,0,3.9,3.11H324.66a4,4,0,0,0,3.9-3.11l3.83-16.95s3,10.08,3,10.1l8.78,25.54A4,4,0,0,0,348,416c.19,0,26.33-3.78,26.33-3.78a4,4,0,0,0,3.42-4v-26.7C374.89,290,363.83,232.83,355.05,201ZM205.28,102.55C208.66,98.65,218.85,92,250,92h0c30.51,0,40.84,6.48,44.41,10.21a7,7,0,0,1,1.51,7.63c-.49-.09-7.45-.93-11.94-1.22-9.09-.57-21.16-.89-34-.89s-24.89.32-34,.89c-4.49.29-11.45,1.13-11.94,1.22A6.43,6.43,0,0,1,205.28,102.55Zm84.36,14.5c-1.8,1.43-12.5,8.94-15.73,11.5H226.09c-3.23-2.56-13.93-10.07-15.74-11.5,7.32-.7,20.85-1.34,39.65-1.34S282.33,116.35,289.64,117.05ZM149.32,407.58l-19-2.77V386.27l25.18,3.48Zm15.76-49.29L158,382l-27.58-3.81c3-88.08,13.58-143.3,22-174.25,5.84-21.39,11.46-34.39,14.85-41.12,13.63,27.66,1.94,62.69,1.91,62.84C160.44,265.68,163.39,331.56,165.08,358.29ZM246,389.74H178.53l-3.65-16.09H246Zm0-24.08H191.39v-16.9c3.2-5.17,16.88-28.52,20.25-55.52H246Zm0-80.41H208.05a4,4,0,0,0-4,3.64c-2.6,29.49-19.85,56.27-20,56.53a4,4,0,0,0-.65,2.18v18.06h-9.81c-1.26-17.63-6.05-94.74,3.33-138,1.24-3.72,13.34-42.18-4.87-72.69,3-3.73,11.22-11.91,27.14-15.84A116.79,116.79,0,0,0,211,148.16a3.93,3.93,0,0,0,2.15.63,4,4,0,0,0,2.16-7.35,119.26,119.26,0,0,1-12.3-9.62c-.31-.3-5.92-6-5.85-13.76a16.76,16.76,0,0,1,.4-3.37c3,5.41,8.5,9.3,14.68,13.61a114.06,114.06,0,0,1,16.15,12.94C245.19,158,246,179.15,246,182,246,182.13,246,285.25,246,285.25ZM235,136.54h30.1A67.79,67.79,0,0,0,250,160.91,67.79,67.79,0,0,0,235,136.54Zm86.52,253.2H254V373.65h71.11ZM254,365.66V293.24h34.36c3.37,27,17.05,50.35,20.25,55.52v16.9Zm72.41,0H316.6V347.6a4,4,0,0,0-.65-2.18c-.17-.26-17.42-27-20-56.53a4,4,0,0,0-4-3.64H254s0-102.84,0-102.88.89-24.41,17.62-41.13a114.06,114.06,0,0,1,16.15-12.94c6.18-4.31,11.72-8.2,14.67-13.61a15.34,15.34,0,0,1,.4,3.29c.12,7.8-5.57,13.58-5.84,13.85a121.77,121.77,0,0,1-12.3,9.61,4,4,0,0,0,2.16,7.35,4,4,0,0,0,2.15-.63,116.79,116.79,0,0,0,11.81-9.07c15.93,3.94,24.12,12.12,27.15,15.84-18.22,30.51-6.12,69-4.88,72.69C332.46,270.92,327.67,348,326.41,365.66ZM342,382l-7.12-23.75c1.69-26.73,4.64-92.61-4.09-132.59,0-.15-11.72-35.18,1.91-62.84,8.69,17.3,32.22,76.35,36.88,215.37Zm27.69,22.77-19.05,2.77-6.13-17.83,25.18-3.48Z"/></g></svg>