<svg xmlns="http://www.w3.org/2000/svg" viewBox="0 0 500 500"><defs><style>.cls-1{fill:#333;}.cls-2{fill:#c1dbf4;}.cls-3{fill:#7fafe8;}</style></defs><g id="레이어_3" data-name="레이어 3"><path class="cls-1" d="M347.09,119.39c0,.7.36,71.05-16.6,130.94a153.64,153.64,0,0,0-3.39,69.91l10.06,55.44a3.66,3.66,0,0,1-1.55,3.69L277.13,419a3.66,3.66,0,0,1-4.9-.7L250,391.3l-22.23,27a3.66,3.66,0,0,1-4.89.7l-58.49-39.63a3.66,3.66,0,0,1-1.55-3.69l10.07-55.44a153.64,153.64,0,0,0-3.4-69.91c-17-59.89-16.6-130.24-16.6-130.94a3.67,3.67,0,0,1,1.73-3.09l57-35.39a3.69,3.69,0,0,1,3.73-.08,71,71,0,0,0,69.32,0,3.71,3.71,0,0,1,3.74.08l57,35.39A3.65,3.65,0,0,1,347.09,119.39Zm-7.34,2.07L290.41,90.8a238.06,238.06,0,0,1-2.6,37.46c-3.44,23.72-12,59.21-33.28,94.8-.45.75-12.18,21.87-12.18,21.87V370.75l33.43,40.31,53.74-36.42-9.64-53.09c-.1-.56-.19-1.12-.28-1.67-13.31,7.92-30.59,13.67-31.4,13.94a3.68,3.68,0,0,1-4.63-2.34,3.67,3.67,0,0,1,2.34-4.63c.2-.07,19.79-6.58,32.52-14.89a161,161,0,0,1,5-63.63C338.5,195.1,339.67,133.29,339.75,121.46ZM250,216.29c31.61-54.74,33.37-109.21,33-126.39a78.55,78.55,0,0,1-66.08,0,229.75,229.75,0,0,0,2.53,37.55C222.74,149.77,230.69,182.84,250,216.29Zm-14.53,25.92,10.3-18.67c-21.48-35.75-30.12-71.46-33.57-95.28a238.37,238.37,0,0,1-2.61-37.46l-49.34,30.66c.08,11.83,1.24,73.64,16.32,126.87a161,161,0,0,1,5,63.63c12.75,8.32,32.32,14.82,32.53,14.89a3.67,3.67,0,0,1-1.16,7.15,3.82,3.82,0,0,1-1.14-.18c-.81-.27-18.09-6-31.4-13.94-.09.55-.17,1.11-.28,1.67l-9.63,53.09,53.74,36.42,21-25.5-9.36-11.11a3.65,3.65,0,0,1-.86-2.36V244A3.71,3.71,0,0,1,235.47,242.21Z"/><path class="cls-2" d="M290.41,90.8l49.34,30.66c-.08,11.83-1.25,73.64-16.32,126.87a161,161,0,0,0-5,63.63c-12.73,8.31-32.32,14.82-32.52,14.89a3.67,3.67,0,0,0,1.15,7.15,3.72,3.72,0,0,0,1.14-.18c.81-.27,18.09-6,31.4-13.94.09.55.18,1.11.28,1.67l9.64,53.09-53.74,36.42-33.43-40.31V244.93s11.73-21.12,12.18-21.87c21.27-35.59,29.84-71.08,33.28-94.8A238.06,238.06,0,0,0,290.41,90.8ZM325.7,216.45a3.67,3.67,0,1,0-1.35-7.21,337.31,337.31,0,0,1-44.74,4.89,3.67,3.67,0,0,0,.11,7.34h.12A338,338,0,0,0,325.7,216.45Zm-72,32.49a3.67,3.67,0,0,0-6.26-2.6,3.68,3.68,0,0,0-1.07,2.6,3.66,3.66,0,0,0,6.25,2.59A3.71,3.71,0,0,0,253.67,248.94Zm0,29a3.67,3.67,0,1,0-3.67,3.67A3.66,3.66,0,0,0,253.67,278Zm0,29a3.67,3.67,0,1,0-3.67,3.66A3.67,3.67,0,0,0,253.67,307Zm0,29a3.67,3.67,0,1,0-3.67,3.66A3.67,3.67,0,0,0,253.67,336Zm0,29a3.66,3.66,0,0,0-6.26-2.59,3.68,3.68,0,0,0,0,5.19,3.67,3.67,0,0,0,6.26-2.6Z"/><path class="cls-1" d="M328.63,212.17a3.67,3.67,0,0,1-2.93,4.28,338,338,0,0,1-45.86,5h-.12a3.67,3.67,0,0,1-.11-7.34,337.31,337.31,0,0,0,44.74-4.89A3.67,3.67,0,0,1,328.63,212.17Z"/><path class="cls-3" d="M283,89.9c.33,17.18-1.43,71.65-33,126.39-19.31-33.45-27.26-66.52-30.51-88.85A229.75,229.75,0,0,1,217,89.89,78.55,78.55,0,0,0,283,89.9Z"/><path class="cls-1" d="M252.59,246.34a3.66,3.66,0,0,1,0,5.19,3.67,3.67,0,1,1,0-5.19Z"/><path class="cls-1" d="M250,274.29a3.67,3.67,0,1,1-3.66,3.66A3.66,3.66,0,0,1,250,274.29Z"/><path class="cls-1" d="M250,303.31a3.67,3.67,0,1,1-3.66,3.67A3.67,3.67,0,0,1,250,303.31Z"/><path class="cls-1" d="M250,332.32a3.67,3.67,0,1,1-3.66,3.68A3.67,3.67,0,0,1,250,332.32Z"/><path class="cls-1" d="M252.59,362.42a3.67,3.67,0,1,1-6.25,2.59,3.65,3.65,0,0,1,1.07-2.59,3.65,3.65,0,0,1,5.18,0Z"/><path class="cls-2" d="M245.77,223.54l-10.3,18.67A3.71,3.71,0,0,0,235,244V372.09a3.65,3.65,0,0,0,.86,2.36l9.36,11.11-21,25.5-53.74-36.42,9.63-53.09c.11-.56.19-1.12.28-1.67,13.31,7.92,30.59,13.67,31.4,13.94a3.82,3.82,0,0,0,1.14.18,3.67,3.67,0,0,0,1.16-7.15c-.21-.07-19.78-6.57-32.53-14.89a161,161,0,0,0-5-63.63c-15.08-53.23-16.24-115-16.32-126.87L209.59,90.8a238.37,238.37,0,0,0,2.61,37.46C215.65,152.08,224.29,187.79,245.77,223.54Z"/></g></svg>