<svg xmlns="http://www.w3.org/2000/svg" viewBox="0 0 500 500"><defs><style>.cls-1{fill:#333;}.cls-2{fill:#d4935f;}.cls-3{fill:#fab777;}.cls-4{fill:#e3a167;}</style></defs><g id="레이어_3" data-name="레이어 3"><path class="cls-1" d="M358.51,377.57a3.54,3.54,0,0,1-3.08,3.76l-28,3.69c-.16,0-.31,0-.47,0a3.58,3.58,0,0,1-3.53-3.15L306.9,241.05c-1.86,8.91-3.33,16.17-4.16,20.62-1.74,9.25,0,17.39,2.83,30.86,4.52,21.41,11.36,53.76,11.36,120.91a3.55,3.55,0,0,1-3.55,3.56H186.62a3.55,3.55,0,0,1-3.55-3.56c0-67.15,6.84-99.5,11.36-120.91,2.86-13.47,4.58-21.61,2.84-30.86-.84-4.45-2.31-11.71-4.17-20.62L176.54,381.9a3.6,3.6,0,0,1-3.54,3.15c-.16,0-.31,0-.46,0l-28-3.69a3.54,3.54,0,0,1-3.08-3.76c.61-9,14.94-220,19.71-236.95,4-14.3,13-17.37,24.39-21.27,3.64-1.24,7.78-2.66,12.16-4.6a69.36,69.36,0,0,0,21.83-14.84,15.09,15.09,0,0,0,3-4.71,14.79,14.79,0,0,1,7.21-7.62,46.66,46.66,0,0,1,40.32,0,14.63,14.63,0,0,1,7.22,7.61,15.36,15.36,0,0,0,3.09,4.77,69.25,69.25,0,0,0,21.78,14.79c4.39,1.94,8.52,3.36,12.16,4.6,11.39,3.9,20.38,7,24.4,21.27C343.57,157.54,357.91,368.59,358.51,377.57ZM348.74,375l2.45-.32c-.7-10.3-1.49-21.78-2.35-34L346,341ZM325.2,335.91l23.14-2.26C342.81,255.71,335,153.29,332,142.54a24,24,0,0,0-2.56-6.11c-4.16,19-11.79,54.1-17.95,83.06ZM341.68,376l-2.81-34.25-3.27.32,3.52,34.26Zm-9.62,1.27-3.54-34.51L326,343l4.08,34.51Zm-8.69-246.58c-3-1.74-6.68-3-11.26-4.58-2.48-.85-5.18-1.77-8.07-2.89-1.62,23.59-10,121.58-37.36,156.33a9.05,9.05,0,0,1,2,2.41l26.22-14a46.74,46.74,0,0,1,.8-7.61C299.64,239.58,317.24,158.74,323.37,130.66ZM304.63,409.89h5.18c0-7.92-.15-15.33-.36-22.28h-4.82Zm-58.37-29.4h62.95c-1.76-44.71-6.95-69.21-10.6-86.49-.4-1.88-.78-3.66-1.13-5.38l-16.08,8.55v53.66a3.57,3.57,0,0,1-3.56,3.56H270v15.82a3.56,3.56,0,0,1-3.56,3.56H255.06a3.56,3.56,0,0,1-3.56-3.56V304.93l-5.14-1.78c-.06,2-.1,4-.1,6Zm51.25,29.4V387.61H290v22.28ZM270,295.18l26.08-13.88c-.32-1.89-.58-3.7-.77-5.47L270,289.31Zm-10.95-17.66c28.5-30.92,36.87-139.7,38.05-157.3a77.64,77.64,0,0,1-18.86-12.5c-.58,12.11-1.91,31.55-4.95,54.94C268.85,197,262.15,229,253.4,257.85a187.61,187.61,0,0,0-5.2,24.48l3.8,1.31A9.27,9.27,0,0,1,259.06,277.52Zm23.86,132.37V387.61h-7.47v22.28Zm-8.64-62.62V301L270,303.23v44Zm-2.87-246.14A7.66,7.66,0,0,0,267.08,94a39.53,39.53,0,0,0-34.16,0,7.67,7.67,0,0,0-4.33,6.87v.19a.22.22,0,0,1,0,.08c.06,1.75.15,3.91.27,6.43a133.2,133.2,0,0,1,42.27,0C271.25,105.11,271.34,103,271.41,101.13Zm-5.16,60.62c2.45-18.9,3.78-35.19,4.5-47a126.36,126.36,0,0,0-41.48,0c1.62,26.56,6.46,77.44,20.73,129.32A604,604,0,0,0,266.25,161.75Zm2.09,248.14V387.61h-7.49v22.28Zm-5.45-43.23V286.61a2.14,2.14,0,1,0-4.27,0v80.05Zm-9.15,43.23V387.61h-7.48v22.28ZM251.5,297.4V291l-46.71-16.19c-.19,2-.47,4-.82,6.12Zm-10-18.2a196.05,196.05,0,0,1,4.83-22.35C227.8,195.34,223,133,221.76,107.72a77.76,77.76,0,0,1-18.85,12.49C204.25,137.91,213.53,247.09,241.47,279.2Zm-2.13,21.52L202.65,288c-.39,1.91-.81,3.89-1.25,6-3.66,17.28-8.84,41.78-10.6,86.49h48.35V309.17C239.15,306.31,239.21,303.48,239.34,300.72Zm-.19,109.17V387.61h-7.48v22.28ZM205,267.36l25.51,8.84c-24.38-39.12-32.8-130.45-34.54-153-2.9,1.12-5.61,2.06-8.1,2.91-4.58,1.56-8.28,2.84-11.27,4.58,6.13,28.08,23.74,108.92,27.63,129.7A46.1,46.1,0,0,1,205,267.36Zm19.53,142.53V387.61h-7.48v22.28Zm-14.6,0V387.61h-7.47v22.28Zm-14.59,0V387.61h-4.82c-.21,6.95-.34,14.36-.36,22.28Zm-20.59-74L188.5,219.26c-6.15-28.9-13.75-63.85-17.89-82.83a23.64,23.64,0,0,0-2.57,6.11c-3,10.75-10.85,113.17-16.37,191.11Zm-4.89,41.58L174,343l-2.47-.25-3.54,34.51Zm-9-1.19L164.4,342l-3.27-.32L158.32,376ZM151.26,375l2.79-34-2.89-.28c-.85,12.19-1.65,23.67-2.35,34Z"/><path class="cls-2" d="M351.19,374.72l-2.45.32L346,341l2.88-.28C349.7,352.94,350.49,364.42,351.19,374.72Z"/><path class="cls-3" d="M348.34,333.65l-23.14,2.26L311.45,219.49c6.16-29,13.79-64,17.95-83.06a24,24,0,0,1,2.56,6.11C335,153.29,342.81,255.71,348.34,333.65Z"/><polygon class="cls-2" points="338.87 341.73 341.68 375.97 339.12 376.3 335.6 342.05 338.87 341.73"/><polygon class="cls-2" points="328.52 342.74 332.06 377.24 330.12 377.49 326.04 342.98 328.52 342.74"/><path class="cls-3" d="M312.11,126.08c4.58,1.56,8.28,2.84,11.26,4.58-6.13,28.08-23.73,108.92-27.63,129.7a46.74,46.74,0,0,0-.8,7.61l-26.22,14a9.05,9.05,0,0,0-2-2.41c27.41-34.75,35.74-132.74,37.36-156.33C306.93,124.31,309.63,125.23,312.11,126.08Z"/><path class="cls-2" d="M309.81,409.89h-5.18V387.61h4.82C309.66,394.56,309.79,402,309.81,409.89Z"/><path class="cls-3" d="M309.21,380.49H246.26V309.17c0-2,0-4,.1-6l5.14,1.78v65.28a3.56,3.56,0,0,0,3.56,3.56h11.39a3.56,3.56,0,0,0,3.56-3.56V354.39h7.83a3.57,3.57,0,0,0,3.56-3.56V297.17l16.08-8.55c.35,1.72.73,3.5,1.13,5.38C302.26,311.28,307.45,335.78,309.21,380.49Z"/><rect class="cls-2" x="290.04" y="387.61" width="7.48" height="22.28"/><path class="cls-4" d="M296.09,281.3,270,295.18v-5.87l25.31-13.48C295.51,277.6,295.77,279.41,296.09,281.3Z"/><path class="cls-4" d="M297.11,120.22c-1.18,17.6-9.55,126.38-38.05,157.3a9.27,9.27,0,0,0-7.06,6.12l-3.8-1.31a187.61,187.61,0,0,1,5.2-24.48c8.75-28.85,15.45-60.88,19.9-95.19,3-23.39,4.37-42.83,4.95-54.94A77.64,77.64,0,0,0,297.11,120.22Z"/><rect class="cls-2" x="275.45" y="387.61" width="7.48" height="22.28"/><polygon class="cls-4" points="274.28 300.96 274.28 347.27 270.01 347.27 270.01 303.23 274.28 300.96"/><path class="cls-2" d="M267.08,94a7.66,7.66,0,0,1,4.33,7.14c-.07,1.82-.16,4-.27,6.43a133.2,133.2,0,0,0-42.27,0c-.12-2.52-.21-4.68-.27-6.43a.22.22,0,0,0,0-.08v-.19A7.67,7.67,0,0,1,232.92,94a39.53,39.53,0,0,1,34.16,0Z"/><path class="cls-2" d="M270.75,114.7c-.72,11.86-2.05,28.15-4.5,47.05A604,604,0,0,1,250,244c-14.27-51.88-19.11-102.76-20.73-129.32A126.36,126.36,0,0,1,270.75,114.7Z"/><rect class="cls-2" x="260.85" y="387.61" width="7.48" height="22.28"/><path class="cls-4" d="M262.89,286.61v80.05h-4.27V286.61a2.14,2.14,0,1,1,4.27,0Z"/><rect class="cls-2" x="246.26" y="387.61" width="7.48" height="22.28"/><path class="cls-4" d="M251.5,291v6.4L204,280.93c.35-2.12.63-4.14.82-6.12Z"/><path class="cls-4" d="M246.3,256.85a196.05,196.05,0,0,0-4.83,22.35c-27.94-32.11-37.22-141.29-38.56-159a77.76,77.76,0,0,0,18.85-12.49C223,133,227.8,195.34,246.3,256.85Z"/><path class="cls-3" d="M202.65,288l36.69,12.72c-.13,2.76-.19,5.59-.19,8.45v71.32H190.8c1.76-44.71,6.94-69.21,10.6-86.49C201.84,291.89,202.26,289.91,202.65,288Z"/><rect class="cls-2" x="231.67" y="387.61" width="7.48" height="22.28"/><path class="cls-3" d="M230.54,276.2,205,267.36a46.1,46.1,0,0,0-.77-7c-3.89-20.78-21.5-101.62-27.63-129.7,3-1.74,6.69-3,11.27-4.58,2.49-.85,5.2-1.79,8.1-2.91C197.74,145.75,206.16,237.08,230.54,276.2Z"/><rect class="cls-2" x="217.08" y="387.61" width="7.48" height="22.28"/><rect class="cls-2" x="202.49" y="387.61" width="7.48" height="22.28"/><path class="cls-2" d="M195.37,387.61v22.28h-5.18c0-7.92.15-15.33.36-22.28Z"/><path class="cls-3" d="M188.5,219.26,174.78,335.91l-23.11-2.26C157.19,255.71,165,153.29,168,142.54a23.64,23.64,0,0,1,2.57-6.11C174.75,155.41,182.35,190.36,188.5,219.26Z"/><polygon class="cls-2" points="173.95 342.98 169.89 377.49 167.94 377.24 171.49 342.74 173.95 342.98"/><polygon class="cls-2" points="164.4 342.05 160.88 376.3 158.32 375.97 161.13 341.73 164.4 342.05"/><path class="cls-2" d="M154.05,341l-2.79,34-2.45-.32c.7-10.3,1.5-21.78,2.35-34Z"/></g></svg>