<svg xmlns="http://www.w3.org/2000/svg" xmlns:xlink="http://www.w3.org/1999/xlink" viewBox="0 0 500 500"><defs><style>.cls-1{fill:#333;}.cls-2{fill:#404040;}.cls-3{fill:#505050;}.cls-4{opacity:0.1;fill:url(#무제_그라디언트_78);}</style><linearGradient id="무제_그라디언트_78" x1="205.41" y1="216.36" x2="338.15" y2="261.81" gradientUnits="userSpaceOnUse"><stop offset="0.02" stop-color="#fff"/><stop offset="1" stop-color="#fff" stop-opacity="0"/></linearGradient></defs><g id="레이어_3" data-name="레이어 3"><path class="cls-1" d="M187,320.52h-.19l-23.1-2.44a1.82,1.82,0,0,1-1.61-1.8v-9.38a1.8,1.8,0,0,1,1.8-1.8H187a1.79,1.79,0,0,1,1.8,1.8v11.83a1.79,1.79,0,0,1-1.8,1.8Zm-21.3-5.87,19.5,2.07v-8h-19.5Z"/><path class="cls-1" d="M311.3,320.52a1.8,1.8,0,0,1-1.81-1.8V306.89a1.8,1.8,0,0,1,1.81-1.8h23.1a1.8,1.8,0,0,1,1.8,1.8v9.38a1.82,1.82,0,0,1-1.61,1.8l-23.11,2.44Zm1.8-11.83v8l19.5-2.07v-6Zm21.3,7.58h0Z"/><polygon class="cls-2" points="334.4 316.27 311.3 318.72 311.3 306.89 334.4 306.89 334.4 316.27"/><polygon class="cls-2" points="163.91 316.27 187.01 318.72 187.01 306.89 163.91 306.89 163.91 316.27"/><path class="cls-1" d="M311.3,320.52a1.8,1.8,0,0,1-1.81-1.8V306.89a1.8,1.8,0,0,1,1.81-1.8h23.1a1.8,1.8,0,0,1,1.8,1.8v9.38a1.82,1.82,0,0,1-1.61,1.8l-23.11,2.44Zm1.8-11.83v8l19.5-2.07v-6Zm21.3,7.58h0Z"/><path class="cls-1" d="M311.3,320.52a1.8,1.8,0,0,1-1.81-1.8V306.89a1.8,1.8,0,0,1,1.81-1.8h23.1a1.8,1.8,0,0,1,1.8,1.8v9.38a1.82,1.82,0,0,1-1.61,1.8l-23.11,2.44Zm1.8-11.83v8l19.5-2.07v-6Zm21.3,7.58h0Z"/><path class="cls-1" d="M187,320.52h-.19l-23.1-2.44a1.82,1.82,0,0,1-1.61-1.8v-9.38a1.8,1.8,0,0,1,1.8-1.8H187a1.79,1.79,0,0,1,1.8,1.8v11.83a1.79,1.79,0,0,1-1.8,1.8Zm-21.3-5.87,19.5,2.07v-8h-19.5Z"/><path class="cls-3" d="M337.11,205.53c1.33-8-2.66-24.55-4-31.85s-7.3-28.54-14.6-41.15-27.22-16.59-27.22-16.59.5-15.27.5-26.72a13.64,13.64,0,0,0-.17-2.14l.17-.35h-.25c-1.9-9.82-15.58-14.94-45-14.94-31.86,0-37.83,17.42-37.83,17.42v26.72s-.5.1-1.29.29l-.56-.29.28.37c-4.8,1.22-19.57,5.72-25.65,16.22-7.3,12.61-13.27,33.85-14.6,41.15s-5.31,23.89-4,31.85-4.65,40.49-3.32,70.35-2,31.2,7.3,32.52c8.28,1.19,19.16,1.84,21.45,2-.5,14.07-.87,23.92-.87,23.92l-3.32,70.35s-2,8.63,11.28,15.26c10.79,5.4,26.41,7.29,43.64,7.8v.5h18.42v-.41c18.6-.37,35.6-2.13,47.12-7.89,13.27-6.63,11.28-15.26,11.28-15.26l-3.32-70.35s-.37-9.85-.87-23.92c2.29-.13,13.17-.78,21.45-2,9.29-1.32,6-2.65,7.3-32.52S335.78,213.5,337.11,205.53Z"/><path class="cls-2" d="M221.62,88.94s33.6-11.92,54-2.82c-.22,4.34-22.12,8-36,6.72S221.62,88.94,221.62,88.94Z"/><path class="cls-1" d="M245.73,94.9c-2.24,0-4.36-.08-6.29-.26-13.9-1.31-18.33-3.89-18.79-4.18a1.81,1.81,0,0,1,.36-3.22c1.4-.49,34.53-12,55.32-2.76a1.78,1.78,0,0,1,1.06,1.73,3.81,3.81,0,0,1-1.49,2.72C271.68,92.58,257.28,94.9,245.73,94.9Zm-18.39-5.84a81.9,81.9,0,0,0,12.44,2c12.89,1.21,28.41-1.77,32.86-4.17C257.84,81.62,236.9,86.36,227.34,89.06Z"/><path class="cls-4" d="M309.06,169.56S273,246.29,211.71,258.33a26.18,26.18,0,0,0-19.25,15.84c-2.89,7.28-.71,15.75,10.55,23.09,16.59,10.82,75-.72,108.21-21.64Z"/><path class="cls-1" d="M248.84,429.67a1.8,1.8,0,0,1,0-3.6c19.48,0,41.24-.93,54.94-7.78,11.7-5.85,10.39-13,10.33-13.27a2.72,2.72,0,0,1,0-.3l-3.32-70.35c0-.72-2.66-70.76-3.32-103.58a407.63,407.63,0,0,1,2.67-57.36,2,2,0,0,1,.16-.53l11.95-25.21a1.8,1.8,0,1,1,3.25,1.54l-11.82,25A407.49,407.49,0,0,0,311,230.72c.66,32.79,3.3,102.8,3.32,103.5l3.31,70.21c.26,1.46,1.18,10.36-12.27,17.09C291,428.7,268.74,429.67,248.84,429.67Z"/><path class="cls-1" d="M311.22,312.2a1.8,1.8,0,0,1-.09-3.6c.13,0,12.64-.68,21.74-2,5.3-.76,5.3-.76,5.36-12.55,0-4.37,0-10.36.4-18.27.77-17.35-1-35.9-2.24-49.45-1-10.2-1.65-17.58-1.06-21.11,1-6.21-1.42-18.4-3-26.47-.37-1.82-.7-3.45-.94-4.77-1.22-6.74-7.1-28-14.38-40.57-6.8-11.74-25.82-15.69-26-15.73a1.81,1.81,0,0,1-1.45-1.82c0-.16.5-15.37.5-26.66,0-10.51-14.23-15.62-43.5-15.62-28.28,0-35.13,13.81-36,16v26.38A1.81,1.81,0,0,1,209,117.7c-.19,0-19.21,4-26,15.73C175.75,146,169.87,167.25,168.65,174c-.25,1.32-.57,2.95-.94,4.77-1.62,8.07-4.08,20.26-3,26.47.59,3.53-.1,10.9-1.06,21.1-1.27,13.55-3,32.11-2.24,49.46.35,7.91.38,13.9.4,18.27.06,11.79.06,11.79,5.36,12.55,9.1,1.3,21.61,2,21.74,2a1.79,1.79,0,0,1,1.7,1.89,1.72,1.72,0,0,1-1.89,1.7c-.13,0-12.8-.68-22.06-2-8.38-1.2-8.39-3.77-8.45-16.1,0-4.34,0-10.29-.4-18.13-.78-17.6,1-36.3,2.25-49.95.9-9.56,1.61-17.11,1.09-20.18-1.14-6.86,1.39-19.44,3.07-27.77.36-1.8.68-3.4.92-4.71,1.45-7.95,7.46-29,14.81-41.72,6.53-11.28,22.11-15.92,27-17.13V89.22a1.91,1.91,0,0,1,.1-.58c.26-.76,6.77-18.64,39.53-18.64,32.14,0,47.1,6.11,47.1,19.22,0,9.28-.33,21.17-.45,25.29,4.91,1.23,20.42,5.87,26.92,17.12,7.36,12.7,13.38,33.78,14.82,41.72.24,1.31.56,2.91.92,4.71,1.68,8.33,4.21,20.91,3.07,27.77-.52,3.07.19,10.62,1.09,20.18,1.28,13.66,3,32.36,2.25,49.95-.35,7.84-.38,13.79-.4,18.13-.06,12.33-.07,14.9-8.45,16.1-9.26,1.32-21.93,2-22.06,2Z"/><path class="cls-1" d="M251.16,429.67c-19.9,0-42.18-1-56.55-8.15-13.45-6.73-12.53-15.63-12.27-17.09l3.31-70.23c0-.68,2.66-70.69,3.32-103.48a409.48,409.48,0,0,0-2.59-56.4l-14-21.56a1.8,1.8,0,0,1,3-2l14.27,21.9a1.84,1.84,0,0,1,.27.74,404.78,404.78,0,0,1,2.68,57.36c-.66,32.82-3.3,102.86-3.32,103.57l-3.32,70.36a1.88,1.88,0,0,1-.05.33c0,.27-1.36,7.39,10.34,13.24,13.7,6.85,35.46,7.78,54.94,7.78a1.8,1.8,0,0,1,0,3.6Z"/><path class="cls-1" d="M260.07,105h-1.15c-3.08-.06-5.94-.08-8.62-.11-19.76-.16-29.68-.24-42.6-14.07l2.63-2.46c11.86,12.7,20.68,12.77,40,12.93,2.69,0,5.57,0,8.66.11H260c23.08,0,30.06-15.21,30.12-15.36l3.3,1.45C293.14,88.19,285.44,105,260.07,105Z"/><path class="cls-1" d="M257.47,430H239.05a1.8,1.8,0,0,1-1.8-1.8V103.91a1.79,1.79,0,0,1,1.8-1.8h18.42a1.8,1.8,0,0,1,1.8,1.8V428.2A1.81,1.81,0,0,1,257.47,430Zm-16.62-3.6h14.81V105.71H240.85Z"/><path class="cls-1" d="M260,134.33a1.8,1.8,0,1,1,0-3.6c18.23,0,29.79-15.69,29.9-15.85a1.81,1.81,0,0,1,2.93,2.11C292.27,117.7,280.06,134.33,260,134.33Z"/><path class="cls-1" d="M238.2,134.33c-20.11,0-32.31-16.63-32.82-17.34a1.8,1.8,0,0,1,2.92-2.11c.11.16,11.67,15.85,29.9,15.85a1.8,1.8,0,0,1,0,3.6Z"/><path class="cls-1" d="M307.8,201.68h-.19c-.35,0-35.7-3.61-48.64-2.31a1.8,1.8,0,0,1-.36-3.58c13.31-1.34,47.9,2.16,49.37,2.31a1.8,1.8,0,0,1-.18,3.59Z"/><path class="cls-1" d="M270.51,238c-3.5,0-6.93-.05-10.12-.16a1.8,1.8,0,1,1,.12-3.6c18.95.67,46.35-1,46.62-1A1.83,1.83,0,0,1,309,235a1.81,1.81,0,0,1-1.69,1.91C307.12,236.88,288,238,270.51,238Z"/><path class="cls-1" d="M269.76,276.44a73.21,73.21,0,0,1-11.59-.77,1.8,1.8,0,1,1,.59-3.55c15.46,2.57,48.2-2.61,48.53-2.66a1.78,1.78,0,0,1,2.06,1.49,1.8,1.8,0,0,1-1.49,2.07C306.77,273.19,286.22,276.44,269.76,276.44Z"/><path class="cls-1" d="M271.34,314.26c-3.94,0-7.91-.14-11.76-.46a1.82,1.82,0,0,1-1.65-1.95,1.8,1.8,0,0,1,1.95-1.64c23,1.93,50.24-3,50.52-3.09a1.8,1.8,0,0,1,.66,3.54A248.44,248.44,0,0,1,271.34,314.26Z"/><path class="cls-1" d="M267.89,354.08c-2.68,0-5.45-.13-8.28-.41a1.8,1.8,0,0,1,.36-3.59c29.16,2.87,51.3-11.56,51.52-11.71a1.8,1.8,0,0,1,2,3C312.63,341.94,294.08,354.08,267.89,354.08Z"/><path class="cls-1" d="M269.81,391.08a84.87,84.87,0,0,1-9.9-.58,1.8,1.8,0,1,1,.42-3.58c29.78,3.53,51.65-11.16,51.87-11.31a1.8,1.8,0,0,1,2,3C313.41,379.15,295.69,391.08,269.81,391.08Z"/><path class="cls-1" d="M189.93,202.62a1.8,1.8,0,0,1-.23-3.59c1.41-.19,34.7-4.59,48-3.25a1.8,1.8,0,0,1,1.62,2,1.78,1.78,0,0,1-2,1.61c-12.92-1.28-46.86,3.2-47.21,3.25Z"/><path class="cls-1" d="M226.43,237.67c-16.42,0-34.47-.76-34.69-.77a1.8,1.8,0,0,1,.16-3.6c.26,0,26.09,1.1,43.95.66a1.83,1.83,0,0,1,1.85,1.76,1.8,1.8,0,0,1-1.76,1.84C232.94,237.64,229.72,237.67,226.43,237.67Z"/><path class="cls-1" d="M226.59,276.44c-16.46,0-37-3.25-38.1-3.42A1.8,1.8,0,0,1,187,271a1.77,1.77,0,0,1,2.06-1.49c.33.05,33.08,5.23,48.53,2.66a1.8,1.8,0,0,1,.59,3.55A73.21,73.21,0,0,1,226.59,276.44Z"/><path class="cls-1" d="M224.3,314.45a246.55,246.55,0,0,1-36.49-2.94,1.8,1.8,0,0,1,.61-3.55c.25,0,25.66,4.33,48.7,2.38a1.83,1.83,0,0,1,1.95,1.65,1.79,1.79,0,0,1-1.64,1.94C233.07,314.3,228.64,314.45,224.3,314.45Z"/><path class="cls-1" d="M230.6,354.08a85.39,85.39,0,0,1-44.22-12.66,1.8,1.8,0,1,1,2-3c.22.15,22,14.55,49.8,11.65a1.8,1.8,0,1,1,.37,3.59A77.48,77.48,0,0,1,230.6,354.08Z"/><path class="cls-1" d="M228.82,391.08c-24.76,0-41.7-11.95-42.49-12.52a1.8,1.8,0,0,1,2.1-2.93,76,76,0,0,0,49.41,11.29,1.8,1.8,0,1,1,.44,3.58A77.66,77.66,0,0,1,228.82,391.08Z"/><path class="cls-1" d="M179.19,211.39a39.15,39.15,0,0,1-16.28-3.25,1.8,1.8,0,1,1,1.59-3.23c.11.06,10.63,5.09,24.7,1.66a1.8,1.8,0,0,1,.85,3.5A45.6,45.6,0,0,1,179.19,211.39Z"/><path class="cls-1" d="M178.89,242.14a48.27,48.27,0,0,1-17.36-3.09,1.8,1.8,0,0,1,1.39-3.32,46.74,46.74,0,0,0,26.42,1.57,1.8,1.8,0,1,1,.86,3.5A47.5,47.5,0,0,1,178.89,242.14Z"/><path class="cls-1" d="M178.89,273a48.27,48.27,0,0,1-17.36-3.09,1.8,1.8,0,0,1,1.39-3.32,46.77,46.77,0,0,0,26.42,1.57,1.8,1.8,0,1,1,.86,3.5A47.5,47.5,0,0,1,178.89,273Z"/><path class="cls-1" d="M320.55,211.28a47.5,47.5,0,0,1-11.31-1.34,1.8,1.8,0,1,1,.86-3.5,46.74,46.74,0,0,0,26.42-1.57,1.8,1.8,0,0,1,1.39,3.32A48.27,48.27,0,0,1,320.55,211.28Z"/><path class="cls-1" d="M322.77,242.14a47.5,47.5,0,0,1-11.31-1.34,1.8,1.8,0,1,1,.86-3.5,46.71,46.71,0,0,0,26.41-1.57,1.8,1.8,0,1,1,1.4,3.32A48.33,48.33,0,0,1,322.77,242.14Z"/><path class="cls-1" d="M322.77,273a47.5,47.5,0,0,1-11.31-1.34,1.8,1.8,0,0,1,.86-3.5,46.81,46.81,0,0,0,26.41-1.57,1.8,1.8,0,0,1,1.4,3.32A48.33,48.33,0,0,1,322.77,273Z"/><path class="cls-1" d="M185.5,170a1.8,1.8,0,0,1-.85-3.39c.9-.48,22.49-11.66,53.88-9.12a1.79,1.79,0,0,1,1.64,1.94,1.84,1.84,0,0,1-1.94,1.65c-30.28-2.49-51.68,8.61-51.89,8.72A1.82,1.82,0,0,1,185.5,170Z"/><path class="cls-1" d="M313.88,170.17A1.8,1.8,0,0,1,313,170c-.22-.12-22.53-11.67-54.1-9.09a1.83,1.83,0,0,1-1.94-1.65,1.8,1.8,0,0,1,1.65-1.94c32.66-2.65,55.13,9,56.07,9.49a1.81,1.81,0,0,1-.84,3.4Z"/></g></svg>