<svg xmlns="http://www.w3.org/2000/svg" viewBox="0 0 500 500"><defs><style>.cls-1{fill:#333;}.cls-2{fill:#ff8dca;}.cls-3{fill:#e87abb;}.cls-4{fill:#ca66a6;}</style></defs><g id="레이어_3" data-name="레이어 3"><path class="cls-1" d="M367.62,414.64a3.7,3.7,0,0,1-.95,2.73,3.76,3.76,0,0,1-2.62,1.22l-28.71.92h-.13a3.69,3.69,0,0,1-3.69-3.58c0-.09-.1-2.8-.3-7.53H276.86a3.71,3.71,0,0,1-3.59-2.79l-3.54-14H230.26l-3.54,14a3.69,3.69,0,0,1-3.58,2.79H168.77c-.2,4.73-.29,7.44-.29,7.53a3.7,3.7,0,0,1-3.7,3.58h-.12L136,418.59a3.78,3.78,0,0,1-2.63-1.22,3.69,3.69,0,0,1-.94-2.73l19.24-291.48a40.4,40.4,0,0,1,.6-4.49,3.69,3.69,0,0,1,2.44-1.93l45.5-10.92,16.69-13.35a10,10,0,0,1,2.91-5.14c7.43-7.2,27.43-6.89,30.24-6.82s22.8-.38,30.23,6.82a9.89,9.89,0,0,1,2.91,5.13l16.69,13.36,45.51,10.92a3.73,3.73,0,0,1,2.44,1.93,3.58,3.58,0,0,1,.38,1.42l.28,4ZM360,411.31l-18.1-274.15c-6.92,18.45-18.3,51.08-25.83,84.56,16.88,55.93,21.89,168,22.73,190.27ZM339.44,122.94l-22.85-5.48-19.29-4.63a3.93,3.93,0,0,1-1.45-.71L282.33,101.3c-.38,1.94-.92,4.43-1.63,7.63l11.44,12.95,22.94-4.25a3.63,3.63,0,0,1,1.47,0,3.71,3.71,0,0,1,2.71,4.82c-20.87,60.45-43.32,95.91-58.9,115.31L264,251.2c.34,1.21.55,2,.64,2.34a3.74,3.74,0,0,1,.06,2l-10.89,43L279.74,401h49.95c-1.24-5.63-3.54-16.09-6.35-28.6l-.12.39-5.79-1.9A39,39,0,0,1,292.72,347l-8.49-23.22a3.7,3.7,0,0,1,3.47-5H311c-.69-2.91-1.38-5.74-2.05-8.45a188.88,188.88,0,0,1-1.75-82.59C316.55,182.23,334,136.5,339.44,122.94ZM328.59,362c-.46-6.4-1-13.13-1.54-20.06-3.62-43.28-8.49-78.56-14.25-103.46a182.21,182.21,0,0,0,3.32,70.16C320.06,324.64,324.64,344.51,328.59,362Zm-8.86,1.88,1.82.6c-1.81-8-3.76-16.6-5.73-25.09h-18l1.88,5.12A31.66,31.66,0,0,0,319.73,363.84ZM295.09,332h19c-.45-1.92-.9-3.84-1.35-5.73H293Zm15.06-205.88-18.72,3.47a3.71,3.71,0,0,1-3.45-1.19l-9.35-10.58c-6,25-16.54,65-24.8,95.76,1.47,5.49,2.86,10.65,4.12,15.32C272.36,209.86,291.72,177.75,310.15,126.07ZM275.94,94.4a2.29,2.29,0,0,0-.86-1.75c-4-3.89-17.45-5-25-4.74a.88.88,0,0,1-.23,0c-7.53-.23-21,.86-25,4.74a2.26,2.26,0,0,0-.86,1.75,29.9,29.9,0,0,0,.66,4.41c9-3.94,23-3.73,25.28-3.66s16.25-.27,25.27,3.66A31,31,0,0,0,275.94,94.4Zm-8.08,289.83L250,313.65l-17.87,70.58ZM250,199.21c8.45-31.71,23.51-92.06,23.71-92.95-5.09-3-16.74-3.91-23.6-3.71h-.22c-6.88-.2-18.51.67-23.6,3.71C226.48,107.16,241.55,167.5,250,199.21ZM220.25,401l36.69-144.92c-8.85-7.31-44.24-41-76.21-133.6a3.71,3.71,0,0,1,2.71-4.82,3.63,3.63,0,0,1,1.47,0l22.94,4.25,11.45-12.95c-.72-3.2-1.25-5.69-1.64-7.63l-13.51,10.82a3.9,3.9,0,0,1-1.46.71l-19.29,4.63-22.84,5.48c5.4,13.56,22.88,59.29,32.26,104.84a188.88,188.88,0,0,1-1.75,82.59c-.68,2.71-1.36,5.54-2.06,8.45h22.46a3.7,3.7,0,0,1,3.47,5L206.45,347a39.08,39.08,0,0,1-24.71,23.87l-5.13,1.68c-2.78,12.43-5.08,22.82-6.31,28.43Zm33.89-157.85c-2-7.29-4.67-17.29-7.72-28.65-8.29-30.92-19-71.46-25-96.72L212,128.35a3.7,3.7,0,0,1-3.44,1.19l-18.73-3.47C214.34,194.71,240.67,228.89,254.14,243.14ZM204.08,332l2.09-5.73H187.25c-.45,1.89-.9,3.81-1.35,5.73Zm-4.58,12.52,1.87-5.12H184.18c-2,8.39-3.88,16.86-5.67,24.81l.93-.32A31.7,31.7,0,0,0,199.5,344.47ZM183.87,308.6a182.41,182.41,0,0,0,3.33-70.16c-5.77,24.9-10.64,60.19-14.25,103.49-.58,6.93-1.09,13.65-1.54,20C175.35,344.51,179.93,324.64,183.87,308.6Zm.08-86.88c-7.54-33.5-18.92-66.11-25.83-84.56L140,411.31l21.2.68C162.06,389.77,167.06,277.65,184,221.72Z"/><path class="cls-2" d="M341.88,137.16,360,411.31l-21.2.68c-.84-22.22-5.85-134.34-22.73-190.27C323.58,188.24,335,155.61,341.88,137.16Zm14.66,267.32a3.7,3.7,0,1,0-1.09,2.62A3.73,3.73,0,0,0,356.54,404.48Z"/><path class="cls-1" d="M355.45,401.87a3.69,3.69,0,0,1,1.09,2.61,3.7,3.7,0,1,1-6.32-2.61,3.68,3.68,0,0,1,5.23,0Z"/><path class="cls-2" d="M316.59,117.46l22.85,5.48c-5.4,13.56-22.89,59.29-32.26,104.84a188.88,188.88,0,0,0,1.75,82.59c.67,2.71,1.36,5.54,2.05,8.45H287.7a3.7,3.7,0,0,0-3.47,5L292.72,347a39,39,0,0,0,24.71,23.87l5.79,1.9.12-.39c2.81,12.51,5.11,23,6.35,28.6H279.74L253.81,298.56l10.89-43a3.74,3.74,0,0,0-.06-2c-.09-.34-.3-1.13-.64-2.34l-3.64-13.42c15.58-19.4,38-54.86,58.9-115.31a3.71,3.71,0,0,0-2.71-4.82Z"/><path class="cls-3" d="M321.55,364.44l-1.82-.6a31.66,31.66,0,0,1-20.06-19.37l-1.88-5.12h18C317.79,347.84,319.74,356.41,321.55,364.44Z"/><path class="cls-2" d="M297.3,112.83l19.29,4.63,0,.19a3.63,3.63,0,0,0-1.47,0l-22.94,4.25L280.7,108.93c.71-3.2,1.25-5.69,1.63-7.63l13.52,10.82A3.93,3.93,0,0,0,297.3,112.83Z"/><path class="cls-3" d="M314.1,332h-19L293,326.22h19.75C313.2,328.11,313.65,330,314.1,332Z"/><path class="cls-3" d="M291.43,129.54l18.72-3.47c-18.43,51.68-37.79,83.79-52.2,102.78-1.26-4.67-2.65-9.83-4.12-15.32,8.26-30.79,18.8-70.75,24.8-95.76L288,128.35A3.71,3.71,0,0,0,291.43,129.54Z"/><path class="cls-4" d="M275.08,92.65a2.29,2.29,0,0,1,.86,1.75,31,31,0,0,1-.67,4.41c-9-3.93-22.95-3.73-25.27-3.66s-16.26-.28-25.28,3.66a29.9,29.9,0,0,1-.66-4.41,2.26,2.26,0,0,1,.86-1.75c4-3.88,17.43-5,25-4.74a.88.88,0,0,0,.23,0C257.63,87.67,271.07,88.76,275.08,92.65Z"/><polygon class="cls-4" points="250 313.64 267.86 384.23 232.13 384.23 250 313.64"/><path class="cls-4" d="M273.71,106.26c-.2.89-15.26,61.24-23.71,93-8.45-31.71-23.52-92.05-23.71-92.95,5.09-3,16.72-3.91,23.6-3.71h.22C257,102.35,268.62,103.22,273.71,106.26Z"/><path class="cls-2" d="M256.94,256.07,220.25,401H170.3c1.23-5.61,3.53-16,6.31-28.43l5.13-1.68A39.08,39.08,0,0,0,206.45,347l8.49-23.22a3.7,3.7,0,0,0-3.47-5H189c.7-2.91,1.38-5.74,2.06-8.45a188.88,188.88,0,0,0,1.75-82.59c-9.38-45.55-26.86-91.28-32.26-104.84l22.84-5.48,0,.19a3.71,3.71,0,0,0-2.71,4.82C212.7,215.08,248.09,248.76,256.94,256.07Zm-4.73,4.13a5.92,5.92,0,1,0-1.73,4.19A6,6,0,0,0,252.21,260.2Z"/><path class="cls-3" d="M246.42,214.49c3.05,11.36,5.75,21.36,7.72,28.65-13.47-14.25-39.8-48.43-64.3-117.07l18.73,3.47a3.7,3.7,0,0,0,3.44-1.19l9.36-10.58C227.42,143,238.13,183.57,246.42,214.49Z"/><path class="cls-1" d="M250.48,256a5.94,5.94,0,1,1-4.19-1.73A6,6,0,0,1,250.48,256Z"/><path class="cls-2" d="M219.3,108.93l-11.45,12.95-22.94-4.25a3.63,3.63,0,0,0-1.47,0l0-.19,19.29-4.63a3.9,3.9,0,0,0,1.46-.71l13.51-10.82C218.05,103.24,218.58,105.73,219.3,108.93Z"/><path class="cls-3" d="M206.17,326.22,204.08,332H185.9c.45-1.92.9-3.84,1.35-5.73Z"/><path class="cls-3" d="M201.37,339.35l-1.87,5.12a31.7,31.7,0,0,1-20.06,19.37l-.93.32c1.79-8,3.72-16.42,5.67-24.81Z"/><path class="cls-2" d="M158.12,137.16c6.91,18.45,18.29,51.06,25.83,84.56-16.89,55.93-21.89,168-22.73,190.27l-21.2-.68ZM150,404.48a3.7,3.7,0,1,0-1.09,2.62A3.7,3.7,0,0,0,150,404.48Z"/><path class="cls-1" d="M148.94,401.87a3.68,3.68,0,1,1-2.61-1.09A3.7,3.7,0,0,1,148.94,401.87Z"/></g></svg>