<svg xmlns="http://www.w3.org/2000/svg" viewBox="0 0 500 500"><defs><style>.cls-1{fill:#a99c83;}.cls-2{fill:#c5bca5;}.cls-3{fill:#3f352f;}</style></defs><g id="레이어_3" data-name="레이어 3"><polygon class="cls-1" points="134.85 378.22 157.87 383.11 161.53 369.88 135.79 364.26 134.85 378.22"/><path class="cls-2" d="M136.21,356.77l27.23,6c2.38-9.62,9-38,11.61-66.63v-103l-11-36.31C156.85,182,140.73,248.91,136.21,356.77Z"/><path class="cls-2" d="M211.3,134.49a63.1,63.1,0,0,1-8.5-15l-25.25,11.25A21.58,21.58,0,0,0,167.94,144l14.36,47.46a3.58,3.58,0,0,1,.16,1.08V380c2.16,2,13.95,10.15,63.84,10.53V153.77C232.25,152.65,220.2,146.05,211.3,134.49Z"/><path class="cls-2" d="M253.7,138.5v7.84c24.23-2.21,34.09-22.72,36.89-30.17l-7.26-4.34C280.35,125.37,267.88,136.77,253.7,138.5Z"/><path class="cls-2" d="M335.94,156.77l-11,36.32v103c2.61,28.6,9.23,57,11.61,66.63l27.22-6C359.26,248.8,343.15,181.93,335.94,156.77Z"/><polygon class="cls-1" points="338.47 369.88 342.13 383.11 365.14 378.22 364.2 364.26 338.47 369.88"/><path class="cls-2" d="M322.45,130.79,297.2,119.54a63.1,63.1,0,0,1-8.5,15c-8.9,11.56-20.95,18.16-35,19.28V390.58c49.9-.39,61.68-8.53,63.84-10.54V192.55a3.58,3.58,0,0,1,.16-1.08L332.06,144A21.62,21.62,0,0,0,322.45,130.79Z"/><path class="cls-2" d="M216.67,111.83l-7.26,4.34c2.8,7.45,12.66,28,36.89,30.17v-7.85C232.12,136.76,219.65,125.37,216.67,111.83Z"/><path class="cls-1" d="M275.18,113.31H224.82c3.71,10,14.2,18,25.18,18S271.47,123.29,275.18,113.31Z"/><path class="cls-3" d="M339.45,143.11a29,29,0,0,0-13.65-18.93l-29-13-14.56-8.69a3.7,3.7,0,0,0-5.6,3.18c0,.06,0,.13,0,.19H223.41c0-.06,0-.13,0-.19a3.69,3.69,0,0,0-5.6-3.18l-14.55,8.69L174.4,124.08a30,30,0,0,0-13.85,19c-1.58,4.5-26.36,77.4-31.86,216.41l-1.44,21.4a3.71,3.71,0,0,0,2.92,3.88s30.09,6.36,30.35,6.36a3.69,3.69,0,0,0,3.56-2.72l5.64-20.35s2.51-9.47,5.33-23.22v36.41a3.82,3.82,0,0,0,.25,1.33C176.69,386.22,186.18,398,250,398s73.31-11.78,74.7-15.39a3.82,3.82,0,0,0,.25-1.33V344.87c2.82,13.75,5.33,23.2,5.33,23.2l5.64,20.37a3.69,3.69,0,0,0,3.56,2.72c.26,0,30.35-6.36,30.35-6.36a3.71,3.71,0,0,0,2.92-3.88l-1.44-21.4C365.81,220.53,341,147.63,339.45,143.11Zm-56.12-31.28,7.26,4.34c-2.8,7.45-12.66,28-36.89,30.17V138.5C267.88,136.77,280.35,125.37,283.33,111.83ZM157.87,383.11l-23-4.89.94-14,25.74,5.62Zm17.18-87c-2.61,28.6-9.23,57-11.61,66.63l-27.23-6c4.52-107.86,20.64-174.81,27.85-200l11,36.31Zm71.25,94.48c-49.89-.38-61.68-8.52-63.84-10.53V192.55a3.58,3.58,0,0,0-.16-1.08L167.94,144a21.58,21.58,0,0,1,9.61-13.22l25.25-11.25a63.1,63.1,0,0,0,8.5,15c8.9,11.56,20.95,18.16,35,19.28Zm0-244.23c-24.23-2.21-34.09-22.72-36.89-30.17l7.26-4.34c3,13.54,15.45,24.93,29.63,26.66Zm-21.48-33h50.36c-3.71,10-14.2,18-25.18,18S228.53,123.29,224.82,113.31Zm92.88,78.16a3.58,3.58,0,0,0-.16,1.08V380c-2.16,2-13.94,10.15-63.84,10.54V153.77c14.05-1.12,26.1-7.72,35-19.28a63.1,63.1,0,0,0,8.5-15l25.25,11.25A21.62,21.62,0,0,1,332.06,144Zm18.86,171.25c-2.38-9.62-9-38-11.61-66.63v-103l11-36.32c7.21,25.16,23.32,92,27.84,200Zm5.57,20.39-3.66-13.23,25.73-5.62.95,14Z"/></g></svg>