<svg xmlns="http://www.w3.org/2000/svg" viewBox="0 0 500 500"><defs><style>.cls-1{fill:#333;}.cls-2{fill:#5e6a7c;}.cls-3{fill:#3a4556;}.cls-4{fill:#cacdcf;}.cls-5{fill:#eaeaeb;}.cls-6{fill:#7fafe8;}</style></defs><g id="레이어_3" data-name="레이어 3"><path class="cls-1" d="M372.13,393.24a3.56,3.56,0,0,1-3.56,3.55H334.7a3.55,3.55,0,0,1-3.55-3.26L320.74,264.21c-.53,8.94-.91,17.65-.91,24.46,0,23.19,5.83,119.59,5.89,120.56a3.56,3.56,0,0,1-3.55,3.77h-53a3.54,3.54,0,0,1-3.4-2.54L250,357.77l-15.75,52.69a3.55,3.55,0,0,1-3.4,2.54h-53a3.57,3.57,0,0,1-2.6-1.12,3.63,3.63,0,0,1-1-2.65c.07-1,5.89-97.37,5.89-120.56,0-6.81-.37-15.52-.91-24.46L168.84,393.53a3.55,3.55,0,0,1-3.54,3.26H131.43a3.56,3.56,0,0,1-3.56-3.55c0-173,22.71-265.09,22.95-266a3.53,3.53,0,0,1,2.13-2.43c37.3-14.68,51.87-22.84,56.36-25.64L221,88a3.57,3.57,0,0,1,4.08-.59L250,101.9l24.89-14.51A3.55,3.55,0,0,1,279,88l11.73,11.19c4.48,2.8,19.05,11,56.35,25.64a3.55,3.55,0,0,1,2.14,2.43C349.41,128.15,372.13,220.26,372.13,393.24ZM338,389.69h27c-.25-136.76-14.71-221.83-20.43-250.17-10.08,26.56-19.33,74.91-20.31,80.1Zm-20.76-170.9c.49-2.66,11.65-62.63,23.65-88.79-13.65-5.43-24.13-9.94-32.13-13.61l2.64,2.52a3.56,3.56,0,0,1-.86,5.75L303.84,128l5.79,8.42a3.56,3.56,0,0,1,.42,3.21c-.19.53-19.52,54.36-56.5,119.78v85.45l18.24,61H318.4c-.71-11.89-2.87-48.7-4.32-78.9l-23.78,2H290a3.56,3.56,0,0,1-3.53-3.2l-2.21-22.1a3.56,3.56,0,0,1,3.26-3.89l25.38-2c-.1-3.67-.16-6.78-.16-9.16,0-23.48,4.39-69.12,4.44-69.58a1.57,1.57,0,0,1,.05-.3Zm-24,102.86,20.57-1.76c-.24-5.36-.45-10.41-.62-14.95l-21.45,1.71ZM297,123.46l5.79-2.89L281,99.73c1.51,24-2.26,56.65-11.22,97.36-2.54,11.57-5.22,22.38-7.65,31.64,23.9-45.9,37.64-81.76,40.63-89.81l-7.06-10.27a3.54,3.54,0,0,1,1.34-5.19ZM274,118a172.9,172.9,0,0,0-.44-21.59l-16.93,9.87Zm-.45,8.28-12-8.11-.94,4.67,1.61,75.09C267.3,175.36,272,149.54,273.59,126.23ZM255.75,224.9l-.05-2-10.36,6.18c1.76,6.62,3.35,12.37,4.66,16.92C251.57,240.51,253.57,233.3,255.75,224.9Zm-.22-10.17-.42-19.18-10.33,6.17-.42,19.66ZM254.18,119l1-5.17L250,110.3l-5.22,3.52,1,5.17Zm.76,68.4-.41-19.17-9.15,5.45L245,193.34Zm-.59-27.33-.41-19.18-8,4.75-.42,19.67Zm-.58-27.35-.14-6.62h-7.24l-.24,11.17Zm-7.32,212.14V259.4c-37-65.42-56.32-119.25-56.51-119.78a3.59,3.59,0,0,1,.42-3.21l5.79-8.42-6.66-3.33a3.57,3.57,0,0,1-1.92-2.65,3.53,3.53,0,0,1,1.06-3.1l2.63-2.51c-8,3.66-18.48,8.17-32.12,13.6,12,26.16,23.15,86.13,23.65,88.79h0c0,.1,0,.2.06.3,0,.46,4.43,46.1,4.43,69.58,0,2.38,0,5.49-.16,9.16l25.39,2a3.56,3.56,0,0,1,3.25,3.89l-2.21,22.1A3.56,3.56,0,0,1,210,329h-.31l-23.77-2c-1.45,30.2-3.62,67-4.32,78.9h46.6ZM226,118l17.36-11.72L226.4,96.36A171,171,0,0,0,226,118Zm13.39,4.94-.95-4.77-12,8.11c1.6,23.35,6.31,49.22,11.36,71.77Zm-1.47,105.84c-2.43-9.26-5.1-20.07-7.65-31.64-9-40.71-12.72-73.38-11.22-97.36l-21.82,20.84,5.79,2.89a3.56,3.56,0,0,1,1.34,5.19l-7.06,10.27C200.25,147,214,182.85,237.88,228.73Zm-31.07,92.92,1.5-15-21.44-1.71c-.17,4.54-.39,9.59-.63,14.95Zm-44.79,68,13.7-170.07c-1-5.18-10.23-53.53-20.32-80.1-5.71,28.34-20.17,113.41-20.42,250.17Z"/><path class="cls-2" d="M365,389.69H338L324.28,219.62c1-5.19,10.23-53.54,20.31-80.1C350.31,167.86,364.77,252.93,365,389.69Z"/><path class="cls-2" d="M340.86,130c-12,26.16-23.16,86.13-23.65,88.79h0a1.57,1.57,0,0,0-.05.3c-.05.46-4.44,46.1-4.44,69.58,0,2.38.06,5.49.16,9.16l-25.38,2a3.56,3.56,0,0,0-3.26,3.89l2.21,22.1A3.56,3.56,0,0,0,290,329h.31l23.78-2c1.45,30.2,3.61,67,4.32,78.9H271.79l-18.24-61V259.4c37-65.42,56.31-119.25,56.5-119.78a3.56,3.56,0,0,0-.42-3.21L303.84,128l6.67-3.33a3.56,3.56,0,0,0,.86-5.75l-2.64-2.52C316.73,120.06,327.21,124.57,340.86,130Z"/><path class="cls-3" d="M313.75,319.89l-20.57,1.76-1.5-15,21.45-1.71C313.3,309.48,313.51,314.53,313.75,319.89Z"/><path class="cls-3" d="M302.81,120.57,297,123.46a3.54,3.54,0,0,0-1.34,5.19l7.06,10.27c-3,8.05-16.73,43.91-40.63,89.81,2.43-9.26,5.11-20.07,7.65-31.64,9-40.71,12.73-73.38,11.22-97.36Z"/><path class="cls-4" d="M273.6,96.36A172.9,172.9,0,0,1,274,118l-17.37-11.72Z"/><path class="cls-5" d="M261.6,118.12l12,8.11c-1.59,23.31-6.29,49.13-11.32,71.65l-1.61-75.09Z"/><path class="cls-6" d="M255.7,222.89l.05,2c-2.18,8.4-4.18,15.61-5.75,21.09-1.31-4.55-2.9-10.3-4.66-16.92Z"/><polygon class="cls-6" points="255.11 195.55 255.53 214.73 244.36 221.38 244.78 201.72 255.11 195.55"/><polygon class="cls-6" points="255.21 113.82 254.18 118.99 245.82 118.99 244.78 113.82 250 110.3 255.21 113.82"/><polygon class="cls-6" points="254.53 168.22 254.94 187.39 244.96 193.34 245.38 173.67 254.53 168.22"/><polygon class="cls-6" points="253.94 140.88 254.35 160.06 245.55 165.3 245.97 145.63 253.94 140.88"/><polygon class="cls-6" points="253.63 126.09 253.77 132.71 246.15 137.26 246.39 126.09 253.63 126.09"/><path class="cls-2" d="M246.45,259.4v85.45l-18.25,61H181.6c.7-11.89,2.87-48.7,4.32-78.9l23.77,2H210a3.56,3.56,0,0,0,3.53-3.2l2.21-22.1a3.56,3.56,0,0,0-3.25-3.89l-25.39-2c.11-3.67.16-6.78.16-9.16,0-23.48-4.38-69.12-4.43-69.58,0-.1,0-.2-.06-.3h0c-.5-2.66-11.66-62.63-23.65-88.79,13.64-5.43,24.13-9.94,32.12-13.6l-2.63,2.51a3.53,3.53,0,0,0-1.06,3.1,3.57,3.57,0,0,0,1.92,2.65l6.66,3.33-5.79,8.42a3.59,3.59,0,0,0-.42,3.21C190.13,140.15,209.47,194,246.45,259.4Zm-6.16,7.17a3.55,3.55,0,1,0-1,2.51A3.57,3.57,0,0,0,240.29,266.57Zm0,32.4a3.53,3.53,0,1,0-1,2.52A3.58,3.58,0,0,0,240.29,299Zm0,32.41a3.57,3.57,0,0,0-1-2.51,3.55,3.55,0,0,0-5,0,3.55,3.55,0,1,0,6.06,2.51Z"/><path class="cls-4" d="M243.32,106.23,226,118a171,171,0,0,1,.44-21.59Z"/><path class="cls-1" d="M239.25,264.06a3.55,3.55,0,1,1-2.51-1A3.57,3.57,0,0,1,239.25,264.06Z"/><path class="cls-1" d="M239.25,296.46a3.55,3.55,0,1,1-2.51-1A3.58,3.58,0,0,1,239.25,296.46Z"/><path class="cls-1" d="M239.25,328.87a3.55,3.55,0,1,1-5,0,3.55,3.55,0,0,1,5,0Z"/><path class="cls-5" d="M238.4,118.12l.95,4.77L237.76,198c-5-22.55-9.76-48.42-11.36-71.77Z"/><path class="cls-3" d="M230.23,197.09c2.55,11.57,5.22,22.38,7.65,31.64C214,182.85,200.25,147,197.26,138.92l7.06-10.27a3.56,3.56,0,0,0-1.34-5.19l-5.79-2.89L219,99.73C217.51,123.71,221.27,156.38,230.23,197.09Z"/><path class="cls-3" d="M208.31,306.65l-1.5,15-20.57-1.76c.24-5.36.46-10.41.63-14.95Z"/><path class="cls-2" d="M175.72,219.62,162,389.69H135c.25-136.76,14.71-221.83,20.42-250.17C165.49,166.09,174.74,214.44,175.72,219.62Z"/></g></svg>