<svg xmlns="http://www.w3.org/2000/svg" viewBox="0 0 500 500"><defs><style>.cls-1{fill:#8bb4c8;}.cls-2{fill:#b9d1dd;}.cls-3{fill:#c5bca5;}.cls-4{fill:#3f352f;}</style></defs><g id="레이어_3" data-name="레이어 3"><path class="cls-1" d="M186,232.24c-2.9-36.63-11.71-71.85-15.25-84.92-3.27,5-8.27,17.94-8.76,50.15-.75,48.94-2.91,154.34-3.25,170.73,3.11,1.3,10.71,3.4,22.31-.32-1-22.52,3-55.54,5.79-75.35C190.44,267.08,186,232.3,186,232.24Z"/><path class="cls-1" d="M246.56,229.28c-4.57-7.07-33.7-52.91-40.72-82.55a3.42,3.42,0,0,1,1.28-3.55l4-3-3.56-2a3.44,3.44,0,0,1-1.58-4.19l2-5.44c-9.87,5.54-21.61,11.54-31.16,14.69,3.09,11.15,12.95,48.92,16.07,88.31.3,2.34,4.31,34.6,1,60.35l21.54,2.88a3.43,3.43,0,0,1,2.92,4.08l-3.7,18.53a3.46,3.46,0,0,1-2.62,2.68,37.56,37.56,0,0,1-7.61.7,40.78,40.78,0,0,1-13.86-2.36c-2.18,20.15-3.94,44.63-1.74,58.84,4.67,1.86,18.51,6.8,31.34,5.63,2-.54,18.78-5.74,26.43-30.36Z"/><path class="cls-2" d="M210.85,301.17l-17.92-2.39c-.5,3.69-1.05,8-1.6,12.6a34.48,34.48,0,0,0,17,2.36Z"/><path class="cls-1" d="M253.44,216.29c9.66-15.83,27.59-47,33.48-69l-6.4-4.8a3.44,3.44,0,0,1,.4-5.77l5.65-3.1-3.81-10.42c-2.31-1.37-4.35-2.62-6-3.67A88,88,0,0,1,274.39,132c-5.16,20.32-16.28,61.61-20.95,78.92Z"/><path class="cls-1" d="M245.17,371.48h9.66a58,58,0,0,1-4.83-8.62A58,58,0,0,1,245.17,371.48Z"/><path class="cls-1" d="M219.48,142.51l-6.4,4.8c5.89,22,23.82,53.15,33.48,69v-5.41c-4.67-17.31-15.79-58.6-20.95-78.92a88,88,0,0,1-2.33-12.41c-1.69,1-3.73,2.3-6,3.67l-3.81,10.42,5.65,3.1a3.44,3.44,0,0,1,.4,5.77Z"/><path class="cls-2" d="M250,197.2c5.4-20.06,13.53-50.43,17.72-66.93A71.7,71.7,0,0,0,270,116.88H230a71.69,71.69,0,0,0,2.31,13.39C236.47,146.77,244.6,177.14,250,197.2Z"/><path class="cls-1" d="M329.25,147.32c-3.54,13.08-12.36,48.31-15.25,84.92,0,.06-4.44,34.84-.84,60.29,2.8,19.8,6.75,52.81,5.79,75.34,11.58,3.7,19.18,1.64,22.31.33-.34-16.4-2.5-121.79-3.25-170.73C337.52,165.26,332.52,152.35,329.25,147.32Z"/><path class="cls-1" d="M295.61,320.83a37.56,37.56,0,0,1-7.61-.7,3.46,3.46,0,0,1-2.62-2.68l-3.7-18.53a3.43,3.43,0,0,1,2.92-4.08L306.14,292c-3.3-25.75.71-58,1-60.35,3.12-39.39,13-77.16,16.07-88.31-9.55-3.15-21.29-9.15-31.16-14.69l2,5.44a3.44,3.44,0,0,1-1.58,4.19l-3.56,2,4,3a3.42,3.42,0,0,1,1.28,3.55c-7,29.64-36.15,75.48-40.72,82.55V352.61c7.64,24.55,24.34,29.77,26.44,30.33,12.83,1.17,26.66-3.76,31.33-5.63,2.2-14.21.44-38.69-1.74-58.85A40.57,40.57,0,0,1,295.61,320.83Zm-34-22.59a3.44,3.44,0,1,1,1-2.43A3.47,3.47,0,0,1,261.6,298.24Zm0-46.49a3.44,3.44,0,1,1,1-2.44A3.46,3.46,0,0,1,261.6,251.75ZM278.07,210a3.45,3.45,0,0,1-3-5.18l10.66-18.23a3.49,3.49,0,0,1,3-1.7,3.4,3.4,0,0,1,2.88,1.71h0l10.65,18.23a3.44,3.44,0,0,1-3,5.18Z"/><path class="cls-2" d="M289.15,301.17l2.51,12.56a34.76,34.76,0,0,0,17-2.35c-.55-4.65-1.1-8.91-1.6-12.6Z"/><polygon class="cls-3" points="284.07 203.1 293.39 203.1 288.73 195.12 284.07 203.1"/><path class="cls-4" d="M259.17,245.87a3.45,3.45,0,0,0-3.44,3.44,3.49,3.49,0,0,0,1,2.44,3.44,3.44,0,1,0,2.43-5.88Z"/><path class="cls-4" d="M259.17,292.37a3.43,3.43,0,1,0,2.43,1A3.44,3.44,0,0,0,259.17,292.37Z"/><path class="cls-4" d="M302.37,208.25a3.46,3.46,0,0,0,0-3.45L291.7,186.57h0a3.4,3.4,0,0,0-2.88-1.71,3.49,3.49,0,0,0-3,1.7L275.1,204.8a3.45,3.45,0,0,0,3,5.18h21.31A3.46,3.46,0,0,0,302.37,208.25Zm-18.3-5.15,4.66-8,4.66,8Z"/><path class="cls-4" d="M328.33,137.67c-19-5.16-52.64-26.9-53-27.12a3.46,3.46,0,0,0-1.87-.55h-47a3.46,3.46,0,0,0-1.87.55c-.34.22-34,22-53,27.12-2.9.73-15.75,7-16.56,59.7-.81,52.86-3.27,171.65-3.29,172.85a3.42,3.42,0,0,0,1.53,2.93c.33.22,5.71,3.69,15.31,3.68a46.47,46.47,0,0,0,12.89-1.94c.21,2,.47,3.82.79,5.51a3.44,3.44,0,0,0,2,2.49c.7.32,15.85,7.11,31.77,7.11,1.66,0,5.26-.27,5.4-.3.58-.14,9.4-2.29,18.14-11.34h20.78c8.74,9.05,17.56,11.2,18.14,11.34.14,0,3.74.3,5.4.3,15.92,0,31.07-6.79,31.77-7.11a3.44,3.44,0,0,0,2-2.49c.32-1.68.58-3.53.79-5.49a46.74,46.74,0,0,0,12.89,1.92c9.59,0,15-3.46,15.31-3.68a3.42,3.42,0,0,0,1.53-2.93c0-1.2-2.48-120-3.29-172.85C344.08,144.67,331.23,138.4,328.33,137.67ZM274.39,132a88,88,0,0,0,2.33-12.41c1.69,1,3.73,2.3,6,3.67l3.81,10.42-5.65,3.1a3.44,3.44,0,0,0-.4,5.77l6.4,4.8c-5.89,22-23.82,53.15-33.48,69v-5.41C258.11,193.57,269.23,152.28,274.39,132ZM270,116.88a71.7,71.7,0,0,1-2.32,13.39c-4.19,16.5-12.32,46.87-17.72,66.93-5.4-20.06-13.53-50.43-17.72-66.93A71.69,71.69,0,0,1,230,116.88Zm-49.19,22.64a3.46,3.46,0,0,0-1.77-2.78l-5.65-3.1,3.81-10.42c2.31-1.37,4.35-2.62,6-3.67A88,88,0,0,0,225.61,132c5.16,20.32,16.28,61.61,20.95,78.92v5.41c-9.66-15.83-27.59-47-33.48-69l6.4-4.8A3.43,3.43,0,0,0,220.85,139.52Zm-39.8,228.36c-11.6,3.72-19.2,1.62-22.31.32.34-16.39,2.5-121.79,3.25-170.73.49-32.21,5.49-45.12,8.76-50.15,3.54,13.07,12.35,48.29,15.25,84.92,0,.06,4.44,34.84.84,60.29C184,312.34,180.09,345.36,181.05,367.88Zm39.08,15.06c-12.83,1.17-26.67-3.77-31.34-5.63-2.2-14.21-.44-38.69,1.74-58.84a40.78,40.78,0,0,0,13.86,2.36,37.56,37.56,0,0,0,7.61-.7,3.46,3.46,0,0,0,2.62-2.68l3.7-18.53a3.43,3.43,0,0,0-2.92-4.08L193.86,292c3.3-25.75-.71-58-1-60.35-3.12-39.39-13-77.16-16.07-88.31,9.55-3.15,21.29-9.15,31.16-14.69l-2,5.44a3.44,3.44,0,0,0,1.58,4.19l3.56,2-4,3a3.42,3.42,0,0,0-1.28,3.55c7,29.64,36.15,75.48,40.72,82.55v123.3C238.91,377.2,222.16,382.4,220.13,382.94Zm-28.8-71.56c.55-4.64,1.1-8.91,1.6-12.6l17.92,2.39-2.51,12.57A34.48,34.48,0,0,1,191.33,311.38Zm53.84,60.1a58,58,0,0,0,4.83-8.62,58,58,0,0,0,4.83,8.62Zm66,5.83c-4.67,1.87-18.5,6.8-31.33,5.63-2.1-.56-18.8-5.78-26.44-30.33V229.28c4.57-7.07,33.7-52.91,40.72-82.55a3.42,3.42,0,0,0-1.28-3.55l-4-3,3.56-2a3.44,3.44,0,0,0,1.58-4.19l-2-5.44c9.87,5.54,21.61,11.54,31.16,14.69-3.1,11.15-13,48.92-16.07,88.31-.3,2.34-4.31,34.6-1,60.35l-21.54,2.88a3.43,3.43,0,0,0-2.92,4.08l3.7,18.53a3.46,3.46,0,0,0,2.62,2.68,37.56,37.56,0,0,0,7.61.7,40.57,40.57,0,0,0,13.86-2.37C311.65,338.62,313.41,363.1,311.21,377.31Zm-2.54-65.93a34.76,34.76,0,0,1-17,2.35l-2.51-12.56,17.92-2.39C307.57,302.47,308.12,306.73,308.67,311.38ZM319,367.87c1-22.53-3-55.54-5.79-75.34-3.6-25.45.84-60.23.84-60.29,2.89-36.61,11.71-71.84,15.25-84.92,3.27,5,8.27,17.94,8.76,50.15.75,48.94,2.91,154.33,3.25,170.73C338.13,369.51,330.53,371.57,319,367.87Z"/></g></svg>