<svg xmlns="http://www.w3.org/2000/svg" viewBox="0 0 500 500"><defs><style>.cls-1{fill:#7e7081;}.cls-2{fill:#d48c7e;}.cls-3{fill:#a99c83;}.cls-4{fill:#3f352f;}</style></defs><g id="레이어_3" data-name="레이어 3"><path class="cls-1" d="M155.61,136.71c-3.1,6.38-10.51,23.54-17.26,53.5-8,35.41-16.59,96.32-12.69,186.23h31.68l10.28-43.35c-6.72-45.39-1.58-102.27,1.76-139.17,1.21-13.38,2.17-23.94,2.17-29.85C171.55,146.37,160.88,139.18,155.61,136.71Z"/><polygon class="cls-2" points="125.83 395.84 153.65 395.84 155.78 384.13 125.83 384.13 125.83 395.84"/><path class="cls-1" d="M250,135.73a56.12,56.12,0,0,1-8.28-.61L250,144l8.28-8.86a56.22,56.22,0,0,1-8.28.61Z"/><path class="cls-3" d="M250,128h0c17,0,31.41-8.57,35.81-20.22-6.45,2.6-17.48,5.21-35.81,5.21h0c-18.33,0-29.36-2.61-35.81-5.21C218.59,119.47,233,128,250,128Z"/><path class="cls-1" d="M320.76,164.07c0-19.84,11.32-29.3,18.57-33.32-12.75-10.54-35.24-20.74-45-24.9-2.12,10.6-10.22,19.65-21.49,24.93l-20.23,21.65a3.86,3.86,0,0,1-5.44-.19l-20.05-21.46c-11.27-5.28-19.37-14.33-21.49-24.93-9.74,4.17-32.24,14.37-45,24.9,7.25,4,18.57,13.48,18.57,33.32,0,6.26-1,17-2.2,30.54-3.32,36.71-8.44,93.44-1.74,137.89,0,.08,3.37,18.28,5.94,26.2H318.75c2.58-7.92,5.93-26.12,5.94-26.19,6.71-44.45,1.59-101.19-1.74-137.9C321.73,181,320.76,170.33,320.76,164.07Z"/><polygon class="cls-2" points="185.25 378.92 314.75 378.92 316.94 366.39 183.06 366.39 185.25 378.92"/><path class="cls-1" d="M328.45,164.07c0,5.91,1,16.47,2.16,29.85,3.34,36.9,8.49,93.78,1.77,139.17l10.27,43.35h31.69c6.68-154-22.9-225.14-29.95-239.73C339.13,139.18,328.45,146.37,328.45,164.07Z"/><polygon class="cls-2" points="346.35 395.84 374.17 395.84 374.17 384.13 344.22 384.13 346.35 395.84"/><path class="cls-4" d="M349.55,130c-21.26-19.13-55.41-32.55-57.08-33.21a3.84,3.84,0,0,0-3.58.4c-.29.19-8.49,8.2-38.89,8.2h0c-30.48,0-38.63-8-38.89-8.2a3.84,3.84,0,0,0-3.58-.4c-1.67.66-38.38,14.08-57.09,33.21-.58.6-10.44,18.19-19.46,58-8.26,36.41-17.19,99.35-12.84,192.45v19.31a3.84,3.84,0,0,0,3.84,3.85h34.87a3.85,3.85,0,0,0,3.79-3.16l3.51-19.29,7-29.67c1,4.2,2.23,8.24,3.57,12.08l3.48,19.94a3.84,3.84,0,0,0,3.79,3.18H318a3.84,3.84,0,0,0,3.79-3.18l3.48-19.94c1.34-3.84,2.52-7.88,3.57-12.08l7,29.67,3.51,19.29a3.85,3.85,0,0,0,3.78,3.16H378a3.84,3.84,0,0,0,3.84-3.85V380.37c4.35-93.1-4.58-156-12.84-192.45C360,148.14,349.55,130,349.55,130ZM250,113h0c18.33,0,29.36-2.61,35.81-5.21C281.41,119.47,267,128,250,128h0c-17,0-31.41-8.57-35.81-20.22C220.64,110.42,231.67,113,250,113Zm8.28,22.09L250,144l-8.28-8.86a56.12,56.12,0,0,0,8.28.61h0A56.22,56.22,0,0,0,258.28,135.12ZM153.65,395.84H125.83v-11.7h30Zm15.73-201.92c-3.34,36.9-8.48,93.78-1.76,139.17l-10.28,43.35H125.66c-3.9-89.91,4.71-150.82,12.69-186.23,6.75-30,14.16-47.12,17.26-53.5,5.27,2.47,15.94,9.66,15.94,27.36C171.55,170,170.59,180.54,169.38,193.92Zm145.37,185H185.25l-2.19-12.53H316.94Zm9.94-46.41c0,.07-3.36,18.27-5.94,26.19H181.24c-2.57-7.92-5.92-26.12-5.94-26.2-6.7-44.45-1.58-101.18,1.74-137.89,1.23-13.57,2.2-24.28,2.2-30.54,0-19.84-11.32-29.3-18.57-33.32,12.74-10.53,35.24-20.73,45-24.9,2.12,10.6,10.22,19.65,21.49,24.93l20.05,21.46a3.86,3.86,0,0,0,5.44.19l20.23-21.65c11.27-5.28,19.37-14.33,21.49-24.93,9.74,4.16,32.23,14.36,45,24.9-7.25,4-18.57,13.48-18.57,33.32,0,6.26,1,17,2.19,30.54C326.28,231.32,331.4,288.06,324.69,332.51Zm49.48,63.33H346.35l-2.13-11.7h29.95Zm.17-19.4H342.65l-10.27-43.35c6.72-45.39,1.57-102.27-1.77-139.17-1.2-13.38-2.16-23.94-2.16-29.85,0-17.7,10.68-24.89,15.94-27.36C351.44,151.3,381,222.45,374.34,376.44Z"/></g></svg>