<svg xmlns="http://www.w3.org/2000/svg" viewBox="0 0 500 500"><defs><style>.cls-1{fill:#333;}.cls-2{fill:#f08181;}</style></defs><g id="레이어_3" data-name="레이어 3"><path class="cls-1" d="M299.44,406.43a3.7,3.7,0,0,1-2.95,3.75l-15.09,3.1.13,5.77a3.71,3.71,0,0,1-2.61,3.61l-24.67,7.68a3.69,3.69,0,0,1-4.79-3.49l0-3.15-26.74-4.59a3.7,3.7,0,0,1-3.07-3.72l0-2.14-16.24-3.79a3.7,3.7,0,0,1-2.86-3.73c.06-1.49,5-149,5.74-190.68C207,174,214.18,161.28,220,151.2c-5.63-16.43-8.38-48.21-8.5-49.6a3.66,3.66,0,0,1,.95-2.79L224.91,85,220.63,74.6a3.69,3.69,0,0,1,6.83-2.81l4.79,11.63,7.87,5.9a16.43,16.43,0,0,0,19.59,0l7.87-5.91,4.79-11.62a3.7,3.7,0,0,1,6.84,2.81L274.92,85l12.47,13.79a3.7,3.7,0,0,1,.95,2.79c-.12,1.39-2.87,33.17-8.5,49.6,5.81,10.08,13,22.78,13.68,63.85C294.25,256.68,299.38,404.94,299.44,406.43Zm-18.21-.66,10.71-2.21c-.75-21.7-5.14-150.07-5.8-188.37-.67-38.08-6.7-49.82-12.23-59.48a122.7,122.7,0,0,1-48,0c-5.53,9.66-11.55,21.4-12.22,59.48-.67,38.34-4.92,166.37-5.64,187.76l11.78,2.75L224,215.78a3.7,3.7,0,1,1,7.39.16l-4.36,196.43,22.26,3.82-1.64-136.72a3.7,3.7,0,0,1,7.4-.09l1.7,142.43,17.28-5.38-3.84-176.09a3.7,3.7,0,1,1,7.39-.16Zm-.41-303.2L270.14,90.75l-6,4.48a23.82,23.82,0,0,1-28.46,0l-6-4.48L219,102.57c.63,6.6,3.29,32.16,7.83,45.79a116.14,116.14,0,0,0,46.17,0C277.55,134.73,280.2,109.17,280.82,102.57Z"/><path class="cls-2" d="M291.94,403.56l-10.71,2.21-3.61-165.59a3.7,3.7,0,1,0-7.39.16l3.84,176.09-17.28,5.38-1.7-142.43a3.7,3.7,0,0,0-7.4.09l1.64,136.72-22.26-3.82,4.36-196.43a3.7,3.7,0,1,0-7.39-.16L219.83,405.7,208.05,403c.72-21.39,5-149.42,5.64-187.76.67-38.08,6.69-49.82,12.22-59.48a122.7,122.7,0,0,0,48,0c5.53,9.66,11.56,21.4,12.23,59.48C286.8,253.49,291.19,381.86,291.94,403.56Z"/><path class="cls-2" d="M270.14,90.75l10.68,11.82c-.62,6.6-3.27,32.16-7.82,45.79a116.14,116.14,0,0,1-46.17,0c-4.54-13.63-7.2-39.19-7.83-45.79l10.7-11.82,6,4.48a23.82,23.82,0,0,0,28.46,0Z"/></g></svg>