<svg xmlns="http://www.w3.org/2000/svg" viewBox="0 0 500 500"><defs><style>.cls-1{fill:#333;}.cls-2{fill:#7fafe8;}.cls-3{fill:#618db3;}.cls-4{fill:#5583a3;}</style></defs><g id="레이어_3" data-name="레이어 3"><path class="cls-1" d="M325.88,289.63a3.63,3.63,0,0,1-3.61,3.65H322l-16-1c.29,18.14-1.37,29.3-3.27,42.1-2.53,17-5.38,36.24-4.63,78.44a3.62,3.62,0,0,1-2.49,3.51,146.42,146.42,0,0,1-91.25,0,3.62,3.62,0,0,1-2.49-3.51c.76-42.2-2.1-61.45-4.63-78.44-1.9-12.8-3.56-24-3.26-42.1l-16,1h-.23a3.62,3.62,0,0,1-3.61-3.65c1.54-132.37,10.31-185.5,18-191.09a4.33,4.33,0,0,1,1-.52l31.09-9.9,2.46-6c.38-1,2.2-2.07,2.21-2.07l1.62-.55a62.74,62.74,0,0,1,38.22-.23c.78.25,2.35.79,2.36.79s1.8,1.11,2.19,2.06l2.46,6L306.84,98a4.15,4.15,0,0,1,1,.52C315.57,104.13,324.34,157.26,325.88,289.63ZM306,285l12.63.79c-1.45-112.55-7.95-156-12.05-172.35L296.1,156.81C306.5,207.36,306.23,269.74,306,285ZM285.56,169.71l15.89-65.82-22.14-7,1.57,3.83,9.93,2.55a3.62,3.62,0,0,1,2.59,4.47c-.59,2.12-14.55,51.24-39.79,71.29v38.31c0,20.07,13.08,37.09,31.1,40.47l11.09,2.08a316.67,316.67,0,0,0-8.87-38.28A102,102,0,0,1,283.77,207H271a3.61,3.61,0,0,1,0-7.22h12A99.62,99.62,0,0,1,285.56,169.71Zm10,163.59c2-13.35,3.7-24.89,3.1-44.77a210.65,210.65,0,0,0-1.78-21.14l-13.54-2.53C268.09,262,255.79,251,250,236.36c-5.8,14.63-18.1,25.63-33.39,28.5l-13.54,2.53a210.65,210.65,0,0,0-1.78,21.14c-.59,19.88,1.12,31.42,3.11,44.77,2.51,16.9,5.34,36,4.74,76.95a139.1,139.1,0,0,0,81.71,0C290.25,369.31,293.09,350.2,295.6,333.3ZM297.8,234a579.46,579.46,0,0,0-5.88-59.66,92.84,92.84,0,0,0,1.93,45.2C295.13,223.82,296.48,228.69,297.8,234Zm-12.43-124.7-8.05-2a3.59,3.59,0,0,1-2.44-2.14L268.73,90a7.82,7.82,0,0,0-.51,4.91c2.55,11.68,4.45,34.28-6.93,65.25C274.13,142.48,282.52,118.26,285.37,109.27ZM250,168.74c15.08-33.69,13.95-58.16,11.46-70.82H238.53C236.05,110.58,234.91,135.05,250,168.74Zm11-78a15.23,15.23,0,0,1,2.11-5.5,55.39,55.39,0,0,0-26.29,0A14.87,14.87,0,0,1,239,90.7ZM246.39,217.29V179c-25.24-20-39.2-69.17-39.79-71.29a3.61,3.61,0,0,1,2.58-4.47l9.94-2.55,1.56-3.83-22.14,7,15.9,65.82a99.62,99.62,0,0,1,2.53,30H229a3.61,3.61,0,0,1,0,7.22h-12.8a99.37,99.37,0,0,1-3.16,14.59,316.83,316.83,0,0,0-8.86,38.28l11.08-2.08C233.31,254.38,246.39,237.36,246.39,217.29ZM231.77,94.93a7.75,7.75,0,0,0-.5-4.91l-6.15,15.06a3.63,3.63,0,0,1-2.44,2.14l-8.05,2c2.85,9,11.25,33.2,24.08,50.9C227.33,129.2,229.22,106.61,231.77,94.93ZM206.15,219.51a93,93,0,0,0,1.93-45.19A579.46,579.46,0,0,0,202.2,234C203.51,228.69,204.87,223.82,206.15,219.51Zm-2.26-62.7-10.46-43.34c-4.09,16.36-10.6,59.8-12,172.35L194,285C193.76,269.74,193.5,207.36,203.89,156.81Z"/><path class="cls-2" d="M318.61,285.82,306,285c.25-15.29.52-77.67-9.88-128.22l10.46-43.34C310.66,129.83,317.16,173.27,318.61,285.82Z"/><path class="cls-2" d="M301.45,103.89l-15.89,65.82a99.62,99.62,0,0,0-2.54,30H271a3.61,3.61,0,0,0,0,7.22h12.79a102,102,0,0,0,3.16,14.59,316.67,316.67,0,0,1,8.87,38.28l-11.09-2.08c-18-3.38-31.1-20.4-31.1-40.47V179c25.24-20,39.2-69.17,39.79-71.29a3.62,3.62,0,0,0-2.59-4.47l-9.93-2.55-1.57-3.83Z"/><path class="cls-2" d="M298.7,288.53c.6,19.88-1.11,31.42-3.1,44.77-2.51,16.9-5.35,36-4.75,76.95a139.1,139.1,0,0,1-81.71,0c.6-40.94-2.23-60.05-4.74-76.95-2-13.35-3.7-24.89-3.11-44.77a210.65,210.65,0,0,1,1.78-21.14l13.54-2.53C231.9,262,244.2,251,250,236.36c5.79,14.63,18.09,25.63,33.38,28.5l13.54,2.53A210.65,210.65,0,0,1,298.7,288.53Z"/><path class="cls-3" d="M277.32,107.22l8.05,2c-2.85,9-11.24,33.21-24.08,50.91,11.38-31,9.48-53.57,6.93-65.25a7.82,7.82,0,0,1,.51-4.91l6.15,15.06A3.59,3.59,0,0,0,277.32,107.22Z"/><path class="cls-4" d="M261.46,97.92c2.49,12.66,3.62,37.13-11.46,70.82-15.09-33.69-13.95-58.16-11.47-70.82Z"/><path class="cls-3" d="M263.14,85.2A15.23,15.23,0,0,0,261,90.7H239a14.87,14.87,0,0,0-2.11-5.5A55.39,55.39,0,0,1,263.14,85.2Z"/><path class="cls-2" d="M246.39,179v38.31c0,20.07-13.08,37.09-31.11,40.47l-11.08,2.08a316.83,316.83,0,0,1,8.86-38.28A99.37,99.37,0,0,0,216.22,207H229a3.61,3.61,0,0,0,0-7.22H217a99.62,99.62,0,0,0-2.53-30l-15.9-65.82,22.14-7-1.56,3.83-9.94,2.55a3.61,3.61,0,0,0-2.58,4.47C207.19,109.81,221.15,158.93,246.39,179Z"/><path class="cls-3" d="M231.27,90a7.75,7.75,0,0,1,.5,4.91c-2.55,11.68-4.44,34.27,6.94,65.24-12.83-17.7-21.23-41.91-24.08-50.9l8.05-2a3.63,3.63,0,0,0,2.44-2.14Z"/><path class="cls-2" d="M193.43,113.47l10.46,43.34C193.5,207.36,193.76,269.74,194,285l-12.62.79C182.83,173.27,189.34,129.83,193.43,113.47Z"/></g></svg>