<svg xmlns="http://www.w3.org/2000/svg" viewBox="0 0 500 500"><defs><style>.cls-1{fill:#333;}.cls-2{fill:#f7a7f9;}</style></defs><g id="레이어_3" data-name="레이어 3"><path class="cls-1" d="M316.87,134.36a3.79,3.79,0,0,1,1.42,3.79L306.88,192a114.06,114.06,0,0,0,2.51,57.4,181.55,181.55,0,0,1,8.23,54c0,45.63,8.78,109,8.67,109.6a3.76,3.76,0,0,1-2.86,3A240.46,240.46,0,0,1,270,422c-18,0-76-2-93.43-6a3.77,3.77,0,0,1-2.86-3c-.12-.63,8.67-64,8.67-109.6a181.81,181.81,0,0,1,8.22-54,114.28,114.28,0,0,0,2.53-57.4l-11.41-53.87a3.73,3.73,0,0,1,1.42-3.79,39.12,39.12,0,0,1,11.17-5.84l-7.15-44a3.76,3.76,0,0,1,3.11-4.31l13.35-2.17a3.74,3.74,0,0,1,4.31,3.1l7.5,46.21a39,39,0,0,1,9.74,3.49L250,143.66l24.82-12.81a39.29,39.29,0,0,1,9.74-3.49l7.51-46.21a3.74,3.74,0,0,1,4.31-3.1l13.35,2.17a3.75,3.75,0,0,1,3.1,4.31l-7.13,44A39.38,39.38,0,0,1,316.87,134.36Zm-13,35.58L310.42,139a32.41,32.41,0,0,0-32.15-1.51l-24.51,12.66V158l12.11-3.92a3.76,3.76,0,0,1,2.31,7.15l-14.42,4.66v2.3l14.84,4.4a3.75,3.75,0,0,1-1.07,7.35,4,4,0,0,1-1.07-.15L253.76,176v4.84c3.45,3.23,15,13,26.51,11.39.39-.05.78-.12,1.17-.19a27.45,27.45,0,0,0,14.5-7.51A28.93,28.93,0,0,0,303.87,169.94Zm6.24,133.47a174.51,174.51,0,0,0-7.88-51.76,121.39,121.39,0,0,1-2.94-60,34.94,34.94,0,0,1-16.53,7.79l-1.42.23c-13.46,1.92-26-7.38-31.34-12.08-4.87,4.27-15.64,12.34-27.66,12.34a25.5,25.5,0,0,1-3.68-.26l-1.42-.23a34.91,34.91,0,0,1-16.53-7.8,121.65,121.65,0,0,1-2.93,60c-5.23,16.82-8.48,34.25-7.88,51.76,1.4,40.89-1.2,97.63-9.22,105.82,32.32,7,106.32,7,138.64,0C313,394,310.11,343.31,310.11,303.41ZM298.36,126.83,304.82,87l-5.94-1-6.56,40.4A40.65,40.65,0,0,1,298.36,126.83Zm-52.11,54V176l-12.72,3.77a3.88,3.88,0,0,1-1.06.15,3.75,3.75,0,0,1-1.07-7.35l14.85-4.4v-2.3l-14.44-4.66a3.76,3.76,0,1,1,2.32-7.15L246.25,158v-7.82l-24.53-12.66A32.39,32.39,0,0,0,189.58,139l6.55,30.91a28.06,28.06,0,0,0,22.43,22.12c.38.07.77.14,1.17.19C231.2,193.9,242.78,184.09,246.25,180.86Zm-38.57-54.39-6.57-40.4-5.93,1,6.46,39.8A40.65,40.65,0,0,1,207.68,126.47Z"/><path class="cls-2" d="M310.42,139l-6.55,30.91a28.93,28.93,0,0,1-7.93,14.61,27.45,27.45,0,0,1-14.5,7.51c-.39.07-.78.14-1.17.19-11.49,1.64-23.06-8.16-26.51-11.39V176l12.7,3.77a4,4,0,0,0,1.07.15,3.75,3.75,0,0,0,1.07-7.35l-14.84-4.4v-2.3l14.42-4.66a3.76,3.76,0,0,0-2.31-7.15L253.76,158v-7.82l24.51-12.66A32.41,32.41,0,0,1,310.42,139Z"/><path class="cls-2" d="M302.23,251.65a174.51,174.51,0,0,1,7.88,51.76c0,39.9,3.89,88.59,9.21,105.82-32.32,7-106.32,7-138.64,0C184,398,189.9,343.31,189.9,303.41a174.18,174.18,0,0,1,7.88-51.76,121.65,121.65,0,0,0,2.93-60,34.91,34.91,0,0,0,16.53,7.8l1.42.23a25.5,25.5,0,0,0,3.68.26c12,0,22.79-8.07,27.66-12.34,5.36,4.7,17.88,14,31.34,12.08l1.42-.23a34.94,34.94,0,0,0,16.53-7.79A121.39,121.39,0,0,0,302.23,251.65Z"/><path class="cls-2" d="M304.82,87l-6.46,39.8a40.65,40.65,0,0,0-6-.36l6.56-40.4Z"/><path class="cls-2" d="M246.25,176v4.84c-3.47,3.23-15.05,13-26.52,11.39-.4-.05-.79-.12-1.17-.19a28.06,28.06,0,0,1-22.43-22.12L189.58,139a32.39,32.39,0,0,1,32.14-1.51l24.53,12.66V158l-12.12-3.92a3.76,3.76,0,1,0-2.32,7.15l14.44,4.66v2.3l-14.85,4.4a3.75,3.75,0,0,0,1.07,7.35,3.88,3.88,0,0,0,1.06-.15Z"/><path class="cls-2" d="M201.11,86.07l6.57,40.4a40.65,40.65,0,0,0-6,.36L195.18,87Z"/></g></svg>