<svg xmlns="http://www.w3.org/2000/svg" xmlns:xlink="http://www.w3.org/1999/xlink" viewBox="0 0 500 500"><defs><style>.cls-1{fill:none;}.cls-2{fill:#333;}.cls-3{fill:#e0464e;}.cls-4{fill:#393e51;}.cls-5{fill:#eaf0f4;}.cls-6{clip-path:url(#clip-path);}.cls-7{fill:#fff;}.cls-8{clip-path:url(#clip-path-2);}</style><clipPath id="clip-path"><path class="cls-1" d="M301.8,84.85l9,4.5c-2.74,14.61-15,81.34-15.24,105.88v.16a326.51,326.51,0,0,1-91.13,0C204.19,170.7,192,104,189.2,89.35l9-4.5a177.69,177.69,0,0,0,5.64,25.07c2.59,8.87,5,15.29,5.06,15.56a3.7,3.7,0,0,0,3,2.37,282.86,282.86,0,0,0,38.14,2.6,283,283,0,0,0,38.14-2.6,3.68,3.68,0,0,0,2.95-2.37C291.46,124.5,299.27,103.33,301.8,84.85Z"/></clipPath><clipPath id="clip-path-2"><path class="cls-1" d="M356.51,389.58l-29.83,18.25L293.38,298a3.69,3.69,0,0,0-7.06,2.14l30.11,99.29a339.72,339.72,0,0,1-37.38,5.34l-10-84a3.69,3.69,0,1,0-7.32.87l11,92.39a85.47,85.47,0,0,1-45.44,0l10.55-88.66a3.68,3.68,0,0,0-3.23-4.09,3.25,3.25,0,0,0-.44,0,3.69,3.69,0,0,0-3.66,3.25L221,404.79a339,339,0,0,1-37.38-5.34l30.11-99.29a3.69,3.69,0,0,0-7.06-2.14l-33.3,109.81-29.83-18.25c17.58-76.87,38.81-126.23,50-148.93a107.6,107.6,0,0,0,5.2-12.53A360.55,360.55,0,0,0,250,231.81a360.55,360.55,0,0,0,51.33-3.69,105.73,105.73,0,0,0,5.2,12.53C317.7,263.35,338.94,312.71,356.51,389.58Z"/></clipPath></defs><g id="레이어_3" data-name="레이어 3"><path class="cls-2" d="M364.29,390.53a3.66,3.66,0,0,1-1.67,4l-36.16,22.14a3.59,3.59,0,0,1-1.92.55,3.69,3.69,0,0,1-3.54-2.62l-2.43-8a347.17,347.17,0,0,1-38.65,5.57l.49,4.16a3.67,3.67,0,0,1-2.56,4,93,93,0,0,1-55.71,0,3.7,3.7,0,0,1-2.56-4l.5-4.16a347.69,347.69,0,0,1-38.66-5.57l-2.43,8a3.68,3.68,0,0,1-5.45,2.07l-36.16-22.14a3.67,3.67,0,0,1-1.67-4c17.85-79.08,39.7-129.89,51.14-153.14a100.43,100.43,0,0,0,6.85-18.23,101.41,101.41,0,0,0,3.18-19.2,1,1,0,0,1,0-.17C199,180.64,181.61,88.91,181.43,88a3.71,3.71,0,0,1,2-4l16.23-8.12a3.71,3.71,0,0,1,3.47.1A3.66,3.66,0,0,1,205,78.89a133.49,133.49,0,0,0,4.16,22.44C222.69,102.45,236.42,103,250,103s27.31-.57,40.87-1.69A134.25,134.25,0,0,0,295,78.89a3.7,3.7,0,0,1,5.32-3L316.59,84a3.7,3.7,0,0,1,2,4c-.16.81-15.37,80.94-15.63,107.33,0,.22.09,3.41.22,5.11v.1a99.24,99.24,0,0,0,10,36.87C324.59,260.64,346.44,311.45,364.29,390.53Zm-37.61,17.3,29.83-18.25c-17.57-76.87-38.81-126.23-50-148.93a105.73,105.73,0,0,1-5.2-12.53A360.55,360.55,0,0,1,250,231.81a360.55,360.55,0,0,1-51.33-3.69,107.6,107.6,0,0,1-5.2,12.53c-11.17,22.7-32.4,72.06-50,148.93l29.83,18.25L206.62,298a3.69,3.69,0,0,1,7.06,2.14l-30.11,99.29A339,339,0,0,0,221,404.79l9.55-80.26a3.69,3.69,0,0,1,3.66-3.25,3.25,3.25,0,0,1,.44,0,3.68,3.68,0,0,1,3.23,4.09l-10.55,88.66a85.47,85.47,0,0,0,45.44,0l-11-92.39a3.69,3.69,0,1,1,7.32-.87l10,84a339.72,339.72,0,0,0,37.38-5.34l-30.11-99.29a3.69,3.69,0,0,1,7.06-2.14ZM310.8,89.35l-9-4.5c-2.53,18.48-10.34,39.65-10.71,40.63a3.68,3.68,0,0,1-2.95,2.37,283,283,0,0,1-38.14,2.6,282.86,282.86,0,0,1-38.14-2.6,3.7,3.7,0,0,1-3-2.37c-.1-.27-2.47-6.69-5.06-15.56a177.69,177.69,0,0,1-5.64-25.07l-9,4.5c2.75,14.65,15,81.35,15.23,106a326.51,326.51,0,0,0,91.13,0v-.16C295.81,170.69,308.06,104,310.8,89.35ZM299.14,221A106.58,106.58,0,0,1,296,202.8q-16.12,2.23-32.35,2.9a16.54,16.54,0,0,1,.33,18.45A349.87,349.87,0,0,0,299.14,221ZM284.92,120.83c.84-2.4,2.28-6.69,3.83-11.93-11.64.9-23.4,1.39-35.06,1.48V123A274,274,0,0,0,284.92,120.83ZM259.2,215.18a9.2,9.2,0,0,0-9-9.2h-.36a9.21,9.21,0,1,0,9.38,9.2ZM246.31,123V110.38c-11.66-.09-23.42-.58-35.07-1.48,1.55,5.23,3,9.53,3.84,11.93A274,274,0,0,0,246.31,123Zm-12.9,92.14a16.52,16.52,0,0,1,3-9.48q-16.2-.67-32.34-2.9a108.47,108.47,0,0,1-3.2,18.18,349.87,349.87,0,0,0,35.21,3.17A16.48,16.48,0,0,1,233.41,215.18Z"/><path class="cls-3" d="M356.51,389.58l-29.83,18.25L293.38,298a3.69,3.69,0,0,0-7.06,2.14l30.11,99.29a339.72,339.72,0,0,1-37.38,5.34l-10-84a3.69,3.69,0,1,0-7.32.87l11,92.39a85.47,85.47,0,0,1-45.44,0l10.55-88.66a3.68,3.68,0,0,0-3.23-4.09,3.25,3.25,0,0,0-.44,0,3.69,3.69,0,0,0-3.66,3.25L221,404.79a339,339,0,0,1-37.38-5.34l30.11-99.29a3.69,3.69,0,0,0-7.06-2.14l-33.3,109.81-29.83-18.25c17.58-76.87,38.81-126.23,50-148.93a107.6,107.6,0,0,0,5.2-12.53A360.55,360.55,0,0,0,250,231.81a360.55,360.55,0,0,0,51.33-3.69,105.73,105.73,0,0,0,5.2,12.53C317.7,263.35,338.94,312.71,356.51,389.58Z"/><path class="cls-3" d="M301.8,84.85l9,4.5c-2.74,14.61-15,81.34-15.24,105.88v.16a326.51,326.51,0,0,1-91.13,0C204.19,170.7,192,104,189.2,89.35l9-4.5a177.69,177.69,0,0,0,5.64,25.07c2.59,8.87,5,15.29,5.06,15.56a3.7,3.7,0,0,0,3,2.37,282.86,282.86,0,0,0,38.14,2.6,283,283,0,0,0,38.14-2.6,3.68,3.68,0,0,0,2.95-2.37C291.46,124.5,299.27,103.33,301.8,84.85Z"/><path class="cls-4" d="M296,202.8A106.58,106.58,0,0,0,299.14,221a349.87,349.87,0,0,1-35.21,3.17,16.54,16.54,0,0,0-.33-18.45Q279.82,205,296,202.8Z"/><path class="cls-4" d="M288.75,108.9c-1.55,5.24-3,9.53-3.83,11.93A274,274,0,0,1,253.69,123V110.38C265.35,110.29,277.11,109.8,288.75,108.9Z"/><path class="cls-5" d="M250.18,206a9.21,9.21,0,1,1-.36,0h.36Z"/><path class="cls-4" d="M246.31,110.38V123a274,274,0,0,1-31.23-2.21c-.84-2.4-2.29-6.7-3.84-11.93C222.89,109.8,234.65,110.29,246.31,110.38Z"/><path class="cls-4" d="M236.39,205.7a16.54,16.54,0,0,0-.33,18.45A349.87,349.87,0,0,1,200.85,221a108.47,108.47,0,0,0,3.2-18.18Q220.18,205,236.39,205.7Z"/><g class="cls-6"><circle class="cls-7" cx="189.5" cy="108.5" r="6.5"/><circle class="cls-7" cx="262.5" cy="173.5" r="6.5"/><circle class="cls-7" cx="219.5" cy="162.5" r="6.5"/><circle class="cls-7" cx="282.5" cy="133.5" r="6.5"/></g><g class="cls-8"><circle class="cls-7" cx="296.5" cy="254.5" r="6.5"/><circle class="cls-7" cx="242.5" cy="286.5" r="6.5"/><circle class="cls-7" cx="275.5" cy="363.5" r="6.5"/><circle class="cls-7" cx="321.5" cy="306.5" r="6.5"/><circle class="cls-7" cx="316.5" cy="366.5" r="6.5"/><circle class="cls-7" cx="215.5" cy="244.5" r="6.5"/><circle class="cls-7" cx="263.5" cy="233.5" r="6.5"/><circle class="cls-7" cx="151.5" cy="366.5" r="6.5"/><circle class="cls-7" cx="231.5" cy="397.5" r="6.5"/><circle class="cls-7" cx="189.5" cy="324.5" r="6.5"/><circle class="cls-7" cx="178.5" cy="269.5" r="6.5"/><circle class="cls-7" cx="220.5" cy="355.5" r="6.5"/></g><path class="cls-4" d="M266.09,205.91l-33.2-.17L230,214l3.23,10.13S251,226,264,224l7-5Z"/></g></svg>