<svg xmlns="http://www.w3.org/2000/svg" viewBox="0 0 500 500"><defs><style>.cls-1{fill:#333;}.cls-2{fill:#e4e7ef;}.cls-3{fill:#9762b2;}</style></defs><g id="레이어_3" data-name="레이어 3"><path class="cls-1" d="M369.73,384.43c.23,2.29.52,5.16-.93,7.75s-4,3.82-6.12,4.82a13.44,13.44,0,0,0-2.59,1.44,13.79,13.79,0,0,0-1.81,2.14c-1.4,1.87-3.15,4.19-6.06,5.14a78.27,78.27,0,0,1-14.94,2.81,90.86,90.86,0,0,0-10.67,1.68,93.61,93.61,0,0,0-10.3,3.38,76.42,76.42,0,0,1-14.55,4.32,76.61,76.61,0,0,1-15.18.42,91.07,91.07,0,0,0-10.83,0A92.51,92.51,0,0,0,265.08,420,76.38,76.38,0,0,1,250,422a76.48,76.48,0,0,1-15.08-2,91.82,91.82,0,0,0-10.67-1.71,93.24,93.24,0,0,0-10.83,0,76.61,76.61,0,0,1-15.18-.42,76.42,76.42,0,0,1-14.55-4.32,93.47,93.47,0,0,0-10.29-3.38,91.37,91.37,0,0,0-10.68-1.68,78.52,78.52,0,0,1-14.95-2.81c-2.9-1-4.64-3.27-6-5.14a13.2,13.2,0,0,0-1.81-2.13,14.44,14.44,0,0,0-2.6-1.45c-2.08-1-4.67-2.24-6.12-4.82s-1.16-5.45-.94-7.74a14.15,14.15,0,0,0,.12-3s0,0,0-.06a11.62,11.62,0,0,1,2.65-9.3,11.2,11.2,0,0,1,7.55-3.84l44.6-189.35L172.5,133.11l-3.3-5.94a9.74,9.74,0,0,1-.41-8.79,9.84,9.84,0,0,1,6.84-5.64,16.62,16.62,0,0,0,2.57-.75,16.88,16.88,0,0,0,3.23-2.06,32.7,32.7,0,0,1,3.61-2.38l-8.19-24.89a3.56,3.56,0,0,1,6.76-2.21L192,106a30,30,0,0,1,4.32.67,15.82,15.82,0,0,0,4.25.54,16.61,16.61,0,0,0,4.46-1.39,18.32,18.32,0,0,1,6.86-1.78c3.13,0,5.72,1.58,8,3a19,19,0,0,0,3.4,1.78,17.55,17.55,0,0,0,4,.61c2.42.19,5.16.41,7.61,1.8a18.8,18.8,0,0,1,5.66,5.69,14.86,14.86,0,0,0,2.36,2.78,8.39,8.39,0,0,0,3.47,1.71,16.5,16.5,0,0,0,7.2,0,8.26,8.26,0,0,0,3.46-1.71,14.29,14.29,0,0,0,2.38-2.79,18.69,18.69,0,0,1,5.64-5.68c2.46-1.39,5.2-1.61,7.62-1.8a17.46,17.46,0,0,0,4-.61,19,19,0,0,0,3.4-1.78c2.29-1.39,4.89-3,8-3a18.27,18.27,0,0,1,6.85,1.78,16.73,16.73,0,0,0,4.48,1.39,16.16,16.16,0,0,0,4.24-.53A28.49,28.49,0,0,1,308,106l8.39-25.51a3.55,3.55,0,1,1,6.75,2.21L315,107.55a32.7,32.7,0,0,1,3.61,2.38,16.27,16.27,0,0,0,3.22,2,17,17,0,0,0,2.59.77,9.86,9.86,0,0,1,6.43,14.42l-3.31,5.93-12.68,45.83,44.61,189.35a11.2,11.2,0,0,1,7.55,3.84,11.64,11.64,0,0,1,2.65,9.31s0,.06,0,.09A16,16,0,0,0,369.73,384.43Zm-7.13,4.26c.35-.63.19-2.19.06-3.55a19.71,19.71,0,0,1-.09-4.63l0-.12v0a4.53,4.53,0,0,0-1-3.61,4.25,4.25,0,0,0-.48-.47c0,.51.06,1,.06,1.52a17.93,17.93,0,0,1-12.48,17.1q-12,3.91-24.16,6.86a317.78,317.78,0,0,1-49.43,7.88q-12.51,1-25.1,1-13.2,0-26.31-1.09a317,317,0,0,1-48.22-7.78q-12.18-2.94-24.17-6.86a18,18,0,0,1-12.41-18.62,3.55,3.55,0,0,0-.48.47,4.48,4.48,0,0,0-1,3.6s0,.07,0,.1v0a19.79,19.79,0,0,1-.08,4.64c-.14,1.38-.29,2.93.06,3.55s1.76,1.3,3,1.89a20.18,20.18,0,0,1,4,2.36,18.5,18.5,0,0,1,3,3.38c.88,1.17,1.79,2.38,2.56,2.63a69.53,69.53,0,0,0,13.58,2.51,96.6,96.6,0,0,1,11.51,1.84,101.26,101.26,0,0,1,11.09,3.62,70.29,70.29,0,0,0,13.21,4,70.4,70.4,0,0,0,13.77.33c3.4-.14,6.9-.27,10.42-.08.42,0,.83.05,1.25.09a97.41,97.41,0,0,1,11.5,1.82A71.15,71.15,0,0,0,250,414.89a70.94,70.94,0,0,0,13.69-1.84,97.74,97.74,0,0,1,11.5-1.82,96.69,96.69,0,0,1,11.67,0,70.52,70.52,0,0,0,13.78-.33,70.42,70.42,0,0,0,13.2-4,100.57,100.57,0,0,1,11.09-3.62h0a96.6,96.6,0,0,1,11.49-1.84A70.53,70.53,0,0,0,350,399c.77-.26,1.69-1.47,2.57-2.65a18.41,18.41,0,0,1,3-3.37,19.57,19.57,0,0,1,4-2.36C360.84,390,362.25,389.32,362.6,388.69Zm-16.12-.53a10.91,10.91,0,0,0,7.28-13L308.08,181.27q-7.83-2.47-15.76-4.27l6.25,45.58a3.56,3.56,0,0,1-3,4,3.91,3.91,0,0,1-.49,0,3.56,3.56,0,0,1-3.52-3.08l-6.58-48.06q-6.85-1.28-13.73-2l1.24,18.1a3.55,3.55,0,0,1-3.31,3.79h-.24a3.57,3.57,0,0,1-3.55-3.32L264,172.77a189.79,189.79,0,0,0-27.91,0L234.81,192a3.56,3.56,0,0,1-3.54,3.32H231a3.54,3.54,0,0,1-3.3-3.79L229,173.42q-7,.77-13.88,2.06l-6.59,48.06a3.57,3.57,0,0,1-3.52,3.08l-.49,0a3.56,3.56,0,0,1-3-4L207.68,177q-7.92,1.8-15.75,4.27L146.24,375.21a10.92,10.92,0,0,0,7.28,13c.95.31,1.91.6,2.86.9l21.28-94.95a3.56,3.56,0,1,1,6.94,1.55l-21.39,95.48q12.58,3.67,25.4,6.26L194,364.7a3.56,3.56,0,0,1,7,1.15l-5.4,32.88q2.9.51,5.81,1l7.5-47.78a3.55,3.55,0,1,1,7,1.1l-7.49,47.7a309.83,309.83,0,0,0,83.12,0L284.07,353a3.56,3.56,0,1,1,7-1.1l7.5,47.78c1.93-.31,3.87-.64,5.8-1L299,365.85a3.56,3.56,0,0,1,7-1.15l5.37,32.7q12.81-2.58,25.41-6.26l-21.4-95.48a3.56,3.56,0,1,1,6.94-1.55l21.28,94.95C344.57,388.76,345.53,388.47,346.48,388.16ZM324.6,123.71a2.69,2.69,0,0,0,.11-2.45,2.76,2.76,0,0,0-1.93-1.58,24.53,24.53,0,0,1-3.67-1.11,22.61,22.61,0,0,1-4.75-2.9,13.34,13.34,0,0,0-4.53-2.56,13.5,13.5,0,0,0-4.7.48,21.24,21.24,0,0,1-6.33.66,22.49,22.49,0,0,1-6.51-1.88,13.22,13.22,0,0,0-4.18-1.25c-1.14,0-2.68.93-4.32,1.92a25,25,0,0,1-4.79,2.45,23.21,23.21,0,0,1-5.73,1,12.61,12.61,0,0,0-4.67.89,13.63,13.63,0,0,0-3.43,3.7,19.21,19.21,0,0,1-3.86,4.3,15.31,15.31,0,0,1-6.16,2.94,23.86,23.86,0,0,1-10.3,0,15.43,15.43,0,0,1-6.16-2.94,19.38,19.38,0,0,1-3.86-4.29,13.26,13.26,0,0,0-3.44-3.71,12.51,12.51,0,0,0-4.66-.89,23.29,23.29,0,0,1-5.73-1,25.41,25.41,0,0,1-4.8-2.45c-1.63-1-3.17-1.92-4.31-1.92a13.22,13.22,0,0,0-4.18,1.25,22.58,22.58,0,0,1-6.51,1.88,21.27,21.27,0,0,1-6.33-.66,13.27,13.27,0,0,0-4.7-.48,13.34,13.34,0,0,0-4.53,2.56,22.36,22.36,0,0,1-4.75,2.9,24.43,24.43,0,0,1-3.66,1.11,2.75,2.75,0,0,0-1.94,1.58,2.69,2.69,0,0,0,.11,2.45L177,126.6l4.26-2.91A47.52,47.52,0,0,1,238.16,126a46.68,46.68,0,0,1,4.18,3.81l7.66,7.88,7.67-7.88a47.55,47.55,0,0,1,61.06-6.1L323,126.6Zm-15.81,50.34,11.3-40.81-5.38-3.68a40.48,40.48,0,0,0-51.95,5.18l-10.21,10.51a3.57,3.57,0,0,1-5.1,0l-10.21-10.51a40.48,40.48,0,0,0-52-5.18l-5.37,3.68,11.28,40.81q2.91-.88,5.82-1.7l-4.73-16.58a3.55,3.55,0,0,1,6.83-2l4.79,16.75q7.34-1.75,14.73-2.93l-1.56-10.92a3.56,3.56,0,0,1,7-1l1.56,10.93a198,198,0,0,1,48.65,0l1.56-10.93a3.56,3.56,0,0,1,7,1l-1.56,10.92q7.39,1.19,14.72,2.93l4.78-16.75a3.56,3.56,0,0,1,6.84,2L303,172.35C304.93,172.89,306.86,173.46,308.79,174.05Z"/><path class="cls-2" d="M353.76,375.21a10.91,10.91,0,0,1-7.28,13c-1,.31-1.91.6-2.86.9l-21.28-94.95a3.56,3.56,0,1,0-6.94,1.55l21.4,95.48q-12.6,3.67-25.41,6.26L306,364.7a3.56,3.56,0,0,0-7,1.15l5.4,32.88c-1.93.34-3.87.67-5.8,1l-7.5-47.78a3.56,3.56,0,1,0-7,1.1l7.49,47.7a309.83,309.83,0,0,1-83.12,0l7.49-47.7a3.55,3.55,0,1,0-7-1.1l-7.5,47.78q-2.91-.46-5.81-1l5.4-32.88a3.56,3.56,0,0,0-7-1.15l-5.37,32.7q-12.81-2.58-25.4-6.26l21.39-95.48a3.56,3.56,0,1,0-6.94-1.55l-21.28,94.95c-.95-.3-1.91-.59-2.86-.9a10.92,10.92,0,0,1-7.28-13l45.69-193.94q7.81-2.47,15.75-4.27l-6.25,45.58a3.56,3.56,0,0,0,3,4l.49,0a3.57,3.57,0,0,0,3.52-3.08l6.59-48.06q6.92-1.29,13.88-2.06l-1.23,18.11a3.54,3.54,0,0,0,3.3,3.79h.25a3.56,3.56,0,0,0,3.54-3.32l1.32-19.25a189.79,189.79,0,0,1,27.91,0L265.35,192a3.57,3.57,0,0,0,3.55,3.32h.24a3.55,3.55,0,0,0,3.31-3.79l-1.24-18.1q6.89.78,13.73,2l6.58,48.06a3.56,3.56,0,0,0,3.52,3.08,3.91,3.91,0,0,0,.49,0,3.56,3.56,0,0,0,3-4L292.32,177q7.92,1.8,15.76,4.27Z"/><path class="cls-2" d="M320.09,133.24l-11.3,40.81c-1.93-.59-3.86-1.16-5.81-1.7l4.73-16.58a3.56,3.56,0,0,0-6.84-2l-4.78,16.75q-7.33-1.75-14.72-2.93l1.56-10.92a3.56,3.56,0,0,0-7-1l-1.56,10.93a198,198,0,0,0-48.65,0l-1.56-10.93a3.56,3.56,0,0,0-7,1l1.56,10.92q-7.39,1.19-14.73,2.93l-4.79-16.75a3.55,3.55,0,0,0-6.83,2L197,172.35q-2.91.81-5.82,1.7l-11.28-40.81,5.37-3.68a40.48,40.48,0,0,1,52,5.18l10.21,10.51a3.57,3.57,0,0,0,5.1,0l10.21-10.51a40.48,40.48,0,0,1,51.95-5.18Z"/><path class="cls-3" d="M324.71,121.26a2.76,2.76,0,0,0-1.93-1.58,24.53,24.53,0,0,1-3.67-1.11,22.61,22.61,0,0,1-4.75-2.9,13.34,13.34,0,0,0-4.53-2.56,13.5,13.5,0,0,0-4.7.48,21.24,21.24,0,0,1-6.33.66,22.49,22.49,0,0,1-6.51-1.88,13.22,13.22,0,0,0-4.18-1.25c-1.14,0-2.68.93-4.32,1.92a25,25,0,0,1-4.79,2.45,23.21,23.21,0,0,1-5.73,1,12.61,12.61,0,0,0-4.67.89,13.63,13.63,0,0,0-3.43,3.7,19.21,19.21,0,0,1-3.86,4.3,15.31,15.31,0,0,1-6.16,2.94,23.86,23.86,0,0,1-10.3,0,15.43,15.43,0,0,1-6.16-2.94,19.38,19.38,0,0,1-3.86-4.29,13.26,13.26,0,0,0-3.44-3.71,12.51,12.51,0,0,0-4.66-.89,23.29,23.29,0,0,1-5.73-1,25.41,25.41,0,0,1-4.8-2.45c-1.63-1-3.17-1.92-4.31-1.92a13.22,13.22,0,0,0-4.18,1.25,22.58,22.58,0,0,1-6.51,1.88,21.27,21.27,0,0,1-6.33-.66,13.27,13.27,0,0,0-4.7-.48,13.34,13.34,0,0,0-4.53,2.56,22.36,22.36,0,0,1-4.75,2.9,24.43,24.43,0,0,1-3.66,1.11,2.75,2.75,0,0,0-1.94,1.58,2.69,2.69,0,0,0,.11,2.45L177,126.6l4.26-2.91A47.52,47.52,0,0,1,238.16,126a46.68,46.68,0,0,1,4.18,3.81l7.66,7.88,7.67-7.88a47.55,47.55,0,0,1,61.06-6.1L323,126.6l1.61-2.89A2.69,2.69,0,0,0,324.71,121.26Z"/><path class="cls-3" d="M362.66,385.14a19.71,19.71,0,0,1-.09-4.63l0-.12v0a4.53,4.53,0,0,0-1-3.61,4.25,4.25,0,0,0-.48-.47c0,.51.06,1,.06,1.52a17.93,17.93,0,0,1-12.48,17.1q-12,3.91-24.16,6.86a317.78,317.78,0,0,1-49.43,7.88q-12.51,1-25.1,1-13.2,0-26.31-1.09a317,317,0,0,1-48.22-7.78q-12.18-2.94-24.17-6.86a18,18,0,0,1-12.41-18.62,3.55,3.55,0,0,0-.48.47,4.48,4.48,0,0,0-1,3.6s0,.07,0,.1v0a19.79,19.79,0,0,1-.08,4.64c-.14,1.38-.29,2.93.06,3.55s1.76,1.3,3,1.89a20.18,20.18,0,0,1,4,2.36,18.5,18.5,0,0,1,3,3.38c.88,1.17,1.79,2.39,2.56,2.63a69.53,69.53,0,0,0,13.58,2.51,96.6,96.6,0,0,1,11.51,1.84,101.26,101.26,0,0,1,11.09,3.62,70.29,70.29,0,0,0,13.21,4,70.4,70.4,0,0,0,13.77.33c3.4-.14,6.9-.27,10.42-.08.42,0,.83.05,1.25.09a97.41,97.41,0,0,1,11.5,1.82A71.15,71.15,0,0,0,250,414.89a70.94,70.94,0,0,0,13.69-1.84,97.74,97.74,0,0,1,11.5-1.82,96.69,96.69,0,0,1,11.67,0,70.52,70.52,0,0,0,13.78-.33,70.42,70.42,0,0,0,13.2-4,100.57,100.57,0,0,1,11.09-3.62h0a96.6,96.6,0,0,1,11.49-1.84A70.53,70.53,0,0,0,350,399c.77-.25,1.69-1.47,2.57-2.65a18.41,18.41,0,0,1,3-3.37,19.57,19.57,0,0,1,4-2.36c1.24-.59,2.65-1.26,3-1.89S362.79,386.5,362.66,385.14Z"/></g></svg>