<svg xmlns="http://www.w3.org/2000/svg" viewBox="0 0 500 500"><defs><style>.cls-1{fill:#333;}.cls-2{fill:#f2d973;}.cls-3{fill:#47d1d1;}.cls-4{fill:#ccb863;}.cls-5{fill:#ddc250;}</style></defs><g id="레이어_3" data-name="레이어 3"><path class="cls-1" d="M301.44,95.79a3.41,3.41,0,0,1,1.94,3.77l-7.58,38.58a15,15,0,0,0-.11,5.3A101,101,0,0,1,291.53,191l-1.06,3.12a38.38,38.38,0,0,0-.39,23.58,327.75,327.75,0,0,1,12.58,127.37l-6.08,62.51a3.44,3.44,0,0,1-2.77,3,233.32,233.32,0,0,1-87.62,0,3.43,3.43,0,0,1-2.77-3l-6.09-62.51a328.14,328.14,0,0,1,12.59-127.37,38.38,38.38,0,0,0-.39-23.58L208.47,191a101,101,0,0,1-4.16-47.58,15.22,15.22,0,0,0-.11-5.3l-7.59-38.58a3.41,3.41,0,0,1,1.95-3.77l22.61-10.28a3.36,3.36,0,0,1,1.42-.3h54.82a3.39,3.39,0,0,1,1.42.3Zm-5.59,248.63A321.19,321.19,0,0,0,283.52,219.7a46.26,46.26,0,0,1-1.59-7.38,166.57,166.57,0,0,1-63.87,0,45.16,45.16,0,0,1-1.58,7.38,321,321,0,0,0-12.32,124.72l4.77,49.07a234.15,234.15,0,0,0,82.14,0Zm-1.18-236.06,1.47-7.46-17.88-8.13-3.93,4.31a32.93,32.93,0,0,1-48.66,0l-3.93-4.31-17.88,8.13,1.47,7.46A26.9,26.9,0,0,0,231.45,110a3.52,3.52,0,0,1,3.49.31,26.72,26.72,0,0,0,30.16,0,3.5,3.5,0,0,1,3.44-.28A26.91,26.91,0,0,0,294.67,108.36Zm-5.6,28.46L293,116.94a33.65,33.65,0,0,1-25.61,0,33.45,33.45,0,0,1-34.73,0,33.72,33.72,0,0,1-25.62,0l3.91,19.88a22.39,22.39,0,0,1,.16,7.66,93.6,93.6,0,0,0-1,17.14,197.27,197.27,0,0,0,79.9,0,94.48,94.48,0,0,0-1-17.14A21.9,21.9,0,0,1,289.07,136.82ZM290,404.38l.37-3.81a240.09,240.09,0,0,1-80.76,0l.37,3.81A226.93,226.93,0,0,0,290,404.38Zm-5-215.56a93.64,93.64,0,0,0,4.41-20.1A203.79,203.79,0,0,1,250,172.58a203.1,203.1,0,0,1-39.45-3.87A93.59,93.59,0,0,0,215,188.82l1.06,3.12a45.19,45.19,0,0,1,2.4,13.45,159.88,159.88,0,0,0,63.16,0,45.19,45.19,0,0,1,2.4-13.45ZM269.27,92.46l.37-.41H230.35l.38.42a26.1,26.1,0,0,0,38.54,0Z"/><path class="cls-2" d="M283.52,219.7a321.19,321.19,0,0,1,12.33,124.72l-4.78,49.07a234.15,234.15,0,0,1-82.14,0l-4.77-49.07A321,321,0,0,1,216.48,219.7a45.16,45.16,0,0,0,1.58-7.38,166.57,166.57,0,0,0,63.87,0A46.26,46.26,0,0,0,283.52,219.7Z"/><path class="cls-3" d="M296.14,100.9l-1.47,7.46A26.91,26.91,0,0,1,268.54,110a3.5,3.5,0,0,0-3.44.28,26.72,26.72,0,0,1-30.16,0,3.52,3.52,0,0,0-3.49-.31,26.9,26.9,0,0,1-26.12-1.66l-1.47-7.46,17.88-8.13,3.93,4.31a32.93,32.93,0,0,0,48.66,0l3.93-4.31Z"/><path class="cls-2" d="M293,116.94l-3.91,19.88a21.9,21.9,0,0,0-.15,7.66,94.48,94.48,0,0,1,1,17.14,197.27,197.27,0,0,1-79.9,0,93.6,93.6,0,0,1,1-17.14,22.39,22.39,0,0,0-.16-7.66L207,116.94a33.72,33.72,0,0,0,25.62,0,33.45,33.45,0,0,0,34.73,0A33.65,33.65,0,0,0,293,116.94Z"/><path class="cls-4" d="M290.38,400.57l-.37,3.81a226.93,226.93,0,0,1-80,0l-.37-3.81a240.09,240.09,0,0,0,80.76,0Z"/><path class="cls-3" d="M289.45,168.72a93.64,93.64,0,0,1-4.41,20.1L284,191.94a45.19,45.19,0,0,0-2.4,13.45,159.88,159.88,0,0,1-63.16,0,45.19,45.19,0,0,0-2.4-13.45L215,188.82a93.59,93.59,0,0,1-4.41-20.11A203.1,203.1,0,0,0,250,172.58,203.79,203.79,0,0,0,289.45,168.72Z"/><path class="cls-5" d="M269.64,92.05l-.37.41a26.1,26.1,0,0,1-38.54,0l-.38-.42Z"/></g></svg>