<svg xmlns="http://www.w3.org/2000/svg" viewBox="0 0 500 500"><defs><style>.cls-1{fill:#333;}.cls-2{fill:#c1dbf4;}.cls-3{fill:#7fafe8;}.cls-4{fill:#095182;}.cls-5{fill:#103b66;}</style></defs><g id="레이어_3" data-name="레이어 3"><path class="cls-1" d="M343.83,373.64a3.82,3.82,0,0,1-2,4.84l-18.42,8.19a61.7,61.7,0,0,0,3.08,5.56,3.84,3.84,0,0,1-2.07,5.7l-22.12,7c.53,1.19,1.09,2.34,1.65,3.42a3.82,3.82,0,0,1-3.25,5.6l-28,1.06.17,2.84a3.87,3.87,0,0,1-1,2.85A3.82,3.82,0,0,1,269,422H231a3.86,3.86,0,0,1-3.83-4.06l.17-2.84-28-1.06a3.79,3.79,0,0,1-3.16-1.9,3.86,3.86,0,0,1-.09-3.7c.57-1.08,1.11-2.23,1.65-3.42l-22.11-7a3.84,3.84,0,0,1-2.09-5.7,57.16,57.16,0,0,0,3.09-5.56l-18.43-8.19a3.83,3.83,0,0,1-2-4.84c.24-.65,24.2-51.74,25.3-89.25,1-34,13.07-54.34,16.78-59.79l-11.49-58.94a24.56,24.56,0,0,1,.93-12.67c5.29-15.29-1-48.48-1.05-48.81a3.83,3.83,0,0,1,1.54-3.84L208,86.15h0s0,0,.07-.05l10.78-7.37a3.84,3.84,0,0,1,3.37-.48,3.8,3.8,0,0,1,2.41,2.39c1.9,5.48,7.24,12.76,15.44,21.06,3.89,3.94,7.59,7.23,9.89,9.23,2.31-2,6-5.29,9.89-9.23,8.2-8.3,13.53-15.58,15.43-21.06a3.83,3.83,0,0,1,5.79-1.91l10.78,7.37.06.05h0l19.87,14.19a3.83,3.83,0,0,1,1.54,3.84c-.07.33-6.34,33.55-1.06,48.81a24.45,24.45,0,0,1,.94,12.67L301.75,224.6c3.7,5.45,15.78,25.76,16.78,59.79C319.63,321.9,343.59,373,343.83,373.64Zm-23.52,6,15.11-6.71c-2.12-5.9-6.64-11.69-11.2-27.11-8.38-28.38-12.87-44.87-13.35-61.2a121.23,121.23,0,0,0-8.51-42.31A80,80,0,0,0,296.14,230c-1.52.49-3.05.95-4.57,1.39,3.27,8.93,11.37,33.11,12.76,56.84l.09,1.41C305.89,314.72,308.73,349.75,320.31,379.64Zm-20.88,18.19,18.1-5.77c-15.75-29.83-19.1-73.72-20.76-101.94l-.08-1.42c-1.36-23.12-9.68-47.44-12.58-55.34q-3.19.75-6.39,1.35c2.21,10,7.56,36.86,7,60.56C284.14,321.15,288.11,365.53,299.43,397.83Zm6.29-233.65a16.73,16.73,0,0,0-.66-8.68c-5.1-14.78-1.08-42,.34-50.34L291,94.87l-17.21,30.88a3.83,3.83,0,0,1-2.38,1.84,4,4,0,0,1-1,.13,3.89,3.89,0,0,1-2-.57,86.87,86.87,0,0,0-7.69-4.19V229.2a141.81,141.81,0,0,0,33.61-6.65ZM272.24,407.4l22.36-.84c-7.18-16.95-11.36-41.6-13.67-60.21-3.32-26.84-4.16-38.21-3.86-51.26.53-23-4.89-49.86-6.94-59.17-2.82.37-5.65.68-8.47.89ZM269,118.6l15.69-28.15-4.1-2.8c-5.12,9.69-15.45,20-22.09,26A74.76,74.76,0,0,1,269,118.6Zm-4,295.68L254,237.21c-1.33,0-2.66.06-4,.06s-2.66,0-4-.06L235,414.28Zm-11.9-184.71V119.94a14.55,14.55,0,0,0-6.58.13c-3.83,1.05-10.07,4.1-14.92,7.08a3.83,3.83,0,0,1-2,.57,4,4,0,0,1-1-.13,3.83,3.83,0,0,1-2.38-1.84L209,94.87l-14.4,10.29c1.41,8.32,5.43,35.56.32,50.34a16.73,16.73,0,0,0-.65,8.68l11.37,58.37A142.52,142.52,0,0,0,253.07,229.57ZM227.76,407.4l10.59-170.59c-2.84-.21-5.66-.52-8.48-.89-2.06,9.31-7.47,36.21-7,59.17.3,13.05-.52,24.42-3.85,51.26-2.31,18.61-6.5,43.26-13.67,60.21ZM231,118.6a74.76,74.76,0,0,1,10.5-4.95c-6.64-6-17-16.31-22.09-26l-4.1,2.8Zm-8.73,116.11q-3.21-.6-6.39-1.35c-2.9,7.9-11.22,32.22-12.58,55.34l-.08,1.43c-1.66,28.22-5,72.1-20.75,101.93l18.09,5.77c11.32-32.3,15.29-76.68,14.69-102.56C214.72,271.57,220.07,244.7,222.28,234.71Zm-13.84-3.29c-1.54-.44-3.05-.9-4.57-1.39-3.84,6.11-13.87,24.81-14.74,54.59-.49,16.33-5,32.82-13.36,61.2-4.55,15.42-9.08,21.21-11.19,27.11l15.12,6.71c11.56-29.88,14.41-64.91,15.88-90l.08-1.42C197.06,264.53,205.16,240.35,208.44,231.42Z"/><path class="cls-2" d="M305.06,155.5a16.73,16.73,0,0,1,.66,8.68l-11.38,58.37a141.81,141.81,0,0,1-33.61,6.65V123a86.87,86.87,0,0,1,7.69,4.19,3.89,3.89,0,0,0,2,.57,4,4,0,0,0,1-.13,3.83,3.83,0,0,0,2.38-1.84L291,94.87l14.41,10.29C304,113.48,300,140.72,305.06,155.5Zm-4.64-8.16a3.83,3.83,0,0,0-3.52-4.12L272,141.28a3.84,3.84,0,0,0-2.79.91,3.79,3.79,0,0,0-1.32,2.61l-2.47,31.69a3.81,3.81,0,0,0,3.51,4.11l24.91,2h.3A3.82,3.82,0,0,0,298,179Z"/><path class="cls-1" d="M296.9,143.22a3.83,3.83,0,0,1,3.52,4.12L298,179a3.82,3.82,0,0,1-3.81,3.53h-.3l-24.91-2a3.81,3.81,0,0,1-3.51-4.11l2.47-31.69a3.79,3.79,0,0,1,1.32-2.61,3.84,3.84,0,0,1,2.79-.91Zm-4.83,12.72.42-5.38-17.26-1.34-.43,5.37Zm-1.46,18.67.86-11-17.26-1.35-.86,11Z"/><rect class="cls-3" x="280.95" y="143.92" width="5.39" height="17.31" transform="translate(109.38 423.44) rotate(-85.52)"/><rect class="cls-3" x="276.88" y="159.77" width="11.07" height="17.31" transform="translate(92.59 436.92) rotate(-85.55)"/><path class="cls-4" d="M284.68,90.45,269,118.6a74.76,74.76,0,0,0-10.5-4.95c6.64-6,17-16.31,22.09-26Z"/><path class="cls-2" d="M253.07,119.94V229.57a142.52,142.52,0,0,1-47.42-7l-11.37-58.37a16.73,16.73,0,0,1,.65-8.68c5.11-14.78,1.09-42-.32-50.34L209,94.87l17.21,30.88a3.83,3.83,0,0,0,2.38,1.84,4,4,0,0,0,1,.13,3.83,3.83,0,0,0,2-.57c4.85-3,11.09-6,14.92-7.08A14.55,14.55,0,0,1,253.07,119.94Zm-6.13,15.12a3.84,3.84,0,1,0-1.13,2.71A3.87,3.87,0,0,0,246.94,135.06Zm0,19.82a3.83,3.83,0,1,0-3.83,3.83A3.84,3.84,0,0,0,246.94,154.88Zm0,19.82a3.83,3.83,0,1,0-3.83,3.84A3.84,3.84,0,0,0,246.94,174.7Zm0,19.83a3.83,3.83,0,1,0-3.83,3.83A3.83,3.83,0,0,0,246.94,194.53Zm0,19.83a3.91,3.91,0,0,0-1.13-2.72,3.83,3.83,0,1,0,1.13,2.72Z"/><path class="cls-1" d="M245.81,132.35a3.84,3.84,0,1,1-2.7-1.12A3.87,3.87,0,0,1,245.81,132.35Z"/><path class="cls-1" d="M243.11,151.05a3.83,3.83,0,1,1-3.83,3.83A3.84,3.84,0,0,1,243.11,151.05Z"/><circle class="cls-1" cx="243.11" cy="174.7" r="3.83" transform="translate(31.63 386.6) rotate(-80.76)"/><path class="cls-1" d="M243.11,190.7a3.83,3.83,0,1,1-3.83,3.83A3.83,3.83,0,0,1,243.11,190.7Z"/><path class="cls-1" d="M245.81,211.64a3.91,3.91,0,0,1,1.13,2.72,3.84,3.84,0,1,1-1.13-2.72Z"/><path class="cls-4" d="M241.51,113.65A74.76,74.76,0,0,0,231,118.6L215.32,90.45l4.1-2.8C224.53,97.34,234.87,107.62,241.51,113.65Z"/><path class="cls-4" d="M317.53,392.06l-18.1,5.77c-11.32-32.3-15.29-76.68-14.7-102.56.55-23.7-4.8-50.57-7-60.56q3.19-.6,6.39-1.35c2.9,7.9,11.22,32.22,12.58,55.34l.08,1.42C298.43,318.34,301.78,362.23,317.53,392.06Z"/><path class="cls-4" d="M254,237.21l11,177.07H235l11-177.07c1.34,0,2.67.06,4,.06S252.67,237.25,254,237.21Z"/><path class="cls-4" d="M215.89,233.36q3.18.75,6.39,1.35c-2.21,10-7.56,36.86-7,60.56.6,25.88-3.37,70.26-14.69,102.56l-18.09-5.77c15.73-29.83,19.09-73.71,20.75-101.93l.08-1.43C204.67,265.58,213,241.26,215.89,233.36Z"/><path class="cls-5" d="M335.42,372.93l-15.11,6.71c-11.58-29.89-14.42-64.92-15.89-90l-.09-1.41c-1.39-23.73-9.49-47.91-12.76-56.84,1.52-.44,3.05-.9,4.57-1.39a80,80,0,0,1,6.22,12.28,121.23,121.23,0,0,1,8.51,42.31c.48,16.33,5,32.82,13.35,61.2C328.78,361.24,333.3,367,335.42,372.93Z"/><path class="cls-5" d="M294.6,406.56l-22.36.84L261.66,236.81c2.82-.21,5.65-.52,8.47-.89,2.05,9.31,7.47,36.21,6.94,59.17-.3,13.05.54,24.42,3.86,51.26C283.24,365,287.42,389.61,294.6,406.56Z"/><path class="cls-5" d="M238.35,236.81,227.76,407.4l-22.36-.84c7.17-16.95,11.36-41.6,13.67-60.21,3.33-26.84,4.15-38.21,3.85-51.26-.52-23,4.89-49.86,7-59.17C232.69,236.29,235.51,236.6,238.35,236.81Z"/><path class="cls-5" d="M203.87,230c1.52.49,3,.95,4.57,1.39-3.28,8.93-11.38,33.11-12.78,56.84l-.08,1.42c-1.47,25.05-4.32,60.08-15.88,90l-15.12-6.71c2.11-5.9,6.64-11.69,11.19-27.11,8.38-28.38,12.87-44.87,13.36-61.2C190,254.84,200,236.14,203.87,230Z"/></g></svg>