<svg xmlns="http://www.w3.org/2000/svg" viewBox="0 0 500 500"><defs><style>.cls-1{fill:#cae6dc;}.cls-2{fill:#8bb4c8;}.cls-3{fill:#3f352f;}</style></defs><g id="레이어_3" data-name="레이어 3"><path class="cls-1" d="M297,104.75a2.42,2.42,0,0,0,.86,1.87c2.49,2.44,9.37,4.06,18.18,4.4-1.35-8.52-2.56-14.66-3.29-18.16H297Z"/><rect class="cls-2" x="221.91" y="72.27" width="23.62" height="11.66"/><path class="cls-2" d="M278.09,72.27H254.46V83.94h23.63Zm-13.55,9a4.45,4.45,0,1,1,1.31-3.16A4.48,4.48,0,0,1,264.54,81.26Z"/><path class="cls-2" d="M261.93,128.35V92.86h-7.47v51.8a9,9,0,0,0,3-1.75C260.37,140.26,261.93,135.22,261.93,128.35Z"/><path class="cls-1" d="M176,427.73h58.8c0-2.61,0-6.3.05-10.88H176Z"/><rect class="cls-2" x="188.08" y="72.27" width="24.91" height="11.66"/><path class="cls-1" d="M203,104.75V92.86H187.21c-.73,3.5-1.94,9.64-3.29,18.16,8.81-.34,15.69-2,18.18-4.4A2.42,2.42,0,0,0,203,104.75Z"/><path class="cls-2" d="M211.88,104.75a11.32,11.32,0,0,1-3.53,8.23c-2.92,2.88-7.42,4.63-12.42,5.67-.05.59-.1,1.21-.15,1.85a4.47,4.47,0,0,1-4.45,4.11c-.11,0-4.38,0-4.45-4.79-1.45.09-2.89.15-4.3.18A715.87,715.87,0,0,0,176,219v188.9h8.65v-.84a4.47,4.47,0,0,1,4.42-4.51h0a4.47,4.47,0,0,1,4.46,4.42v.93h41.34c.43-52.13,2.33-174.54,10.6-229.4V92.86H211.88Zm-27.39,93.51a4.47,4.47,0,0,1,4.46-4.41H189a4.46,4.46,0,0,1,4.4,4.52c0,3.67-.08,7.4-.12,11.17a4.46,4.46,0,0,1-4.46,4.42h0a4.46,4.46,0,0,1-4.42-4.51Q184.43,203.78,184.49,198.26Zm-.27,29.85a4.46,4.46,0,0,1,4.46-4.43h0a4.45,4.45,0,0,1,4.43,4.49c0,3.7,0,7.43-.06,11.17a4.46,4.46,0,0,1-4.46,4.44h0a4.45,4.45,0,0,1-4.44-4.48C184.17,235.55,184.2,231.82,184.22,228.11ZM184.09,258a4.46,4.46,0,0,1,4.46-4.46h0A4.46,4.46,0,0,1,193,258c0,3.72,0,7.45,0,11.18a4.46,4.46,0,0,1-4.46,4.45h0a4.46,4.46,0,0,1-4.45-4.47Q184.07,263.56,184.09,258Zm0,29.83a4.47,4.47,0,0,1,4.46-4.47h0a4.47,4.47,0,0,1,4.47,4.46c0,3.75,0,7.48,0,11.17a4.47,4.47,0,0,1-4.46,4.47h0a4.47,4.47,0,0,1-4.47-4.46C184.07,295.27,184.06,291.54,184.06,287.79Zm.05,29.81a4.47,4.47,0,0,1,4.45-4.47h0a4.47,4.47,0,0,1,4.46,4.45q0,5.67,0,11.18a4.46,4.46,0,0,1-4.45,4.47h0a4.46,4.46,0,0,1-4.46-4.44Q184.14,323.28,184.11,317.6Zm.13,29.83a4.45,4.45,0,0,1,4.43-4.48h0a4.46,4.46,0,0,1,4.46,4.44c0,3.84,0,7.57.06,11.17a4.45,4.45,0,0,1-4.43,4.49h0a4.46,4.46,0,0,1-4.46-4.43Q184.27,353.21,184.24,347.43ZM189,392.87h0a4.46,4.46,0,0,1-4.46-4.43l-.08-11.18a4.45,4.45,0,0,1,4.43-4.49h0a4.45,4.45,0,0,1,4.46,4.43l.09,11.17A4.47,4.47,0,0,1,189,392.87Zm4.68-213.12a4.46,4.46,0,0,1-4.46,4.39h-.08a4.46,4.46,0,0,1-4.38-4.54c.07-3.83.14-7.57.21-11.2a4.47,4.47,0,0,1,8.93.19C193.82,172.21,193.75,175.94,193.68,179.75Zm.69-29.75a4.46,4.46,0,0,1-4.46,4.32h-.14a4.46,4.46,0,0,1-4.32-4.6c.12-3.95.26-7.7.4-11.22a4.46,4.46,0,0,1,8.92.36C194.62,142.36,194.49,146.08,194.37,150Z"/><path class="cls-1" d="M265.18,427.73H324V416.85H265.13C265.16,421.43,265.17,425.12,265.18,427.73Z"/><rect class="cls-2" x="287.01" y="72.27" width="24.91" height="11.66"/><path class="cls-2" d="M313.11,119.82c0,4.35-3.36,4.68-4.45,4.68a4.46,4.46,0,0,1-4.44-4.11c-.05-.6-.09-1.18-.14-1.74-5-1-9.51-2.79-12.43-5.67a11.32,11.32,0,0,1-3.53-8.23V92.86H270.86v35.49c0,9.73-2.58,16.92-7.67,21.36a18,18,0,0,1-8.73,4.16v24.65c8.27,54.86,10.17,177.27,10.6,229.4H306.4V407a4.46,4.46,0,0,1,4.46-4.42h0a4.46,4.46,0,0,1,4.42,4.51v.84H324V219a715.87,715.87,0,0,0-6.56-99C316,120,314.57,119.91,313.11,119.82Zm2.82,149.27a4.46,4.46,0,0,1-4.45,4.47h0A4.46,4.46,0,0,1,307,269.1c0-3.72,0-7.45,0-11.18a4.45,4.45,0,0,1,4.45-4.47h0a4.46,4.46,0,0,1,4.46,4.45Q315.93,263.5,315.93,269.09Zm-.09-29.86a4.47,4.47,0,0,1-4.44,4.49h0a4.47,4.47,0,0,1-4.46-4.44q0-5.62-.06-11.18a4.45,4.45,0,0,1,4.43-4.49h0a4.46,4.46,0,0,1,4.46,4.43Q315.81,233.61,315.84,239.23Zm-.21-29.85a4.46,4.46,0,0,1-4.42,4.5h0a4.45,4.45,0,0,1-4.46-4.41q-.06-5.67-.12-11.18a4.46,4.46,0,1,1,8.92-.11C315.55,201.86,315.59,205.6,315.63,209.38Zm-10.4-70.62a4.46,4.46,0,0,1,8.92-.36c.14,3.52.27,7.27.4,11.23a4.46,4.46,0,0,1-4.32,4.59h-.15a4.46,4.46,0,0,1-4.45-4.33C305.51,146,305.38,142.25,305.23,138.76Zm1.09,40.91c-.07-3.82-.14-7.55-.22-11.17a4.47,4.47,0,1,1,8.93-.19c.07,3.63.14,7.37.21,11.2a4.46,4.46,0,0,1-4.39,4.54h-.07A4.45,4.45,0,0,1,306.32,179.67Zm9.18,208.77a4.46,4.46,0,0,1-4.47,4.42h0a4.46,4.46,0,0,1-4.43-4.49l.09-11.19a4.46,4.46,0,0,1,4.46-4.43h0a4.47,4.47,0,0,1,4.43,4.5Zm.2-29.84a4.46,4.46,0,0,1-4.46,4.43h0a4.45,4.45,0,0,1-4.43-4.49q0-5.4.06-11.18a4.47,4.47,0,0,1,4.46-4.44h0a4.47,4.47,0,0,1,4.44,4.49Q315.73,353.18,315.7,358.6Zm.15-29.84a4.47,4.47,0,0,1-4.47,4.45h0a4.47,4.47,0,0,1-4.45-4.48q0-5.5,0-11.19a4.46,4.46,0,0,1,4.46-4.44h0a4.46,4.46,0,0,1,4.45,4.47Q315.86,323.26,315.85,328.76Zm.08-29.84a4.47,4.47,0,0,1-4.46,4.46h0a4.47,4.47,0,0,1-4.46-4.47q0-5.55,0-11.17a4.47,4.47,0,0,1,4.47-4.46h0a4.46,4.46,0,0,1,4.46,4.46C315.94,291.49,315.93,295.22,315.93,298.92Z"/><path class="cls-3" d="M188.6,243.78h0a4.46,4.46,0,0,0,4.46-4.44c0-3.74,0-7.47.06-11.17a4.45,4.45,0,0,0-4.43-4.49h0a4.46,4.46,0,0,0-4.46,4.43c0,3.71-.05,7.44-.06,11.19A4.45,4.45,0,0,0,188.6,243.78Z"/><path class="cls-3" d="M188.79,214h0a4.46,4.46,0,0,0,4.46-4.42c0-3.77.08-7.5.12-11.17a4.46,4.46,0,0,0-4.4-4.52H189a4.47,4.47,0,0,0-4.46,4.41q-.06,5.52-.12,11.19A4.46,4.46,0,0,0,188.79,214Z"/><path class="cls-3" d="M188.52,273.61h0a4.46,4.46,0,0,0,4.46-4.45c0-3.73,0-7.46,0-11.18a4.46,4.46,0,0,0-4.45-4.48h0a4.46,4.46,0,0,0-4.46,4.46q0,5.6,0,11.18A4.46,4.46,0,0,0,188.52,273.61Z"/><path class="cls-3" d="M188.88,372.77h0a4.45,4.45,0,0,0-4.43,4.49l.08,11.18a4.46,4.46,0,0,0,4.46,4.43h0a4.47,4.47,0,0,0,4.43-4.5l-.09-11.17A4.45,4.45,0,0,0,188.88,372.77Z"/><path class="cls-3" d="M189.53,164A4.47,4.47,0,0,0,185,168.4c-.07,3.63-.14,7.37-.21,11.2a4.46,4.46,0,0,0,4.38,4.54h.08a4.46,4.46,0,0,0,4.46-4.39c.07-3.81.14-7.54.22-11.16A4.46,4.46,0,0,0,189.53,164Z"/><path class="cls-3" d="M190.49,134.23a4.47,4.47,0,0,0-4.64,4.27c-.14,3.52-.28,7.27-.4,11.22a4.46,4.46,0,0,0,4.32,4.6h.14a4.46,4.46,0,0,0,4.46-4.32c.12-3.92.25-7.64.4-11.14A4.46,4.46,0,0,0,190.49,134.23Z"/><path class="cls-3" d="M188.53,303.42h0A4.47,4.47,0,0,0,193,299c0-3.69,0-7.42,0-11.17a4.47,4.47,0,0,0-4.47-4.46h0a4.47,4.47,0,0,0-4.46,4.47c0,3.75,0,7.48,0,11.17A4.46,4.46,0,0,0,188.53,303.42Z"/><path class="cls-3" d="M188.61,333.23h0a4.46,4.46,0,0,0,4.45-4.47q0-5.5,0-11.18a4.47,4.47,0,0,0-4.46-4.45h0a4.47,4.47,0,0,0-4.45,4.47q0,5.68,0,11.19A4.46,4.46,0,0,0,188.61,333.23Z"/><path class="cls-3" d="M188.76,363.05h0a4.45,4.45,0,0,0,4.43-4.49c0-3.6,0-7.33-.06-11.17A4.46,4.46,0,0,0,188.7,343h0a4.45,4.45,0,0,0-4.43,4.48q0,5.77.06,11.19A4.46,4.46,0,0,0,188.76,363.05Z"/><path class="cls-3" d="M310.08,154.23h.15a4.46,4.46,0,0,0,4.32-4.59c-.13-4-.26-7.71-.4-11.23a4.46,4.46,0,0,0-8.92.36c.15,3.49.28,7.22.4,11.14A4.46,4.46,0,0,0,310.08,154.23Z"/><path class="cls-3" d="M310.78,184.05h.07a4.46,4.46,0,0,0,4.39-4.54c-.07-3.83-.14-7.57-.21-11.2a4.47,4.47,0,1,0-8.93.19c.08,3.62.15,7.35.22,11.17A4.45,4.45,0,0,0,310.78,184.05Z"/><path class="cls-3" d="M311,193.77a4.46,4.46,0,0,0-4.4,4.52q.06,5.51.12,11.18a4.45,4.45,0,0,0,4.46,4.41h0a4.46,4.46,0,0,0,4.42-4.5c0-3.78-.08-7.52-.12-11.2A4.47,4.47,0,0,0,311,193.77Z"/><path class="cls-3" d="M311.32,223.61h0a4.45,4.45,0,0,0-4.43,4.49q0,5.55.06,11.18a4.47,4.47,0,0,0,4.46,4.44h0a4.47,4.47,0,0,0,4.44-4.49q0-5.62-.06-11.19A4.46,4.46,0,0,0,311.32,223.61Z"/><path class="cls-3" d="M311.48,283.28h0a4.47,4.47,0,0,0-4.47,4.46q0,5.63,0,11.17a4.47,4.47,0,0,0,4.46,4.47h0a4.47,4.47,0,0,0,4.47-4.46c0-3.7,0-7.43,0-11.18A4.46,4.46,0,0,0,311.48,283.28Z"/><path class="cls-3" d="M311.32,342.92h0a4.47,4.47,0,0,0-4.46,4.44q0,5.77-.06,11.18a4.45,4.45,0,0,0,4.43,4.49h0a4.46,4.46,0,0,0,4.46-4.43q0-5.42.06-11.19A4.47,4.47,0,0,0,311.32,342.92Z"/><path class="cls-3" d="M311.15,372.75h0a4.46,4.46,0,0,0-4.46,4.43l-.09,11.19a4.46,4.46,0,0,0,4.43,4.49h0a4.46,4.46,0,0,0,4.47-4.42l.08-11.19A4.47,4.47,0,0,0,311.15,372.75Z"/><path class="cls-3" d="M311.44,313.1h0a4.46,4.46,0,0,0-4.46,4.44q0,5.68,0,11.19a4.47,4.47,0,0,0,4.45,4.48h0a4.47,4.47,0,0,0,4.47-4.45q0-5.5,0-11.19A4.46,4.46,0,0,0,311.44,313.1Z"/><path class="cls-3" d="M311.45,253.45h0a4.45,4.45,0,0,0-4.45,4.47c0,3.73,0,7.46,0,11.18a4.46,4.46,0,0,0,4.46,4.46h0a4.46,4.46,0,0,0,4.46-4.47q0-5.59,0-11.19A4.46,4.46,0,0,0,311.45,253.45Z"/><path class="cls-3" d="M261.39,73.64A4.47,4.47,0,1,0,264.54,75,4.48,4.48,0,0,0,261.39,73.64Z"/><path class="cls-3" d="M320.84,67.81a4.46,4.46,0,0,0-4.46-4.46H183.62a4.46,4.46,0,0,0-4.46,4.46v20.1C177.85,93.61,167.09,143,167.09,219V432.19a4.46,4.46,0,0,0,4.46,4.46h67.72a4.46,4.46,0,0,0,4.46-4.46c0-1.53.09-128.34,6.27-210.55,6.18,82.21,6.27,209,6.27,210.55a4.46,4.46,0,0,0,4.46,4.46h67.72a4.46,4.46,0,0,0,4.46-4.46V219c0-76-10.77-125.43-12.07-131.12ZM188.08,72.27H213V83.94H188.08Zm-.87,20.59H203v11.89a2.42,2.42,0,0,1-.86,1.87c-2.49,2.44-9.37,4.06-18.18,4.4C185.27,102.5,186.48,96.36,187.21,92.86Zm47.61,334.87H176V416.85h58.85C234.84,421.43,234.83,425.12,234.82,427.73Zm10.72-249.21c-8.27,54.86-10.17,177.27-10.6,229.4H193.6V407a4.47,4.47,0,0,0-4.46-4.42h0a4.47,4.47,0,0,0-4.42,4.51v.84H176V219a715.87,715.87,0,0,1,6.56-99c1.41,0,2.85-.09,4.3-.18.07,4.82,4.34,4.79,4.45,4.79a4.47,4.47,0,0,0,4.45-4.11c.05-.64.1-1.26.15-1.85,5-1,9.5-2.79,12.42-5.67a11.32,11.32,0,0,0,3.53-8.23V92.86h33.66Zm0-94.58H221.91V72.27h23.63ZM316.08,111c-8.81-.34-15.69-2-18.18-4.4a2.42,2.42,0,0,1-.86-1.87V92.86h15.75C313.52,96.36,314.73,102.5,316.08,111ZM287,72.27h24.91V83.94H287Zm-32.55,0h23.63V83.94H254.46Zm0,20.59h7.47v35.49c0,6.87-1.56,11.91-4.52,14.56a9,9,0,0,1-3,1.75ZM324,427.73h-58.8c0-2.61,0-6.3-.05-10.88H324ZM324,219v188.9h-8.65v-.84a4.46,4.46,0,0,0-4.42-4.51h0a4.46,4.46,0,0,0-4.46,4.42v.93H265.06c-.43-52.13-2.33-174.54-10.6-229.4V153.87a18,18,0,0,0,8.73-4.16c5.09-4.44,7.67-11.63,7.67-21.36V92.86h17.26v11.89a11.32,11.32,0,0,0,3.53,8.23c2.92,2.88,7.43,4.63,12.43,5.67.05.56.09,1.14.14,1.74a4.46,4.46,0,0,0,4.44,4.11c1.09,0,4.41-.33,4.45-4.68,1.46.09,2.9.15,4.31.18A715.87,715.87,0,0,1,324,219Z"/></g></svg>