<svg xmlns="http://www.w3.org/2000/svg" viewBox="0 0 500 500"><defs><style>.cls-1{fill:#333;}.cls-2{fill:#f2d973;}.cls-3{fill:#86e3b2;}</style></defs><g id="레이어_3" data-name="레이어 3"><path class="cls-1" d="M383.66,346.4a3,3,0,0,1-1.19,2.37c-.48.36-5.23,3.61-23,6.82-23.22,4.2-58.85,6.54-103,6.78h0a3,3,0,0,1-2.94-2.62L250,329.41l-3.45,30.34a3,3,0,0,1-2.94,2.62h0c-44.2-.24-79.82-2.58-103-6.78-17.79-3.21-22.54-6.46-23-6.82a3,3,0,0,1-1.19-2.37c0-101,24.75-177.07,26.66-182.78l2.33-23.33a3,3,0,0,1,3.55-2.6A494.35,494.35,0,0,0,250,148.16a494.42,494.42,0,0,0,101.12-10.47,3,3,0,0,1,3.54,2.6L357,163.62C358.91,169.33,383.66,245.37,383.66,346.4Zm-5.92-1.77c0-.91,0-1.8,0-2.7a110.25,110.25,0,0,1-18.28,4.59c-22.82,4.11-57.64,6.44-100.78,6.75l.37,3.17c52.28-.39,81.91-3.66,97.62-6.36C369.44,347.88,375.42,345.68,377.74,344.63Zm-.09-9a655.06,655.06,0,0,0-12-113.07,61.08,61.08,0,0,1-72.34-48q-7.49.65-15,1.07a10.47,10.47,0,0,1,.33,2.63,11.08,11.08,0,0,1-21,4.85l-3.27-6.72-1.41,0v20.39a3,3,0,1,1-5.92,0V176.38l-1.41,0-3.27,6.72a11.08,11.08,0,0,1-21-4.85,10.47,10.47,0,0,1,.33-2.63c-5-.29-10-.64-15-1.07a61.11,61.11,0,0,1-72.34,48,654.93,654.93,0,0,0-12,113.06c5.7,2.51,31.74,11.2,119.65,11.78l5-44.3V272.48a3,3,0,1,1,5.92,0v30.58l5,44.3c52.93-.35,82.85-3.64,98.66-6.36C369.28,338.83,375.26,336.66,377.65,335.59ZM364.51,216.72l-1.08-5.14a49.91,49.91,0,0,1-58.92-38.13l-5.26.54a55.19,55.19,0,0,0,54,43.89A55.83,55.83,0,0,0,364.51,216.72Zm-2.35-10.92c-4.91-21.92-9.36-36-10.55-39.66q-20.43,4.16-41.19,6.65a44,44,0,0,0,51.74,33Zm-11.44-45.52-1.62-16.14a500.13,500.13,0,0,1-79.62,9.55q-9.74.38-19.48.38t-19.48-.38a500.12,500.12,0,0,1-79.63-9.55l-1.62,16.14a504.25,504.25,0,0,0,75.88,9.58,11.3,11.3,0,0,1,2.39-1.59l12.62-6.14L230,160.6a3,3,0,0,1,.44-5.89,2.35,2.35,0,0,1,.45,0L250,157.64l19.07-2.89a2.35,2.35,0,0,1,.45,0,3,3,0,0,1,.44,5.89l-10.12,1.53,12.61,6.14a10.81,10.81,0,0,1,2.39,1.59A504.09,504.09,0,0,0,350.72,160.28Zm-78,17.95a5.06,5.06,0,0,0-.58-2.33c-3.76.16-7.53.29-11.29.37l2.06,4.22a5.16,5.16,0,0,0,9.81-2.26Zm-9.65-7.92L256.41,167l1.63,3.37Zm-21.17.1,1.64-3.37-6.72,3.27Zm-1,186,.37-3.17c-43.15-.31-78-2.64-100.79-6.75a110.82,110.82,0,0,1-18.28-4.59c0,.9,0,1.79,0,2.7,2.33,1.05,8.3,3.25,21.1,5.45C159.06,352.78,188.68,356.05,241,356.44ZM237,180.49l2.06-4.22c-3.77-.08-7.53-.21-11.3-.37a5.16,5.16,0,1,0,9.24,4.59ZM200.75,174c-1.75-.17-3.51-.35-5.26-.54a50,50,0,0,1-58.92,38.13q-.54,2.5-1.08,5.14a55.74,55.74,0,0,0,11.26,1.16,55.19,55.19,0,0,0,54-43.89Zm-25.32,22.09a44,44,0,0,0,14.14-23.29q-20.72-2.49-41.18-6.65c-1.19,3.62-5.64,17.74-10.55,39.66a44,44,0,0,0,37.59-9.72Z"/><path class="cls-2" d="M377.72,341.93c0,.9,0,1.79,0,2.7-2.32,1.05-8.3,3.25-21.09,5.45-15.71,2.7-45.34,6-97.62,6.36l-.37-3.17c43.14-.31,78-2.64,100.78-6.75A110.25,110.25,0,0,0,377.72,341.93Z"/><path class="cls-3" d="M365.66,222.52a655.06,655.06,0,0,1,12,113.07c-2.39,1.07-8.37,3.24-21,5.41-15.81,2.72-45.73,6-98.66,6.36l-5-44.3V272.48a3,3,0,1,0-5.92,0v30.58l-5,44.3c-87.91-.58-113.95-9.27-119.65-11.78a654.93,654.93,0,0,1,12-113.06,61.09,61.09,0,0,0,72.34-48c5,.43,10,.78,15,1.07a10.47,10.47,0,0,0-.33,2.63,11.08,11.08,0,0,0,21,4.85l3.27-6.72,1.41,0v20.39a3,3,0,1,0,5.92,0V176.38l1.41,0,3.27,6.72a11.08,11.08,0,0,0,21-4.85,10.47,10.47,0,0,0-.33-2.63q7.48-.43,15-1.07a61.11,61.11,0,0,0,72.34,48Z"/><path class="cls-2" d="M363.43,211.58l1.08,5.14a55.83,55.83,0,0,1-11.27,1.16,55.19,55.19,0,0,1-54-43.89l5.26-.54a50,50,0,0,0,58.92,38.13Z"/><path class="cls-3" d="M351.61,166.14c1.19,3.62,5.64,17.74,10.55,39.66a44,44,0,0,1-51.74-33Q331.15,170.3,351.61,166.14Z"/><path class="cls-2" d="M349.1,144.14l1.62,16.14a504.09,504.09,0,0,1-75.88,9.58,10.81,10.81,0,0,0-2.39-1.59l-12.61-6.14L270,160.6a3,3,0,0,0-.44-5.89l0-1A500.13,500.13,0,0,0,349.1,144.14Z"/><path class="cls-3" d="M272.19,175.9a5.06,5.06,0,0,1,.58,2.33,5.16,5.16,0,0,1-9.81,2.26l-2.06-4.22C264.66,176.19,268.43,176.06,272.19,175.9Z"/><path class="cls-2" d="M269.48,153.69l0,1a2.35,2.35,0,0,0-.45,0L250,157.64l-19.07-2.89a2.35,2.35,0,0,0-.45,0l0-1q9.73.38,19.48.38T269.48,153.69Z"/><path class="cls-2" d="M256.41,167l6.71,3.27-5.08.1Z"/><path class="cls-2" d="M243.59,167,242,170.41l-5.08-.1Z"/><path class="cls-2" d="M241.34,353.27l-.37,3.17c-52.29-.39-81.91-3.66-97.62-6.36-12.8-2.2-18.77-4.4-21.1-5.45,0-.91,0-1.8,0-2.7a110.82,110.82,0,0,0,18.28,4.59C163.37,350.63,198.19,353,241.34,353.27Z"/><path class="cls-2" d="M240.16,162.13l-12.62,6.14a11.3,11.3,0,0,0-2.39,1.59,504.25,504.25,0,0,1-75.88-9.58l1.62-16.14a500.12,500.12,0,0,0,79.63,9.55l0,1a3,3,0,0,0-.44,5.89Z"/><path class="cls-3" d="M239.1,176.27,237,180.49a5.16,5.16,0,1,1-9.24-4.59C231.57,176.06,235.33,176.19,239.1,176.27Z"/><path class="cls-2" d="M195.49,173.45c1.75.19,3.51.37,5.26.54a55.17,55.17,0,0,1-65.26,42.73q.54-2.64,1.08-5.14a49.91,49.91,0,0,0,58.92-38.13Z"/><path class="cls-3" d="M189.57,172.79a44,44,0,0,1-51.73,33c4.91-21.92,9.36-36,10.55-39.66Q168.82,170.3,189.57,172.79Z"/></g></svg>