<svg xmlns="http://www.w3.org/2000/svg" viewBox="0 0 500 500"><defs><style>.cls-1{fill:#333;}.cls-2{fill:#77cc9c;}.cls-3{fill:#86e3b2;}</style></defs><g id="레이어_3" data-name="레이어 3"><path class="cls-1" d="M375.9,330.93a3.53,3.53,0,0,1-.57,4.61c-.57.5-13.29,11.64-27.21,13.06a84.5,84.5,0,0,0,4.72,8.64,3.5,3.5,0,0,1-1.31,5c-.79.42-18,9.61-32.14,11q1.33,3.09,2.76,5.83a3.5,3.5,0,0,1-2.14,5c-.91.26-21.31,6.13-40.25,6.85l0,.35a3.5,3.5,0,0,1-2.41,3.55,86.51,86.51,0,0,1-53.87,0,3.5,3.5,0,0,1-2.4-3.55V391c-19.18-.58-40.2-6.61-41.13-6.88a3.53,3.53,0,0,1-2.26-2,3.6,3.6,0,0,1,.12-3c.95-1.83,1.88-3.77,2.77-5.84-14.09-1.41-31.36-10.6-32.15-11a3.51,3.51,0,0,1-1.3-5,86.48,86.48,0,0,0,4.72-8.64C138,347.18,125.24,336,124.67,335.54a3.53,3.53,0,0,1-.57-4.61c.08-.13,8.62-12.85,17-36.27,7.77-21.6,17-57,17-102.81,0-48.84,19.61-65.7,24-68.85V104.39a3.52,3.52,0,0,1,4.67-3.32,195.72,195.72,0,0,0,127.19,0,3.52,3.52,0,0,1,4.67,3.32v19.27c5.64,4.48,23.12,22.08,23.12,68.19C341.82,279.77,375.56,330.42,375.9,330.93Zm-7.55,1.2c-3-5-9.49-16.75-16-34.8-8-22.17-17.55-58.47-17.55-105.48,0-14.31-1.87-34.7-10.79-50.57a41.71,41.71,0,0,0-9.44-11.91q-4.68,1.55-9.44,2.86A165.2,165.2,0,0,1,322.54,197l.12,1.94c2,34.61,6,102,22.43,142.74C354.33,341.7,364.08,335.36,368.35,332.13Zm-51.69,34.24c9.55-.26,22.31-5.85,28.25-8.7-22.3-39.41-27-119.31-29.27-158.28l-.12-1.93c-1.92-32.76-14-57.13-17.41-63.42q-5.87,1.41-11.78,2.46c3,9.92,10.33,37.69,9.59,69.92C295.1,242.19,300.69,322.63,316.66,366.37Zm-5-243.46V109.27a203.09,203.09,0,0,1-122.46,0V123.2A199.77,199.77,0,0,0,311.66,122.91ZM314,378.4c-10.54-22.81-16.6-58.19-19.87-84.59-4.51-36.35-5.63-69.88-5.23-87.55.74-32-7-60.09-9.59-68.64-4.91.7-9.86,1.22-14.81,1.57L279.33,383.9C292.63,383.4,307.11,380.13,314,378.4ZM272.59,389,257.47,139.57q-7,.26-14.07,0L228.29,389A79.63,79.63,0,0,0,272.59,389Zm-51-5,14.85-244.67q-7.89-.51-15.7-1.63c-2.61,8.54-10.32,36.67-9.58,68.64.4,17.67-.72,51.2-5.23,87.55-3.28,26.4-9.34,61.78-19.88,84.59C193,380.18,208,383.55,221.54,383.92ZM213.67,136.5q-5.92-1-11.78-2.46c-3.41,6.3-15.5,30.74-17.42,63.42l-.11,1.92c-2.29,39-7,118.87-29.27,158.28,5.94,2.86,18.72,8.45,28.25,8.71,16-43.74,21.56-124.18,20.73-160A235.11,235.11,0,0,1,213.67,136.5Zm-18.79-4.27q-4.75-1.32-9.43-2.86c-4.54,3.79-20.24,20-20.24,62.48,0,47-9.55,83.31-17.55,105.48-6.52,18-13,29.78-16,34.8,4.28,3.22,14,9.56,23.26,9.59C171.35,301,175.31,233.59,177.34,199l.11-1.93A165,165,0,0,1,194.88,132.23Z"/><path class="cls-2" d="M352.34,297.33c6.52,18.05,13,29.79,16,34.8-4.27,3.23-14,9.57-23.26,9.59C328.65,301,324.69,233.59,322.66,199l-.12-1.94a165.2,165.2,0,0,0-17.42-64.81q4.75-1.32,9.44-2.86A41.71,41.71,0,0,1,324,141.28c8.92,15.87,10.79,36.26,10.79,50.57C334.79,238.86,344.34,275.16,352.34,297.33Z"/><path class="cls-3" d="M344.91,357.67c-5.94,2.85-18.7,8.44-28.25,8.7-16-43.74-21.56-124.18-20.74-160,.74-32.23-6.6-60-9.59-69.92q5.91-1,11.78-2.46c3.41,6.29,15.49,30.66,17.41,63.42l.12,1.93C317.92,238.36,322.61,318.26,344.91,357.67Z"/><path class="cls-2" d="M311.66,109.27v13.64a199.77,199.77,0,0,1-122.46.29V109.27A203.09,203.09,0,0,0,311.66,109.27Z"/><path class="cls-2" d="M294.12,293.81c3.27,26.4,9.33,61.78,19.87,84.59-6.88,1.73-21.36,5-34.66,5.5L264.49,139.19c4.95-.35,9.9-.87,14.81-1.57,2.61,8.55,10.33,36.67,9.59,68.64C288.49,223.93,289.61,257.46,294.12,293.81Z"/><path class="cls-3" d="M257.47,139.57,272.59,389a79.63,79.63,0,0,1-44.3,0L243.4,139.59Q250.44,139.82,257.47,139.57Z"/><path class="cls-2" d="M236.39,139.25,221.54,383.92C208,383.55,193,380.18,186,378.4c10.54-22.81,16.6-58.19,19.88-84.59,4.51-36.35,5.63-69.88,5.23-87.55-.74-32,7-60.1,9.58-68.64Q228.51,138.73,236.39,139.25Z"/><path class="cls-3" d="M201.89,134q5.87,1.41,11.78,2.46a235.11,235.11,0,0,0-9.6,69.92c.83,35.77-4.76,116.21-20.73,160-9.53-.26-22.31-5.85-28.25-8.71,22.29-39.41,27-119.31,29.27-158.28l.11-1.92C186.39,164.78,198.48,140.34,201.89,134Z"/><path class="cls-2" d="M185.45,129.37q4.68,1.55,9.43,2.86A165,165,0,0,0,177.45,197l-.11,1.93c-2,34.62-6,102-22.43,142.75-9.21,0-19-6.37-23.26-9.59,3-5,9.49-16.76,16-34.8,8-22.17,17.55-58.47,17.55-105.48C165.21,149.35,180.91,133.16,185.45,129.37Z"/></g></svg>