<svg xmlns="http://www.w3.org/2000/svg" viewBox="0 0 500 500"><defs><style>.cls-1{fill:#333;}.cls-2{fill:#333d42;}.cls-3{fill:#5e6a7c;}.cls-4{fill:#618db3;}</style></defs><g id="레이어_3" data-name="레이어 3"><path class="cls-1" d="M313.83,69.21c.13,1,12.48,96.28,5.41,199.14,0,4.48.84,101.42-.9,162a4,4,0,0,1-4,3.84H274.15a4,4,0,0,1-4-4.19c0-.41,2.44-42,.67-95.21-1.5-45.26-6.39-107.71-20.86-157.17-14.48,49.46-19.36,111.91-20.86,157.17-1.77,53.19.64,94.8.66,95.21a4,4,0,0,1-4,4.19H185.61a4,4,0,0,1-4-3.84c-1.73-60.61-.94-157.54-.9-162C173.69,165.5,186,70.17,186.16,69.21a3.94,3.94,0,0,1,1.52-2.62,4,4,0,0,1,2.93-.78,443.17,443.17,0,0,0,118.78,0,4,4,0,0,1,4.44,3.4ZM311.34,268c4.18-60.73,1.54-118.83-1.31-156.14-7.66-1.71-25.59-7-29.81-19.35q-14.24,1-28.5,1v46.77h.51a3.95,3.95,0,1,1,0,7.9h-4.47a4,4,0,0,1-3.95-3.95V93.43q-12-.15-24-1c-4.22,12.38-22.15,17.64-29.8,19.35-2.86,37.31-5.5,95.41-1.31,156.14,0,.1,0,.2,0,.31,0,1-.84,96.25.79,158.05H221.7c-.57-11.91-1.92-47.91-.47-91.69,1.64-49.52,7.31-119.44,25-171.38a4,4,0,0,1,7.49,0c17.71,51.94,23.39,121.86,25,171.38,1.45,43.78.1,79.78-.45,91.69h32.23c1.62-61.8.8-157.08.78-158A3,3,0,0,1,311.34,268Zm-2-164.44c-.42-5.12-.84-9.75-1.24-13.81q-9.75,1.26-19.53,2.12c2.45,4.08,7.69,7,12.2,8.87A66.84,66.84,0,0,0,309.36,103.52Zm-2-21.67c-.34-3.19-.62-5.77-.85-7.68q-21.57,2.72-43.3,3.34v7.86Q285.31,84.71,307.32,81.85Zm-52,3.68V77.67c-3.51,0-7,0-10.54,0v7.86C248.24,85.58,251.76,85.58,255.27,85.53Zm-18.45-.16V77.51q-21.7-.62-43.3-3.34c-.22,1.91-.51,4.49-.85,7.68Q214.68,84.7,236.82,85.37Zm-46.19,18.18c7.23-1.86,17.19-5.66,20.79-11.72q-9.79-.85-19.54-2.12C191.48,93.78,191.06,98.41,190.63,103.55Z"/><path class="cls-2" d="M310,111.82c2.85,37.31,5.49,95.41,1.31,156.14a3,3,0,0,0,0,.31c0,1,.84,96.25-.78,158.05H278.31c.55-11.91,1.9-47.91.45-91.69-1.63-49.52-7.31-119.44-25-171.38a4,4,0,0,0-7.49,0c-17.71,51.94-23.38,121.86-25,171.38-1.45,43.78-.1,79.78.47,91.69H189.46c-1.63-61.8-.8-157.08-.79-158,0-.11,0-.21,0-.31-4.19-60.73-1.55-118.83,1.31-156.14,7.65-1.71,25.58-7,29.8-19.35q12,.81,24,1v50.76a4,4,0,0,0,3.95,3.95h4.47a3.95,3.95,0,1,0,0-7.9h-.51V93.47q14.27,0,28.5-1C284.44,104.85,302.37,110.11,310,111.82Z"/><path class="cls-3" d="M308.12,89.71c.4,4.06.82,8.69,1.24,13.81a66.84,66.84,0,0,1-8.57-2.82c-4.51-1.88-9.75-4.79-12.2-8.87Q298.39,91,308.12,89.71Z"/><path class="cls-4" d="M306.47,74.17c.23,1.91.51,4.49.85,7.68q-22,2.85-44.15,3.52V77.51Q284.88,76.89,306.47,74.17Z"/><path class="cls-3" d="M255.27,77.67v7.86c-3.51,0-7,0-10.54,0V77.67C248.24,77.72,251.76,77.72,255.27,77.67Z"/><path class="cls-4" d="M236.82,77.51v7.86q-22.12-.66-44.15-3.52c.34-3.19.63-5.77.85-7.68Q215.11,76.89,236.82,77.51Z"/><path class="cls-3" d="M211.42,91.83c-3.6,6.06-13.56,9.86-20.79,11.72.43-5.14.85-9.77,1.25-13.84Q201.63,91,211.42,91.83Z"/></g></svg>