<svg xmlns="http://www.w3.org/2000/svg" viewBox="0 0 500 500"><defs><style>.cls-1{fill:#a99c83;}.cls-2{fill:#d48c7e;}.cls-3{fill:#8bb4c8;}.cls-4{fill:#3f352f;}</style></defs><g id="레이어_3" data-name="레이어 3"><path class="cls-1" d="M172.29,161h-13c-1.13,11.28-2.43,27.44-3.73,50.21C161.45,207.32,171.66,195.58,172.29,161Z"/><path class="cls-2" d="M213.6,164.18a3.35,3.35,0,0,1-6.7,0V161H179c-.78,44.63-17.11,55.42-23.85,58-.45,8.51-.9,17.84-1.34,28.1v95.74h83.58V321.19s1.54-36.06,9.27-52V161H213.6Z"/><rect class="cls-3" x="213.6" y="139.6" width="33.04" height="14.71"/><path class="cls-1" d="M344.44,211.22c-1.29-22.79-2.59-38.94-3.71-50.2h-13C328.34,195.58,338.56,207.32,344.44,211.22Z"/><path class="cls-3" d="M206.9,139.6H162c-.44,2.49-1.14,7.07-2,14.71H206.9Z"/><rect class="cls-1" x="153.8" y="349.54" width="83.57" height="10.86"/><path class="cls-2" d="M263.51,216.16V161H253.35V237.8C257.35,236.27,263.51,231.43,263.51,216.16Z"/><path class="cls-3" d="M286.39,139.6h-33v14.71h33Zm-22.69,9.73A3.35,3.35,0,0,1,258,147a3.35,3.35,0,0,1,5.72-2.36,3.36,3.36,0,0,1,1,2.36A3.41,3.41,0,0,1,263.7,149.33Z"/><rect class="cls-1" x="262.62" y="349.54" width="83.57" height="10.86"/><path class="cls-2" d="M321,161H293.1v3.16a3.36,3.36,0,0,1-6.71,0V161H270.21v55.14c0,10.61-2.63,18.57-7.83,23.65a19,19,0,0,1-9,5v24.39c7.73,16,9.21,50.41,9.27,51.89v21.77H346.2V247.09c-.44-10.26-.89-19.59-1.34-28.1C338.13,216.44,321.79,205.65,321,161Z"/><path class="cls-3" d="M338,139.6H293.1v14.71H340C339.17,146.65,338.46,142.08,338,139.6Z"/><path class="cls-4" d="M344,135.4a3.35,3.35,0,0,0-3.25-2.5H159.24a3.35,3.35,0,0,0-3.25,2.5c-.2.77-5,19.94-8.89,111.48V363.75a3.35,3.35,0,0,0,3.35,3.35h90.28a3.35,3.35,0,0,0,3.35-3.35V321.27c.06-1.45,1.21-26,5.92-42,4.71,16,5.85,40.53,5.92,42v42.48a3.35,3.35,0,0,0,3.35,3.35h90.28a3.35,3.35,0,0,0,3.35-3.35V246.88C349,155.34,344.21,136.17,344,135.4Zm-182,4.2H206.9v14.71H160C160.85,146.67,161.55,142.09,162,139.6ZM159.29,161h13c-.63,34.56-10.84,46.3-16.73,50.21C156.86,188.46,158.16,172.3,159.29,161ZM237.38,360.4H153.8V349.54h83.58Zm9.27-91.23c-7.73,16-9.27,52-9.27,52v21.64H153.8V247.09c.44-10.26.89-19.59,1.34-28.1,6.74-2.55,23.07-13.34,23.85-58H206.9v3.16a3.35,3.35,0,0,0,6.7,0V161h33.05Zm0-114.86H213.6V139.6h33.05Zm97.79,56.91c-5.88-3.9-16.1-15.64-16.72-50.2h13C341.85,172.28,343.15,188.43,344.44,211.22ZM293.1,139.6H338c.44,2.48,1.15,7.05,2,14.71H293.1Zm-39.75,0h33v14.71h-33Zm0,21.42h10.16v55.14c0,15.27-6.16,20.11-10.16,21.64ZM346.2,360.4H262.62V349.54H346.2Zm0-17.57H262.62V321.06c-.06-1.48-1.54-35.93-9.27-51.89V244.78a19,19,0,0,0,9-5c5.2-5.08,7.83-13,7.83-23.65V161h16.18v3.16a3.36,3.36,0,0,0,6.71,0V161H321c.78,44.63,17.12,55.42,23.85,58,.45,8.51.9,17.84,1.34,28.1Z"/><path class="cls-4" d="M261.32,143.61a3.35,3.35,0,0,0-2.36,5.72,3.35,3.35,0,1,0,2.36-5.72Z"/></g></svg>