<svg xmlns="http://www.w3.org/2000/svg" viewBox="0 0 500 500"><defs><style>.cls-1{fill:#e360f7;}.cls-2{fill:#333;}.cls-3{fill:#b32bd7;}</style></defs><g id="레이어_3" data-name="레이어 3"><path class="cls-1" d="M338.6,191.42c-.07-36.06-21.79-77.27-21.79-77.27H183.19s-21.72,41.21-21.79,77.27,3,192.85-7.11,207.11l17.81,2.93a479.7,479.7,0,0,0,155.8,0l17.81-2.93C335.64,384.27,338.67,227.48,338.6,191.42Z"/><path class="cls-2" d="M250,410.45A481.82,481.82,0,0,1,171.67,404l-17.8-2.93a2.61,2.61,0,0,1-1.71-4.07c8-11.37,7.14-130.35,6.77-181.16-.08-10.39-.14-18.87-.13-24.45.07-36.29,21.18-76.78,22.08-78.48a2.6,2.6,0,0,1,2.31-1.39H316.81a2.6,2.6,0,0,1,2.31,1.39c.9,1.7,22,42.19,22.08,78.48h0c0,5.58-.05,14.06-.13,24.45-.37,50.81-1.26,169.79,6.77,181.16a2.61,2.61,0,0,1-1.71,4.07L328.33,404A481.82,481.82,0,0,1,250,410.45ZM158,396.5l14.49,2.39a476.23,476.23,0,0,0,155,0L342,396.5c-6.69-20.57-6.68-103.45-6.11-180.67.08-10.37.14-18.83.13-24.4h0c-.06-31.34-17.07-67.23-20.78-74.67H184.79c-3.71,7.44-20.72,43.33-20.78,74.67,0,5.57.05,14,.13,24.4C164.71,293.05,164.72,375.93,158,396.5Z"/><polygon class="cls-3" points="312.06 92.16 263.96 92.16 187.94 92.16 183.19 114.15 263.96 114.15 316.81 114.15 312.06 92.16"/><path class="cls-2" d="M316.81,116.76H183.19a2.61,2.61,0,0,1-2.55-3.16l4.75-22a2.61,2.61,0,0,1,2.55-2.06H312.06a2.61,2.61,0,0,1,2.55,2.06l4.75,22a2.61,2.61,0,0,1-2.55,3.16Zm-130.4-5.21H313.59L310,94.76H190Z"/></g></svg>