<svg xmlns="http://www.w3.org/2000/svg" viewBox="0 0 500 500"><defs><style>.cls-1{fill:#7fafe8;}.cls-2{fill:#333;}.cls-3{fill:#618db3;}</style></defs><g id="레이어_3" data-name="레이어 3"><path class="cls-1" d="M307.76,122.21c1.86,39.74-5.79,85-11,115.68-2.78,16.43-4.78,28.3-4.57,34.36.6,16.79-4.57,101.32-6.74,135.61a86.36,86.36,0,0,1-20.7-.18L260,283c3-36.2-5.78-135.17-6.16-139.38a3.84,3.84,0,0,0-7.64,0C245.8,147.78,237,246.75,240,283l-4.79,124.73a86.36,86.36,0,0,1-20.7.18c-2.17-34.29-7.35-118.82-6.75-135.61.22-6.06-1.79-17.93-4.56-34.36-5.19-30.71-12.83-75.94-11-115.68A31.42,31.42,0,0,0,222.34,98.8q8.19.89,16.42,1.25v26.38a3.83,3.83,0,0,0,3.83,3.84h14.82a3.84,3.84,0,0,0,3.84-3.84V100.05q8.22-.36,16.4-1.25A31.44,31.44,0,0,0,307.76,122.21Z"/><path class="cls-2" d="M306.56,73.45c17.89,46.77,5.32,121.22-2.2,165.72-2.6,15.38-4.65,27.53-4.47,32.81.77,21.44-7.33,145.57-7.67,150.85a3.86,3.86,0,0,1-2.41,3.31,39.91,39.91,0,0,1-29.72,0,3.84,3.84,0,0,1-2.41-3.41L252.3,283c0-.16,0-.32,0-.48,1.61-18.92-.23-56.93-2.31-88.32-2.08,31.39-3.93,69.41-2.32,88.32a2.57,2.57,0,0,1,0,.48l-5.37,139.72a3.83,3.83,0,0,1-2.41,3.41,39.87,39.87,0,0,1-29.72,0,3.83,3.83,0,0,1-2.4-3.31c-.35-5.28-8.45-129.41-7.69-150.85.2-5.28-1.86-17.43-4.46-32.81-7.51-44.5-20.09-118.95-2.19-165.72a3.82,3.82,0,0,1,4.45-2.36,232,232,0,0,0,104.2,0A3.84,3.84,0,0,1,306.56,73.45Zm-9.77,164.44c5.18-30.71,12.83-75.94,11-115.68A31.44,31.44,0,0,1,277.65,98.8q-8.17.89-16.4,1.25v26.38a3.84,3.84,0,0,1-3.84,3.84H242.59a3.83,3.83,0,0,1-3.83-3.84V100.05q-8.23-.36-16.42-1.25a31.42,31.42,0,0,1-30.11,23.41c-1.85,39.74,5.79,85,11,115.68,2.77,16.43,4.78,28.3,4.56,34.36-.6,16.79,4.58,101.32,6.75,135.61a86.36,86.36,0,0,0,20.7-.18L240,283c-3-36.2,5.79-135.17,6.17-139.38a3.84,3.84,0,0,1,7.64,0C254.2,147.78,263,246.75,260,283l4.8,124.73a86.36,86.36,0,0,0,20.7.18c2.17-34.29,7.34-118.82,6.74-135.61C292,266.19,294,254.32,296.79,237.89Zm10.47-123.37a173.86,173.86,0,0,0-2.73-20.06c-6.34,1.38-12.74,2.5-19.17,3.4A23.73,23.73,0,0,0,307.26,114.52ZM302.81,87c-.69-2.63-1.44-5.19-2.3-7.67a239.9,239.9,0,0,1-101,0c-.85,2.48-1.61,5-2.3,7.67A251.37,251.37,0,0,0,302.81,87ZM284.72,419.82c.06-1.09.16-2.51.26-4.2-3,.3-6.1.47-9.15.47a94.38,94.38,0,0,1-10.75-.63l.17,4.38A32.19,32.19,0,0,0,284.72,419.82ZM253.57,122.59V100.27q-1.78,0-3.57,0t-3.57,0v22.32ZM234.75,419.84l.17-4.38a94.21,94.21,0,0,1-10.74.63c-3.07,0-6.12-.17-9.17-.47.11,1.69.2,3.11.27,4.2A32.19,32.19,0,0,0,234.75,419.84Zm-42-305.32a23.72,23.72,0,0,0,21.89-16.66c-6.42-.9-12.82-2-19.16-3.4A171.7,171.7,0,0,0,192.74,114.52Z"/><path class="cls-3" d="M304.53,94.46a173.86,173.86,0,0,1,2.73,20.06,23.73,23.73,0,0,1-21.9-16.66C291.79,97,298.19,95.84,304.53,94.46Z"/><path class="cls-3" d="M300.51,79.31c.86,2.48,1.61,5,2.3,7.67a251.37,251.37,0,0,1-105.62,0c.69-2.63,1.45-5.19,2.3-7.67A239.9,239.9,0,0,0,300.51,79.31Z"/><path class="cls-3" d="M285,415.62c-.1,1.69-.2,3.11-.26,4.2a32.19,32.19,0,0,1-19.47,0l-.17-4.38a94.38,94.38,0,0,0,10.75.63C278.88,416.09,281.94,415.92,285,415.62Z"/><path class="cls-3" d="M253.57,100.27v22.32h-7.14V100.27q1.78,0,3.57,0T253.57,100.27Z"/><path class="cls-3" d="M234.92,415.46l-.17,4.38a32.19,32.19,0,0,1-19.47,0c-.07-1.09-.16-2.51-.27-4.2,3.05.3,6.1.47,9.17.47A94.21,94.21,0,0,0,234.92,415.46Z"/><path class="cls-3" d="M214.63,97.86a23.72,23.72,0,0,1-21.89,16.66,171.7,171.7,0,0,1,2.73-20.06C201.81,95.84,208.21,97,214.63,97.86Z"/></g></svg>