<svg xmlns="http://www.w3.org/2000/svg" viewBox="0 0 500 500"><defs><style>.cls-1{fill:#c5bca5;}.cls-2{fill:#a99c83;}.cls-3{fill:#cae6dc;}.cls-4{fill:#3f352f;}</style></defs><g id="레이어_3" data-name="레이어 3"><path class="cls-1" d="M176.38,132.7c-.34,6.37-.66,13.31-1,20.91L184.17,430h18V87.06H192C191,115.13,180.29,128.66,176.38,132.7Z"/><path class="cls-1" d="M222.89,87.77a4.46,4.46,0,1,1-8.92,0v-.71H211V430h18.39l8.75-217.63c0-1.18,1.21-28.34,7.35-41.54V87.06H222.89Z"/><path class="cls-2" d="M214,70.05H181.6c-.29,1.79-.67,4.4-1.1,8.09H214Z"/><path class="cls-3" d="M179.55,87.06c-.65,6.83-1.38,15.79-2.12,27.42,2.7-6.34,5.16-15.3,5.65-27.42Z"/><rect class="cls-2" x="222.89" y="70.05" width="22.64" height="8.09"/><rect class="cls-2" x="254.47" y="70.05" width="22.64" height="8.09"/><path class="cls-1" d="M308,87.06H297.88V430h17.95l8.78-276.34c-.32-7.6-.65-14.54-1-20.91C319.71,128.66,309,115.13,308,87.06Z"/><path class="cls-3" d="M322.57,114.46c-.74-11.62-1.47-20.57-2.13-27.4h-3.51C317.42,99.17,319.87,108.12,322.57,114.46Z"/><path class="cls-1" d="M286,87.77a4.46,4.46,0,1,1-8.92,0v-.71h-9.25v42c0,8.93-2.28,15.68-6.76,20.07a17.07,17.07,0,0,1-6.63,4v17.6c6.14,13.2,7.3,40.36,7.35,41.54L270.57,430H289V87.06H286Z"/><path class="cls-2" d="M318.4,70.05H286v8.09H319.5C319.06,74.46,318.69,71.84,318.4,70.05Z"/><path class="cls-2" d="M258.94,129.07v-42h-4.47v56.07C256.71,141.16,258.94,137.17,258.94,129.07Z"/><path class="cls-4" d="M322.09,61.13H177.91a4.47,4.47,0,0,0-4.32,3.33c-.16.62-4,16-7.12,88.93,0,.11,8.92,281.16,8.92,281.16a4.46,4.46,0,0,0,4.46,4.32h53.86a4.46,4.46,0,0,0,4.46-4.28l8.93-221.91A193.63,193.63,0,0,1,250,187.1a193.63,193.63,0,0,1,2.9,25.58l8.93,221.91a4.46,4.46,0,0,0,4.46,4.28h53.86a4.46,4.46,0,0,0,4.46-4.32s8.92-281,8.92-281.16c-3.09-72.9-7-88.31-7.12-88.93A4.47,4.47,0,0,0,322.09,61.13ZM181.6,70.05H214v8.09H180.5C180.93,74.45,181.31,71.84,181.6,70.05Zm-2,17h3.53c-.49,12.12-3,21.08-5.65,27.42C178.17,102.85,178.9,93.89,179.55,87.06ZM202.12,430h-18l-8.78-276.34c.33-7.6.65-14.54,1-20.91,3.91-4,14.58-17.57,15.62-45.64h10.12Zm43.41-259.17c-6.14,13.2-7.3,40.36-7.35,41.54L229.43,430H211V87.06H214v.71a4.46,4.46,0,1,0,8.92,0v-.71h22.64Zm0-92.64H222.89V70.05h22.64Zm77,36.32c-2.7-6.34-5.15-15.29-5.64-27.4h3.51C321.1,93.89,321.83,102.84,322.57,114.46ZM286,70.05H318.4c.29,1.79.66,4.41,1.1,8.09H286Zm-31.56,0h22.64v8.09H254.47Zm0,17h4.47v42c0,8.1-2.23,12.09-4.47,14.06ZM289,430H270.57l-8.75-217.63c-.05-1.18-1.21-28.34-7.35-41.54v-17.6a17.07,17.07,0,0,0,6.63-4c4.48-4.39,6.76-11.14,6.76-20.07v-42h9.25v.71a4.46,4.46,0,1,0,8.92,0v-.71H289Zm26.87,0H297.88V87.06H308c1,28.07,11.71,41.6,15.62,45.64.34,6.37.67,13.31,1,20.91Z"/></g></svg>