<svg xmlns="http://www.w3.org/2000/svg" viewBox="0 0 500 500"><defs><style>.cls-1{fill:#8bb4c8;}.cls-2{fill:#cae6dc;}.cls-3{fill:#a8d6c6;}.cls-4{fill:#3f352f;}</style></defs><g id="레이어_3" data-name="레이어 3"><rect class="cls-1" x="226.1" y="91.37" width="19.97" height="7.13"/><path class="cls-2" d="M226.1,107a3.94,3.94,0,0,1-7.87,0v-.63h-11c-.62,10.36-3.73,18.24-9.3,23.41a23.14,23.14,0,0,1-12.26,5.91c-.49,8.32-1,18-1.47,29.36l5.41,243.59h44.54l5.4-191.8c0-1.09,1.07-25.05,6.49-36.68V106.36h-20Z"/><path class="cls-3" d="M199.39,106.36H187.9c-.53,5.43-1.1,12.37-1.69,21.19a15.09,15.09,0,0,0,6.5-3.63C196.61,120.23,198.85,114.32,199.39,106.36Z"/><path class="cls-3" d="M307.59,124a15.26,15.26,0,0,0,6.44,3.55c-.5-9.48-.94-16.23-1.35-21.2H300.8C301.35,114.39,303.62,120.32,307.59,124Z"/><path class="cls-1" d="M218.23,91.37H189.7c-.26,1.57-.59,3.88-1,7.12h29.5Z"/><path class="cls-1" d="M256,97.71a3.91,3.91,0,0,1,0-5.56,3.77,3.77,0,0,1,1.15-.78h-3.24v7.12h3.24A3.77,3.77,0,0,1,256,97.71Z"/><path class="cls-1" d="M310.54,91.37H281.77v7.12h30.11A52.41,52.41,0,0,0,310.54,91.37Z"/><path class="cls-2" d="M302.23,129.77c-5.57-5.17-8.69-13-9.3-23.41H281.77V107a3.94,3.94,0,0,1-7.87,0v-.63h-8.16v37c0,7.88-2,13.83-6,17.7a14.81,14.81,0,0,1-5.85,3.55v15.51c5.42,11.63,6.45,35.59,6.49,36.63l5.4,191.85h44.54L315.78,165c-.5-11.65-.94-21.31-1.33-29.37A23.2,23.2,0,0,1,302.23,129.77Z"/><path class="cls-1" d="M262.73,94.93a4,4,0,0,1-1.15,2.78,3.77,3.77,0,0,1-1.15.78H273.9V91.37H260.43a3.9,3.9,0,0,1,1.15.78A4,4,0,0,1,262.73,94.93Z"/><path class="cls-3" d="M257.88,143.39v-37h-3.95v49.42C255.91,154.05,257.88,150.54,257.88,143.39Z"/><path class="cls-4" d="M313.56,83.5H186.44a3.93,3.93,0,0,0-3.8,2.93c-.14.55-3.56,14.14-6.28,78.41,0,.08,5.51,247.81,5.51,247.81a3.93,3.93,0,0,0,3.93,3.85H238a3.93,3.93,0,0,0,3.93-3.82l5.51-195.58A171.94,171.94,0,0,1,250,194.53a170.17,170.17,0,0,1,2.56,22.52l5.51,195.63A3.93,3.93,0,0,0,262,416.5h52.2a3.94,3.94,0,0,0,3.94-3.85s5.5-247.73,5.5-247.81c-.76-65.68-6.14-77.89-6.28-78.41A3.92,3.92,0,0,0,313.56,83.5ZM189.7,91.37h28.53v7.12h-29.5C189.11,95.25,189.44,92.94,189.7,91.37Zm-1.8,15h11.49c-.54,8-2.78,13.87-6.68,17.56a15.09,15.09,0,0,1-6.5,3.63C186.8,118.73,187.37,111.79,187.9,106.36Zm58.17,73.79c-5.42,11.63-6.45,35.59-6.49,36.68l-5.4,191.8H189.64L184.23,165c.48-11.33,1-21,1.47-29.36A23.14,23.14,0,0,0,198,129.77c5.57-5.17,8.68-13.05,9.3-23.41h11V107a3.94,3.94,0,0,0,7.87,0v-.63h20Zm0-81.66h-20V91.37h20Zm68,29.07a15.26,15.26,0,0,1-6.44-3.55c-4-3.69-6.24-9.62-6.79-17.65h11.88C313.09,111.33,313.53,118.08,314,127.56ZM281.77,91.37h28.77a52.41,52.41,0,0,1,1.34,7.12H281.77Zm-7.87,0v7.12H260.43a3.77,3.77,0,0,0,1.15-.78,3.94,3.94,0,0,0,0-5.56,3.9,3.9,0,0,0-1.15-.78Zm-20,0h3.24a3.77,3.77,0,0,0-1.15.78,3.91,3.91,0,0,0,0,5.56,3.77,3.77,0,0,0,1.15.78h-3.24Zm0,15h3.95v37c0,7.15-2,10.66-3.95,12.39Zm56.43,302.27H265.82l-5.4-191.85c0-1-1.07-25-6.49-36.63V164.64a14.81,14.81,0,0,0,5.85-3.55c4-3.87,6-9.82,6-17.7v-37h8.16V107a3.94,3.94,0,0,0,7.87,0v-.63h11.16c.61,10.37,3.73,18.24,9.3,23.41a23.2,23.2,0,0,0,12.22,5.9c.39,8.06.83,17.72,1.33,29.37Z"/></g></svg>