<svg xmlns="http://www.w3.org/2000/svg" viewBox="0 0 500 500"><defs><style>.cls-1{fill:#e0d080;}.cls-2{fill:#a99c83;}.cls-3{fill:#3f352f;}</style></defs><g id="레이어_3" data-name="레이어 3"><path class="cls-1" d="M200.73,175.72H178.11c-.21,15.32-.05,32.75.21,50h22.41Z"/><path class="cls-1" d="M184.48,414.32c.18,1.66.33,3.08.45,4.21a96.19,96.19,0,0,0,19.57,1.87,132.33,132.33,0,0,0,22.33-2c.07-1.19.17-2.69.28-4.45a158.62,158.62,0,0,1-23.34,1.8A118,118,0,0,1,184.48,414.32Z"/><path class="cls-2" d="M180.27,105.23l19.52-14a4.42,4.42,0,0,1,3.4-.77l13.49,2.43a4.45,4.45,0,0,1,3.48,5.69c-8.43,27.62-30.77,32.48-40.55,33.26-.14,4.89-.33,10.05-.61,15.51h26.06a4.46,4.46,0,0,1,4.46,4.46v78.43a4.46,4.46,0,0,1-4.46,4.46H178.33c.07,4.24.15,8.44.22,12.57.46,26.42.9,51.38.2,65.52-1.24,25.12,2.47,68.61,4.8,92.33,6.15,1.21,21.85,3.37,44.11-.18,1.92-31.86,5.82-101.44,6.31-146.58.57-53.21,10.41-100.84,11.55-106.16V90c-27.46-.53-53.67-5.77-63.23-7.89A178.51,178.51,0,0,0,180.27,105.23Z"/><path class="cls-2" d="M184.17,73.37c9.18,2,35,7.16,61.35,7.7V70.6c-29.94-.42-49.92-5-57.94-7.25A76.32,76.32,0,0,0,184.17,73.37Z"/><path class="cls-1" d="M209.91,100.68l-6.44-1.15L180,116.44c0,1-.11,5.32-.14,6.45C187.22,122.23,202.33,118.62,209.91,100.68Z"/><path class="cls-1" d="M200.6,156.22H178.53c-.16,3.33-.29,6.87-.38,10.58H200.6Z"/><path class="cls-2" d="M312.38,63.35c-8,2.23-28,6.83-57.94,7.25V81.07c26.4-.54,52.17-5.68,61.35-7.7A76.32,76.32,0,0,0,312.38,63.35Z"/><path class="cls-1" d="M299.36,166.8h22.45c-.1-3.71-.22-7.25-.38-10.58H299.36Z"/><path class="cls-2" d="M321.63,234.65H294.9a4.45,4.45,0,0,1-4.46-4.46V151.76a4.45,4.45,0,0,1,4.46-4.46H321c-.27-5.46-.46-10.62-.6-15.51-9.78-.78-32.12-5.64-40.55-33.26a4.46,4.46,0,0,1,3.47-5.69l13.5-2.43a4.43,4.43,0,0,1,3.4.77l19.52,14a178.51,178.51,0,0,0-2-23.12c-9.56,2.12-35.77,7.36-63.23,7.89v62.15c1.14,5.32,11,52.95,11.55,106.16.49,45.14,4.39,114.72,6.31,146.58,22.26,3.55,38,1.39,44.11.18,2.32-23.72,6-67.21,4.8-92.33-.7-14.14-.26-39.1.2-65.52C321.48,243.09,321.56,238.89,321.63,234.65Z"/><path class="cls-1" d="M299.36,175.72v50h22.41c.26-17.26.42-34.69.21-50Z"/><path class="cls-1" d="M290.05,100.69c4,9.57,10.63,16.19,19.7,19.72a38.77,38.77,0,0,0,10.38,2.45c0-1.13-.11-5.4-.13-6.42L296.49,99.53Z"/><path class="cls-1" d="M272.85,414c.11,1.76.21,3.26.28,4.45a132.33,132.33,0,0,0,22.33,2h0A96.19,96.19,0,0,0,315,418.53c.12-1.13.27-2.55.44-4.21a117.79,117.79,0,0,1-19.29,1.47A158.5,158.5,0,0,1,272.85,414Z"/><path class="cls-3" d="M318.85,56a4.62,4.62,0,0,0-5.49-2.27c-.23.08-23.29,8-63.38,8-39.93,0-63.15-7.9-63.38-8A4.56,4.56,0,0,0,181.11,56c-16.18,29.76-10.23,152.61-11.48,191.38-.85,26.26.89,51.08.21,64.93-1.79,36.34,6.23,107.35,6.57,110.36a4.47,4.47,0,0,0,3.34,3.82,101.14,101.14,0,0,0,24.75,2.83,141.41,141.41,0,0,0,19.77-1.43l-3.1,8.65a4.46,4.46,0,0,0,8.4,3l2-5.7,4.73,10.1a4.46,4.46,0,0,0,8.08-3.79l-8.83-18.86c.73-11.43,6.69-106.25,7.3-162.89A573.21,573.21,0,0,1,250,177.62a573.21,573.21,0,0,1,7.09,80.79c.61,56.64,6.57,151.46,7.3,162.89l-8.83,18.86a4.46,4.46,0,1,0,8.08,3.79l4.73-10.1,2,5.7a4.46,4.46,0,0,0,8.4-3l-3.09-8.65a141.41,141.41,0,0,0,19.77,1.43h0a101.14,101.14,0,0,0,24.75-2.83,4.47,4.47,0,0,0,3.34-3.82c.34-3,8.36-74,6.57-110.36-.68-13.85,1.11-38.67.21-64.93C329.13,211.88,335.67,84.86,318.85,56ZM180,116.44l23.51-16.91,6.44,1.15c-7.58,17.94-22.69,21.55-30.09,22.21C179.85,121.76,179.94,117.46,180,116.44Zm-1.43,39.78H200.6V166.8H178.15C178.24,163.09,178.37,159.55,178.53,156.22Zm-.55,19.5H200.6v50H178.19C177.93,208.47,177.77,191,178,175.72Zm48.85,242.72a132.33,132.33,0,0,1-22.33,2,96.19,96.19,0,0,1-19.57-1.87c-.12-1.13-.27-2.55-.45-4.21a118,118,0,0,0,19.29,1.47,158.62,158.62,0,0,0,23.34-1.8C227,415.75,226.9,417.25,226.83,418.44Zm18.69-266.29c-1.14,5.32-11,52.95-11.55,106.16-.49,45.14-4.39,114.72-6.31,146.58-22.26,3.55-38,1.39-44.11.18-2.33-23.72-6-67.21-4.8-92.33.7-14.14.26-39.1-.2-65.52-.07-4.13-.15-8.33-.22-12.57h26.73a4.46,4.46,0,0,0,4.46-4.46V151.76a4.46,4.46,0,0,0-4.46-4.46H179c.28-5.46.47-10.62.61-15.51,9.78-.78,32.12-5.64,40.55-33.26a4.45,4.45,0,0,0-3.48-5.69l-13.49-2.43a4.42,4.42,0,0,0-3.4.77l-19.52,14a178.51,178.51,0,0,1,2-23.12c9.56,2.12,35.77,7.36,63.23,7.89Zm0-71.08c-26.38-.54-52.17-5.68-61.35-7.7a76.32,76.32,0,0,1,3.41-10c8,2.23,28,6.83,57.94,7.25Zm76.29,85.73H299.36V156.22h22.07C321.59,159.55,321.71,163.09,321.81,166.8Zm-1.68-43.94a38.77,38.77,0,0,1-10.38-2.45c-9.07-3.53-15.68-10.15-19.7-19.72l6.44-1.16L320,116.44C320,117.46,320.11,121.73,320.13,122.86ZM254.44,70.6c29.94-.42,49.92-5,57.94-7.25a76.32,76.32,0,0,1,3.41,10c-9.18,2-35,7.16-61.35,7.7ZM315,418.53a96.19,96.19,0,0,1-19.57,1.87h0a132.33,132.33,0,0,1-22.33-2c-.07-1.19-.17-2.69-.28-4.45a158.5,158.5,0,0,0,23.33,1.8,117.79,117.79,0,0,0,19.29-1.47C315.3,416,315.15,417.4,315,418.53Zm6.18-105.79c1.23,25.12-2.48,68.61-4.8,92.33-6.14,1.21-21.85,3.37-44.11-.18C270.38,373,266.48,303.45,266,258.31c-.57-53.21-10.41-100.84-11.55-106.16V90c27.46-.53,53.67-5.77,63.23-7.89a178.51,178.51,0,0,1,2,23.12l-19.52-14a4.43,4.43,0,0,0-3.4-.77l-13.5,2.43a4.46,4.46,0,0,0-3.47,5.69c8.43,27.62,30.77,32.48,40.55,33.26.14,4.89.33,10.05.6,15.51H294.9a4.45,4.45,0,0,0-4.46,4.46v78.43a4.45,4.45,0,0,0,4.46,4.46h26.73c-.07,4.24-.15,8.44-.22,12.57C321,273.64,320.51,298.6,321.21,312.74Zm.56-87H299.36v-50H322C322.19,191,322,208.47,321.77,225.73Z"/></g></svg>