<svg xmlns="http://www.w3.org/2000/svg" viewBox="0 0 500 500"><defs><style>.cls-1{fill:#c1573f;}.cls-2{fill:#c5bca5;}.cls-3{fill:#a99c83;}.cls-4{fill:#d48c7e;}.cls-5{fill:#3f352f;}</style></defs><g id="레이어_3" data-name="레이어 3"><path class="cls-1" d="M316.76,373.85c0,11.93-8.52,21.63-19,21.63H202.24c-10.48,0-19-9.7-19-21.63v-18H170.49v34.58c0,11.12,7.92,20.17,17.65,20.17H311.86c9.73,0,17.65-9.05,17.65-20.17V355.86H316.76Z"/><path class="cls-2" d="M230.14,113.8c0-8.5,1.69-17.15,4.78-23.43-8.22,2.82-14.22,11.52-14.22,21.79v12.43a79.3,79.3,0,0,1,9.44-3.18Z"/><path class="cls-3" d="M190.22,146h-5.28c-5,0-9.08,4.64-9.08,10.34v9.85A98.15,98.15,0,0,1,190.22,146Z"/><path class="cls-3" d="M253.67,89.39h-7.34c-2,0-4.54,3.11-6.39,8.47h20.12C258.21,92.5,255.65,89.39,253.67,89.39Z"/><path class="cls-3" d="M324.14,166.21v-9.84c0-5.7-4.08-10.34-9.09-10.34h-5.27A98.46,98.46,0,0,1,324.14,166.21Z"/><path class="cls-2" d="M269.86,121.41a79.3,79.3,0,0,1,9.44,3.18V112.16c0-10.27-6-19-14.22-21.79,3.09,6.28,4.78,14.93,4.78,23.43Z"/><path class="cls-4" d="M250,127.19c-43.84,0-79.51,40.61-79.51,90.52V347.47h12.75V325.33h-.79a4,4,0,0,1-3.69-4.2V294a4,4,0,0,1,3.69-4.2h135.1a4,4,0,0,1,3.68,4.2v27.17a4,4,0,0,1-3.68,4.2h-.79v22.14h12.75V217.71C329.51,167.8,293.84,127.19,250,127.19Zm67.55,94.72a4,4,0,0,1-3.69-4.2c0-21.33-8.11-40.54-21-53.85V176.6a3.72,3.72,0,1,1-7.37,0V157.29A58.26,58.26,0,0,0,250,145c-35.22,0-63.86,32.62-63.86,72.71a3.72,3.72,0,1,1-7.38,0c0-44.71,32-81.1,71.24-81.1s71.23,36.39,71.23,81.1A4,4,0,0,1,317.55,221.91Z"/><rect class="cls-3" x="186.14" y="298.15" width="127.73" height="18.78"/><rect class="cls-1" x="237.88" y="342.5" width="24.24" height="9.52"/><path class="cls-2" d="M190.61,325.33v48.52c0,7.3,5.22,13.24,11.63,13.24h95.52c6.41,0,11.63-5.94,11.63-13.24V325.33H298.44v17.61a3.72,3.72,0,1,1-7.37,0V325.33Zm78.88,30.88a4,4,0,0,1-3.68,4.2H234.19a4,4,0,0,1-3.68-4.2V338.3a4,4,0,0,1,3.68-4.2h31.62a4,4,0,0,1,3.68,4.2Z"/><path class="cls-5" d="M265.81,334.1H234.19a4,4,0,0,0-3.68,4.2v17.91a4,4,0,0,0,3.68,4.2h31.62a4,4,0,0,0,3.68-4.2V338.3A4,4,0,0,0,265.81,334.1ZM262.12,352H237.88V342.5h24.24Z"/><path class="cls-5" d="M250,136.61c-39.28,0-71.24,36.39-71.24,81.1a3.72,3.72,0,1,0,7.38,0c0-40.09,28.64-72.71,63.86-72.71a58.26,58.26,0,0,1,35.49,12.29V176.6a3.72,3.72,0,1,0,7.37,0V163.86c12.89,13.31,21,32.52,21,53.85a3.72,3.72,0,1,0,7.37,0C321.23,173,289.28,136.61,250,136.61Z"/><path class="cls-5" d="M331.51,156.37c0-10.33-7.39-18.74-16.46-18.74H300.91a84.67,84.67,0,0,0-14.24-9.57v-15.9C286.67,95,274.39,81,259.31,81H240.69c-15.09,0-27.36,14-27.36,31.16v15.9a85.28,85.28,0,0,0-14.24,9.57H184.94c-9.07,0-16.45,8.41-16.45,18.74v27.14a110.43,110.43,0,0,0-5.37,34.2V390.44c0,15.75,11.22,28.56,25,28.56H311.86c13.8,0,25-12.81,25-28.56V217.71a110.61,110.61,0,0,0-5.37-34.22ZM315.05,146c5,0,9.09,4.64,9.09,10.34v9.84A98.46,98.46,0,0,0,309.78,146ZM279.3,112.16v12.43a79.3,79.3,0,0,0-9.44-3.18V113.8c0-8.5-1.69-17.15-4.78-23.43C273.3,93.19,279.3,101.89,279.3,112.16Zm-33-22.77h7.34c2,0,4.54,3.11,6.39,8.47H239.94C241.79,92.5,244.34,89.39,246.33,89.39ZM262,106.25a55.63,55.63,0,0,1,.5,7.55v6a76.24,76.24,0,0,0-25,0v-6a55.63,55.63,0,0,1,.5-7.55m-17.31,5.91c0-10.27,6-19,14.22-21.79-3.09,6.28-4.78,14.93-4.78,23.43v7.61a79.3,79.3,0,0,0-9.44,3.18Zm-44.84,44.21c0-5.7,4.07-10.34,9.08-10.34h5.28a98.15,98.15,0,0,0-14.36,20.19ZM329.51,390.44c0,11.12-7.92,20.17-17.65,20.17H188.14c-9.73,0-17.65-9.05-17.65-20.17V355.86h12.75v18c0,11.93,8.52,21.63,19,21.63h95.52c10.48,0,19-9.7,19-21.63v-18h12.75Zm-34.76-43.3a4,4,0,0,0,3.69-4.2V325.33h10.95v48.52c0,7.3-5.22,13.24-11.63,13.24H202.24c-6.41,0-11.63-5.94-11.63-13.24V325.33H291.07v17.61A4,4,0,0,0,294.75,347.14Zm-108.61-30.2V298.15H313.86v18.79Zm143.37,30.53H316.76V325.33h.79a4,4,0,0,0,3.68-4.2V294a4,4,0,0,0-3.68-4.2H182.45a4,4,0,0,0-3.69,4.2v27.17a4,4,0,0,0,3.69,4.2h.79v22.14H170.49V217.71c0-49.91,35.67-90.52,79.51-90.52s79.51,40.61,79.51,90.52Z"/></g></svg>