<svg xmlns="http://www.w3.org/2000/svg" viewBox="0 0 500 500"><defs><style>.cls-1{fill:#333;}.cls-2{fill:#eaeaeb;}.cls-3{fill:#646c75;}.cls-4{fill:#828f97;}</style></defs><g id="레이어_3" data-name="레이어 3"><path class="cls-1" d="M408.87,282.71a3.57,3.57,0,0,1-1.52,4c-27.85,18-82.05,27.12-161.24,27.12q-11,0-22.64-.23C155.63,312.2,95.8,305,95.2,305A3.62,3.62,0,0,1,92,301.39V276a3.61,3.61,0,0,1,.9-2.38l2.44-2.75c-2.85-8.77-11.79-42.66,8.88-70.38a3.58,3.58,0,0,1,4.34-1.13c.4.17.89.4,1.48.67,40,18.48,74.09,15.4,98.64-8.89a17.25,17.25,0,0,1,20.81-2.52c1.8,1.06,29,18.31,49.14,31.2,4.26,2.72,18,11.49,21,13.16,8.88,5,16.39,7.78,25.93,8.61,10.48.9,24.45.67,41.37-1.67a29.18,29.18,0,0,1,22.32,6.23,28.64,28.64,0,0,1,10.3,17.73l2.23.45a3.63,3.63,0,0,1,2.77,2.58Zm-7.64-.7-2.75-10.1a1.67,1.67,0,0,0-1.29-1.19,1.62,1.62,0,0,0-1,.1c-44.71,19.24-101,21.11-105.17,21.21a183.86,183.86,0,0,1-20.52,1c-55.81,0-154-15-169.68-17.47l-1.62,1.82v20.84C127.31,301.31,333.28,322.56,401.23,282Zm-8.84-17.37A21.79,21.79,0,0,0,367.92,247c-22.68,3.13-40.05,3.15-51.94.08a7.28,7.28,0,0,1-6.63,8.89c-13.86.89-40.68,3-64.74,7.65-33,6.34-41.38,13.56-43.24,17.71,41.55,4.25,72.07,5.48,89,3.52l.33,0C291.29,284.83,348.34,283.25,392.39,264.64ZM309,248.71l-1-1.3c-8.95-5.95-20.83-13.82-33.19-21.86l-2.49,2.58a3.6,3.6,0,0,1-5.17-5l1.52-1.58-6.1-4-2.59,2.69a3.6,3.6,0,0,1-2.59,1.09,3.6,3.6,0,0,1-2.58-6.09l1.59-1.65-6.13-3.9-2.62,2.7a3.6,3.6,0,1,1-5.17-5l1.56-1.62q-3.18-2-6.18-3.85l-2.55,2.63a3.6,3.6,0,1,1-5.17-5l1.42-1.47c-2-1.19-3.85-2.31-5.6-3.33a10.06,10.06,0,0,0-12.13,1.43c-17.42,17.24-39.12,24.79-64.51,22.45-18.63-1.72-34-8.4-40.91-11.56a58.86,58.86,0,0,0-3.6,6.23c14.15,3.07,58.68,12.52,69.52,12.52,2.6,0,9.16-1.54,23.95-11.85a35.29,35.29,0,0,1,42.41,1.62c25.46,20.93,27.82,24.07,28.59,25.1a3.61,3.61,0,0,1,.6,3,3.56,3.56,0,0,1-2,2.38c-8.08,3.63-20.27,5.07-34.49,5.07-47.25,0-117-15.88-134.18-20-2.6,16.76,1.4,31.93,3,37.15,8.27,1.29,39.41,6,74.7,10.2q8.85,1,17.17,1.94c2.51-10.27,18.66-18.14,49.21-24,24.44-4.68,51.61-6.87,65.62-7.77A.11.11,0,0,0,309,248.71Zm-49.16-7.32c-3.58-3.29-10.47-9.28-23.74-20.19a28.05,28.05,0,0,0-33.74-1.27c-12.69,8.84-21.86,13.13-28.06,13.13-12.06,0-59.65-10.19-72.36-13-.47,1.38-.9,2.76-1.28,4.14,9.49,2.25,37,8.53,67.27,13.4C211.72,244.7,243.24,246,259.81,241.39Z"/><path class="cls-2" d="M398.48,271.91l2.75,10.1c-68,40.55-273.92,19.3-302,16.17V277.34l1.62-1.82C116.49,278,214.72,293,270.53,293a183.86,183.86,0,0,0,20.52-1c4.16-.1,60.46-2,105.17-21.21a1.62,1.62,0,0,1,1-.1A1.67,1.67,0,0,1,398.48,271.91Z"/><path class="cls-3" d="M384.72,251.7a21.53,21.53,0,0,1,7.67,12.94c-44.05,18.61-101.1,20.19-101.68,20.21l-.33,0c-16.94,2-47.46.73-89-3.52,1.86-4.15,10.2-11.37,43.24-17.71,24.06-4.61,50.88-6.76,64.74-7.65A7.28,7.28,0,0,0,316,247.1c11.89,3.07,29.26,3.05,51.94-.08A21.63,21.63,0,0,1,384.72,251.7Zm-61.08,11.09a3.6,3.6,0,1,0-6.14,2.55,3.61,3.61,0,0,0,5.09,0A3.63,3.63,0,0,0,323.64,262.79Zm-20.06,4.75a3.6,3.6,0,1,0-.38,0A2.48,2.48,0,0,0,303.58,267.54ZM287,269.71a3.67,3.67,0,1,0-.54,0A4.89,4.89,0,0,0,287,269.71Zm-16.58,2.76a3.58,3.58,0,1,0-.65.06A3.49,3.49,0,0,0,270.38,272.47Zm-16.53,3.19a3.56,3.56,0,1,0-.72.08A3.53,3.53,0,0,0,253.85,275.66Zm-13.64.08a3.6,3.6,0,1,0-1.06,2.54A3.61,3.61,0,0,0,240.21,275.74Z"/><path class="cls-1" d="M322.59,260.25a3.61,3.61,0,0,1,0,5.09,3.61,3.61,0,0,1-5.09,0,3.6,3.6,0,1,1,5.09-5.09Z"/><path class="cls-4" d="M307.94,247.41l1,1.3a.11.11,0,0,1-.09.1c-14,.9-41.18,3.09-65.62,7.77-30.55,5.86-46.7,13.73-49.21,24q-8.33-.88-17.17-1.94c-35.29-4.17-66.43-8.91-74.7-10.2-1.64-5.22-5.64-20.39-3-37.15,17.14,4.07,86.93,20,134.18,20,14.22,0,26.41-1.44,34.49-5.07a3.56,3.56,0,0,0,2-2.38,3.61,3.61,0,0,0-.6-3c-.77-1-3.13-4.17-28.59-25.1A35.29,35.29,0,0,0,198.22,214c-14.79,10.31-21.35,11.85-23.95,11.85-10.84,0-55.37-9.45-69.52-12.52a58.86,58.86,0,0,1,3.6-6.23c6.9,3.16,22.28,9.84,40.91,11.56,25.39,2.34,47.09-5.21,64.51-22.45a10.06,10.06,0,0,1,12.13-1.43c1.75,1,3.63,2.14,5.6,3.33l-1.42,1.47a3.6,3.6,0,1,0,5.17,5L237.8,202q3,1.84,6.18,3.85l-1.56,1.62a3.6,3.6,0,1,0,5.17,5l2.62-2.7,6.13,3.9-1.59,1.65a3.6,3.6,0,0,0,5.17,5l2.59-2.69,6.1,4-1.52,1.58a3.6,3.6,0,1,0,5.17,5l2.49-2.58C287.11,233.59,299,241.46,307.94,247.41Z"/><path class="cls-1" d="M306.78,263.59a3.6,3.6,0,0,1-3.2,4,2.48,2.48,0,0,1-.38,0,3.6,3.6,0,1,1,3.58-4Z"/><path class="cls-1" d="M290,265.62a3.6,3.6,0,0,1-3,4.09,4.89,4.89,0,0,1-.54,0,3.59,3.59,0,1,1,3.56-4.12Z"/><path class="cls-1" d="M273.28,268.29a3.59,3.59,0,0,1-2.9,4.18,3.49,3.49,0,0,1-.65.06,3.6,3.6,0,1,1,3.55-4.24Z"/><path class="cls-1" d="M256.66,271.42a3.59,3.59,0,0,1-2.81,4.24,3.53,3.53,0,0,1-.72.08,3.6,3.6,0,1,1,3.53-4.32Z"/><path class="cls-3" d="M236.07,221.2c13.27,10.91,20.16,16.9,23.74,20.19-16.57,4.58-48.09,3.31-91.91-3.75-30.24-4.87-57.78-11.15-67.27-13.4.38-1.38.81-2.76,1.28-4.14,12.71,2.77,60.3,13,72.36,13,6.2,0,15.37-4.29,28.06-13.13A28.05,28.05,0,0,1,236.07,221.2Z"/><path class="cls-1" d="M239.15,273.2a3.57,3.57,0,1,1-2.54-1.06A3.61,3.61,0,0,1,239.15,273.2Z"/></g></svg>