<svg xmlns="http://www.w3.org/2000/svg" viewBox="0 0 500 500"><defs><style>.cls-1{fill:#d8b241;}.cls-2{fill:#e0d080;}.cls-3{fill:#3f352f;}</style></defs><g id="레이어_3" data-name="레이어 3"><path class="cls-1" d="M123.09,286.84c-6.73,0-12.2-2-16.29-5.92.81,3.78,2.09,7.11,4,9.28a6.8,6.8,0,0,0,5.39,2.44H248.83c.4,0,15.71-.06,36.52-1.78a348.07,348.07,0,0,1-37.47-4Z"/><path class="cls-2" d="M389.85,248.17a31,31,0,0,1-6.51,3,3.32,3.32,0,0,1-1.15.2,3.55,3.55,0,0,1-2.56-6l-2.69-.15c-19.84-1.1-71.28-4-121.18-34.67a30.67,30.67,0,0,1-2.32,8.51c-2,4.8-2.31,9.74-.76,13.22a10.79,10.79,0,0,0,6.49,5.64l12.52-13.13a3.56,3.56,0,0,1,5.15,4.91L256.7,250.83a3.52,3.52,0,0,1-2.57,1.11,3.56,3.56,0,0,1-2.58-6l1.43-1.5c-21.29-2.41-102.47-12.32-139.09-27.12-2,4.72-5.91,16.22-7.72,38,0,0-.82,12.45,4.77,19.71,2.6,3.38,6.81,4.74,12.15,4.74,0,0,125.52,0,125.73,0a334.8,334.8,0,0,0,52.63,4.41,195.42,195.42,0,0,0,35.45-2.9c22.89-4.28,37.25-9.34,45.88-14a58.9,58.9,0,0,0,8.69-6.37c.09-.09,3.28-2.88,2.74-5.95A11.79,11.79,0,0,0,389.85,248.17ZM173,240.87a3.55,3.55,0,0,1-3.49,2.9c-2.3,0-45.25-9.86-45.4-9.91A3.56,3.56,0,1,1,126,227c.16.05,16.06,4.48,44.13,9.71A3.55,3.55,0,0,1,173,240.87Zm63.24,9.35a3.56,3.56,0,0,1-3.53,3.13c-1.4,0-35.9-4.73-52.71-7.64a3.56,3.56,0,0,1,1.21-7c16.69,2.89,34.16,5.44,51.92,7.56A3.57,3.57,0,0,1,236.24,250.22Zm45.62-4.39a3.55,3.55,0,0,1-3.51,3c-.18,0-8.92-1.41-9.05-1.43a3.56,3.56,0,1,1,1.25-7s3.17.56,8.34,1.36A3.56,3.56,0,0,1,281.86,245.83Zm29.64,3.72a3.56,3.56,0,0,1-3.53,3.18c-.13,0-10.26-1.14-15.3-1.81a3.55,3.55,0,1,1,.92-7c5,.66,10,1.25,14.75,1.76A3.55,3.55,0,0,1,311.5,249.55ZM337.75,255c-.05,0-9.94-.49-15.19-.9a3.56,3.56,0,0,1,.55-7.09c5.17.4,10.14.7,14.78.88a3.56,3.56,0,0,1-.14,7.11Zm30.23-.67c-4.52.5-15.28.88-15.3.88a3.56,3.56,0,0,1-.05-7.11c5.37-.08,10.27-.37,14.57-.84a3.56,3.56,0,0,1,.78,7.07Z"/><path class="cls-3" d="M233.13,246.26c-17.76-2.12-35.23-4.67-51.92-7.56a3.56,3.56,0,0,0-1.21,7c16.81,2.91,51.31,7.64,52.71,7.64a3.56,3.56,0,0,0,.42-7.09Z"/><path class="cls-3" d="M170.16,236.72c-28.07-5.23-44-9.66-44.13-9.71a3.56,3.56,0,1,0-1.92,6.85c.15,0,43.1,9.91,45.4,9.91a3.56,3.56,0,0,0,.65-7.05Z"/><path class="cls-3" d="M278.89,241.77c-5.17-.8-8.31-1.36-8.34-1.36a3.56,3.56,0,1,0-1.25,7c.13,0,8.87,1.43,9.05,1.43a3.56,3.56,0,0,0,.54-7.07Z"/><path class="cls-3" d="M367.2,247.26c-4.3.47-9.2.76-14.57.84a3.56,3.56,0,0,0,.05,7.11s10.78-.38,15.3-.88a3.56,3.56,0,0,0-.78-7.07Z"/><path class="cls-3" d="M337.89,247.89c-4.64-.18-9.61-.48-14.78-.88a3.56,3.56,0,0,0-.55,7.09c5.25.41,15.14.9,15.19.9a3.56,3.56,0,0,0,.14-7.11Z"/><path class="cls-3" d="M308.34,245.63c-4.79-.51-9.76-1.1-14.75-1.76a3.55,3.55,0,1,0-.92,7c5,.67,15.17,1.81,15.3,1.81a3.56,3.56,0,0,0,.37-7.1Z"/><path class="cls-3" d="M383.9,238.57c-1.55-.17-3.76-.29-6.57-.44-20.09-1.12-73.47-4.08-123.55-37.28a3.57,3.57,0,0,0-4.19.15,3.52,3.52,0,0,0-1.12,4c.05.17,1.37,4.31-1.58,11.29-2.83,6.68-3.08,13.57-.71,18.89.21.46.44.91.68,1.35-28.92-3.5-102.6-13.42-133.22-27.06a3.55,3.55,0,0,0-4.42,1.3c-.3.46-7.45,11.67-10.14,43.85,0,.2-3.06,29.66,6.43,40.3a14,14,0,0,0,10.7,4.82H248.83c4.15,0,94.78-.33,137.69-26.45,10.81-5.91,16-12.58,14.69-19.62A19.35,19.35,0,0,0,383.9,238.57ZM248.83,292.64H116.21a6.8,6.8,0,0,1-5.39-2.44c-1.93-2.17-3.21-5.5-4-9.28,4.09,3.93,9.56,5.92,16.29,5.92H247.88a348.07,348.07,0,0,0,37.47,4C264.54,292.58,249.23,292.64,248.83,292.64ZM391.47,260.9a58.9,58.9,0,0,1-8.69,6.37c-8.63,4.68-23,9.74-45.88,14a195.42,195.42,0,0,1-35.45,2.9,334.8,334.8,0,0,1-52.63-4.41c-.21,0-125.73,0-125.73,0-5.34,0-9.55-1.36-12.15-4.74-5.59-7.26-4.78-19.67-4.77-19.71,1.81-21.75,5.69-33.25,7.72-38C150.51,232.11,231.69,242,253,244.43l-1.43,1.5a3.56,3.56,0,0,0,2.58,6,3.52,3.52,0,0,0,2.57-1.11l20.14-21.12a3.56,3.56,0,0,0-5.15-4.91l-12.52,13.13a10.79,10.79,0,0,1-6.49-5.64c-1.55-3.48-1.27-8.42.76-13.22a30.67,30.67,0,0,0,2.32-8.51c49.9,30.71,101.34,33.57,121.18,34.67l2.69.15a3.55,3.55,0,0,0,2.56,6,3.32,3.32,0,0,0,1.15-.2,31,31,0,0,0,6.51-3,11.79,11.79,0,0,1,4.36,6.78C394.75,258,391.56,260.81,391.47,260.9Z"/></g></svg>