<svg xmlns="http://www.w3.org/2000/svg" viewBox="0 0 500 500"><defs><style>.cls-1{fill:#d48c7e;}.cls-2{fill:#a8d6c6;}.cls-3{fill:#a99c83;}.cls-4{fill:#3f352f;}</style></defs><g id="레이어_3" data-name="레이어 3"><path class="cls-1" d="M245,246.64c-72.06-8.76-111.73-20.85-123.5-24.84-1.71,6.77-5.57,21.59-9.71,34.93a84.74,84.74,0,0,0-3.23,20l122.07,3.15Z"/><path class="cls-2" d="M388.53,274.9c-9.38-10.37-30.55-17.38-49.47-23.65-11.33-3.75-22-7.29-30.09-11.4-18.15-9.25-36.71-18.17-44-21.67l-26.74,61.91S334,283.86,388.53,274.9Z"/><path class="cls-3" d="M238.51,287.08,107.89,283.7a24.57,24.57,0,0,0-.17,6.39l110,2.72c1.39.05,134.48,4.19,174.52-6.18a23.5,23.5,0,0,0-.24-5.28C347.9,288.44,307.26,288.34,238.51,287.08Z"/><path class="cls-4" d="M341.25,244.63c-11.07-3.66-21.52-7.12-29.11-11-23.28-11.87-47.24-23.2-47.48-23.31A3.49,3.49,0,0,0,260,212s0,.07,0,.11h0l-12,27.86c-78-9.34-119.11-23-126.4-25.56l-7.17-13.26a3.49,3.49,0,0,0-6.14,3.32l7.16,13.23c-1.19,4.77-5.51,21.84-10.21,37a94,94,0,0,0-3.63,25.06c-.45,1.89-1.85,8.88,0,14.84a3.5,3.5,0,0,0,3.24,2.44l112.75,2.79c2.46.08,28.79.9,61.05.9,42.83,0,96.13-1.45,117.89-8a3.49,3.49,0,0,0,2.44-2.74c.05-.32,1.61-9.52-1.42-14.48C388.58,260.83,364.8,252.43,341.25,244.63Zm-76.32-26.45c7.33,3.5,25.89,12.42,44,21.67,8.07,4.11,18.76,7.65,30.09,11.4,18.92,6.27,40.09,13.28,49.47,23.65-54.52,9-150.34,5.19-150.34,5.19Zm-153.1,38.55c4.14-13.34,8-28.16,9.71-34.93,11.77,4,51.44,16.08,123.5,24.84l-14.37,33.25L108.6,276.74A84.74,84.74,0,0,1,111.83,256.73Zm280.45,29.9c-40,10.37-173.13,6.23-174.52,6.18l-110-2.72a24.57,24.57,0,0,1,.17-6.39l130.62,3.38c68.75,1.26,109.39,1.36,153.53-5.73A23.5,23.5,0,0,1,392.28,286.63Z"/></g></svg>