<svg xmlns="http://www.w3.org/2000/svg" viewBox="0 0 500 500"><defs><style>.cls-1{fill:#a8d6c6;}.cls-2{fill:#8bb4c8;}.cls-3{fill:#cae6dc;}.cls-4{fill:#3f352f;}</style></defs><g id="레이어_3" data-name="레이어 3"><path class="cls-1" d="M264.68,252c-10.14-.91-17.61,1-22.2,5.61-4.07,4.11-5.06,9.64-5.25,12.91,23.9,1.74,48,2,59.77,2,10.68,0,20.65-.18,28.83-.52,43.2-1.82,58.91-5.58,64.56-7.83-11.35-4.27-42.44-14.44-64-21.33C319.24,252.37,299.89,255.2,264.68,252Z"/><path class="cls-2" d="M161.86,264.12c18.4.73,36,1.73,44.35,3.05,7.43,1.17,15.58,2.09,23.92,2.81.28-4.43,1.68-11.63,7.24-17.28,6.15-6.26,15.55-8.87,27.95-7.75,35,3.14,49-.52,54.19-5.1-4.43-2.32-12.45-6.51-21.79-11.3a14.45,14.45,0,0,0-11.72,6.9,3.56,3.56,0,0,1-6.36-3.19,21.13,21.13,0,0,1,8.84-8.43c-3.14-1.6-6.33-3.22-9.52-4.82-6.32-.2-10.33,6.48-10.37,6.55a3.57,3.57,0,0,1-3.08,1.76,3.61,3.61,0,0,1-1.78-.48,3.56,3.56,0,0,1-1.3-4.84,23.71,23.71,0,0,1,7.4-7.53c-3.22-1.58-6.34-3.1-9.3-4.52-5.92-.49-10.76,6.63-10.81,6.7a3.56,3.56,0,0,1-5.93-3.93,27.24,27.24,0,0,1,7.36-7.15c-.88-.4-9.15-4.65-16.46-4.63-8.55,0-13.09,5.32-18.57,12.85C211.67,219.9,203,223,190.37,223c-27,0-65.53-13.72-75.78-17.55a39.67,39.67,0,0,0-4.41,9.05,108.29,108.29,0,0,1,23.62,10.17C151.13,234.88,160.77,248.47,161.86,264.12Z"/><path class="cls-3" d="M326.13,279.12c-8.28.35-18.36.53-29.13.53-17.24,0-60.7-.53-91.9-5.46-18.35-2.9-85.15-4.25-100.37-4.53-.56,4.73-1.09,14.36,2.58,22,13.52,0,84-.22,101.37,1.57,130.41,13.53,177.32-.57,185.21-3.45a38.69,38.69,0,0,0,.92-19.79C388,273.22,371,277.24,326.13,279.12Z"/><path class="cls-1" d="M154.71,263.85c-2.5-27.18-35.71-39.28-46.54-42.52-3.7,15.43-3.41,33.89-3.11,41.22C113,262.69,133.69,263.1,154.71,263.85Z"/><path class="cls-4" d="M394.89,258.32c-1.9-.76-66.25-22.21-68.68-23-4.16-2.19-52.79-27.76-74.74-37.41-6.28-2.76-11.77-4.1-16.78-4.1-12.83,0-19.47,9.12-24.32,15.78-3,4.17-9.77,6.29-20,6.29-29.35,0-75.24-17.84-75.71-18a3.77,3.77,0,0,0-4,1c-4.34,4.31-8.61,17.75-8.61,18-5.56,20-4.19,45-3.92,48.95-.58,3.11-3.09,19.29,4,31.2a3.56,3.56,0,0,0,3,1.73h0c.84,0,84.33-.38,102.74,1.53,41.65,4.32,74.86,5.88,101.1,5.88,66,0,87.89-9.88,89.12-10.46a3.54,3.54,0,0,0,1.68-1.69c.27-.55,6.29-13.63.29-31.63C399.76,260.26,397.58,259.39,394.89,258.32ZM326.4,242.86c21.55,6.89,52.64,17.06,64,21.33-5.65,2.25-21.36,6-64.56,7.83-8.18.34-18.15.52-28.83.52-11.77,0-35.87-.25-59.77-2,.19-3.27,1.18-8.8,5.25-12.91,4.59-4.64,12.06-6.52,22.2-5.61C299.89,255.2,319.24,252.37,326.4,242.86ZM114.59,205.45c10.25,3.83,48.79,17.55,75.78,17.55,12.63,0,21.3-3.1,25.75-9.21,5.48-7.53,10-12.84,18.57-12.85,7.31,0,15.58,4.23,16.46,4.63a27.24,27.24,0,0,0-7.36,7.15,3.56,3.56,0,0,0,5.93,3.93c.05-.07,4.89-7.19,10.81-6.7,3,1.42,6.08,2.94,9.3,4.52a23.71,23.71,0,0,0-7.4,7.53,3.56,3.56,0,0,0,1.3,4.84,3.61,3.61,0,0,0,1.78.48,3.57,3.57,0,0,0,3.08-1.76c0-.07,4.05-6.75,10.37-6.55,3.19,1.6,6.38,3.22,9.52,4.82a21.13,21.13,0,0,0-8.84,8.43,3.56,3.56,0,0,0,6.36,3.19,14.45,14.45,0,0,1,11.72-6.9c9.34,4.79,17.36,9,21.79,11.3-5.17,4.58-19.19,8.24-54.19,5.1-12.4-1.12-21.8,1.49-27.95,7.75-5.56,5.65-7,12.85-7.24,17.28-8.34-.72-16.49-1.64-23.92-2.81-8.37-1.32-26-2.32-44.35-3.05-1.09-15.65-10.73-29.24-28.06-39.45a108.29,108.29,0,0,0-23.62-10.17A39.67,39.67,0,0,1,114.59,205.45Zm-6.42,15.88c10.83,3.24,44,15.34,46.54,42.52-21-.75-41.68-1.16-49.65-1.3C104.76,255.22,104.47,236.76,108.17,221.33Zm285.72,68.44c-7.89,2.88-54.8,17-185.21,3.45-17.33-1.79-87.85-1.62-101.37-1.57-3.67-7.63-3.14-17.26-2.58-22,15.22.28,82,1.63,100.37,4.53,31.2,4.93,74.66,5.46,91.9,5.46,10.77,0,20.85-.18,29.13-.53,44.86-1.88,61.88-5.9,68.68-9.14A38.69,38.69,0,0,1,393.89,289.77Z"/></g></svg>