<svg xmlns="http://www.w3.org/2000/svg" viewBox="0 0 500 500"><defs><style>.cls-1{fill:#333;}.cls-2{fill:#f2d973;}.cls-3{fill:#dec769;}.cls-4{fill:#f08181;}</style></defs><g id="레이어_3" data-name="레이어 3"><path class="cls-1" d="M384.29,196.18c0,14.8-5.64,35.84-15.45,57.72-10.25,22.83-24.22,44.77-39.47,62a26.86,26.86,0,0,1,.14,2.71,25.67,25.67,0,0,1-19.3,24.75,27.15,27.15,0,0,1-26.47,20.53,26.88,26.88,0,0,1-6-.67,33.18,33.18,0,0,1-54.93-.13,27.31,27.31,0,0,1-33-19.73,25.66,25.66,0,0,1-19.29-24.75,26.66,26.66,0,0,1,.14-2.7C155.3,298.59,141.25,276.5,131,253.56c-9.72-21.75-15.3-42.66-15.3-57.38,0-29.81,22.6-57.34,60.45-73.64a3.47,3.47,0,0,1,.85-.25h.27s0,0,0,0h.3a3.6,3.6,0,0,1,2,6.6c-18.62,13.86-28.86,32.23-28.86,51.72,0,27.37,19.73,80,48.15,112.73a25.57,25.57,0,0,1,20.94,16.22,27.19,27.19,0,0,1,14,6.2,33.16,33.16,0,0,1,32.55-.22,27.2,27.2,0,0,1,13.76-6A25.59,25.59,0,0,1,301.1,293.3c28.42-32.69,48.16-85.36,48.16-112.73,0-19.54-10.3-37.94-29-51.82a3.61,3.61,0,0,1,3.58-6.21C361.69,138.84,384.29,166.37,384.29,196.18Zm-7.22,0c0-20.62-12.39-40.19-34.07-55,8.8,11.88,13.48,25.35,13.48,39.4,0,28.09-18.47,78.86-46.43,113.29A25.66,25.66,0,0,1,327,307.63C358,270.84,377.07,222,377.07,196.18ZM311,335.52a18.29,18.29,0,1,0-23-25.88A27.36,27.36,0,0,1,311,335.52Zm-7.43,4.25a21,21,0,0,0,.24-3.16,20.12,20.12,0,0,0-20.1-20.1l-.8,0a19.79,19.79,0,0,0-10.38,3.37,33.15,33.15,0,0,1,8.72,36.64,19.95,19.95,0,0,0,22.32-16.77Zm-27.29,4.78a26,26,0,1,0-26,26A26,26,0,0,0,276.31,344.55Zm-48.5-24.39a19.94,19.94,0,0,0-10.8-3.64h-.75a20.12,20.12,0,0,0-20.1,20.1,21,21,0,0,0,.24,3.16,20,20,0,0,0,19.86,16.94,19.53,19.53,0,0,0,3.06-.25,33.16,33.16,0,0,1,8.49-36.3Zm-15.88-10.52a18.29,18.29,0,1,0-23,25.88A27.34,27.34,0,0,1,211.93,309.64Zm-38.94-2a25.66,25.66,0,0,1,16.95-13.77c-27.95-34.43-46.42-85.2-46.42-113.29,0-14,4.67-27.52,13.47-39.4-21.67,14.82-34.06,34.39-34.06,55C122.93,221.91,142,270.84,173,307.63Z"/><path class="cls-2" d="M343,141.17c21.68,14.82,34.07,34.39,34.07,55,0,25.82-19,74.66-50.07,111.45a25.66,25.66,0,0,0-16.95-13.77c28-34.43,46.43-85.2,46.43-113.29C356.48,166.52,351.8,153.05,343,141.17Z"/><path class="cls-3" d="M322.29,318.65A18.39,18.39,0,0,1,311,335.52a27.36,27.36,0,0,0-23-25.88,18.29,18.29,0,0,1,34.22,9Z"/><path class="cls-3" d="M303.84,336.61a21,21,0,0,1-.24,3.16,19.95,19.95,0,0,1-22.32,16.77,33.15,33.15,0,0,0-8.72-36.64,19.79,19.79,0,0,1,10.38-3.37l.8,0A20.12,20.12,0,0,1,303.84,336.61Z"/><path class="cls-3" d="M250.32,318.56a26,26,0,1,1-26,26A26,26,0,0,1,250.32,318.56Zm19.43,26A19.44,19.44,0,1,0,250.32,364,19.45,19.45,0,0,0,269.75,344.55Z"/><path class="cls-1" d="M250.32,325.11a19.43,19.43,0,1,1-19.44,19.44A19.45,19.45,0,0,1,250.32,325.11Zm12.21,19.44a12.22,12.22,0,1,0-12.21,12.2A12.23,12.23,0,0,0,262.53,344.55Z"/><path class="cls-4" d="M250.32,332.33a12.21,12.21,0,1,1-12.22,12.22A12.23,12.23,0,0,1,250.32,332.33Z"/><path class="cls-3" d="M217,316.52a19.94,19.94,0,0,1,10.8,3.64,33.16,33.16,0,0,0-8.49,36.3,19.53,19.53,0,0,1-3.06.25,20,20,0,0,1-19.86-16.94,21,21,0,0,1-.24-3.16,20.12,20.12,0,0,1,20.1-20.1Z"/><path class="cls-3" d="M196,300.35a18.34,18.34,0,0,1,15.93,9.29,27.34,27.34,0,0,0-23,25.88,18.29,18.29,0,0,1,7-35.17Z"/><path class="cls-2" d="M189.94,293.86A25.66,25.66,0,0,0,173,307.63c-31-36.79-50.06-85.72-50.06-111.45,0-20.62,12.39-40.19,34.06-55-8.8,11.88-13.47,25.35-13.47,39.4C143.52,208.66,162,259.43,189.94,293.86Z"/></g></svg>