<svg xmlns="http://www.w3.org/2000/svg" viewBox="0 0 500 500"><defs><style>.cls-1{fill:#b9d1dd;}.cls-2{fill:#8bb4c8;}.cls-3{fill:#a99c83;}.cls-4{fill:#c5bca5;}.cls-5{fill:#3f352f;}</style></defs><g id="레이어_3" data-name="레이어 3"><path class="cls-1" d="M290.33,273.15c-22.89-.11-46.49-.21-55.12,13.88l6.27,1.3a237.84,237.84,0,0,0,48.28,4.79c48.33,0,89.14-13.4,103.22-18.63-.72-16.51-14.18-18.29-43.12-20.55l-6.89-.55a23.48,23.48,0,0,1-.94,5.41c-3.07,10.31-13.17,13.93-40,14.33C298.21,273.18,294.2,273.17,290.33,273.15Z"/><path class="cls-2" d="M261.35,262.53c-.4-.16-39.85-15.28-65.78-3.35a35.29,35.29,0,0,0-17.64,17.68c13.85,1.67,28.37,4.28,50,8.68,9.63-19.74,37.62-19.62,62.44-19.51,4,0,7.81,0,11.55,0,28.34-.43,31.92-4.62,33.3-9.25a16.84,16.84,0,0,0,.67-4c-4.05-.39-8.23-.85-12.51-1.43-27.62-3.77-41-11-47.26-16-2.56,9.1-6.46,20.88-10.7,26.14A3.57,3.57,0,0,1,261.35,262.53Z"/><path class="cls-3" d="M240,295.29c-40.85-8.49-58.51-11.58-82.6-13.18-17.05-1.14-42.16-3.28-51.71-4.11v18.88H176v-4.06a3.7,3.7,0,0,1,1.22-2.68,4.44,4.44,0,0,1,2.82-.84c.15,0,15.27,2.11,28.88,5.17,14.12,3.18,29.91,6.06,39.35,7.77l5,.91c5.49,1,18.81,2.13,35.06,2.13,19.28,0,56.56-1.64,89.58-12.65l.31-.09c.16,0,13-3.21,16.85-11.24-15,5.52-56.46,18.93-105.3,18.93A244.8,244.8,0,0,1,240,295.29Z"/><path class="cls-4" d="M256.15,253.28c2.07.62,3.81,1.2,5.11,1.65,4.22-7.23,8.53-22.93,10.43-30.9l-2.56-2.15-2.9,4.14a3.56,3.56,0,1,1-5.83-4.08l3.21-4.57c-1.55-1.24-3.22-2.56-5-3.92l-3.13,4.23a3.56,3.56,0,0,1-5.72-4.23l3.16-4.27c-1.62-1.19-3.28-2.37-4.94-3.51l-3.51,4.51a3.53,3.53,0,0,1-2.81,1.38,3.55,3.55,0,0,1-2.8-5.74l3.16-4.07c-1.89-1.19-3.75-2.28-5.54-3.23l-3.5,4.14a3.55,3.55,0,1,1-5.43-4.58l2.17-2.58c-.45-.15-.88-.29-1.31-.4-3.72-1-7.08.07-11.16,2.75l30.95,23.26C254.59,225.43,263.55,237.27,256.15,253.28Z"/><path class="cls-1" d="M157.91,275c4.36.29,8.5.63,12.61,1a42.46,42.46,0,0,1,22.09-23.33c18.34-8.43,41.67-5.05,56.56-1.35,7.92-15.47-4.44-24-5-24.39l-.15-.12-32.65-24.54c-1.23,1-2.52,2.09-3.91,3.27-7.88,6.69-17.67,15-31.9,21.07a47.86,47.86,0,0,1-18.85,3.74c-19.5,0-37.31-10.6-44.66-15.63-14.75,31-5.43,51.29-2.48,56.43C120.7,272.15,142.59,274,157.91,275Z"/><path class="cls-5" d="M401.5,272.67a3.6,3.6,0,0,0-1.55-.51c-2.14-21.61-23.25-23.26-49.53-25.31-7.89-.62-16.83-1.32-26.09-2.58C292,239.86,281,230.55,278.17,227.49c.49-2,.82-3.4.95-4a3.56,3.56,0,0,0-1.13-3.45c-1.28-1.13-31.58-27.56-47.73-31.84-10.18-2.7-17.78,3.75-27.41,11.93-7.5,6.38-16.84,14.31-30.08,19.94-27.48,11.7-59.51-13.21-59.82-13.46a3.55,3.55,0,0,0-5.36,1.13c-16.13,30.82-10.64,52.88-6.24,62.91a3.46,3.46,0,0,0-1.58.81,3.6,3.6,0,0,0-1.15,2.63v26.32a3.56,3.56,0,0,0,3.56,3.56h77.38a3.56,3.56,0,0,0,3.55-3.56v-3.5c5.34.82,15.15,2.43,24.25,4.47,14.26,3.21,30.15,6.1,39.64,7.83l4.95.91c5.81,1.08,19.67,2.25,36.37,2.25,24.05,0,59.46-2.26,91.69-13,2.35-.59,24.27-6.52,23.18-23.94A3.56,3.56,0,0,0,401.5,272.67ZM342,258.8a23.48,23.48,0,0,0,.94-5.41l6.89.55c28.94,2.26,42.4,4,43.12,20.55-14.08,5.23-54.89,18.63-103.22,18.63a237.84,237.84,0,0,1-48.28-4.79l-6.27-1.3c8.63-14.09,32.23-14,55.12-13.88,3.87,0,7.88,0,11.69,0C328.86,272.73,339,269.11,342,258.8Zm-18.66-7.48c4.28.58,8.46,1,12.51,1.43a16.84,16.84,0,0,1-.67,4c-1.38,4.63-5,8.82-33.3,9.25-3.74.05-7.53,0-11.55,0-24.82-.11-52.81-.23-62.44,19.51-21.62-4.4-36.14-7-50-8.68a35.29,35.29,0,0,1,17.64-17.68c25.93-11.93,65.38,3.19,65.78,3.35a3.57,3.57,0,0,0,4.06-1.08c4.24-5.26,8.14-17,10.7-26.14C282.35,240.33,295.75,247.55,323.37,251.32ZM228.43,195.1c.43.11.86.25,1.31.4l-2.17,2.58a3.55,3.55,0,1,0,5.43,4.58l3.5-4.14c1.79.95,3.65,2,5.54,3.23l-3.16,4.07a3.55,3.55,0,1,0,5.61,4.36l3.51-4.51c1.66,1.14,3.32,2.32,4.94,3.51l-3.16,4.27a3.56,3.56,0,0,0,5.72,4.23l3.13-4.23c1.76,1.36,3.43,2.68,5,3.92l-3.21,4.57a3.56,3.56,0,1,0,5.83,4.08l2.9-4.14,2.56,2.15c-1.9,8-6.21,23.67-10.43,30.9-1.3-.45-3-1-5.11-1.65,7.4-16-1.56-27.85-7.93-32.17l-30.95-23.26C221.35,195.17,224.71,194.11,228.43,195.1ZM112.05,214.76c7.35,5,25.16,15.63,44.66,15.63a47.86,47.86,0,0,0,18.85-3.74c14.23-6.06,24-14.38,31.9-21.07,1.39-1.18,2.68-2.27,3.91-3.27L244,226.85l.15.12c.56.37,12.92,8.92,5,24.39-14.89-3.7-38.22-7.08-56.56,1.35A42.46,42.46,0,0,0,170.52,276c-4.11-.4-8.25-.74-12.61-1-15.32-1-37.21-2.86-48.34-3.82C106.62,266.05,97.3,245.78,112.05,214.76Zm266.16,77.78-.31.09c-33,11-70.3,12.65-89.58,12.65-16.25,0-29.57-1.1-35.06-2.13l-5-.91c-9.44-1.71-25.23-4.59-39.35-7.77-13.61-3.06-28.73-5.15-28.88-5.17a4.44,4.44,0,0,0-2.82.84,3.7,3.7,0,0,0-1.22,2.68v4.06H105.73V278c9.55.83,34.66,3,51.71,4.11,24.09,1.6,41.75,4.69,82.6,13.18a244.8,244.8,0,0,0,49.72,4.94c48.84,0,90.3-13.41,105.3-18.93C391.23,289.33,378.37,292.5,378.21,292.54Z"/></g></svg>