<svg xmlns="http://www.w3.org/2000/svg" viewBox="0 0 500 500"><defs><style>.cls-1{fill:#a99c83;}.cls-2{fill:#c5bca5;}.cls-3{fill:#e0d080;}.cls-4{fill:#3f352f;}</style></defs><g id="레이어_3" data-name="레이어 3"><path class="cls-1" d="M136.55,166.91v-8.83a5.55,5.55,0,0,0-2.21-4.43v17.69A5.55,5.55,0,0,0,136.55,166.91Z"/><path class="cls-2" d="M159,290.16a7,7,0,0,0,7,7h41.81a7,7,0,0,0,7-6.74s-15.86-91.28-16-92.36H158.67a32.28,32.28,0,0,1,.28,4.28Z"/><path class="cls-3" d="M238.47,333.72c-16-3.38-32.45-6.88-58.29-6.88-21.09,0-53.67,0-64.15,0v17.92h69.88V338a3.36,3.36,0,0,1,3.36-3.35h0a198.6,198.6,0,0,1,41.09,5.45c18.79,4.41,34.86,7.35,52.24,7.35a175,175,0,0,0,29.68-2.67c28.37-4.84,59.87-18.16,70.22-22.54,1-.43,2.06-4.16,2.4-8.87-14.47,6.85-57.65,25.69-96,26.27C268.05,340,253.69,336.94,238.47,333.72Z"/><path class="cls-1" d="M120.07,320.14c13.2,0,41.25,0,60.11,0,26.54,0,43.38,3.57,59.68,7,14.85,3.15,28.85,6.11,48.89,5.81,39.42-.6,85.68-21.94,95.95-26.92a8.21,8.21,0,0,0-2.51-4.77c-4.07-3.56-13.07-3.15-21.74-2.33-5.89.57-32.91.69-37.35.25-18.81-1.9-35.68-9.61-50.17-22.35-11.5-10.11-21.51-23.5-29.75-39.8a204,204,0,0,1-17.5-51.27l-12.76,2.56c-3.15.63-5.38,1.86-6.47,3.76-1.42,2.49-.76,6.56-.75,6.59s15.76,89.16,15.78,91.47a13.68,13.68,0,0,1-13.71,13.71H166a13.73,13.73,0,0,1-13.72-13.71V202.34c0-4.69-1.08-8.15-3.21-10.28a7.89,7.89,0,0,0-4.89-2.28H129.76c.08,8.18.25,29.43,0,45.18-.24,12.93-1.6,17-4.57,26-1.77,5.3-4.19,12.56-7.38,24.77C111.21,310.81,118.13,318.56,120.07,320.14Z"/><path class="cls-4" d="M391.67,307.81s0,0,0,0c-.31-5-2-8.88-5.06-11.55-6.17-5.4-16.1-4.71-26.63-4-3,.21-29.49.9-36.27.26-31.6-3.55-56.66-23.18-74.47-58.34a196.94,196.94,0,0,1-17.54-52.87,3.34,3.34,0,0,0-1.39-2.25,3.39,3.39,0,0,0-2.59-.54s-2.61.54-16.12,3.24c-5.09,1-8.76,3.35-10.91,6.92a13.25,13.25,0,0,0-1.23,2.67H156.67a15.61,15.61,0,0,0-2.91-4,14.37,14.37,0,0,0-9.63-4.23h-9.79V178.7a12.28,12.28,0,0,0,8.92-11.79v-8.83A12.29,12.29,0,0,0,131,145.81a3.35,3.35,0,0,0-3.35,3.35v33.92h-1.27a3.38,3.38,0,0,0-2.39,1,3.33,3.33,0,0,0-1,2.4c0,.29.36,28.67,0,48.37-.22,11.9-1.32,15.19-4.24,24-1.79,5.39-4.25,12.77-7.49,25.2-5.11,19.54-2.84,30.34.35,36.15a3.56,3.56,0,0,0-1.33.8,3.37,3.37,0,0,0-1,2.38v24.78a3.35,3.35,0,0,0,3.35,3.36h76.59a3.35,3.35,0,0,0,3.35-3.36v-6.62a206,206,0,0,1,36.21,5.17c19.24,4.52,35.74,7.53,53.77,7.53a182,182,0,0,0,30.81-2.77c29.13-5,61.17-18.52,71.7-23,6.84-2.9,6.75-16.51,6.56-20.61ZM134.34,153.65a5.55,5.55,0,0,1,2.21,4.43v8.83a5.55,5.55,0,0,1-2.21,4.43Zm64.45,44.41c.12,1.08,16,92.36,16,92.36a7,7,0,0,1-7,6.74H166a7,7,0,0,1-7-7V202.34a32.28,32.28,0,0,0-.28-4.28Zm-81,87.63c3.19-12.21,5.61-19.47,7.38-24.77,3-9,4.33-13,4.57-26,.29-15.75.12-37,0-45.18h14.38a7.89,7.89,0,0,1,4.89,2.28c2.13,2.13,3.21,5.59,3.21,10.28v87.82A13.73,13.73,0,0,0,166,303.87h41.81a13.68,13.68,0,0,0,13.71-13.71c0-2.31-15.75-91.36-15.78-91.47s-.67-4.1.75-6.59c1.09-1.9,3.32-3.13,6.47-3.76l12.76-2.56a204,204,0,0,0,17.5,51.27c8.24,16.3,18.25,29.69,29.75,39.8,14.49,12.74,31.36,20.45,50.17,22.35,4.44.44,31.46.32,37.35-.25,8.67-.82,17.67-1.23,21.74,2.33a8.21,8.21,0,0,1,2.51,4.77c-10.27,5-56.53,26.32-95.95,26.92-20,.3-34-2.66-48.89-5.81-16.3-3.45-33.14-7-59.68-7-18.86,0-46.91,0-60.11,0C118.13,318.56,111.21,310.81,117.77,285.69ZM382.5,322.27c-10.35,4.38-41.85,17.7-70.22,22.54a175,175,0,0,1-29.68,2.67c-17.38,0-33.45-2.94-52.24-7.35a198.6,198.6,0,0,0-41.09-5.45h0a3.36,3.36,0,0,0-3.36,3.35v6.73H116V326.84c10.48,0,43.06,0,64.15,0,25.84,0,42.33,3.5,58.29,6.88,15.22,3.22,29.58,6.26,50.38,5.95,38.4-.58,81.58-19.42,96-26.27C384.56,318.11,383.52,321.84,382.5,322.27Z"/></g></svg>