<svg xmlns="http://www.w3.org/2000/svg" viewBox="0 0 500 500"><defs><style>.cls-1{fill:#7e7081;}.cls-2{fill:#a99c83;}.cls-3{fill:#3f352f;}</style></defs><g id="레이어_3" data-name="레이어 3"><path class="cls-1" d="M196.87,279.39c15.31,1,59.52,5.74,61.46,5.95,11.89,1.25,29.87,3.16,48.21,3.16a178.53,178.53,0,0,0,25.71-1.64,268,268,0,0,0,57.31-15.66,10.21,10.21,0,0,0-2.88-6.05c-8.08-8.32-30.9-8.25-46-8.19-4.91,0-9.15,0-12.51-.19-13.89-.93-32.51-10.69-41.22-15.68l-1.44,17.2a3.48,3.48,0,0,1-1.33,2.46,3.44,3.44,0,0,1-2.7.69C280.74,261.32,210.65,250.33,196.87,279.39Z"/><path class="cls-1" d="M170.63,278.32c6.72.13,13,.36,18.86.65,11.87-32.75,73.32-27,89.38-25l1.89-22.73q-4.49-3.48-8.81-6.52l-2,5a3.48,3.48,0,0,1-3.23,2.19,3.56,3.56,0,0,1-1.31-.26,3.49,3.49,0,0,1-1.93-4.54l2.59-6.4q-4.62-3-8.93-5.58l-2.79,5.77a3.49,3.49,0,0,1-3.14,2,3.45,3.45,0,0,1-1.52-.35,3.49,3.49,0,0,1-1.62-4.66l3-6.2c-3.37-1.85-6.53-3.46-9.43-4.85l-3.2,6.07a3.49,3.49,0,1,1-6.17-3.25l3-5.73c-5.1-2.21-9-3.6-11.23-4.34-14.18,13.75-20.71,18.73-22.16,19.65-16.75,12.3-37.51,15.85-60,10.27a106,106,0,0,1-26-10.32c-1.35,3-3.85,9.67-7.68,23.82-6.15,22.73,2,32.7,2.92,33.77C119.59,277.1,137.75,277.69,170.63,278.32Z"/><path class="cls-2" d="M306.54,295.47c-18.71,0-36.9-1.92-49-3.2-1.92-.2-46.74-5.73-87.1-7-36.58-1.13-55-1.36-62.18-1.65v17.28h71.22v-5.34c0-2.92,1.62-3.49,3.49-3.49h0c28,.23,46.57,2.58,64.55,4.51,26.29,2.84,56.73,4.37,58,4.37,16.9,0,37.15-2.86,57-8.06,15.17-4,26.83-8.48,31.42-11.22v-4.78a272.67,272.67,0,0,1-60.8,16.84A185.5,185.5,0,0,1,306.54,295.47Z"/><path class="cls-3" d="M399.44,268.7a3.5,3.5,0,0,0-3.28-.26,17,17,0,0,0-4.48-8.16c-10.14-10.44-33.76-10.36-51-10.3-4.78,0-8.91,0-12-.18-14.06-.93-34.87-12.74-41.05-16.42l.28-3.38a3.5,3.5,0,0,0-1.31-3c-34-26.85-61.79-34.5-63-34.82a3.77,3.77,0,0,0-3.76,1.37c-8.65,9.85-21.92,20-22,20-15.2,11.21-33.41,14.32-54.1,9.25a96.58,96.58,0,0,1-27.17-11.32,3.5,3.5,0,0,0-3.66-.11c-1.09.62-4,2.29-11.46,29.83-5,18.37-1.5,29.95,1.55,35.84a3.75,3.75,0,0,0-1.67,3v24.41a3.49,3.49,0,0,0,3.49,3.49H183a3.48,3.48,0,0,0,3.48-3.49v-5.29a521.28,521.28,0,0,1,60.28,4.42c29.65,3.58,57.48,4.41,58.85,4.41,40.9,0,86-15.24,94.1-21.68a3.5,3.5,0,0,0,1.32-2.73v-11.9A3.5,3.5,0,0,0,399.44,268.7Zm-115.26-7.95a3.48,3.48,0,0,0,1.33-2.46l1.44-17.2c8.71,5,27.33,14.75,41.22,15.68,3.36.22,7.6.2,12.51.19,15.1-.06,37.92-.13,46,8.19a10.21,10.21,0,0,1,2.88,6.05,268,268,0,0,1-57.31,15.66,178.53,178.53,0,0,1-25.71,1.64c-18.34,0-36.32-1.91-48.21-3.16-1.94-.21-46.15-5-61.46-5.95,13.78-29.06,83.87-18.07,84.61-17.95A3.44,3.44,0,0,0,284.18,260.75ZM108.19,243c3.83-14.15,6.33-20.8,7.68-23.82a106,106,0,0,0,26,10.32c22.52,5.58,43.28,2,60-10.27,1.45-.92,8-5.9,22.16-19.65,2.25.74,6.13,2.13,11.23,4.34l-3,5.73a3.49,3.49,0,0,0,1.45,4.71,3.5,3.5,0,0,0,4.72-1.46l3.2-6.07c2.9,1.39,6.06,3,9.43,4.85l-3,6.2a3.49,3.49,0,0,0,1.62,4.66,3.45,3.45,0,0,0,1.52.35,3.49,3.49,0,0,0,3.14-2l2.79-5.77q4.31,2.55,8.93,5.58l-2.59,6.4a3.49,3.49,0,0,0,1.93,4.54,3.56,3.56,0,0,0,1.31.26,3.48,3.48,0,0,0,3.23-2.19l2-5q4.32,3,8.81,6.52L278.87,254c-16.06-2.09-77.51-7.8-89.38,25-5.89-.29-12.14-.52-18.86-.65-32.88-.63-51-1.22-59.52-1.54C110.16,275.71,102,265.74,108.19,243ZM394.07,281.7c-4.59,2.74-16.25,7.25-31.42,11.22-19.87,5.2-40.12,8.06-57,8.06-1.31,0-31.75-1.53-58-4.37-18-1.93-36.53-4.28-64.55-4.51h0c-1.87,0-3.49.57-3.49,3.49v5.34H108.31V283.65c7.16.29,25.6.52,62.18,1.65,40.36,1.24,85.18,6.77,87.1,7,12.05,1.28,30.24,3.2,49,3.2a185.5,185.5,0,0,0,26.73-1.71,272.67,272.67,0,0,0,60.8-16.84Z"/></g></svg>