<svg xmlns="http://www.w3.org/2000/svg" viewBox="0 0 500 500"><defs><style>.cls-1{fill:#333;}.cls-2{fill:#86e3b2;}</style></defs><g id="레이어_3" data-name="레이어 3"><path class="cls-1" d="M365.15,208.67c0,16.64-7.9,36.64-23.51,59.74v21a13,13,0,1,1-7.12,0v-11q-5.76,7.76-12.61,16v16a13,13,0,1,1-7.11,0v-7.73q-3.1,3.53-6.38,7.12-3.12,3.42-6.24,6.71v14.9a13,13,0,1,1-7.11,0v-7.51c-4.35,4.43-8.59,8.62-12.61,12.5v16a13,13,0,1,1-7.11,0v-9.25c-10.58,9.9-18.75,16.9-21.79,19.47v6.89a17.41,17.41,0,1,1-7.11,0v-6.89c-3-2.57-11.22-9.57-21.8-19.48v9.26a13,13,0,1,1-7.12,0v-16c-4-3.87-8.26-8.05-12.6-12.49v7.52a13,13,0,1,1-7.12,0V316.51q-3.1-3.28-6.23-6.7-3.29-3.6-6.38-7.12v7.73a13,13,0,1,1-7.12,0v-16q-6.86-8.2-12.61-16v11a13,13,0,1,1-7.12,0v-21c-15.6-23.1-23.5-43.1-23.5-59.73C134.85,146.56,186.51,96,250,96S365.15,146.56,365.15,208.67ZM344,302a5.91,5.91,0,1,0-5.91,5.91A5.92,5.92,0,0,0,344,302Zm14-93.28c0-58.18-48.46-105.51-108-105.51S142,150.49,142,208.67c0,53.22,92.28,134.22,108,147.65C265.75,342.88,358,261.88,358,208.67ZM324.27,323a5.91,5.91,0,1,0-5.92,5.91A5.93,5.93,0,0,0,324.27,323Zm-19.73,21a5.91,5.91,0,1,0-5.91,5.91A5.92,5.92,0,0,0,304.54,343.94Zm-19.73,21a5.91,5.91,0,1,0-5.9,5.9A5.92,5.92,0,0,0,284.81,364.94Zm-24.52,21.62A10.29,10.29,0,1,0,250,396.84,10.3,10.3,0,0,0,260.29,386.56ZM227,364.94a5.91,5.91,0,1,0-5.91,5.9A5.92,5.92,0,0,0,227,364.94Zm-19.73-21a5.91,5.91,0,1,0-5.91,5.91A5.92,5.92,0,0,0,207.27,343.94Zm-19.72-21a5.92,5.92,0,1,0-5.91,5.91A5.92,5.92,0,0,0,187.55,323Zm-19.73-21a5.91,5.91,0,1,0-5.91,5.91A5.92,5.92,0,0,0,167.82,302Z"/><path class="cls-2" d="M338.08,296a5.91,5.91,0,1,1-5.91,5.91A5.92,5.92,0,0,1,338.08,296Z"/><path class="cls-2" d="M318.35,317a5.92,5.92,0,1,1-5.9,5.92A5.93,5.93,0,0,1,318.35,317Z"/><path class="cls-2" d="M298.63,338a5.91,5.91,0,1,1-5.91,5.91A5.92,5.92,0,0,1,298.63,338Z"/><path class="cls-2" d="M278.91,359a5.91,5.91,0,1,1-5.92,5.92A5.92,5.92,0,0,1,278.91,359Z"/><path class="cls-2" d="M250,376.27a10.29,10.29,0,1,1-10.29,10.29A10.3,10.3,0,0,1,250,376.27Z"/><path class="cls-2" d="M221.09,359a5.91,5.91,0,1,1-5.91,5.92A5.92,5.92,0,0,1,221.09,359Z"/><path class="cls-2" d="M201.36,338a5.91,5.91,0,1,1-5.91,5.91A5.92,5.92,0,0,1,201.36,338Z"/><path class="cls-2" d="M181.64,317a5.92,5.92,0,1,1-5.92,5.92A5.92,5.92,0,0,1,181.64,317Z"/><path class="cls-2" d="M161.91,296A5.91,5.91,0,1,1,156,302,5.92,5.92,0,0,1,161.91,296Z"/></g></svg>