<svg xmlns="http://www.w3.org/2000/svg" viewBox="0 0 500 500"><defs><style>.cls-1,.cls-10{fill:#ffd7d7;}.cls-1,.cls-2,.cls-3,.cls-9{stroke:#333;stroke-linecap:round;stroke-linejoin:round;stroke-width:1.7px;}.cls-12,.cls-2{fill:#ff9292;}.cls-3,.cls-4{fill:#ff4141;}.cls-5{font-size:30.35px;font-family:BMJUA, BM JUA_TTF;}.cls-13,.cls-5{fill:#fff;}.cls-6{letter-spacing:-0.06em;}.cls-7{letter-spacing:-0.01em;}.cls-8{letter-spacing:0em;}.cls-9{fill:none;}.cls-11{fill:#333;}</style></defs><g id="레이어_3" data-name="레이어 3"><rect class="cls-1" x="189.19" y="100.85" width="121.62" height="22.1"/><polygon class="cls-1" points="310.81 122.95 189.19 122.95 214.98 355.69 285.02 355.69 310.81 122.95"/><rect class="cls-2" x="229.58" y="355.68" width="40.83" height="23.59"/><rect class="cls-3" x="220.36" y="379.27" width="59.28" height="19.88"/><polygon class="cls-4" points="198.48 194.48 301.52 194.48 293.05 277.05 205.54 277.05 198.48 194.48"/><text class="cls-5" transform="translate(219.5 228.46)">hand<tspan x="-8.74" y="25.29">c</tspan><tspan class="cls-6" x="5.28" y="25.29">r</tspan><tspan class="cls-7" x="18.27" y="25.29">e</tspan><tspan class="cls-8" x="33.35" y="25.29">am</tspan></text><polygon class="cls-9" points="310.81 122.95 189.19 122.95 214.98 355.69 285.02 355.69 310.81 122.95"/><rect class="cls-10" x="189.19" y="100.85" width="121.62" height="22.1"/><path class="cls-11" d="M310.81,125.8H189.19a2.84,2.84,0,0,1-2.85-2.85v-22.1A2.84,2.84,0,0,1,189.19,98H310.81a2.84,2.84,0,0,1,2.85,2.85V123A2.84,2.84,0,0,1,310.81,125.8ZM192,120.1H308V103.7H192Z"/><polygon class="cls-10" points="310.81 122.95 189.19 122.95 214.98 355.69 285.02 355.69 310.81 122.95"/><path class="cls-11" d="M285,358.54H215a2.85,2.85,0,0,1-2.83-2.54L186.36,123.27a2.83,2.83,0,0,1,.71-2.22,2.86,2.86,0,0,1,2.12-1H310.81a2.86,2.86,0,0,1,2.12,1,2.83,2.83,0,0,1,.71,2.22L287.85,356A2.85,2.85,0,0,1,285,358.54Zm-67.48-5.7h64.92l25.17-227H192.37Z"/><rect class="cls-12" x="229.58" y="355.68" width="40.83" height="23.59"/><path class="cls-11" d="M270.42,382.12H229.58a2.85,2.85,0,0,1-2.85-2.85V355.68a2.85,2.85,0,0,1,2.85-2.85h40.84a2.85,2.85,0,0,1,2.85,2.85v23.59A2.85,2.85,0,0,1,270.42,382.12Zm-38-5.7h35.14V358.53H232.43Z"/><rect class="cls-4" x="220.36" y="379.27" width="59.28" height="19.88"/><path class="cls-11" d="M279.64,402H220.36a2.85,2.85,0,0,1-2.85-2.85V379.27a2.85,2.85,0,0,1,2.85-2.85h59.28a2.85,2.85,0,0,1,2.85,2.85v19.88A2.85,2.85,0,0,1,279.64,402Zm-56.43-5.7h53.58V382.12H223.21Z"/><polygon class="cls-4" points="198.48 194.48 301.52 194.48 293.05 277.05 205.54 277.05 198.48 194.48"/><path class="cls-13" d="M232.57,225.09q0,.6,0,1.26t0,1.2q0,.81-.09,1.5a4.3,4.3,0,0,1-.24,1.15,1.39,1.39,0,0,1-.57.7,1.6,1.6,0,0,1-1,.14,1.26,1.26,0,0,1-1-.67,3.93,3.93,0,0,1-.41-1.32,7.55,7.55,0,0,1-.08-1.5,11.56,11.56,0,0,0,0-1.19c0-.44,0-1,0-1.53a9.45,9.45,0,0,0-.19-1.64,3.45,3.45,0,0,0-.56-1.32,1.45,1.45,0,0,0-1.18-.58,3.78,3.78,0,0,0-1.54.15,1.53,1.53,0,0,0-.77.63,2.26,2.26,0,0,0-.29,1c0,.39-.07.8-.14,1.25l0,1.18v2.22c0,.36,0,.74,0,1.14a3.28,3.28,0,0,1-.2,1.07,2,2,0,0,1-.56.82,1.64,1.64,0,0,1-1.11.34,1.58,1.58,0,0,1-1.35-.6,2.4,2.4,0,0,1-.44-1.47V211.55c0-.12,0-.24,0-.35s0-.23,0-.35a2.25,2.25,0,0,0,.09-.35,1,1,0,0,1,.1-.31.77.77,0,0,1,.3-.46,1.58,1.58,0,0,1,.3-.24,1.15,1.15,0,0,1,.34-.13l.33,0h.36a1.59,1.59,0,0,1,.88.27,1.8,1.8,0,0,1,.34.26.89.89,0,0,1,.24.38,2.79,2.79,0,0,1,.24,1.09,3.18,3.18,0,0,1,.05.44c0,.19,0,.39,0,.59s0,.4,0,.59,0,.34,0,.44v.15q0,1,0,2v2.55a8,8,0,0,1,2.68-.42,5.7,5.7,0,0,1,2.49.57,5.3,5.3,0,0,1,1.71,1.3,4.65,4.65,0,0,1,.86,1.61,7.11,7.11,0,0,1,.32,1.88C232.52,223.66,232.55,224.36,232.57,225.09Z"/><path class="cls-13" d="M238.58,218.29a7.58,7.58,0,0,1,1.91-.66,6.35,6.35,0,0,1,2-.08,6,6,0,0,1,1.9.51,6.23,6.23,0,0,1,1.7,1.17,5.89,5.89,0,0,1,1.21,1.73,8.34,8.34,0,0,1,.61,2.09,6.37,6.37,0,0,0,.39,1.46c.18.44.38.89.59,1.34s.42.89.61,1.33a9.21,9.21,0,0,1,.47,1.4,2.23,2.23,0,0,1-.11,1.35,1.3,1.3,0,0,1-1,.8,1.51,1.51,0,0,1-.87-.07,2.39,2.39,0,0,1-.74-.49,4,4,0,0,1-.59-.7c-.18-.25-.33-.49-.47-.71a5.55,5.55,0,0,1-1.52,1.41,5.09,5.09,0,0,1-2,.65,9,9,0,0,1-1.86.06,9.93,9.93,0,0,1-1.88-.33,4.51,4.51,0,0,1-2.14-1.17,5.63,5.63,0,0,1-1.27-1.94,6.91,6.91,0,0,1-.47-2.38,9,9,0,0,1,.3-2.52,6.85,6.85,0,0,1,1.28-2.67A5.72,5.72,0,0,1,238.58,218.29Zm.76,3.55a3.14,3.14,0,0,0-.67,1,3.89,3.89,0,0,0-.29,1.21,4.24,4.24,0,0,0,.11,1.28,3.33,3.33,0,0,0,.48,1.12,2.25,2.25,0,0,0,1,.72,5.69,5.69,0,0,0,1.52.35,2.32,2.32,0,0,0,1.6-.49,3.46,3.46,0,0,0,1-1.38,4.28,4.28,0,0,0,.32-1.79,3.44,3.44,0,0,0-.52-1.75,2.22,2.22,0,0,0-.95-.85,3.22,3.22,0,0,0-1.26-.29,3.83,3.83,0,0,0-1.33.22A2.68,2.68,0,0,0,239.34,221.84Z"/><path class="cls-13" d="M252.51,220.23c0-.46,0-1,0-1.49a3.42,3.42,0,0,1,.26-1.42,1.63,1.63,0,0,1,1.91-.94,1.8,1.8,0,0,1,.85.33,1.49,1.49,0,0,1,.45.56,2.61,2.61,0,0,1,.16.73l.06.8a2.83,2.83,0,0,1,.76-.88,5.28,5.28,0,0,1,.94-.54,5.63,5.63,0,0,1,.93-.31,3.62,3.62,0,0,1,.68-.09,5.7,5.7,0,0,1,2.29.5,5.19,5.19,0,0,1,1.9,1.42,4.46,4.46,0,0,1,.65,1.13,6.57,6.57,0,0,1,.33,1.23,9.42,9.42,0,0,1,.14,1.29l.06,1.32a24.87,24.87,0,0,1,0,3.86c0,.26,0,.57,0,.91a8.42,8.42,0,0,1-.07,1,2.91,2.91,0,0,1-.28.89.88.88,0,0,1-.65.46,2.48,2.48,0,0,1-1.05.08,1.35,1.35,0,0,1-.65-.29,1.29,1.29,0,0,1-.36-.54,4.89,4.89,0,0,1-.22-.76c0-.23-.07-.48-.1-.78s-.05-.59-.06-.89l0-.9c0-.29,0-.56,0-.8,0-.39,0-.81,0-1.28s0-.9,0-1.3a3,3,0,0,0-.74-2.17,2.38,2.38,0,0,0-2-.62,3.06,3.06,0,0,0-1.7.77,2.06,2.06,0,0,0-.7,1.69v.72c0,.23,0,.45,0,.67s0,.47,0,.73v3a5.12,5.12,0,0,1-.27,1.81,1.59,1.59,0,0,1-.82,1,1.45,1.45,0,0,1-1.37-.15,1.34,1.34,0,0,1-.53-.5,2.76,2.76,0,0,1-.3-.68,3.72,3.72,0,0,1-.14-.74c0-.26,0-.49-.06-.72-.06-.66-.09-1.29-.1-1.86s0-1.2,0-1.87Z"/><path class="cls-13" d="M276.85,209.85a2,2,0,0,1,1,0,1.62,1.62,0,0,1,.76.41,1.94,1.94,0,0,1,.48.75,3,3,0,0,1,.17,1c0,1,0,1.81,0,2.37s0,1.06,0,1.49v12a11.87,11.87,0,0,1-.11,1.77,2.23,2.23,0,0,1-.36,1,1.39,1.39,0,0,1-.78.47,5.42,5.42,0,0,1-1.35.14H274.6a8,8,0,0,1-5.17-1.55,6.3,6.3,0,0,1-2-4.92,7,7,0,0,1,.37-2.67,5.64,5.64,0,0,1,1.26-2.08,5.56,5.56,0,0,1,2.06-1.33,7.31,7.31,0,0,1,2.81-.44h1.67V211.9a4,4,0,0,1,.09-.88,1.55,1.55,0,0,1,.36-.71A1.63,1.63,0,0,1,276.85,209.85Zm-5.28,16.85a2.88,2.88,0,0,0,2.31,1,4.46,4.46,0,0,0,.63,0,2.84,2.84,0,0,0,.55-.07l.52-.09V221.9a17.25,17.25,0,0,0-1.93-.23,2.53,2.53,0,0,0-1.71.62,2.39,2.39,0,0,0-.7.93,3.24,3.24,0,0,0-.28,1.18,4.22,4.22,0,0,0,.12,1.23A3.28,3.28,0,0,0,271.57,226.7Z"/><path class="cls-13" d="M223.28,244.67a2,2,0,0,1,.26.91,1.69,1.69,0,0,1-.23.91,1.48,1.48,0,0,1-.77.75,1.81,1.81,0,0,1-1.11,0,1.35,1.35,0,0,1-.49-.21l-.44-.32a4.06,4.06,0,0,0-.51-.32,2.24,2.24,0,0,0-.75-.21,4,4,0,0,0-1,0,3.46,3.46,0,0,0-1,.24,2.54,2.54,0,0,0-1.06,1,4.18,4.18,0,0,0-.52,1.46,4.33,4.33,0,0,0,.05,1.56,2.82,2.82,0,0,0,.65,1.33,2.68,2.68,0,0,0,1,.7,3.44,3.44,0,0,0,1.14.34,4,4,0,0,0,1,0,6.61,6.61,0,0,0,1-.23,6.92,6.92,0,0,0,.82-.41,2.45,2.45,0,0,1,.88-.31,1.19,1.19,0,0,1,.85.28,1.63,1.63,0,0,1,.42.7,1.81,1.81,0,0,1,0,.87,1.72,1.72,0,0,1-.35.79,4,4,0,0,1-1,.86,5.55,5.55,0,0,1-1.28.59,5.71,5.71,0,0,1-1.62.28,11.38,11.38,0,0,1-1.68-.06l-.76-.16a7.6,7.6,0,0,1-.76-.21,5.86,5.86,0,0,1-2.23-1.38,6.19,6.19,0,0,1-1.37-2A7.11,7.11,0,0,1,212,250a7.74,7.74,0,0,1,.3-2.52,8.08,8.08,0,0,1,.84-2,5.17,5.17,0,0,1,1.18-1.35,6,6,0,0,1,1.53-.85,15.78,15.78,0,0,1,1.89-.56,6.39,6.39,0,0,1,4.37.79A3.4,3.4,0,0,1,223.28,244.67Z"/><path class="cls-13" d="M226,245.61v-.83c0-.32,0-.64,0-1a9.57,9.57,0,0,1,.11-1,3.21,3.21,0,0,1,.23-.84,1.32,1.32,0,0,1,.76-.74,2.72,2.72,0,0,1,1.12-.17,2,2,0,0,1,1,.21,1.55,1.55,0,0,1,.55.56,2.26,2.26,0,0,1,.22.79c0,.3.05.61.05.93a2.24,2.24,0,0,1,.74-.79,6.22,6.22,0,0,1,1-.49,5.46,5.46,0,0,1,.88-.25l.45-.08a11.08,11.08,0,0,1,1.39,0,5.57,5.57,0,0,1,1.38.27,6.31,6.31,0,0,1,1,.51,4.34,4.34,0,0,1,.91.74,2.21,2.21,0,0,1,.53.92,1.46,1.46,0,0,1-.14,1.05c-.28.51-.59.75-.94.74a5.3,5.3,0,0,1-1.12-.16,3.36,3.36,0,0,1-.79-.27,3,3,0,0,0-.79-.28,3.6,3.6,0,0,0-1.82.15,5.9,5.9,0,0,0-1.37.73,6.11,6.11,0,0,0-1.15,1.18v4.38c0,.54,0,1.11,0,1.7a5.64,5.64,0,0,1-.25,1.59,2.36,2.36,0,0,1-.76,1.15,2.09,2.09,0,0,1-1.53.38,1.37,1.37,0,0,1-1-.53,2.27,2.27,0,0,1-.52-1c0-.3-.07-.66-.09-1.09s0-.87,0-1.34,0-.93,0-1.4v-5.76Z"/><path class="cls-13" d="M249.5,252.2a4.69,4.69,0,0,1,.75-.12,1.57,1.57,0,0,1,.69.09,1.13,1.13,0,0,1,.53.41,1.27,1.27,0,0,1,.22.8,1.43,1.43,0,0,1-.18.7,3.05,3.05,0,0,1-.46.61,2.83,2.83,0,0,1-.61.47,6.25,6.25,0,0,1-.63.32,9.62,9.62,0,0,1-2,.61,10.18,10.18,0,0,1-2.35.15,9.63,9.63,0,0,1-3.15-.66,4.73,4.73,0,0,1-2.35-2,7.2,7.2,0,0,1-.94-3,10.49,10.49,0,0,1,.15-3.09,7.25,7.25,0,0,1,1.14-2.87,6.53,6.53,0,0,1,1.93-1.78,6.3,6.3,0,0,1,3.06-.82,7.4,7.4,0,0,1,3.25.67,6.23,6.23,0,0,1,1.85,1.23,5,5,0,0,1,1.25,1.87,3.73,3.73,0,0,1,.2.66c0,.27.08.55.1.84a6.17,6.17,0,0,1,0,.86,2.77,2.77,0,0,1-.15.76,2.27,2.27,0,0,1-.46.85,1.68,1.68,0,0,1-.69.46,3.71,3.71,0,0,1-1,.19c-.4,0-.87.06-1.41.08l-1.37,0h-1.3l-1.39,0-1.59,0a1.59,1.59,0,0,0,.17,1.05,2.25,2.25,0,0,0,.71.73,4.07,4.07,0,0,0,1,.44,5.56,5.56,0,0,0,1.12.18,6.77,6.77,0,0,0,2-.17C248.19,252.58,248.83,252.4,249.5,252.2Zm-1.3-5.89a3.83,3.83,0,0,0-1.22-1,2.34,2.34,0,0,0-1-.2,3.75,3.75,0,0,0-1,.17,2.84,2.84,0,0,0-1.49.91,2.51,2.51,0,0,0-.21.29c-.1.15-.2.31-.29.47a2,2,0,0,0-.19.46c-.05.14,0,.21,0,.21h6a2.57,2.57,0,0,0-.16-.72A2.26,2.26,0,0,0,248.2,246.31Z"/><path class="cls-13" d="M257.64,243.58a7.43,7.43,0,0,1,1.91-.65,6.46,6.46,0,0,1,3.89.42,6.46,6.46,0,0,1,1.7,1.17,5.89,5.89,0,0,1,1.21,1.73,8.3,8.3,0,0,1,.61,2.1,6.42,6.42,0,0,0,.39,1.45c.18.45.38.89.59,1.34s.42.89.61,1.33a9.21,9.21,0,0,1,.47,1.4,2.23,2.23,0,0,1-.11,1.35,1.3,1.3,0,0,1-1,.8A1.42,1.42,0,0,1,267,256a2.39,2.39,0,0,1-.74-.49,4,4,0,0,1-.59-.7c-.18-.25-.33-.49-.48-.71a5.39,5.39,0,0,1-1.51,1.41,5.09,5.09,0,0,1-2,.65,9,9,0,0,1-1.86.06,9.93,9.93,0,0,1-1.88-.33,4.51,4.51,0,0,1-2.14-1.17,5.63,5.63,0,0,1-1.27-1.94,6.91,6.91,0,0,1-.47-2.38,9,9,0,0,1,.3-2.52,6.72,6.72,0,0,1,1.28-2.67A5.72,5.72,0,0,1,257.64,243.58Zm.76,3.55a3,3,0,0,0-.67,1,3.89,3.89,0,0,0-.29,1.21,4.24,4.24,0,0,0,.11,1.28,3.33,3.33,0,0,0,.48,1.12,2.2,2.2,0,0,0,1,.72,5.69,5.69,0,0,0,1.52.35,2.18,2.18,0,0,0,1.59-.49,3.42,3.42,0,0,0,1-1.38,4.28,4.28,0,0,0,.32-1.79,3.65,3.65,0,0,0-.52-1.75,2.19,2.19,0,0,0-1-.85,3.13,3.13,0,0,0-1.25-.28,3.82,3.82,0,0,0-1.33.21A2.8,2.8,0,0,0,258.4,247.13Z"/><path class="cls-13" d="M288,249.29q.06,1,.06,1.83c0,.58,0,1.19-.06,1.84v.82a6.4,6.4,0,0,1-.06.88,3.4,3.4,0,0,1-.21.79,1.37,1.37,0,0,1-.46.57,2.1,2.1,0,0,1-.82.32,1.73,1.73,0,0,1-.85,0,1.38,1.38,0,0,1-.68-.45,1.45,1.45,0,0,1-.32-.94q-.09-1.4-.09-2.79c0-.47,0-.91,0-1.34s0-1,0-1.79a11.24,11.24,0,0,0-.09-1.32,1.66,1.66,0,0,0-.46-1,1.11,1.11,0,0,0-.61-.28,1.31,1.31,0,0,0-.65.07,1.29,1.29,0,0,0-.56.44,1.92,1.92,0,0,0-.33.81c0,.26,0,.53,0,.8a6.43,6.43,0,0,0,0,.77c0,.65,0,1.26,0,1.84s0,1.19,0,1.84a7.72,7.72,0,0,0,0,.85,8.77,8.77,0,0,1,0,.89,3.32,3.32,0,0,1-.17.81,1.14,1.14,0,0,1-.47.57,1.73,1.73,0,0,1-.77.29,1.38,1.38,0,0,1-.76-.12,1.54,1.54,0,0,1-.61-.53,1.83,1.83,0,0,1-.29-1c0-.47-.07-.9-.08-1.29s0-.82,0-1.26,0-.95,0-1.44a11.38,11.38,0,0,0,0-1.44c0-.15,0-.31,0-.5s0-.39,0-.6a5.61,5.61,0,0,0-.06-.59,1.66,1.66,0,0,0-.13-.47,1.25,1.25,0,0,0-.87-.55,1.58,1.58,0,0,0-1.05.1,1.54,1.54,0,0,0-.63.54,2.37,2.37,0,0,0-.31.73,3.73,3.73,0,0,0-.09.84v.83c0,1.31,0,2.45,0,3.41a6.6,6.6,0,0,1-.32,2.33,1.19,1.19,0,0,1-.62.69,2.22,2.22,0,0,1-1,.25,2.07,2.07,0,0,1-1-.25,1.2,1.2,0,0,1-.61-.76,5.92,5.92,0,0,1-.16-.95,13.8,13.8,0,0,1-.11-1.38q0-.77,0-1.53v-5.79c0-.46,0-1,0-1.52a4.33,4.33,0,0,1,.24-1.48,1.15,1.15,0,0,1,.67-.75,2.28,2.28,0,0,1,.94-.13,1.29,1.29,0,0,1,.86.28,1.83,1.83,0,0,1,.48.71,3.13,3.13,0,0,1,.18.91c0,.33,0,.65.06,1a4.61,4.61,0,0,1,.8-1.26,2.36,2.36,0,0,1,1.35-.65,3.51,3.51,0,0,1,3.58,1.15,4.82,4.82,0,0,1,1.55-1,4,4,0,0,1,1.49-.26,4.15,4.15,0,0,1,1.44.29,4.08,4.08,0,0,1,1.24.79,3.74,3.74,0,0,1,.9,1.24,5.81,5.81,0,0,1,.52,2.16Q287.93,248.23,288,249.29Z"/><path class="cls-11" d="M285,358.54H215a2.85,2.85,0,0,1-2.83-2.54L186.36,123.27a2.83,2.83,0,0,1,.71-2.22,2.86,2.86,0,0,1,2.12-1H310.81a2.86,2.86,0,0,1,2.12,1,2.83,2.83,0,0,1,.71,2.22L287.85,356A2.85,2.85,0,0,1,285,358.54Zm-67.48-5.7h64.92l25.17-227H192.37Z"/></g></svg>