<svg xmlns="http://www.w3.org/2000/svg" viewBox="0 0 500 500"><defs><style>.cls-1{fill:#333;}.cls-2{fill:#eaeaeb;}.cls-3{fill:#fab777;}.cls-4{fill:#e3a167;}</style></defs><g id="레이어_3" data-name="레이어 3"><path class="cls-1" d="M389,322.15a5.68,5.68,0,0,1-2.89,5.27c-35.36,19.65-73.47,24.34-99.23,24.81-1.64,0-3.26,0-4.84,0-25.25,0-42.35-3.6-43.11-3.77a2.91,2.91,0,0,1-2.25-2.28,13.92,13.92,0,0,0-9.08-10.34,118.94,118.94,0,0,0-36.5-6l-3,14.64a2.93,2.93,0,0,1-3,2.33L122.38,343a8.37,8.37,0,0,1-7.84-8.18l-.38-23.74a10.24,10.24,0,0,1,6-9.49c-6-13.86-3.2-35.65-.9-53.44l.32-2.49c.65-5,1.24-9.84,1.37-13.48.57-15.82-9.76-64.82-9.87-65.31a2.92,2.92,0,0,1,2.08-3.42c.17-.05,17.13-4.75,37.51-9,27.54-5.68,47.93-7.81,60.59-6.32a2.93,2.93,0,0,1,2.41,1.91c1.07,2.93,1.82,7.37,2.78,13,3.4,20,9.1,53.61,37.55,64.12,10.72,4,17.5,10.65,20.15,19.61,13.09,13.71,39.8,16.88,61.32,19.44,7.43.88,14.46,1.71,20.33,2.89,10.63,2.12,18.25,9,22.05,20a47.27,47.27,0,0,1,2.29,10.6A14.5,14.5,0,0,1,388.4,312Zm-5.84.22-.59-10a8.65,8.65,0,0,0-2.81-5.85,2.7,2.7,0,0,1-.84.77c-.49.3-12.57,7.37-56.32,17.86a162,162,0,0,1-37.86,4.34c-28.64,0-53.61-6.85-68.36-12-31.84-11.14-83.62-11-91-10.95h-.94A4.46,4.46,0,0,0,120,311l.38,23.73a2.52,2.52,0,0,0,2.35,2.45l60.12,3.64,3-14.47a2.94,2.94,0,0,1,2.73-2.33,121.52,121.52,0,0,1,40.93,6.33,19.79,19.79,0,0,1,12.4,12.77,238.51,238.51,0,0,0,45,3.26C311.94,345.91,348.93,341.36,383.15,322.37ZM374.48,303a42.4,42.4,0,0,0-2.22-12c-3.14-8.94-9.07-14.33-17.62-16.05-5.66-1.12-12.56-1.95-19.88-2.81-19.87-2.36-44-5.22-59.36-16.42a53.58,53.58,0,0,1-3.58,18.65,2.92,2.92,0,0,1-3.28,1.88L125,249.49c-.2,1.59-.42,3.23-.62,4.91l1.89.36a2.92,2.92,0,0,1-.53,5.79,3.29,3.29,0,0,1-.54-.05l-1.51-.28c-1.63,14.66-2.43,30.86,2.48,40.42l2.93,0c14.59,0,59.51.9,89.23,11.3,20.39,7.14,60.89,17.61,102.94,7.52C355.78,311.14,370.22,305,374.48,303ZM267.13,270c2.41-7.52,3-14.17,1.81-19.79a21.85,21.85,0,0,0-1.31-4.08l-5.39,3.77a2.84,2.84,0,0,1-1.68.53,2.92,2.92,0,0,1-1.67-5.31l5.69-4c-2.92-3.57-7.14-6.38-12.62-8.4-1-.37-2-.78-3-1.21l-8.18,8a2.93,2.93,0,0,1-4.13,0,2.92,2.92,0,0,1,0-4.13l6.81-6.69a51,51,0,0,1-9.88-7.72l-6.8,5.83a2.88,2.88,0,0,1-1.9.71,2.92,2.92,0,0,1-1.9-5.14l6.71-5.74A65.76,65.76,0,0,1,222.31,205l-8.76,3.25a3,3,0,0,1-1,.18,2.92,2.92,0,0,1-1-5.66l8.33-3.08a106.6,106.6,0,0,1-3.92-11.11l-10.37,1.83a2.92,2.92,0,0,1-1-5.75l9.85-1.75c-1.48-6-2.51-11.7-3.37-16.68l-13-2.92a2.92,2.92,0,1,1,1.27-5.7L210,160c-.43-2.4-.84-4.53-1.28-6.18a122.55,122.55,0,0,0-22.14.74L190.67,183a12.93,12.93,0,0,1-11.43,14.72c-14.24,1.53-39.64,4.56-55,8.26,1.61,10.5,2.78,20.52,2.57,26.46-.11,3.19-.54,7.11-1.06,11.27Zm-83.66-80.8a7,7,0,0,0,1.42-5.37l-4.16-28.57c-25.54,3.36-54.61,10.81-63.39,13.15,1.14,5.52,3.74,18.51,5.93,31.78,15.81-3.74,41.1-6.76,55.36-8.28A7,7,0,0,0,183.47,189.18Z"/><path class="cls-2" d="M382.56,312.33l.59,10c-34.22,19-71.21,23.54-96.22,24a238.51,238.51,0,0,1-45-3.26,19.79,19.79,0,0,0-12.4-12.77A121.52,121.52,0,0,0,188.57,324a2.94,2.94,0,0,0-2.73,2.33l-3,14.47-60.12-3.64a2.52,2.52,0,0,1-2.35-2.45L120,311a4.46,4.46,0,0,1,4.44-4.51h.94c7.37-.08,59.15-.19,91,10.95,14.75,5.16,39.72,12,68.36,12a162,162,0,0,0,37.86-4.34c43.75-10.49,55.83-17.56,56.32-17.86a2.7,2.7,0,0,0,.84-.77A8.65,8.65,0,0,1,382.56,312.33Z"/><path class="cls-3" d="M372.26,290.94a42.4,42.4,0,0,1,2.22,12c-4.26,2-18.7,8.17-53.25,16.47-42.05,10.09-82.55-.38-102.94-7.52-29.72-10.4-74.64-11.3-89.23-11.3l-2.93,0c-4.91-9.56-4.11-25.76-2.48-40.42l1.51.28a3.29,3.29,0,0,0,.54.05,2.92,2.92,0,0,0,.53-5.79l-1.89-.36c.2-1.68.42-3.32.62-4.91l143.58,26.7a2.92,2.92,0,0,0,3.28-1.88,53.58,53.58,0,0,0,3.58-18.65c15.36,11.2,39.49,14.06,59.36,16.42,7.32.86,14.22,1.69,19.88,2.81C363.19,276.61,369.12,282,372.26,290.94Zm-90.44-12.38a2.92,2.92,0,1,0-5.45-2.1A7.54,7.54,0,0,1,271.5,281a2.92,2.92,0,0,0,.82,5.72,3,3,0,0,0,.83-.12A13.37,13.37,0,0,0,281.82,278.56ZM262.26,283a2.92,2.92,0,0,0-2.33-3.41l-9.39-1.75a2.92,2.92,0,0,0-1.06,5.75l9.38,1.74a2.41,2.41,0,0,0,.54.05A2.92,2.92,0,0,0,262.26,283ZM240,278.88a2.93,2.93,0,0,0-2.34-3.41l-9.38-1.74a2.92,2.92,0,0,0-1.07,5.74l9.39,1.75a3.27,3.27,0,0,0,.53,0A2.92,2.92,0,0,0,240,278.88Zm-22.28-4.14a2.92,2.92,0,0,0-2.34-3.41L206,269.58a2.92,2.92,0,0,0-1.07,5.75l9.38,1.74a2.55,2.55,0,0,0,.54.06A2.93,2.93,0,0,0,217.7,274.74Zm-22.28-4.15a2.91,2.91,0,0,0-2.34-3.4l-9.38-1.75a2.92,2.92,0,1,0-1.07,5.74l9.39,1.75a2.32,2.32,0,0,0,.53.05A2.92,2.92,0,0,0,195.42,270.59Zm-22.28-4.14A2.93,2.93,0,0,0,170.8,263l-9.38-1.74a2.92,2.92,0,1,0-1.07,5.74l9.38,1.75a3.29,3.29,0,0,0,.54,0A2.93,2.93,0,0,0,173.14,266.45Zm-22.28-4.15a2.93,2.93,0,0,0-2.34-3.4l-9.38-1.75a2.92,2.92,0,0,0-1.07,5.75l9.38,1.74a2.47,2.47,0,0,0,.54.05A2.93,2.93,0,0,0,150.86,262.3Z"/><path class="cls-1" d="M280.14,274.78a2.92,2.92,0,0,1,1.68,3.78,13.37,13.37,0,0,1-8.67,8,3,3,0,0,1-.83.12,2.92,2.92,0,0,1-.82-5.72,7.54,7.54,0,0,0,4.87-4.49A2.92,2.92,0,0,1,280.14,274.78Z"/><path class="cls-4" d="M268.94,250.19c1.22,5.62.6,12.27-1.81,19.79l-141.42-26.3c.52-4.16,1-8.08,1.06-11.27.21-5.94-1-16-2.57-26.46,15.4-3.7,40.8-6.73,55-8.26A12.93,12.93,0,0,0,190.67,183l-4.13-28.42a122.55,122.55,0,0,1,22.14-.74c.44,1.65.85,3.78,1.28,6.18l-10.69-2.4a2.92,2.92,0,1,0-1.27,5.7l13,2.92c.86,5,1.89,10.71,3.37,16.68l-9.85,1.75a2.92,2.92,0,1,0,1,5.75l10.37-1.83a106.6,106.6,0,0,0,3.92,11.11l-8.33,3.08a2.92,2.92,0,0,0,1,5.66,3,3,0,0,0,1-.18l8.76-3.25a65.76,65.76,0,0,0,7.47,11.64l-6.71,5.74a2.92,2.92,0,0,0,1.9,5.14,2.88,2.88,0,0,0,1.9-.71l6.8-5.83a51,51,0,0,0,9.88,7.72l-6.81,6.69a2.92,2.92,0,0,0,2,5,2.89,2.89,0,0,0,2.05-.83l8.18-8c1,.43,1.94.84,3,1.21,5.48,2,9.7,4.83,12.62,8.4l-5.69,4a2.92,2.92,0,0,0,1.67,5.31,2.84,2.84,0,0,0,1.68-.53l5.39-3.77A21.85,21.85,0,0,1,268.94,250.19Z"/><path class="cls-1" d="M259.93,279.62a2.92,2.92,0,0,1-.53,5.79,2.41,2.41,0,0,1-.54-.05l-9.38-1.74a2.92,2.92,0,0,1,1.06-5.75Z"/><path class="cls-1" d="M237.64,275.47a2.92,2.92,0,0,1-.53,5.8,3.27,3.27,0,0,1-.53,0l-9.39-1.75a2.92,2.92,0,0,1,1.07-5.74Z"/><path class="cls-1" d="M215.36,271.33a2.92,2.92,0,0,1-.53,5.8,2.55,2.55,0,0,1-.54-.06l-9.38-1.74a2.92,2.92,0,0,1,1.07-5.75Z"/><path class="cls-1" d="M193.08,267.19a2.92,2.92,0,0,1-.53,5.79,2.32,2.32,0,0,1-.53-.05l-9.39-1.75a2.92,2.92,0,1,1,1.07-5.74Z"/><path class="cls-3" d="M184.89,183.81a7.11,7.11,0,0,1-6.26,8.08c-14.26,1.52-39.55,4.54-55.36,8.28-2.19-13.27-4.79-26.26-5.93-31.78,8.78-2.34,37.85-9.79,63.39-13.15Z"/><path class="cls-1" d="M170.8,263a2.92,2.92,0,0,1-.53,5.8,3.29,3.29,0,0,1-.54,0L160.35,267a2.92,2.92,0,1,1,1.07-5.74Z"/><path class="cls-1" d="M148.52,258.9a2.92,2.92,0,0,1-.53,5.79,2.47,2.47,0,0,1-.54-.05l-9.38-1.74a2.92,2.92,0,0,1,1.07-5.75Z"/></g></svg>