<svg xmlns="http://www.w3.org/2000/svg" viewBox="0 0 500 500"><defs><style>.cls-1{fill:#e0d080;}.cls-2{fill:#c1573f;}.cls-3{fill:#a99c83;}.cls-4{fill:#3f352f;}</style></defs><g id="레이어_3" data-name="레이어 3"><path class="cls-1" d="M311.05,240c21,0,32.73,10.66,38.16,17.57,2.3-5.27,3.84-16-13.41-28.67-16.84-12.33-36.58-14.28-53-8.29l17.77,20.63A45.73,45.73,0,0,1,311.05,240Z"/><path class="cls-2" d="M398.87,268.81H101.13c-1.1,0-4.44,0-4.44,6.81s3.34,6.8,4.44,6.8H398.87c1.1,0,4.44,0,4.44-6.8S400,268.81,398.87,268.81Z"/><path class="cls-3" d="M292.6,243.82l-17.53-20.36c-3.07,1.3-11.43,5.71-12.49,6.28l17.78,20.43A91.49,91.49,0,0,1,292.6,243.82Z"/><path class="cls-1" d="M273.68,254.21l-18.06-20.76a568.31,568.31,0,0,1-61.32,27.67h60.17C261.18,261.12,267.15,258.09,273.68,254.21Z"/><path class="cls-4" d="M398.87,261.12H356.12c3.47-8.3,3.85-21.12-9-32.69-24.31-22-53.69-24.5-85.11-7.16-46.57,25.69-86,38.31-90.92,39.85h-70c-7.48,0-12.13,5.56-12.13,14.5s4.65,14.49,12.13,14.49H398.87c7.48,0,12.13-5.55,12.13-14.49S406.35,261.12,398.87,261.12ZM335.8,228.9c17.25,12.63,15.71,23.4,13.41,28.67C343.78,250.66,332,240,311.05,240a45.73,45.73,0,0,0-10.51,1.24l-17.77-20.63C299.22,214.62,319,216.57,335.8,228.9Zm6.39,32.22H277.08c1.38-.81,16.93-13.37,34-13.43C327.71,247.63,337.4,255.53,342.19,261.12Zm-67.12-37.66,17.53,20.36a91.49,91.49,0,0,0-12.24,6.35l-17.78-20.43C263.64,229.17,272,224.76,275.07,223.46Zm-19.45,10,18.06,20.76c-6.53,3.88-12.5,6.91-19.21,6.91H194.3A568.31,568.31,0,0,0,255.62,233.45Zm143.25,49H101.13c-1.1,0-4.44,0-4.44-6.8s3.34-6.81,4.44-6.81H398.87c1.1,0,4.44,0,4.44,6.81S400,282.42,398.87,282.42Z"/></g></svg>