<svg xmlns="http://www.w3.org/2000/svg" viewBox="0 0 500 500"><defs><style>.cls-1{fill:#0554be;}.cls-2{fill:#004694;}.cls-3{fill:#333;}.cls-4{fill:#004fab;}.cls-5{fill:#002b75;}.cls-6{fill:#0757c1;}</style></defs><g id="레이어_3" data-name="레이어 3"><path class="cls-1" d="M273.67,328.31s136.59,3.28,139.51-31.74c6.06-72.64-12.58-126.23-110.79-126.23s-114.66,75.88-114.66,75.88Z"/><path class="cls-2" d="M85.8,267.74s23.06,24.08,79.61,18.25C165.41,286,166.16,264.1,85.8,267.74Z"/><path class="cls-3" d="M148.09,289.71c-44.56,0-63.44-19.12-64.31-20A2.79,2.79,0,0,1,85.67,265c51.6-2.34,71.11,5.76,78.4,13,4.07,4,4.16,7.51,4.14,8.17a2.8,2.8,0,0,1-2.51,2.69A170.7,170.7,0,0,1,148.09,289.71ZM93.64,270.26c9.52,6.19,31.16,16.3,67.91,13.27C158.33,278.83,145.33,268.86,93.64,270.26Zm-7.84-2.52h0Z"/><polygon class="cls-4" points="274.66 176.21 244.8 186.53 218.28 205.51 205.16 226.17 199.86 245.7 187.73 246.22 197.63 223.38 214.38 200.77 243.12 181.51 264.89 175.37 280.52 174.53 274.66 176.21"/><polyline class="cls-4" points="374.58 321.62 379.61 276.96 366.77 206.07 339.98 179.28 315.41 171.46 303.13 175.65 289.74 204.4 279.13 255.75 279.13 329.44 371.79 322.74"/><path class="cls-5" d="M376.82,321.82l-.29,0a2.79,2.79,0,0,1-2.5-3.07c13.33-130.67-40.58-140.89-58.29-144.26a21.19,21.19,0,0,1-5.24-1.36,2.8,2.8,0,1,1,2.57-5,30.09,30.09,0,0,0,3.71.83c9.2,1.75,28.36,5.38,43.66,26,18.58,25,25,66.86,19.16,124.31A2.8,2.8,0,0,1,376.82,321.82Z"/><path class="cls-5" d="M198.56,248.5a3,3,0,0,1-.42,0,2.8,2.8,0,0,1-2.35-3.19c11.11-72.92,110.72-76.59,111.73-76.62a2.75,2.75,0,0,1,2.88,2.72,2.8,2.8,0,0,1-2.72,2.88c-1,0-96,3.57-106.35,71.86A2.8,2.8,0,0,1,198.56,248.5Z"/><path class="cls-5" d="M278.57,328.33a2.81,2.81,0,0,1-2.8-2.69c-5.59-139.35,31.68-156.39,33.27-157a2.8,2.8,0,0,1,2.18,5.16c-.56.26-35.22,17.87-29.85,151.67a2.8,2.8,0,0,1-2.69,2.91Z"/><path class="cls-3" d="M285.53,331.24c-5.73,0-9.92-.08-11.93-.13a2.75,2.75,0,0,1-1.86-.78L185.8,248.24a2.77,2.77,0,0,1-.8-2.62c.17-.78,18.06-78.08,117.39-78.08,42.67,0,72.5,9.87,91.16,30.16,19.2,20.86,26.32,52.35,22.42,99.1C413.35,328.25,320.61,331.24,285.53,331.24Zm-10.71-5.71c38,.83,133.37-2.88,135.57-29.19,3.76-45.08-2.9-75.22-21-94.85-17.55-19.07-46-28.35-87-28.35-87.29,0-108.57,61.76-111.53,72.19Z"/><ellipse class="cls-4" cx="310.44" cy="169.41" rx="10.05" ry="6.51"/><path class="cls-3" d="M310.44,178.73c-7.21,0-12.85-4.1-12.85-9.32s5.64-9.31,12.85-9.31,12.85,4.09,12.85,9.31S317.64,178.73,310.44,178.73Zm0-13c-4.08,0-7.25,2-7.25,3.71s3.17,3.72,7.25,3.72,7.25-2,7.25-3.72S314.52,165.7,310.44,165.7Z"/><path class="cls-6" d="M187.73,246.22,85.8,267.74s55.06-2.18,74.78,25.91C171,308.53,197,341.08,237.21,336.7s39.44-10.94,39.44-10.94S259.53,249.87,187.73,246.22Z"/><path class="cls-3" d="M230,339.9c-26.43,0-51.07-15.3-71.67-44.64-18.6-26.51-71.83-24.72-72.37-24.72a2.8,2.8,0,0,1-.69-5.54l101.93-21.52a2.55,2.55,0,0,1,.73-.06c73.07,3.72,91.33,80.94,91.5,81.72,0,.1,0,.2.05.3a4.25,4.25,0,0,1-1.08,3.13c-3.76,4.7-17.5,8.37-40.83,10.92A71.68,71.68,0,0,1,230,339.9ZM107.48,266c18.2,2.18,43.06,8.44,55.39,26,21.31,30.35,46.91,44.83,74,41.88,28.68-3.13,35.36-7.28,36.76-8.53-2.33-8.75-21.59-72.86-85.72-76.36ZM274,325Z"/></g></svg>