<svg xmlns="http://www.w3.org/2000/svg" viewBox="0 0 500 500"><defs><style>.cls-1{fill:#a99c83;}.cls-2{fill:#8bb4c8;}.cls-3{fill:#e0d080;}.cls-4{fill:#a8d6c6;}.cls-5{fill:#3f352f;}</style></defs><g id="레이어_3" data-name="레이어 3"><path class="cls-1" d="M116.43,330.11c-6.7-14.61,5.84-43.86,10.86-54.47L118.13,269c-4.89,9.77-17.24,36.82-15.39,56.94,1.23,13.38,9.69,27.67,29.73,27.67h15a27.12,27.12,0,0,1-5.44-12.85C131.37,340.51,120.5,339,116.43,330.11Z"/><polygon class="cls-1" points="183.52 357.3 184.9 363.16 195.02 363.16 196.4 357.3 196.4 352.64 183.52 352.64 183.52 357.3"/><path class="cls-2" d="M149.25,336.48c0,9.43,6.73,17.1,15,17.1H176V307.71c-11.78-1.14-20.47-3-26.76-5.88Z"/><path class="cls-3" d="M190,331c-4,0-6.23,1.83-6.44,2.54v10.57H196.4V333.48C196.22,332.83,194,331,190,331Z"/><path class="cls-2" d="M218.62,144.13h62.79a1.76,1.76,0,0,0,1.63-1.86V138.7a1.76,1.76,0,0,0-1.63-1.86H218.62A1.76,1.76,0,0,0,217,138.7v3.57A1.76,1.76,0,0,0,218.62,144.13Z"/><path class="cls-2" d="M324,307.66v45.92h11.75c8.23,0,14.92-7.57,15-16.92,0-.06,0-35.12,0-35.12C344.5,304.38,335.8,306.35,324,307.66Z"/><path class="cls-4" d="M329.61,273.76a4.89,4.89,0,0,1-.22,1.42L324,292.64v6.42c15.45-1.78,25.24-4.8,29.83-9.18,3.63-3.45,3.8-7.53,3.8-14.43h0V184.6c0-9.42-6.73-17.09-15-17.09H157.4c-8.28,0-15,7.67-15,17.09v90.83c0,7,.18,11.17,3.82,14.71,4.63,4.48,14.41,7.43,29.81,9v-6.49l-5.38-17.46a4.88,4.88,0,0,1-.21-1.42c0-12.16,7.67-20,19.54-20s19.54,7.86,19.54,20a4.88,4.88,0,0,1-.21,1.42l-5.38,17.46v8.6c13,.61,28.1.91,46.1.91s33.13-.3,46.1-.92v-8.59l-5.38-17.46a4.88,4.88,0,0,1-.21-1.42c0-12.16,7.67-20,19.54-20S329.61,261.6,329.61,273.76Z"/><path class="cls-1" d="M310.06,262.29c-7.51,0-11.76,3.82-12,10.79l4.49,14.55H317.6l4.48-14.55C321.82,266.11,317.58,262.29,310.06,262.29Z"/><path class="cls-1" d="M372.71,275.64c5,10.61,17.56,39.86,10.86,54.47-4.07,8.86-14.93,10.4-25.6,10.62a27.12,27.12,0,0,1-5.44,12.85h15c20,0,28.5-14.29,29.73-27.67,1.85-20.15-10.5-47.18-15.38-56.94Z"/><path class="cls-1" d="M183.52,323.61a18.16,18.16,0,0,1,12.88,0V305.13h0v-8.94H183.52Z"/><path class="cls-1" d="M303.62,323.61a18.16,18.16,0,0,1,12.88,0V296.18H303.62Z"/><path class="cls-2" d="M203.91,309.79v43.79h92.2V309.79c-13,.61-28.13.91-46.1.91S216.92,310.4,203.91,309.79Z"/><path class="cls-3" d="M310.06,331c-4,0-6.24,1.83-6.44,2.54v10.57H316.5V333.48C316.32,332.83,314.06,331,310.06,331Z"/><path class="cls-1" d="M190,262.29c-7.52,0-11.76,3.82-12,10.79l4.48,14.55h15.07L202,273.08C201.72,266.11,197.48,262.29,190,262.29Z"/><polygon class="cls-1" points="303.62 357.3 305 363.16 315.12 363.16 316.5 357.3 316.5 352.64 303.62 352.64 303.62 357.3"/><path class="cls-5" d="M384,258.81a3.34,3.34,0,0,0-2.84.57l-4.34,3.15-11.62-24V184.6c0-14.14-10.1-25.64-22.53-25.64H304.84v-8.65c0-7.77-5.56-14.1-12.39-14.1h-2.17c-1-4.54-4.59-7.92-8.87-7.92H218.62c-4.29,0-7.89,3.38-8.87,7.92h-2.18c-6.83,0-12.39,6.33-12.39,14.1V159H157.4c-12.42,0-22.53,11.5-22.53,25.64v53.88l-11.64,24-4.34-3.15a3.34,3.34,0,0,0-2.84-.57,3.82,3.82,0,0,0-2.36,1.89c-.85,1.55-21,38.29-18.42,66.1,1.5,16.3,12.14,35.33,37.2,35.33h44.41l1.51,6.41a3.87,3.87,0,0,0,3.63,3.17H197.9a3.87,3.87,0,0,0,3.63-3.17l1.51-6.41H297l1.51,6.41a3.87,3.87,0,0,0,3.63,3.17H318a3.87,3.87,0,0,0,3.63-3.17l1.51-6.41h44.39c25.06,0,35.7-19,37.2-35.33,2.56-27.81-17.57-64.55-18.42-66.1A3.82,3.82,0,0,0,384,258.81Zm-18.8-2.57,5.28,10.91s-5.11,3.77-5.28,3.94Zm-6.86,40.54c.12-.11,7.15-5.44,6.85-19.07,7.09,14.35,16.09,39,11.77,48.44-2.13,4.65-10.17,5.8-18.62,6ZM217,138.7a1.76,1.76,0,0,1,1.64-1.86h62.79A1.76,1.76,0,0,1,283,138.7v3.57a1.76,1.76,0,0,1-1.63,1.86H218.62a1.76,1.76,0,0,1-1.64-1.86Zm-14.29,11.61c0-3.06,2.19-5.55,4.88-5.55h2.18c1,4.54,4.58,7.92,8.87,7.92h62.79c4.28,0,7.88-3.38,8.87-7.92h2.17c2.69,0,4.88,2.49,4.88,5.55V159H202.69ZM134.88,277.66c.06,6.43.67,13.38,6.45,19,.13.13.27.25.41.37v35.14c-8.46-.21-16.52-1.36-18.65-6C118.77,316.74,127.79,292,134.88,277.66Zm0-21.47v14.92c-.17-.18-5.3-4-5.3-4Zm-2.4,97.39c-20,0-28.5-14.29-29.73-27.67-1.85-20.12,10.5-47.17,15.39-56.94l9.16,6.67c-5,10.61-17.56,39.86-10.86,54.47,4.07,8.87,14.94,10.4,25.62,10.62a27.12,27.12,0,0,0,5.44,12.85Zm43.54,0H164.26c-8.28,0-15-7.67-15-17.1V301.83c6.29,2.85,15,4.74,26.76,5.88Zm20.39,3.71L195,363.16H184.9l-1.38-5.87v-4.65H196.4Zm0-13.2H183.52V333.52c.21-.71,2.46-2.54,6.44-2.54s6.26,1.85,6.44,2.5Zm0-39h0v18.49a18.16,18.16,0,0,0-12.88,0V296.18H196.4Zm1.09-17.49H182.42l-4.48-14.55c.26-7,4.5-10.79,12-10.79s11.76,3.82,12,10.79Zm98.62,65.95h-92.2V309.79c13,.61,28.14.91,46.1.91s33.09-.3,46.1-.91Zm20.39,3.71-1.38,5.87H305l-1.38-5.87v-4.65H316.5Zm0-13.2H303.62V333.52c.2-.71,2.46-2.54,6.44-2.54s6.26,1.85,6.44,2.5Zm0-20.48a18.16,18.16,0,0,0-12.88,0V296.18H316.5Zm1.1-36H302.53L298,273.08c.26-7,4.51-10.79,12-10.79s11.76,3.82,12,10.79Zm-7.54-33.89c-11.87,0-19.54,7.86-19.54,20a4.88,4.88,0,0,0,.21,1.42l5.38,17.46v8.59c-13,.62-28.09.92-46.1.92s-33.13-.3-46.1-.91v-8.6l5.38-17.46a4.88,4.88,0,0,0,.21-1.42c0-12.16-7.67-20-19.54-20s-19.54,7.86-19.54,20a4.88,4.88,0,0,0,.21,1.42L176,292.64v6.49c-15.4-1.56-25.18-4.51-29.81-9-3.64-3.54-3.82-7.68-3.82-14.71V184.6c0-9.42,6.74-17.09,15-17.09H342.62c8.29,0,15,7.67,15,17.09v90.85h0c0,6.9-.17,11-3.8,14.43-4.59,4.38-14.38,7.4-29.83,9.18v-6.42l5.38-17.46a4.89,4.89,0,0,0,.22-1.42C329.61,261.6,321.93,253.74,310.06,253.74Zm40.71,82.92c-.09,9.35-6.78,16.92-15,16.92H324V307.66c11.79-1.31,20.49-3.28,26.77-6.12C350.78,301.54,350.77,336.6,350.77,336.66Zm46.49-10.75c-1.23,13.38-9.69,27.67-29.73,27.67h-15A27.12,27.12,0,0,0,358,340.73c10.67-.22,21.53-1.76,25.6-10.62,6.7-14.61-5.84-43.86-10.86-54.47l9.17-6.67C386.76,278.73,399.11,305.76,397.26,325.91Z"/></g></svg>