<svg xmlns="http://www.w3.org/2000/svg" viewBox="0 0 500 500"><defs><style>.cls-1{fill:#a8d6c6;}.cls-2{fill:#a99c83;}.cls-3{fill:#cae6dc;}.cls-4{fill:#c5bca5;}.cls-5{fill:#3f352f;}</style></defs><g id="레이어_3" data-name="레이어 3"><rect class="cls-1" x="211.03" y="167.02" width="6.12" height="3.81"/><path class="cls-2" d="M267.19,270v19.42c0,6.61-4.72,12-10.52,12H243.33c-5.8,0-10.52-5.37-10.52-12V270H147.44a21.7,21.7,0,0,1-16.14-7.48V370.24a.74.74,0,0,0,.7.79H368a.74.74,0,0,0,.7-.79V262.49A21.7,21.7,0,0,1,352.56,270Z"/><path class="cls-3" d="M241.21,134.59h17.58c14.13,0,22.69,8.85,23.91,24.44h6.11C287.41,142.13,277.26,129,265,129H235c-12.28,0-22.43,13.16-23.83,30.06h6.11C218.52,143.44,227.08,134.59,241.21,134.59Z"/><rect class="cls-1" x="282.85" y="167.02" width="6.12" height="3.81"/><path class="cls-4" d="M368,178.82H132a.75.75,0,0,0-.7.8v64c0,10.13,7.24,18.37,16.14,18.37h85.37V251.6c0-6.61,4.72-12,10.52-12h13.34c5.8,0,10.52,5.38,10.52,12V262h85.37c8.9,0,16.14-8.24,16.14-18.37v-64A.75.75,0,0,0,368,178.82Z"/><path class="cls-3" d="M260.18,251.6a3.78,3.78,0,0,0-3.51-4H243.33a3.78,3.78,0,0,0-3.51,4V262h20.36Z"/><path class="cls-3" d="M239.82,289.39a3.78,3.78,0,0,0,3.51,4h13.34a3.78,3.78,0,0,0,3.51-4V270H239.82Zm6.67-11.77a3.54,3.54,0,1,1,7,0v8.44a3.54,3.54,0,1,1-7,0Z"/><path class="cls-5" d="M368,170.83H296V163c0-23.19-13.91-42-31-42H235c-17.1,0-31,18.86-31,42.05v7.8H132c-4.25,0-7.72,3.94-7.72,8.79V370.24c0,4.84,3.47,8.78,7.72,8.78H368c4.25,0,7.72-3.94,7.72-8.78V179.62C375.72,174.77,372.25,170.83,368,170.83ZM235,129h30c12.28,0,22.43,13.16,23.83,30.06H282.7c-1.22-15.59-9.78-24.44-23.91-24.44H241.21c-14.13,0-22.69,8.85-23.91,24.44h-6.11C212.59,142.13,222.74,129,235,129ZM289,167v3.81h-6.12V167Zm-13.14-4v7.8H224.16V163c0-13.57,5.74-20.45,17.05-20.45h17.58C270.1,142.58,275.83,149.46,275.83,163ZM211,167h6.12v3.81H211ZM368.7,370.24a.74.74,0,0,1-.7.79H132a.74.74,0,0,1-.7-.79V262.49A21.7,21.7,0,0,0,147.44,270h85.37v19.42c0,6.61,4.72,12,10.52,12h13.34c5.8,0,10.52-5.37,10.52-12V270h85.37a21.7,21.7,0,0,0,16.14-7.48ZM260.18,270v19.42a3.78,3.78,0,0,1-3.51,4H243.33a3.78,3.78,0,0,1-3.51-4V270Zm-20.36-8V251.6a3.78,3.78,0,0,1,3.51-4h13.34a3.78,3.78,0,0,1,3.51,4V262ZM368.7,243.61c0,10.13-7.24,18.37-16.14,18.37H267.19V251.6c0-6.61-4.72-12-10.52-12H243.33c-5.8,0-10.52,5.38-10.52,12V262H147.44c-8.9,0-16.14-8.24-16.14-18.37v-64a.75.75,0,0,1,.7-.8H368a.75.75,0,0,1,.7.8Z"/><path class="cls-5" d="M250,290.05a3.77,3.77,0,0,0,3.51-4v-8.44a3.54,3.54,0,1,0-7,0v8.44A3.77,3.77,0,0,0,250,290.05Z"/></g></svg>