<svg xmlns="http://www.w3.org/2000/svg" viewBox="0 0 500 500"><defs><style>.cls-1{fill:#b69578;}.cls-2{fill:#c6ab8d;}.cls-3{fill:#211405;}.cls-4{fill:#333;}</style></defs><g id="레이어_3" data-name="레이어 3"><path class="cls-1" d="M169.72,309.58c16-6,30-38,30-38s12-42,16-80.07,22-52,22-52v-.76c-39.43,1.92-71.46,17.41-78.06,47.25-8.23,37.13-30,79.18-30,79.18-34,22-58.22,12-42.2,56,7.23,15.58,35.34,26.64,72.23,33.21v-6.74S153.71,315.58,169.72,309.58Z"/><path class="cls-2" d="M372.56,265.1s-21.35-40.26-30-79.18c-8.23-36.94-46-48.6-91.41-47.39q-6.8-.18-13.35.14v.76s-18,14-22,52-16,80.07-16,80.07-14,32-30,38-10,38-10,38v6.74c90.72,16.16,234.65,5.1,252.43-33.21C428.17,277.11,406.59,287.12,372.56,265.1Z"/><path class="cls-3" d="M354.21,229.84s-55,19.69-99.75,19.69c-36.64,0-81.4-9.34-105.42-22.69l-18.68,37.37s53.38,32,124.1,29.36S371.9,268.43,371.9,268.43Z"/><path class="cls-4" d="M249.82,365.16c-67.29,0-151-11.13-165.6-42.5-12.21-33.54-2.14-39.49,18.23-47.93,7.24-3,15.43-6.4,24.47-12.14,3.09-6.11,21.89-44.08,29.28-77.45,7.16-32.34,43.54-51.58,95-50.21,54.35-1.46,87.19,15.9,94.83,50.21,7.79,35,26.22,71.53,29.27,77.44a158.35,158.35,0,0,0,23.39,11.9c20,8.63,29.06,14.27,16.83,47.9C400.86,354,317.11,365.16,249.82,365.16Zm-3.17-223.09c-36.46,0-76.11,11.63-83.42,44.63C155,223.86,133.79,265,132.89,266.76a3.68,3.68,0,0,1-1.24,1.36c-9.92,6.42-19.08,10.21-26.44,13.26C86.78,289,80.57,291.59,90.87,319.91c10.36,22.28,75.77,38,159,38s148.59-15.76,159.07-38.32c10.33-28.45,4.91-30.79-13-38.54a161.1,161.1,0,0,1-25.25-13,3.57,3.57,0,0,1-1.23-1.33c-.88-1.67-21.68-41.14-30.36-80.09-6.89-30.94-36.28-45.88-87.8-44.57C249.71,142.09,248.18,142.07,246.65,142.07Z"/></g></svg>