<svg xmlns="http://www.w3.org/2000/svg" viewBox="0 0 500 500"><defs><style>.cls-1{fill:#333;}.cls-2{fill:#f08181;}.cls-3{fill:#f2d973;}</style></defs><g id="레이어_3" data-name="레이어 3"><path class="cls-1" d="M384.84,221.94a24.59,24.59,0,0,1-24.23,24.56,19.58,19.58,0,0,1-15.32,36l.06.05A24.56,24.56,0,0,1,311,317.69a19.57,19.57,0,0,1-36.47,14.09c0,.14,0,.28,0,.43a24.61,24.61,0,0,1-20.74,24.27V367.9a16,16,0,0,1,16.42,26.41l-17.54,17.55a3.57,3.57,0,0,1-2.52,1,3.61,3.61,0,0,1-2.53-1l-17.54-17.55A16,16,0,0,1,246.7,368v-11.4a24.59,24.59,0,0,1-21.25-23.7,19.57,19.57,0,0,1-35.69-15.93l-.35.37a24.57,24.57,0,0,1-35.07-34.42,19.12,19.12,0,0,1-6,1,19.55,19.55,0,0,1-18.09-12.06l-.15-.39a.36.36,0,0,1,0-.09,19.71,19.71,0,0,1,10-24.79h-.33a24.57,24.57,0,0,1-.23-49.13,19.58,19.58,0,0,1,8.74-37.1,19.2,19.2,0,0,1,6.46,1.11l0,0a24.57,24.57,0,0,1,34.68-34.81,19.59,19.59,0,0,1,11-24.51,19.72,19.72,0,0,1,7.52-1.51,19.52,19.52,0,0,1,17.61,11,24.57,24.57,0,0,1,49.14-.06,19.57,19.57,0,0,1,36.07,15,24.57,24.57,0,0,1,35,34.45A19.58,19.58,0,0,1,360,197.38h.25A24.6,24.6,0,0,1,384.84,221.94Zm-7.14,0a17.44,17.44,0,1,0-17.43,17.44A17.45,17.45,0,0,0,377.7,221.94Zm-14.11,47a12.45,12.45,0,0,0-6.73-16.26,12.18,12.18,0,0,0-4.75-1,12.46,12.46,0,1,0,11.48,17.22Zm-.08-84.64a12.28,12.28,0,0,0,0-9.52A12.44,12.44,0,0,0,340.37,184l.15.37a12.44,12.44,0,0,0,23-.06Zm-12.23,14.82a19.53,19.53,0,0,1-17.35-12l-.16-.4a.54.54,0,0,1,0-.1,19.66,19.66,0,0,1,3.49-19.83,24.57,24.57,0,0,1-32-32.18,19.58,19.58,0,0,1-31.14-7.07,19.74,19.74,0,0,1-1.48-6.31,24.56,24.56,0,0,1-45.28.09,19.69,19.69,0,0,1-1.45,6.31,19.59,19.59,0,0,1-31.14,7.16,24.57,24.57,0,0,1-32,32,19.81,19.81,0,0,1,3.55,5.63,19.57,19.57,0,0,1-16.82,27.05,24.56,24.56,0,0,1-.48,45.29A19.56,19.56,0,0,1,163.17,277a24.56,24.56,0,0,1,31.4,32.68,19.52,19.52,0,0,1,13.49-5.39,19.78,19.78,0,0,1,7.49,1.49,19.49,19.49,0,0,1,10.59,10.59,19.82,19.82,0,0,1,1.43,5.84,24.56,24.56,0,0,1,45.31,1,19.56,19.56,0,0,1,32.23-14.34,24.57,24.57,0,0,1,32.53-31.58,19.57,19.57,0,0,1,13.12-32.73,24.57,24.57,0,0,1,.52-45.52Zm-11-42.78a17.44,17.44,0,1,0-24.67,0A17.47,17.47,0,0,0,340.31,156.3Zm0,155.94a17.44,17.44,0,1,0-24.67,0A17.47,17.47,0,0,0,340.31,312.24Zm-36.37,16.34a12.48,12.48,0,1,0-6.73,6.74A12.35,12.35,0,0,0,303.94,328.58Zm-.22-203.87A12.48,12.48,0,0,0,297,108.46a12.44,12.44,0,1,0,6.77,16.25ZM265.21,389.27a8.84,8.84,0,0,0-12.5-12.5,3.58,3.58,0,0,1-5.05,0,8.86,8.86,0,0,0-12.5,0,8.86,8.86,0,0,0,0,12.5l15,15Zm2.23-277.6A17.44,17.44,0,1,0,250,129.11,17.46,17.46,0,0,0,267.44,111.67Zm0,220.54A17.44,17.44,0,1,0,250,349.65,17.47,17.47,0,0,0,267.44,332.21Zm-47.89-3.58a12.43,12.43,0,0,0-6.74-16.25,12.18,12.18,0,0,0-4.75-1,12.45,12.45,0,1,0,11.49,17.21Zm-.22-203.78a12.46,12.46,0,1,0-6.72,6.74A12.35,12.35,0,0,0,219.33,124.85Zm-35,31.45a17.44,17.44,0,1,0-24.66,0A17.45,17.45,0,0,0,184.36,156.3Zm0,155.94a17.44,17.44,0,1,0-24.66,0A17.45,17.45,0,0,0,184.36,312.24Zm-31.26-36.5a12.45,12.45,0,0,0-4.78-23.94,12.32,12.32,0,0,0-4.77,1,12.53,12.53,0,0,0-6.85,15.92l.14.35a12.42,12.42,0,0,0,16.26,6.71Zm6.63-91.12A12.41,12.41,0,0,0,153,168.37a12.16,12.16,0,0,0-4.74-1,12.45,12.45,0,1,0,11.49,17.2Zm-2.56,37.32a17.44,17.44,0,1,0-17.44,17.44A17.45,17.45,0,0,0,157.17,221.94Z"/><circle class="cls-2" cx="360.27" cy="221.94" r="17.44" transform="translate(-56.11 146.55) rotate(-21.37)"/><path class="cls-3" d="M356.86,252.64a12.41,12.41,0,1,1-4.75-1A12.18,12.18,0,0,1,356.86,252.64Z"/><path class="cls-3" d="M363.48,174.74A12.44,12.44,0,0,1,352,192a12.41,12.41,0,0,1-11.49-7.65l-.15-.37A12.53,12.53,0,0,1,347.21,168a12.4,12.4,0,0,1,16.27,6.7Z"/><path class="cls-2" d="M340.31,131.64a17.47,17.47,0,1,1-12.34-5.1A17.47,17.47,0,0,1,340.31,131.64Z"/><path class="cls-2" d="M340.31,287.58a17.47,17.47,0,1,1-12.34-5.1A17.47,17.47,0,0,1,340.31,287.58Z"/><path class="cls-3" d="M303.93,319.05a12.43,12.43,0,1,1-11.5-7.67A12.35,12.35,0,0,1,303.93,319.05Z"/><path class="cls-3" d="M297,108.46a12.44,12.44,0,0,1-4.75,24,12.45,12.45,0,1,1,4.75-24Z"/><path class="cls-3" d="M265.21,376.77a8.86,8.86,0,0,1,0,12.5l-15,15-15-15a8.83,8.83,0,0,1,6.25-15.08,8.76,8.76,0,0,1,6.25,2.58,3.58,3.58,0,0,0,5.05,0A8.86,8.86,0,0,1,265.21,376.77Z"/><path class="cls-2" d="M250,94.24a17.44,17.44,0,1,1-17.44,17.43A17.46,17.46,0,0,1,250,94.24Z"/><path class="cls-2" d="M250,314.77a17.44,17.44,0,1,1-17.44,17.44A17.47,17.47,0,0,1,250,314.77Z"/><path class="cls-3" d="M219.55,319.11a12.44,12.44,0,1,1-11.49-7.69,12.18,12.18,0,0,1,4.75,1A12.36,12.36,0,0,1,219.55,319.11Z"/><path class="cls-3" d="M219.32,115.32a12.44,12.44,0,1,1-11.5-7.66A12.35,12.35,0,0,1,219.32,115.32Z"/><path class="cls-2" d="M184.36,131.64A17.48,17.48,0,1,1,172,126.55,17.45,17.45,0,0,1,184.36,131.64Z"/><path class="cls-2" d="M184.36,287.58a17.45,17.45,0,1,1-12.33-5.1A17.45,17.45,0,0,1,184.36,287.58Z"/><path class="cls-3" d="M159.82,259.47a12.44,12.44,0,1,1-23,9.56l-.14-.35a12.53,12.53,0,0,1,6.85-15.92,12.43,12.43,0,0,1,16.27,6.71Z"/><path class="cls-3" d="M159.73,175.09a12.44,12.44,0,1,1-11.49-7.67,12.16,12.16,0,0,1,4.74,1A12.39,12.39,0,0,1,159.73,175.09Z"/><circle class="cls-2" cx="139.73" cy="221.94" r="17.44" transform="matrix(0.37, -0.93, 0.93, 0.37, -118.19, 269.49)"/></g></svg>