<svg xmlns="http://www.w3.org/2000/svg" viewBox="0 0 500 500"><defs><style>.cls-1{fill:#f5f1f7;}.cls-2{fill:#e5e5e5;}.cls-3{fill:#dcdbdd;}.cls-4{fill:#ffb731;}.cls-5{fill:#ff7500;}.cls-6{fill:#333;}</style></defs><g id="레이어_3" data-name="레이어 3"><polygon class="cls-1" points="293.08 363.69 206.93 363.69 190.98 161.54 309.02 161.54 293.08 363.69"/><rect class="cls-2" x="190.98" y="137.12" width="118.03" height="24.42"/><rect class="cls-3" x="206.93" y="363.69" width="86.15" height="46.13"/><path d="M216.72,232.17V207.85h6.71v24.78c0,9.61,3.82,12.74,9.15,12.74s9.32-3.13,9.32-12.74V207.85h6.48v24.32c0,13.89-6.36,19-15.8,19S216.72,246.06,216.72,232.17Z"/><path d="M253.29,207.85h7.12l6.32,22.06c1.44,4.86,2.37,9,3.87,14h.29c1.45-4.92,2.49-9.09,3.88-14l6.31-22.06h6.83L274.6,250.46h-7.93Z"/><polygon class="cls-4" points="297.38 301.52 203.28 301.52 200.72 266.29 302.5 266.29 297.38 301.52"/><circle class="cls-5" cx="252.26" cy="330.55" r="10.76"/><path class="cls-5" d="M252.26,330.42a1.71,1.71,0,0,1-1.71-1.72V316.42a1.71,1.71,0,1,1,3.42,0V328.7A1.71,1.71,0,0,1,252.26,330.42Z"/><path class="cls-5" d="M253.66,331a1.67,1.67,0,0,1-1.21-.5,1.71,1.71,0,0,1,0-2.42l8.69-8.69a1.71,1.71,0,1,1,2.42,2.42l-8.69,8.69A1.67,1.67,0,0,1,253.66,331Z"/><path class="cls-5" d="M266.56,332.32H254.27a1.72,1.72,0,0,1,0-3.43h12.29a1.72,1.72,0,0,1,0,3.43Z"/><path class="cls-5" d="M262.42,342.41a1.75,1.75,0,0,1-1.21-.5l-8.68-8.69A1.71,1.71,0,1,1,255,330.8l8.69,8.69a1.73,1.73,0,0,1,0,2.42A1.75,1.75,0,0,1,262.42,342.41Z"/><path class="cls-5" d="M252.37,346.62a1.71,1.71,0,0,1-1.71-1.71V332.62a1.71,1.71,0,0,1,3.42,0v12.29A1.71,1.71,0,0,1,252.37,346.62Z"/><path class="cls-5" d="M242.28,342.49a1.68,1.68,0,0,1-1.21-.51,1.71,1.71,0,0,1,0-2.42l8.69-8.69a1.71,1.71,0,0,1,2.42,2.42L243.49,342A1.68,1.68,0,0,1,242.28,342.49Z"/><path class="cls-5" d="M250.36,332.43H238.07a1.72,1.72,0,0,1,0-3.43h12.29a1.72,1.72,0,0,1,0,3.43Z"/><path class="cls-5" d="M250.89,331a1.75,1.75,0,0,1-1.21-.5L241,321.84a1.71,1.71,0,1,1,2.43-2.42l8.69,8.69a1.73,1.73,0,0,1,0,2.42A1.75,1.75,0,0,1,250.89,331Z"/><path class="cls-6" d="M293.08,366.66H206.92a3,3,0,0,1-3-2.74L188,161.77a3,3,0,0,1,3-3.2H309a3,3,0,0,1,3,3.2L296,363.92A3,3,0,0,1,293.08,366.66Zm-83.41-5.94h80.66L305.8,164.51H194.2Z"/><path class="cls-6" d="M309,164.51H191a3,3,0,0,1-3-3V137.12a3,3,0,0,1,3-3H309a3,3,0,0,1,3,3v24.42A3,3,0,0,1,309,164.51ZM194,158.57H306V140.09H194Z"/><path class="cls-6" d="M293.08,412.79H206.92a3,3,0,0,1-3-3V363.69a3,3,0,0,1,3-3h86.16a3,3,0,0,1,3,3v46.13A3,3,0,0,1,293.08,412.79Zm-83.18-5.94h80.2V366.66H209.9Z"/><path class="cls-4" d="M232.74,87.54l4.07,8.26a.6.6,0,0,0,.45.32l9.12,1.33a.59.59,0,0,1,.33,1l-6.6,6.43a.62.62,0,0,0-.17.53l1.56,9.08a.6.6,0,0,1-.87.63l-8.15-4.29a.59.59,0,0,0-.55,0l-8.16,4.29a.6.6,0,0,1-.86-.63l1.56-9.08a.62.62,0,0,0-.17-.53l-6.6-6.43a.59.59,0,0,1,.33-1l9.11-1.33a.57.57,0,0,0,.45-.32l4.08-8.26A.6.6,0,0,1,232.74,87.54Z"/><path class="cls-4" d="M268.33,87.54l4.08,8.26a.58.58,0,0,0,.45.32L282,97.45a.59.59,0,0,1,.33,1l-6.59,6.43a.59.59,0,0,0-.17.53l1.55,9.08a.59.59,0,0,1-.86.63l-8.15-4.29a.61.61,0,0,0-.56,0l-8.15,4.29a.59.59,0,0,1-.86-.63l1.55-9.08a.59.59,0,0,0-.17-.53l-6.59-6.43a.59.59,0,0,1,.33-1l9.11-1.33a.6.6,0,0,0,.45-.32l4.08-8.26A.59.59,0,0,1,268.33,87.54Z"/></g></svg>