<svg xmlns="http://www.w3.org/2000/svg" viewBox="0 0 500 500"><defs><style>.cls-1{fill:#1e1e1e;}.cls-2{fill:#333;}.cls-3{fill:#474747;}.cls-4{fill:#326a8c;}.cls-5{opacity:0.2;}.cls-6{fill:#fff;}.cls-7{fill:#ffb731;}</style></defs><g id="레이어_3" data-name="레이어 3"><path class="cls-1" d="M97.82,241.69s-35.24,21.84,2.32,50.38c29,22,52.11-15.63,110.6-11.58s73,12.74,73,12.74S222.86,194.17,97.82,241.69Z"/><path class="cls-2" d="M119.53,302.47c-7.1,0-14.09-2.1-21.45-7.69C85.22,285,79,274.72,79.45,264.22c.73-15.43,15.93-25,16.58-25.42a3.14,3.14,0,0,1,.58-.29c126.24-48,189.37,51.93,190,52.94a3.4,3.4,0,0,1-4.65,4.7c-.11-.07-15.15-8.37-71.45-12.27-26.78-1.85-46.24,5.38-61.9,11.19C138,299,128.67,302.47,119.53,302.47ZM99.37,244.74c-1.79,1.2-12.63,8.92-13.13,19.84-.37,8.12,5,16.45,16,24.78,13.86,10.53,25.86,6.08,44-.67,16.27-6,36.56-13.52,64.74-11.6,33.71,2.34,53.07,6.24,63.56,9.2C256.4,263.47,199.2,207,99.37,244.74Z"/><path class="cls-3" d="M401.83,271.22s-26.06-97.28-132-95.54l-172,66s64.28-24.32,165,38.22S354.93,325.08,381,311.18c24.61-18.82,23.16-29.82,23.16-29.82Z"/><path class="cls-4" d="M398.07,262s14.48,3.47,19.11,9.55l-2.61,31.56s-11.29-5.79-18.82-5.21-1.16,1.16-1.16,1.16Z"/><path class="cls-2" d="M414.57,306.48a3.41,3.41,0,0,1-1.55-.38c-2.71-1.38-10.45-4.74-15.83-4.87a3.36,3.36,0,0,1-2.9,1.18c-1.83-.17-5.64-.52-5.61-4,0-2,1.21-3,2.87-3.44l3.13-33.37a3.4,3.4,0,0,1,4.18-3c1.61.39,15.81,4,21,10.8a3.4,3.4,0,0,1,.68,2.34L418,303.35a3.39,3.39,0,0,1-1.73,2.7A3.51,3.51,0,0,1,414.57,306.48Zm-16.13-12a45.81,45.81,0,0,1,13.14,3.5l2.09-25.3c-2.67-2.56-8.08-4.87-12.59-6.33Z"/><g class="cls-5"><path class="cls-6" d="M262.86,279.91l89.72-75.31s-13-18.25-36.49-20.85l-150,56.46S251.89,263.15,262.86,279.91Z"/></g><path class="cls-2" d="M353.45,327.75c-14.66,0-37.78-11.05-92.39-44.95C163.14,222,99.65,244.64,99,244.87a3.4,3.4,0,0,1-2.42-6.36l172-66a3.27,3.27,0,0,1,1.16-.22c107.22-1.78,135.1,97.06,135.37,98.06l0,.13,2.32,10.13c.23,1.64,1,13.83-24.42,33.28a3.64,3.64,0,0,1-.46.3,95.57,95.57,0,0,0-9.55,6C366.61,324.65,361.22,327.75,353.45,327.75ZM132.6,233.49c29.13,0,74.66,7.91,132,43.53,83.73,52,89.82,47.75,104.52,37.58a100.69,100.69,0,0,1,10-6.29c20.49-15.73,21.57-25.3,21.62-26.51l-2.23-9.75c-1.25-4.6-26.68-93-125.9-93h-2.17L128.53,233.55C129.85,233.51,131.2,233.49,132.6,233.49Z"/><circle class="cls-7" cx="397.07" cy="279.6" r="12.65"/><path class="cls-2" d="M397.07,295.66a16.06,16.06,0,1,1,16.05-16.06A16.08,16.08,0,0,1,397.07,295.66Zm0-25.3a9.25,9.25,0,1,0,9.25,9.24A9.24,9.24,0,0,0,397.07,270.36Z"/></g></svg>