<svg xmlns="http://www.w3.org/2000/svg" viewBox="0 0 500 500"><defs><style>.cls-1{isolation:isolate;}.cls-2{fill:#fcfcfc;}.cls-3{fill:#333;}.cls-4{fill:#3d3d3d;}.cls-5{fill:#9ad2eb;}.cls-6{fill:#e2e2de;opacity:0.3;mix-blend-mode:color-dodge;}.cls-7{fill:#fff;opacity:0.2;}.cls-8{fill:none;}</style></defs><g class="cls-1"><g id="레이어_3" data-name="레이어 3"><rect class="cls-2" x="199.51" y="116.05" width="100.98" height="26.32"/><path class="cls-3" d="M303.31,145.2H196.69v-32H303.31Zm-101-5.64h95.34V118.87H202.33Z"/><path class="cls-4" d="M198.35,80.06H301.65a7.66,7.66,0,0,1,7.66,7.66v35.14a0,0,0,0,1,0,0H190.69a0,0,0,0,1,0,0V87.72A7.66,7.66,0,0,1,198.35,80.06Z"/><path class="cls-3" d="M309.31,125.68H190.69a2.82,2.82,0,0,1-2.82-2.82V105.47A28.26,28.26,0,0,1,216.1,77.24h67.81a28.25,28.25,0,0,1,28.22,28.23v17.39A2.82,2.82,0,0,1,309.31,125.68ZM193.5,120h113V105.47a22.62,22.62,0,0,0-22.59-22.59H216.1a22.62,22.62,0,0,0-22.6,22.59Z"/><rect class="cls-2" x="190.69" y="136.89" width="118.63" height="283.05" rx="15.99"/><path class="cls-3" d="M293.33,422.76H206.67A18.83,18.83,0,0,1,187.87,404V152.87a18.82,18.82,0,0,1,18.8-18.8h86.66a18.82,18.82,0,0,1,18.8,18.8V404A18.83,18.83,0,0,1,293.33,422.76Zm-86.66-283a13.18,13.18,0,0,0-13.17,13.16V404a13.19,13.19,0,0,0,13.17,13.17h86.66A13.19,13.19,0,0,0,306.5,404V152.87a13.18,13.18,0,0,0-13.17-13.16Z"/><rect class="cls-5" x="203.26" y="165.28" width="93.47" height="241.38"/><rect class="cls-6" x="259.2" y="123.98" width="28.53" height="298.07"/><rect class="cls-7" x="259.2" y="77.81" width="28.53" height="46.17"/><path class="cls-3" d="M309.31,125.68H190.69a2.82,2.82,0,0,1-2.82-2.82V105.47A28.26,28.26,0,0,1,216.1,77.24h67.81a28.25,28.25,0,0,1,28.22,28.23v17.39A2.82,2.82,0,0,1,309.31,125.68ZM193.5,120h113V105.47a22.62,22.62,0,0,0-22.59-22.59H216.1a22.62,22.62,0,0,0-22.6,22.59Z"/><path class="cls-3" d="M293.33,422.76H206.67A18.83,18.83,0,0,1,187.87,404V152.87a18.82,18.82,0,0,1,18.8-18.8h86.66a18.82,18.82,0,0,1,18.8,18.8V404A18.83,18.83,0,0,1,293.33,422.76Zm-86.66-283a13.18,13.18,0,0,0-13.17,13.16V404a13.19,13.19,0,0,0,13.17,13.17h86.66A13.19,13.19,0,0,0,306.5,404V152.87a13.18,13.18,0,0,0-13.17-13.16Z"/><rect class="cls-8" x="204.95" y="192.68" width="90.1" height="210.6"/></g></g></svg>