<svg xmlns="http://www.w3.org/2000/svg" xmlns:xlink="http://www.w3.org/1999/xlink" viewBox="0 0 500 500"><defs><style>.cls-1{fill:none;}.cls-2{clip-path:url(#clip-path);}.cls-3{fill:#5ea4f3;}.cls-4{fill:#5fa5f3;}.cls-5{fill:#60a5f3;}.cls-6{fill:#61a6f3;}.cls-7{fill:#62a7f3;}.cls-8{fill:#63a7f3;}.cls-9{fill:#64a8f3;}.cls-10{fill:#65a9f3;}.cls-11{fill:#66a9f3;}.cls-12{fill:#67aaf3;}.cls-13{fill:#68abf3;}.cls-14{fill:#69abf3;}.cls-15{fill:#6aacf3;}.cls-16{fill:#6badf3;}.cls-17{fill:#6cadf3;}.cls-18{fill:#6daef3;}.cls-19{fill:#6eaff3;}.cls-20{fill:#6faff3;}.cls-21{fill:#70b0f3;}.cls-22{fill:#71b1f3;}.cls-23{fill:#72b1f3;}.cls-24{fill:#73b2f3;}.cls-25{fill:#74b3f3;}.cls-26{fill:#75b3f3;}.cls-27{fill:#76b4f3;}.cls-28{fill:#77b5f3;}.cls-29{fill:#78b5f3;}.cls-30{fill:#79b6f3;}.cls-31{fill:#7ab7f3;}.cls-32{fill:#7bb7f3;}.cls-33{fill:#7cb8f3;}.cls-34{fill:#7db9f3;}.cls-35{fill:#7fb9f2;}.cls-36{fill:#80baf2;}.cls-37{fill:#81bbf2;}.cls-38{fill:#82bbf2;}.cls-39{fill:#83bcf2;}.cls-40{fill:#84bdf2;}.cls-41{fill:#85bdf2;}.cls-42{fill:#86bef2;}.cls-43{fill:#87bff2;}.cls-44{fill:#88bff2;}.cls-45{fill:#89c0f2;}.cls-46{fill:#8ac1f2;}.cls-47{fill:#8bc1f2;}.cls-48{fill:#333;}.cls-49{fill:#383634;}.cls-50{fill:#e1ff00;}</style><clipPath id="clip-path"><path class="cls-1" d="M304.9,95.09l-17.27-4.17a161.87,161.87,0,0,0-76,0l-16.58,4a84.8,84.8,0,0,0-63.8,96l11.07,68.29a100.17,100.17,0,0,0,45.07,68.51,88.43,88.43,0,0,1,125.4.26,100.22,100.22,0,0,0,45.63-69.67l10.39-68A84.82,84.82,0,0,0,304.9,95.09Z"/></clipPath></defs><g id="레이어_3" data-name="레이어 3"><g class="cls-2"><rect class="cls-3" x="124.16" y="84.89" width="251.32" height="23.84"/><rect class="cls-3" x="124.16" y="108.73" width="251.32" height="4.95"/><rect class="cls-4" x="124.16" y="113.69" width="251.32" height="4.95"/><rect class="cls-5" x="124.16" y="118.64" width="251.32" height="4.95"/><rect class="cls-6" x="124.16" y="123.6" width="251.32" height="4.95"/><rect class="cls-7" x="124.16" y="128.55" width="251.32" height="4.95"/><rect class="cls-8" x="124.16" y="133.51" width="251.32" height="4.95"/><rect class="cls-9" x="124.16" y="138.46" width="251.32" height="4.95"/><rect class="cls-10" x="124.16" y="143.42" width="251.32" height="4.95"/><rect class="cls-11" x="124.16" y="148.37" width="251.32" height="4.95"/><rect class="cls-12" x="124.16" y="153.33" width="251.32" height="4.95"/><rect class="cls-13" x="124.16" y="158.28" width="251.32" height="4.95"/><rect class="cls-14" x="124.16" y="163.24" width="251.32" height="4.95"/><rect class="cls-15" x="124.16" y="168.19" width="251.32" height="4.95"/><rect class="cls-16" x="124.16" y="173.15" width="251.32" height="4.95"/><rect class="cls-17" x="124.16" y="178.1" width="251.32" height="4.95"/><rect class="cls-18" x="124.16" y="183.06" width="251.32" height="4.95"/><rect class="cls-19" x="124.16" y="188.01" width="251.32" height="4.95"/><rect class="cls-20" x="124.16" y="192.97" width="251.32" height="4.95"/><rect class="cls-21" x="124.16" y="197.92" width="251.32" height="4.95"/><rect class="cls-22" x="124.16" y="202.88" width="251.32" height="4.95"/><rect class="cls-23" x="124.16" y="207.83" width="251.32" height="4.95"/><rect class="cls-24" x="124.16" y="212.79" width="251.32" height="4.95"/><rect class="cls-25" x="124.16" y="217.74" width="251.32" height="4.95"/><rect class="cls-26" x="124.16" y="222.7" width="251.32" height="4.95"/><rect class="cls-27" x="124.16" y="227.65" width="251.32" height="4.95"/><rect class="cls-28" x="124.16" y="232.61" width="251.32" height="4.95"/><rect class="cls-29" x="124.16" y="237.56" width="251.32" height="4.95"/><rect class="cls-30" x="124.16" y="242.52" width="251.32" height="4.95"/><rect class="cls-31" x="124.16" y="247.47" width="251.32" height="4.95"/><rect class="cls-32" x="124.16" y="252.43" width="251.32" height="4.95"/><rect class="cls-33" x="124.16" y="257.38" width="251.32" height="4.95"/><rect class="cls-34" x="124.16" y="262.34" width="251.32" height="4.95"/><rect class="cls-35" x="124.16" y="267.29" width="251.32" height="4.95"/><rect class="cls-36" x="124.16" y="272.25" width="251.32" height="4.95"/><rect class="cls-37" x="124.16" y="277.2" width="251.32" height="4.95"/><rect class="cls-38" x="124.16" y="282.16" width="251.32" height="4.95"/><rect class="cls-39" x="124.16" y="287.11" width="251.32" height="4.95"/><rect class="cls-40" x="124.16" y="292.07" width="251.32" height="4.95"/><rect class="cls-41" x="124.16" y="297.02" width="251.32" height="4.95"/><rect class="cls-42" x="124.16" y="301.98" width="251.32" height="4.95"/><rect class="cls-43" x="124.16" y="306.93" width="251.32" height="4.95"/><rect class="cls-44" x="124.16" y="311.89" width="251.32" height="4.95"/><rect class="cls-45" x="124.16" y="316.84" width="251.32" height="4.95"/><rect class="cls-46" x="124.16" y="321.8" width="251.32" height="4.95"/><rect class="cls-47" x="124.16" y="326.75" width="251.32" height="1.24"/></g><path class="cls-48" d="M259.14,347.07H241.23a103.61,103.61,0,0,1-55.88-16.32l-3.74-2.39,3.14-3.14a92,92,0,0,1,130.47.26l3.13,3.16L314.59,331A103.69,103.69,0,0,1,259.14,347.07Zm-66-20a96.45,96.45,0,0,0,48.1,12.82h17.91a96.47,96.47,0,0,0,47.69-12.59,84.9,84.9,0,0,0-113.7-.23Z"/><rect class="cls-48" x="243.13" y="301.72" width="4.21" height="40" transform="translate(-73.11 72.11) rotate(-14.58)"/><rect class="cls-48" x="232.19" y="302.14" width="4.2" height="41.52" transform="translate(-150.24 216.65) rotate(-38.59)"/><rect class="cls-48" x="222.79" y="302.59" width="4.2" height="55.3" transform="translate(-172.82 368.4) rotate(-61.23)"/><rect class="cls-48" x="234.73" y="319.62" width="40" height="4.21" transform="translate(-120.75 487.27) rotate(-75.42)"/><rect class="cls-48" x="244.91" y="320.8" width="41.52" height="4.2" transform="translate(-152.42 329.27) rotate(-51.43)"/><rect class="cls-48" x="247.42" y="328.13" width="55.3" height="4.2" transform="translate(-124.84 172.79) rotate(-28.72)"/><path class="cls-49" d="M253.88,328h-7.8a4.12,4.12,0,0,0-4.12,4.12v77a8,8,0,0,0,16,0v-77A4.12,4.12,0,0,0,253.88,328Zm-2,78.95a1.85,1.85,0,0,1-3.7,0V394.37a1.85,1.85,0,1,1,3.7,0Z"/><path class="cls-50" d="M140.75,249.49l1.58,9.74a100.17,100.17,0,0,0,45.07,68.51,88.43,88.43,0,0,1,125.4.26,100.22,100.22,0,0,0,45.63-69.67l1.09-7.1c-17.35-15.21-51.18-34.84-110.39-34.84C192.15,216.39,158.65,234.57,140.75,249.49Z"/><path class="cls-48" d="M312.29,332.55l-2-2a84.89,84.89,0,0,0-120.34-.24l-2,2-2.42-1.55A104,104,0,0,1,138.8,259.8l-11.07-68.29c-7.35-45.32,21.86-89.28,66.5-100l16.57-4a166.32,166.32,0,0,1,77.67,0l17.27,4.17a87.87,87.87,0,0,1,66.61,99.27l-10.39,68A103.88,103.88,0,0,1,314.71,331ZM250,298.24a91.32,91.32,0,0,1,63.27,25.2A96.71,96.71,0,0,0,354.9,257.8l10.39-68a80.77,80.77,0,0,0-61.23-91.25l-17.27-4.17a159.25,159.25,0,0,0-74.31,0l-16.58,4a81.62,81.62,0,0,0-61.12,92l11.07,68.29A96.93,96.93,0,0,0,187,323.18,91.38,91.38,0,0,1,250,298.24Z"/></g></svg>