<svg xmlns="http://www.w3.org/2000/svg" viewBox="0 0 500 500"><defs><style>.cls-1,.cls-3{fill:#1e1e1e;}.cls-1{opacity:0.9;}.cls-2{fill:#fff;opacity:0.2;}</style></defs><g id="레이어_3" data-name="레이어 3"><polygon class="cls-1" points="379.79 246.76 313.86 250 272.67 264.26 264.07 285.11 291.66 332.21 321.93 340.95 360.28 340.95 390.92 307.99 397.95 265.6 379.79 246.76"/><polygon class="cls-1" points="119.09 246.76 185.02 250 226.21 264.26 234.81 285.11 207.22 332.21 176.95 340.95 138.6 340.95 107.96 307.99 100.92 265.6 119.09 246.76"/><path class="cls-2" d="M290.19,332.32s50.08-65.51,83.41-67.2c13.89,3.1-42.59,82.12-42.59,82.12Z"/><path class="cls-2" d="M116.76,332.32s50.09-65.51,83.41-67.2c13.89,3.1-44.08,79.2-44.08,79.2Z"/><path id="path3536" class="cls-3" d="M277.41,271.66c16.81-21.56,65.81-19.59,79.44-19.59,15.77,0,27.59-2.14,32.86,8.4,5.27,15.81.19,35.67-1.66,42.71-3.66,13.9-15.35,34.06-52.21,34.91-39,.91-54.49-25.39-60.36-41.78-2.46-6.85-2.55-18.91,1.93-24.65ZM250,288.08A11,11,0,0,1,256.6,290c3,2.24,5.61,11.11,9.12,17.49,8.89,16.2,29,43.17,64.26,43.17,0,0,67.4,4.68,76-55.4,1-7.19,1.69-12.41,4.85-19,10.21-34-3.91-46.57-5.74-53.61-4.3-16.67-10.21-37.62-15.8-50.83-2.83-6.69-10.25-16.13-16.46-19.92-6.55-4-13.71-4.28-23.06,4.91a20.91,20.91,0,0,0-4.51,6.44c-1.79,4,.83,7.63,3.85,7.58s6.35-3.93,9.3-7.5a9.23,9.23,0,0,1,7.13-3.78c11.5,0,18.71,42.58,18.71,42.58L387.6,222c1.2,7.18-3.7,13-11,13.25-26.83.78-67.63,3.51-88.53,12.94-6.63,3-15.74,10.58-22.35,13.61-5.27,2.42-11.31,4.63-15.75,4.63"/><path id="path3536-2" data-name="path3536" class="cls-3" d="M222.59,271.66c4.48,5.74,4.39,17.8,1.93,24.65-5.87,16.39-21.39,42.69-60.36,41.78-36.86-.85-48.55-21-52.21-34.91-1.85-7-6.93-26.9-1.66-42.71,5.27-10.54,17.09-8.4,32.86-8.4,13.63,0,62.63-2,79.44,19.59ZM250,266.47c-4.44,0-10.48-2.21-15.75-4.63-6.61-3-15.72-10.61-22.35-13.61-20.9-9.43-61.7-12.16-88.53-12.94-7.27-.21-12.17-6.07-11-13.25l3.39-19.89s7.21-42.58,18.71-42.58a9.23,9.23,0,0,1,7.13,3.78c3,3.57,6.27,7.44,9.3,7.5s5.64-3.58,3.85-7.58a20.91,20.91,0,0,0-4.51-6.44c-9.35-9.19-16.51-8.92-23.06-4.91-6.21,3.79-13.63,13.23-16.46,19.92C105.16,185.05,99.25,206,95,222.67c-1.83,7-16,19.63-5.74,53.61,3.16,6.56,3.82,11.78,4.85,19,8.56,60.08,76,55.4,76,55.4,35.25,0,55.37-27,64.26-43.17,3.51-6.38,6.15-15.25,9.12-17.49a11,11,0,0,1,6.57-1.91"/></g></svg>