<svg xmlns="http://www.w3.org/2000/svg" viewBox="0 0 500 500"><defs><style>.cls-1{fill:#ff7500;}.cls-2{fill:#ff6900;}.cls-3{fill:#ffb731;}.cls-4{fill:#f5f1f7;}.cls-5{fill:#333;}</style></defs><g id="레이어_3" data-name="레이어 3"><polygon class="cls-1" points="293.07 365.63 206.92 365.63 190.98 163.49 309.02 163.49 293.07 365.63"/><rect class="cls-2" x="190.98" y="139.06" width="118.03" height="24.42"/><rect class="cls-3" x="206.92" y="365.64" width="86.15" height="46.13"/><path d="M216.71,234.11V209.8h6.72v24.77c0,9.61,3.82,12.74,9.15,12.74s9.32-3.13,9.32-12.74V209.8h6.48v24.31c0,13.89-6.37,19-15.8,19S216.71,248,216.71,234.11Z"/><path d="M253.29,209.8h7.12l6.31,22c1.45,4.87,2.38,9,3.88,14h.29c1.45-4.92,2.49-9.08,3.88-14l6.31-22h6.83L274.6,252.4h-7.93Z"/><polygon class="cls-4" points="297.38 303.47 203.27 303.47 200.72 268.24 302.49 268.24 297.38 303.47"/><circle class="cls-4" cx="252.26" cy="332.5" r="10.76"/><path class="cls-4" d="M252.26,332.36a1.71,1.71,0,0,1-1.72-1.71V318.36a1.72,1.72,0,0,1,3.43,0v12.29A1.71,1.71,0,0,1,252.26,332.36Z"/><path class="cls-4" d="M253.66,332.9a1.72,1.72,0,0,1-1.22-2.93l8.69-8.68a1.71,1.71,0,1,1,2.43,2.42l-8.69,8.69A1.75,1.75,0,0,1,253.66,332.9Z"/><path class="cls-4" d="M266.56,334.27H254.27a1.72,1.72,0,0,1,0-3.43h12.29a1.72,1.72,0,0,1,0,3.43Z"/><path class="cls-4" d="M262.42,344.35a1.69,1.69,0,0,1-1.21-.5l-8.69-8.69a1.71,1.71,0,0,1,2.42-2.42l8.69,8.69a1.71,1.71,0,0,1,0,2.42A1.67,1.67,0,0,1,262.42,344.35Z"/><path class="cls-4" d="M252.37,348.56a1.71,1.71,0,0,1-1.72-1.71V334.56a1.72,1.72,0,0,1,3.43,0v12.29A1.71,1.71,0,0,1,252.37,348.56Z"/><path class="cls-4" d="M242.28,344.43a1.71,1.71,0,0,1-1.21-2.92l8.68-8.69a1.71,1.71,0,1,1,2.43,2.42l-8.69,8.69A1.71,1.71,0,0,1,242.28,344.43Z"/><path class="cls-4" d="M250.35,334.37H238.07a1.71,1.71,0,1,1,0-3.42h12.28a1.71,1.71,0,1,1,0,3.42Z"/><path class="cls-4" d="M250.89,333a1.67,1.67,0,0,1-1.21-.5L241,323.79a1.71,1.71,0,0,1,2.42-2.43l8.69,8.69a1.71,1.71,0,0,1,0,2.42A1.67,1.67,0,0,1,250.89,333Z"/><path class="cls-5" d="M293.08,368.61H206.92a3,3,0,0,1-3-2.74L188,163.72a3,3,0,0,1,3-3.21H309a3,3,0,0,1,3,3.21L296,365.87A3,3,0,0,1,293.08,368.61Zm-83.41-5.95h80.66l15.47-196.2H194.2Z"/><path class="cls-5" d="M309,166.46H191a3,3,0,0,1-3-3V139.06a3,3,0,0,1,3-3H309a3,3,0,0,1,3,3v24.42A3,3,0,0,1,309,166.46Zm-115.06-6H306V142H194Z"/><path class="cls-5" d="M293.08,414.74H206.92a3,3,0,0,1-3-3V365.64a3,3,0,0,1,3-3h86.16a3,3,0,0,1,3,3v46.12A3,3,0,0,1,293.08,414.74Zm-83.18-5.95h80.2V368.61H209.9Z"/><path class="cls-3" d="M214.94,85.6,219,93.85a.61.61,0,0,0,.45.33l9.11,1.32a.6.6,0,0,1,.33,1L222.31,103a.61.61,0,0,0-.17.53l1.56,9.07a.6.6,0,0,1-.87.63l-8.15-4.28a.54.54,0,0,0-.55,0L206,113.18a.59.59,0,0,1-.86-.63l1.56-9.07a.61.61,0,0,0-.18-.53l-6.59-6.43a.6.6,0,0,1,.33-1l9.11-1.32a.58.58,0,0,0,.45-.33l4.08-8.25A.59.59,0,0,1,214.94,85.6Z"/><path class="cls-3" d="M250.53,85.6l4.08,8.25a.59.59,0,0,0,.45.33l9.11,1.32a.6.6,0,0,1,.33,1L257.91,103a.58.58,0,0,0-.17.53l1.55,9.07a.59.59,0,0,1-.86.63l-8.15-4.28a.56.56,0,0,0-.56,0l-8.15,4.28a.59.59,0,0,1-.86-.63l1.55-9.07a.58.58,0,0,0-.17-.53l-6.59-6.43a.6.6,0,0,1,.33-1l9.11-1.32a.61.61,0,0,0,.45-.33l4.07-8.25A.59.59,0,0,1,250.53,85.6Z"/><path class="cls-3" d="M286.13,85.6l4.08,8.25a.58.58,0,0,0,.44.33l9.12,1.32a.6.6,0,0,1,.33,1L293.5,103a.61.61,0,0,0-.17.53l1.56,9.07a.6.6,0,0,1-.87.63l-8.15-4.28a.54.54,0,0,0-.55,0l-8.15,4.28a.6.6,0,0,1-.87-.63l1.56-9.07a.61.61,0,0,0-.17-.53l-6.6-6.43a.6.6,0,0,1,.33-1l9.12-1.32a.58.58,0,0,0,.44-.33l4.08-8.25A.59.59,0,0,1,286.13,85.6Z"/></g></svg>