<svg xmlns="http://www.w3.org/2000/svg" viewBox="0 0 500 500"><defs><style>.cls-1{fill:#910909;}.cls-2{fill:#333;}.cls-3{fill:#4e090f;}.cls-4{opacity:0.8;}</style></defs><g id="레이어_3" data-name="레이어 3"><path class="cls-1" d="M350.6,300c0-83.62-79.7-130.65-79.7-130.65l-19.59,7.84h-2.62l-19.59-7.84s-79.7,47-79.7,130.65l79.14,19.78Z"/><path class="cls-2" d="M228.54,322.89a2.75,2.75,0,0,1-.75-.09L148.65,303a3.06,3.06,0,0,1-2.32-3c0-84.4,80.39-132.82,81.2-133.3a3.08,3.08,0,0,1,2.71-.21l19,7.62h1.42l19-7.62a3.06,3.06,0,0,1,2.7.21c.82.48,81.21,48.9,81.21,133.3a3.07,3.07,0,0,1-2.58,3L229,322.86A3.91,3.91,0,0,1,228.54,322.89Zm-76-25.25,76.17,19L347.5,297.42c-1.52-73.57-66.94-118.23-76.9-124.6l-18.15,7.26a3,3,0,0,1-1.15.22h-2.61a3,3,0,0,1-1.14-.22l-18.15-7.26C219.43,179.2,153.9,224,152.5,297.64ZM350.6,300h0Z"/><path class="cls-3" d="M324.13,300.29c-3.15-44.08-38.75-91-39.11-91.47l5.74-4.4c1.52,2,37.28,49.08,40.58,95.36Z"/><path class="cls-3" d="M173.9,300.4l-7.2-.73c5.94-58.1,42-94.73,43.5-96.26l5.12,5.12C215,208.88,179.57,245,173.9,300.4Z"/><path class="cls-3" d="M202.61,300.75c-.66-43.7,28.72-90.2,30-92.15l6.1,3.89c-.3.46-29.46,46.65-28.83,88.14Z"/><path class="cls-3" d="M291.48,300.49l-7.18-.91c5-39.47-22.16-88.74-22.44-89.23l6.32-3.53C269.35,208.92,296.79,258.64,291.48,300.49Z"/><path class="cls-3" d="M247.76,307.28c-7.21-36-1-97.76-.71-100.37l7.2.74c-.07.63-6.39,63.24.6,98.21Z"/><path class="cls-1" d="M307.48,191.6s9.15-19.6,13.07-34-9.15-31.36-19.6-41.81S250,93.61,239.55,100.14,210.8,113.21,203,127.58s-17,24.82-10.46,36.58S205.58,204.66,216,206s26.13,5.23,43.11,1.31S291.81,212.5,307.48,191.6Z"/><path class="cls-1" d="M364.27,313.16a14.12,14.12,0,0,0-15-12.89l-97.95,6.3V307l-100.53-6.72a14.11,14.11,0,0,0-15,12.89c-1.3,15.27-3.13,40.19-3.06,59A14.12,14.12,0,0,0,144.8,386.1c21.35,3.08,67.79,9,105.2,8,37.41,1,83.85-4.92,105.2-8a14.12,14.12,0,0,0,12.13-13.91C367.4,353.38,365.57,328.43,364.27,313.16Z"/><path class="cls-3" d="M172.92,391.84a3.61,3.61,0,0,1-3.62-3.61c0-28.59,5.19-84.05,5.24-84.61a3.62,3.62,0,1,1,7.2.68c-.05.55-5.2,55.68-5.2,83.93A3.61,3.61,0,0,1,172.92,391.84Z"/><path class="cls-3" d="M220.6,396.42a3.63,3.63,0,0,1-3.6-3.29c-2-21.62,3.05-82.95,3.26-85.55a3.67,3.67,0,0,1,3.91-3.31,3.62,3.62,0,0,1,3.31,3.9c-.06.64-5.18,63.3-3.27,84.3a3.62,3.62,0,0,1-3.28,3.93Z"/><path class="cls-3" d="M274.17,393.8a4,4,0,0,1-.84-.09,3.62,3.62,0,0,1-2.68-4.37c3.75-15.62,0-78.65-.09-79.28a3.62,3.62,0,1,1,7.22-.45c.16,2.64,3.91,64.75-.09,81.42A3.62,3.62,0,0,1,274.17,393.8Z"/><path class="cls-3" d="M323.82,392.5l-.31,0a3.62,3.62,0,0,1-3.3-3.91c2.55-30-3.84-80.38-3.9-80.89a3.61,3.61,0,0,1,3.13-4.05,3.67,3.67,0,0,1,4.05,3.13c.26,2.1,6.55,51.69,3.93,82.43A3.62,3.62,0,0,1,323.82,392.5Z"/><path class="cls-2" d="M241.27,397.29c-35,0-75.2-5-97-8.17a16.94,16.94,0,0,1-14.63-16.78c-.08-19.46,1.89-45.66,3.08-59.55a17.22,17.22,0,0,1,18.15-15.56l99,6.62a3,3,0,0,1,1.24-.35l98.09-6.31a17,17,0,0,1,18.12,15.57c1.19,13.9,3.16,40.12,3.08,59.58a16.94,16.94,0,0,1-14.64,16.78c-23.66,3.42-68.85,9-105.84,8.06C247.08,397.25,244.19,397.29,241.27,397.29Zm-91.58-94a11,11,0,0,0-10.89,10c-1.17,13.79-3.13,39.79-3.05,59A10.84,10.84,0,0,0,145.12,383c23.46,3.39,68.3,8.89,104.8,8,36.69,1,81.5-4.6,105-8a10.84,10.84,0,0,0,9.37-10.73c.08-19.22-1.88-45.23-3.06-59h0a10.87,10.87,0,0,0-11.59-9.95l-96.53,6.21a3,3,0,0,1-2,.55l-100.66-6.73Z"/><g class="cls-4"><path class="cls-3" d="M305.12,120.22s-11.43,32-43.73,40.57-71.11-3.08-71.11-3.08l9.51,23.79,13,24.47,27.08,3,41.88-3,25.76-14.37,12.42-31.7v-16Z"/></g><path class="cls-2" d="M243.52,212a138.2,138.2,0,0,1-21.75-2.12c-2.19-.34-4.24-.66-6.12-.9-9-1.13-14.51-15.4-19.8-29.21a125.33,125.33,0,0,0-6-14.15c-6.21-11.18-.18-21.4,6.21-32.21,1.39-2.34,2.82-4.78,4.22-7.34,8.44-15.47,25.83-26.28,38.65-29,17.67-3.71,53.09,5.4,64.22,16.52,9.56,9.56,24.94,28.11,20.39,44.79-3.95,14.46-12.87,33.65-13.25,34.46a3,3,0,0,1-.33.54c-11.85,15.81-24,15.82-35.68,15.75-4.74,0-9.62,0-14.42,1.08A72.21,72.21,0,0,1,243.52,212Zm4.67-109.6a40.22,40.22,0,0,0-8,.71c-11.16,2.35-27.05,12.22-34.52,25.91-1.43,2.62-2.91,5.12-4.32,7.52-6.79,11.49-10.43,18.37-6.14,26.09a125.31,125.31,0,0,1,6.39,14.94c4,10.4,9.45,24.64,14.82,25.31,1.94.24,4.05.57,6.31.92,10,1.57,22.43,3.51,35.73.44C264,203,269.24,203,274.27,203c11,.06,20.63.05,30.56-13,1.14-2.47,9.2-20.18,12.75-33.19,3.87-14.19-11.86-31.88-18.8-38.82C290.57,109.79,265.16,102.44,248.19,102.44Zm59.3,89.16h0Z"/></g></svg>