<svg xmlns="http://www.w3.org/2000/svg" xmlns:xlink="http://www.w3.org/1999/xlink" viewBox="0 0 500 500"><defs><style>.cls-1{fill:none;}.cls-2{isolation:isolate;}.cls-3{fill:#b59980;}.cls-4{fill:#333;}.cls-5{opacity:0.5;mix-blend-mode:multiply;}.cls-6{fill:#cba880;}.cls-7{fill:#c3aa8d;}.cls-8{clip-path:url(#clip-path);}.cls-9{fill:#ceb698;}.cls-10{clip-path:url(#clip-path-2);}</style><clipPath id="clip-path"><path class="cls-1" d="M196.83,91.34s-11.76,20.59-5.88,28.43,49,49,49,49S342,323.74,347.85,346.3c4.9,14.71-9.81,24.51-14.71,28.43s-64.07,44.13-64.07,44.13-8.5,10.79-30.07-16.67-38.24-73.54-38.24-73.54S143.88,208,146.82,179.59c8.83-25.49,10.79-35.3,16.67-47.07S196.83,91.34,196.83,91.34Z"/></clipPath><clipPath id="clip-path-2"><path class="cls-1" d="M308.74,91.34s11.77,20.59,5.88,28.43-49,49-49,49-102,154.93-107.86,177.49c-4.91,14.71,9.8,24.51,14.7,28.43s64.07,44.13,64.07,44.13,8.5,10.79,30.07-16.67,38.25-73.54,38.25-73.54S361.69,208,358.75,179.59c-8.82-25.49-10.79-35.3-16.67-47.07S308.74,91.34,308.74,91.34Z"/></clipPath></defs><g class="cls-2"><g id="레이어_3" data-name="레이어 3"><path class="cls-3" d="M191.17,91.34s48.25-27.46,117.57,0l20,33.34L306,168.89s-64-23.54-96.34,0l-30.14-17.74V128.36l-4.42-11Z"/><path class="cls-4" d="M306,172.43a3.44,3.44,0,0,1-1.22-.21c-.63-.23-62.6-22.61-93-.46a3.53,3.53,0,0,1-3.88.19l-30.14-17.74a3.56,3.56,0,0,1-1.75-3.06V129l-4.16-10.4a3.54,3.54,0,0,1,.28-3.18l16.09-26a3.59,3.59,0,0,1,1.27-1.21c2-1.16,50.52-28,120.63-.22a3.55,3.55,0,0,1,1.73,1.47l20,33.34a3.53,3.53,0,0,1,.12,3.45l-22.82,44.22A3.53,3.53,0,0,1,306,172.43ZM183,149.12l26.45,15.56c30.15-19.69,81.73-4.49,94.75-.15l20.5-39.72L306.32,94.2c-61.6-24-106.35-3.36-112.64-.17L179,117.67l3.75,9.37a3.47,3.47,0,0,1,.25,1.31Z"/><g class="cls-5"><path class="cls-6" d="M309.83,116.38c-61.23-28-122.62-.28-123.23,0L184,110.7c.64-.3,64.65-29.26,128.47,0Z"/></g><g class="cls-5"><path class="cls-6" d="M309.83,146.58c-61.23-28.06-122.62-.29-123.23,0L184,140.9c.64-.3,64.65-29.25,128.47,0Z"/></g><path class="cls-7" d="M191.17,91.34s-11.77,20.59-5.88,28.43,49,49,49,49,102,154.93,107.86,177.49c4.91,14.71-9.8,24.51-14.7,28.43s-64.07,44.13-64.07,44.13-8.5,10.79-30.07-16.67-38.25-73.54-38.25-73.54S138.22,208,141.16,179.59c8.82-25.49,10.79-35.3,16.67-47.07S191.17,91.34,191.17,91.34Z"/><g class="cls-5"><g class="cls-8"><rect class="cls-6" x="280.29" y="90.77" width="6.26" height="341.26" transform="translate(-78.56 128.63) rotate(-22.54)"/><rect class="cls-6" x="245.96" y="90.77" width="6.26" height="341.26" transform="translate(-81.18 115.47) rotate(-22.54)"/><rect class="cls-6" x="211.63" y="90.77" width="6.26" height="341.26" transform="translate(-83.81 102.31) rotate(-22.54)"/><rect class="cls-6" x="177.3" y="90.77" width="6.26" height="341.26" transform="translate(-86.43 89.15) rotate(-22.54)"/></g></g><path class="cls-4" d="M258.08,424.5h0c-7.78,0-17-6.77-27.52-20.12-21.68-27.58-38.11-72.63-38.79-74.53-2.22-4.65-57.14-121.53-54.13-150.63a3.75,3.75,0,0,1,.18-.79c3.15-9.09,5.42-16.18,7.3-22.08,3.4-10.6,5.65-17.61,9.54-25.41,6-12.09,32.79-40.8,33.93-42a3.55,3.55,0,0,1,5.67,4.18c-4.27,7.49-9.18,20.48-6.13,24.55,4.52,6,33.8,34.41,48.65,48.59a3.75,3.75,0,0,1,.51.61c4.18,6.35,102.37,155.69,108.34,178.55,5.25,15.73-8.71,26.51-14.67,31.12l-1.26,1c-4.82,3.85-58.83,40.58-64,44.08A10.71,10.71,0,0,1,258.08,424.5ZM144.65,180.34C142.87,202.66,178.89,286,198.3,327.13c.29.76,16.86,46.19,37.82,72.87,11.63,14.79,18.56,17.25,21.65,17.4a3.94,3.94,0,0,0,2.94-.84,5.86,5.86,0,0,1,.7-.63c20.43-13.88,60.06-40.93,63.85-44l1.35-1c5.57-4.31,15.93-12.31,12.21-23.49-4.59-17.58-72-122.8-107.24-176.33-4.12-3.94-43.33-41.46-49.13-49.19-2.65-3.52-2.77-8.51-1.79-13.54-7.78,9-16.7,19.84-19.66,25.75-3.65,7.31-5.72,13.75-9.13,24.41C150,164.37,147.75,171.38,144.65,180.34Z"/><path class="cls-9" d="M308.74,91.34s11.77,20.59,5.88,28.43-49,49-49,49-102,154.93-107.86,177.49c-4.91,14.71,9.8,24.51,14.7,28.43s64.07,44.13,64.07,44.13,8.5,10.79,30.07-16.67,38.25-73.54,38.25-73.54S361.69,208,358.75,179.59c-8.82-25.49-10.79-35.3-16.67-47.07S308.74,91.34,308.74,91.34Z"/><g class="cls-10"><rect class="cls-6" x="51.53" y="258.27" width="341.26" height="6.26" transform="translate(-104.4 366.48) rotate(-67.48)"/><rect class="cls-6" x="85.85" y="258.27" width="341.26" height="6.26" transform="translate(-83.22 398.19) rotate(-67.48)"/><rect class="cls-6" x="120.18" y="258.27" width="341.26" height="6.26" transform="translate(-62.04 429.91) rotate(-67.48)"/><rect class="cls-6" x="154.52" y="258.27" width="341.26" height="6.26" transform="translate(-40.86 461.62) rotate(-67.48)"/></g><path class="cls-4" d="M241.83,424.5a10.69,10.69,0,0,1-7.63-2.92c-5.15-3.5-59.16-40.22-64-44.07l-1.26-1c-6-4.61-19.92-15.39-14.6-31.34,5.9-22.64,104.09-172,108.27-178.33a3.75,3.75,0,0,1,.51-.61c14.85-14.18,44.13-42.57,48.65-48.59,3-4.07-1.86-17.06-6.13-24.55a3.55,3.55,0,0,1,5.67-4.18c1.14,1.22,27.88,29.93,33.92,42,3.9,7.8,6.15,14.8,9.55,25.41,1.88,5.89,4.15,13,7.3,22.08a3.75,3.75,0,0,1,.18.79c3,29.1-51.92,146-54.25,150.94-.56,1.59-17,46.64-38.67,74.22-10.48,13.35-19.74,20.12-27.52,20.12Zm-2.54-7.83a3.89,3.89,0,0,0,2.85.73c3.1-.15,10-2.61,21.65-17.4,21-26.68,37.53-72.11,37.7-72.56C321,286,357,202.66,355.26,180.34c-3.1-9-5.35-16-7.22-21.83-3.42-10.66-5.48-17.09-9.13-24.4-3-5.91-11.88-16.78-19.67-25.75,1,5,.86,10-1.78,13.54-5.8,7.73-45,45.25-49.13,49.19-35.22,53.53-102.65,158.74-107.17,176.1-3.79,11.41,6.57,19.41,12.14,23.72l1.35,1c3.79,3,43.42,30.09,63.85,44a3.27,3.27,0,0,1,.79.74Z"/></g></g></svg>