<svg xmlns="http://www.w3.org/2000/svg" xmlns:xlink="http://www.w3.org/1999/xlink" viewBox="0 0 500 500"><defs><style>.cls-1{fill:none;}.cls-2{clip-path:url(#clip-path);}.cls-3{fill:#f0e5db;}.cls-4{fill:#efe4da;}.cls-5{fill:#efe3d9;}.cls-6{fill:#efe3d8;}.cls-7{fill:#eee2d7;}.cls-8{fill:#eee1d5;}.cls-9{fill:#ede0d4;}.cls-10{fill:#ede0d3;}.cls-11{fill:#eddfd2;}.cls-12{fill:#ecded1;}.cls-13{fill:#ecddd0;}.cls-14{fill:#ebddcf;}.cls-15{fill:#ebdcce;}.cls-16{fill:#eadbcd;}.cls-17{fill:#eadbcc;}.cls-18{fill:#eadacb;}.cls-19{fill:#e9d9ca;}.cls-20{fill:#e9d8c9;}.cls-21{fill:#e8d8c8;}.cls-22{fill:#e8d7c7;}.cls-23{fill:#e7d6c6;}.cls-24{fill:#e7d5c5;}.cls-25{fill:#e7d5c4;}.cls-26{fill:#e6d4c3;}.cls-27{fill:#e6d3c2;}.cls-28{fill:#e5d3c1;}.cls-29{fill:#e5d2c0;}.cls-30{fill:#e5d1bf;}.cls-31{fill:#e4d0be;}.cls-32{fill:#e4d0bd;}.cls-33{fill:#e3cfbc;}.cls-34{fill:#e3cebb;}.cls-35{fill:#e2cdba;}.cls-36{fill:#e2cdb9;}.cls-37{fill:#e2ccb8;}.cls-38{fill:#e1cbb7;}.cls-39{fill:#e1cbb6;}.cls-40{fill:#e0cab5;}.cls-41{fill:#e0c9b4;}.cls-42{fill:#e0c8b3;}.cls-43{fill:#dfc8b2;}.cls-44{fill:#dfc7b1;}.cls-45{fill:#dec6b0;}.cls-46{fill:#dec5af;}.cls-47{fill:#ddc5ae;}.cls-48{fill:#ddc4ad;}.cls-49{clip-path:url(#clip-path-2);}.cls-50{fill:#f1e6dd;}.cls-51{fill:#f0e6dc;}.cls-52{fill:#cdae9b;}.cls-53{fill:#333;}</style><clipPath id="clip-path"><path class="cls-1" d="M347.94,218.17s32.24,4.3,39.63,16,18.13,33.79,14.1,61.45S396.3,401.28,320.4,402.51c0,0-37.61,3.69-47.68-41.78s8.06-69.44,10.07-76.81,16.12-55.3,34.93-61.45S334.51,217.56,347.94,218.17Z"/></clipPath><clipPath id="clip-path-2"><path class="cls-1" d="M151.88,218.17s-32.24,4.3-39.63,16-18.13,33.79-14.1,61.45,5.37,105.68,81.27,106.91c0,0,37.61,3.69,47.68-41.78S219,291.29,217,283.92s-16.12-55.3-34.93-61.45S165.31,217.56,151.88,218.17Z"/></clipPath></defs><g id="레이어_3" data-name="레이어 3"><g class="cls-2"><polygon class="cls-3" points="290.49 216.33 262.64 216.8 262.64 216.33 290.49 216.33"/><polygon class="cls-4" points="355.42 216.33 262.64 217.9 262.64 216.8 290.49 216.33 355.42 216.33"/><polygon class="cls-5" points="405.7 216.58 262.64 219 262.64 217.9 355.42 216.33 405.7 216.33 405.7 216.58"/><polygon class="cls-6" points="405.7 217.68 262.64 220.1 262.64 219 405.7 216.58 405.7 217.68"/><polygon class="cls-7" points="405.7 218.78 262.64 221.2 262.64 220.1 405.7 217.68 405.7 218.78"/><polygon class="cls-8" points="405.7 219.88 262.64 222.3 262.64 221.2 405.7 218.78 405.7 219.88"/><polygon class="cls-9" points="405.7 220.98 262.64 223.4 262.64 222.3 405.7 219.88 405.7 220.98"/><polygon class="cls-10" points="405.7 222.08 262.64 224.5 262.64 223.4 405.7 220.98 405.7 222.08"/><polygon class="cls-11" points="405.7 223.18 262.64 225.6 262.64 224.5 405.7 222.08 405.7 223.18"/><polygon class="cls-12" points="405.7 224.28 262.64 226.71 262.64 225.6 405.7 223.18 405.7 224.28"/><polygon class="cls-13" points="405.7 225.38 262.64 227.81 262.64 226.71 405.7 224.28 405.7 225.38"/><polygon class="cls-14" points="405.7 226.48 262.64 228.91 262.64 227.81 405.7 225.38 405.7 226.48"/><polygon class="cls-15" points="405.7 227.58 262.64 230.01 262.64 228.91 405.7 226.48 405.7 227.58"/><polygon class="cls-16" points="405.7 228.68 262.64 231.11 262.64 230.01 405.7 227.58 405.7 228.68"/><polygon class="cls-17" points="405.7 229.78 262.64 232.21 262.64 231.11 405.7 228.68 405.7 229.78"/><polygon class="cls-18" points="405.7 230.88 262.64 233.31 262.64 232.21 405.7 229.78 405.7 230.88"/><polygon class="cls-19" points="405.7 231.99 262.64 234.41 262.64 233.31 405.7 230.88 405.7 231.99"/><polygon class="cls-20" points="405.7 233.09 262.64 235.51 262.64 234.41 405.7 231.99 405.7 233.09"/><polygon class="cls-21" points="405.7 234.19 262.64 236.61 262.64 235.51 405.7 233.09 405.7 234.19"/><polygon class="cls-22" points="405.7 235.29 262.64 237.71 262.64 236.61 405.7 234.19 405.7 235.29"/><polygon class="cls-23" points="405.7 236.39 262.64 238.81 262.64 237.71 405.7 235.29 405.7 236.39"/><polygon class="cls-24" points="405.7 237.49 262.64 239.91 262.64 238.81 405.7 236.39 405.7 237.49"/><polygon class="cls-25" points="405.7 238.59 262.64 241.01 262.64 239.91 405.7 237.49 405.7 238.59"/><polygon class="cls-26" points="405.7 239.69 262.64 242.11 262.64 241.01 405.7 238.59 405.7 239.69"/><polygon class="cls-27" points="405.7 240.79 262.64 243.21 262.64 242.11 405.7 239.69 405.7 240.79"/><polygon class="cls-28" points="405.7 241.89 262.64 244.31 262.64 243.21 405.7 240.79 405.7 241.89"/><polygon class="cls-29" points="405.7 242.99 262.64 245.41 262.64 244.31 405.7 241.89 405.7 242.99"/><polygon class="cls-30" points="405.7 244.09 262.64 246.51 262.64 245.41 405.7 242.99 405.7 244.09"/><polygon class="cls-31" points="405.7 245.19 262.64 247.62 262.64 246.51 405.7 244.09 405.7 245.19"/><polygon class="cls-32" points="405.7 246.29 262.64 248.72 262.64 247.62 405.7 245.19 405.7 246.29"/><polygon class="cls-33" points="405.7 247.39 262.64 249.82 262.64 248.72 405.7 246.29 405.7 247.39"/><polygon class="cls-34" points="405.7 248.49 262.64 250.92 262.64 249.82 405.7 247.39 405.7 248.49"/><polygon class="cls-35" points="405.7 249.59 262.64 252.02 262.64 250.92 405.7 248.49 405.7 249.59"/><polygon class="cls-36" points="405.7 250.69 262.64 253.12 262.64 252.02 405.7 249.59 405.7 250.69"/><polygon class="cls-37" points="405.7 251.79 262.64 254.22 262.64 253.12 405.7 250.69 405.7 251.79"/><polygon class="cls-38" points="405.7 252.89 262.64 255.32 262.64 254.22 405.7 251.79 405.7 252.89"/><polygon class="cls-39" points="405.7 254 262.64 256.42 262.64 255.32 405.7 252.89 405.7 254"/><polygon class="cls-40" points="405.7 255.09 262.64 257.52 262.64 256.42 405.7 254 405.7 255.09"/><polygon class="cls-41" points="405.7 256.2 262.64 258.62 262.64 257.52 405.7 255.09 405.7 256.2"/><polygon class="cls-42" points="405.7 257.3 262.64 259.72 262.64 258.62 405.7 256.2 405.7 257.3"/><polygon class="cls-43" points="405.7 258.4 262.64 260.82 262.64 259.72 405.7 257.3 405.7 258.4"/><polygon class="cls-44" points="405.7 259.5 262.64 261.92 262.64 260.82 405.7 258.4 405.7 259.5"/><polygon class="cls-45" points="405.7 260.6 262.64 263.02 262.64 261.92 405.7 259.5 405.7 260.6"/><polygon class="cls-46" points="405.7 261.7 262.64 264.12 262.64 263.02 405.7 260.6 405.7 261.7"/><polygon class="cls-47" points="405.7 262.8 262.64 265.22 262.64 264.12 405.7 261.7 405.7 262.8"/><polygon class="cls-48" points="405.7 263.9 262.64 266.32 262.64 265.22 405.7 262.8 405.7 263.9"/><polygon class="cls-48" points="262.64 266.32 405.7 263.9 405.7 406.2 262.64 406.2 262.64 266.32"/></g><g class="cls-49"><polygon class="cls-50" points="154.64 216.33 94.12 217.35 94.12 216.33 154.64 216.33"/><polygon class="cls-51" points="219.57 216.33 94.12 218.46 94.12 217.35 154.64 216.33 219.57 216.33"/><polygon class="cls-3" points="237.18 217.13 94.12 219.56 94.12 218.46 219.57 216.33 237.18 216.33 237.18 217.13"/><polygon class="cls-4" points="237.18 218.23 94.12 220.66 94.12 219.56 237.18 217.13 237.18 218.23"/><polygon class="cls-5" points="237.18 219.33 94.12 221.76 94.12 220.66 237.18 218.23 237.18 219.33"/><polygon class="cls-6" points="237.18 220.43 94.12 222.86 94.12 221.76 237.18 219.33 237.18 220.43"/><polygon class="cls-7" points="237.18 221.53 94.12 223.96 94.12 222.86 237.18 220.43 237.18 221.53"/><polygon class="cls-8" points="237.18 222.63 94.12 225.06 94.12 223.96 237.18 221.53 237.18 222.63"/><polygon class="cls-9" points="237.18 223.73 94.12 226.16 94.12 225.06 237.18 222.63 237.18 223.73"/><polygon class="cls-10" points="237.18 224.84 94.12 227.26 94.12 226.16 237.18 223.73 237.18 224.84"/><polygon class="cls-11" points="237.18 225.94 94.12 228.36 94.12 227.26 237.18 224.84 237.18 225.94"/><polygon class="cls-12" points="237.18 227.04 94.12 229.46 94.12 228.36 237.18 225.94 237.18 227.04"/><polygon class="cls-13" points="237.18 228.14 94.12 230.56 94.12 229.46 237.18 227.04 237.18 228.14"/><polygon class="cls-14" points="237.18 229.24 94.12 231.66 94.12 230.56 237.18 228.14 237.18 229.24"/><polygon class="cls-15" points="237.18 230.34 94.12 232.76 94.12 231.66 237.18 229.24 237.18 230.34"/><polygon class="cls-16" points="237.18 231.44 94.12 233.86 94.12 232.76 237.18 230.34 237.18 231.44"/><polygon class="cls-17" points="237.18 232.54 94.12 234.96 94.12 233.86 237.18 231.44 237.18 232.54"/><polygon class="cls-18" points="237.18 233.64 94.12 236.06 94.12 234.96 237.18 232.54 237.18 233.64"/><polygon class="cls-19" points="237.18 234.74 94.12 237.16 94.12 236.06 237.18 233.64 237.18 234.74"/><polygon class="cls-20" points="237.18 235.84 94.12 238.26 94.12 237.16 237.18 234.74 237.18 235.84"/><polygon class="cls-21" points="237.18 236.94 94.12 239.37 94.12 238.26 237.18 235.84 237.18 236.94"/><polygon class="cls-22" points="237.18 238.04 94.12 240.47 94.12 239.37 237.18 236.94 237.18 238.04"/><polygon class="cls-23" points="237.18 239.14 94.12 241.57 94.12 240.47 237.18 238.04 237.18 239.14"/><polygon class="cls-24" points="237.18 240.24 94.12 242.67 94.12 241.57 237.18 239.14 237.18 240.24"/><polygon class="cls-25" points="237.18 241.34 94.12 243.77 94.12 242.67 237.18 240.24 237.18 241.34"/><polygon class="cls-26" points="237.18 242.44 94.12 244.87 94.12 243.77 237.18 241.34 237.18 242.44"/><polygon class="cls-27" points="237.18 243.54 94.12 245.97 94.12 244.87 237.18 242.44 237.18 243.54"/><polygon class="cls-28" points="237.18 244.64 94.12 247.07 94.12 245.97 237.18 243.54 237.18 244.64"/><polygon class="cls-29" points="237.18 245.74 94.12 248.17 94.12 247.07 237.18 244.64 237.18 245.74"/><polygon class="cls-30" points="237.18 246.84 94.12 249.27 94.12 248.17 237.18 245.74 237.18 246.84"/><polygon class="cls-31" points="237.18 247.94 94.12 250.37 94.12 249.27 237.18 246.84 237.18 247.94"/><polygon class="cls-32" points="237.18 249.05 94.12 251.47 94.12 250.37 237.18 247.94 237.18 249.05"/><polygon class="cls-33" points="237.18 250.15 94.12 252.57 94.12 251.47 237.18 249.05 237.18 250.15"/><polygon class="cls-34" points="237.18 251.25 94.12 253.67 94.12 252.57 237.18 250.15 237.18 251.25"/><polygon class="cls-35" points="237.18 252.35 94.12 254.77 94.12 253.67 237.18 251.25 237.18 252.35"/><polygon class="cls-36" points="237.18 253.45 94.12 255.87 94.12 254.77 237.18 252.35 237.18 253.45"/><polygon class="cls-37" points="237.18 254.55 94.12 256.97 94.12 255.87 237.18 253.45 237.18 254.55"/><polygon class="cls-38" points="237.18 255.65 94.12 258.07 94.12 256.97 237.18 254.55 237.18 255.65"/><polygon class="cls-39" points="237.18 256.75 94.12 259.17 94.12 258.07 237.18 255.65 237.18 256.75"/><polygon class="cls-40" points="237.18 257.85 94.12 260.27 94.12 259.17 237.18 256.75 237.18 257.85"/><polygon class="cls-41" points="237.18 258.95 94.12 261.38 94.12 260.27 237.18 257.85 237.18 258.95"/><polygon class="cls-42" points="237.18 260.05 94.12 262.48 94.12 261.38 237.18 258.95 237.18 260.05"/><polygon class="cls-43" points="237.18 261.15 94.12 263.58 94.12 262.48 237.18 260.05 237.18 261.15"/><polygon class="cls-44" points="237.18 262.25 94.12 264.68 94.12 263.58 237.18 261.15 237.18 262.25"/><polygon class="cls-45" points="237.18 263.35 94.12 265.78 94.12 264.68 237.18 262.25 237.18 263.35"/><polygon class="cls-46" points="237.18 264.45 94.12 266.88 94.12 265.78 237.18 263.35 237.18 264.45"/><polygon class="cls-47" points="237.18 265.55 94.12 267.98 94.12 266.88 237.18 264.45 237.18 265.55"/><polygon class="cls-48" points="237.18 266.65 94.12 269.08 94.12 267.98 237.18 265.55 237.18 266.65"/><polygon class="cls-48" points="94.12 269.08 237.18 266.65 237.18 406.2 94.12 406.2 94.12 269.08"/></g><path class="cls-52" d="M164.86,248.91c0,7.14,8.16,22.43,9.18,31.6s7.13,27.53,6.12,36.7,5.09,42.82,3.05,45.87S173,376.34,170,378.37s-21.41,8.16-21.41,8.16l-11.21,5.1L174,404.88l35.68-8.16L223,376.34l9.17-55L215.83,274.4l-20.38-44.86L173,219.35S164.86,241.78,164.86,248.91Z"/><path class="cls-52" d="M335.48,248.91c0,7.14-8.15,22.43-9.17,31.6s-7.14,27.53-6.12,36.7-5.09,42.82-3.06,45.87,10.2,13.26,13.26,15.29c2.88,1.93,19.38,7.48,21.23,8.1.13,0,.23.09.36.14h0a4.93,4.93,0,0,1-.37,9.13l-23.94,8.65a4.94,4.94,0,0,1-2.77.17l-32.32-7.39a5,5,0,0,1-3-2.12l-11.6-17.85a4.92,4.92,0,0,1-.73-1.88l-8.8-52.79a4.9,4.9,0,0,1,.21-2.43l15.82-45.49c.05-.14.11-.28.17-.42l19.53-43a4.88,4.88,0,0,1,2.45-2.45l15.82-7.19a4.93,4.93,0,0,1,6.71,2.9C331.53,231.55,335.48,243.94,335.48,248.91Z"/><path class="cls-53" d="M350.45,218.43l-10.05-1.67c.08-.52,8.2-52-19.51-84.68-15.39-18.15-39.16-27.35-70.64-27.35H248.9c-31.51,0-55.28,9.22-70.68,27.39-27.74,32.75-19.55,84.12-19.47,84.63l-10.05,1.68c-.38-2.29-9-56.58,21.75-92.9,17.41-20.56,43.81-31,78.45-31h1.35c34.64,0,61,10.43,78.45,31C359.46,161.85,350.83,216.14,350.45,218.43Z"/><path class="cls-53" d="M318.62,405.46c-8,0-39.54-2.69-48.72-44.11-8.5-38.36,2.6-61.86,7.94-73.14a41.58,41.58,0,0,0,2.17-5c1.58-5.78,16-56.63,36.81-63.43,12.83-4.19,16.42-5.14,22.33-4.95h0a112.26,112.26,0,0,1,24.52,3.65c13.83,3.64,22.69,8.41,26.34,14.18,8.81,13.92,18.48,36.23,14.52,63.4-.38,2.55-.72,5.54-1.11,8.85-3.77,32.26-11.61,99.38-83,100.54C320.43,405.4,319.77,405.46,318.62,405.46Zm19.06-184.93c-4.07,0-7.34.85-19.07,4.69-14.59,4.77-28,41-33,59.46a41.51,41.51,0,0,1-2.52,6c-5.07,10.71-15.6,33-7.52,69.44,9.41,42.47,43.17,39.66,44.58,39.53,66.54-1.09,73.71-62.47,77.56-95.45.4-3.37.76-6.41,1.13-9,3.71-25.43-5.39-46.39-13.68-59.49-2.77-4.36-10.91-8.51-22.92-11.67a107.17,107.17,0,0,0-23.27-3.47Z"/><path class="cls-53" d="M181.09,405.45c-1.21,0-1.9-.06-2-.07-71.12-1.14-79-68.26-82.73-100.52-.39-3.31-.73-6.3-1.11-8.85-4-27.18,5.72-49.48,14.53-63.41,3.65-5.76,12.51-10.53,26.33-14.17a112.35,112.35,0,0,1,24.53-3.65h0c5.9-.2,9.49.76,22.32,4.95,20.78,6.79,35.23,57.65,36.82,63.43a39.39,39.39,0,0,0,2.17,5c5.33,11.29,16.43,34.78,7.93,73.14C220.76,402.7,189.27,405.45,181.09,405.45Zm-20.21-184.9A107.17,107.17,0,0,0,137.61,224c-12,3.16-20.15,7.3-22.91,11.67-8.3,13.1-17.4,34.05-13.69,59.49.37,2.6.73,5.64,1.13,9,3.85,33,11,94.36,77.32,95.44,1.67.12,35.45,2.78,44.82-39.52,8.08-36.44-2.45-58.72-7.51-69.43a41.81,41.81,0,0,1-2.53-6c-5.05-18.48-18.46-54.7-33-59.46-12.92-4.22-15.61-4.86-20.33-4.67Z"/></g></svg>