<svg xmlns="http://www.w3.org/2000/svg" xmlns:xlink="http://www.w3.org/1999/xlink" viewBox="0 0 500 500"><defs><style>.cls-1{fill:none;}.cls-2{fill:#ffeef0;}.cls-3{fill:#333;}.cls-4{fill:#eecccf;}.cls-5{clip-path:url(#clip-path);}.cls-6{fill:#e60358;}</style><clipPath id="clip-path"><rect class="cls-1" x="159.6" y="128.98" width="180.44" height="242.04"/></clipPath></defs><g id="레이어_3" data-name="레이어 3"><rect class="cls-2" x="159.6" y="128.98" width="180.44" height="242.04"/><path class="cls-3" d="M343,374H156.62V126H343Zm-180.44-6H337.06V132H162.58Z"/><path class="cls-4" d="M338,104H161.63a6.15,6.15,0,0,0-6,7.52l4,17.48H340l4-17.48A6.16,6.16,0,0,0,338,104Z"/><path class="cls-3" d="M342.42,132H157.22l-4.5-19.8A9.14,9.14,0,0,1,161.63,101H338a9.13,9.13,0,0,1,8.91,11.16ZM162,126H337.66l3.44-15.16A3.18,3.18,0,0,0,338,107H161.63a3.15,3.15,0,0,0-2.48,1.2,3.11,3.11,0,0,0-.61,2.68Z"/><path class="cls-4" d="M338,396H161.63a6.15,6.15,0,0,1-6-7.52l4-17.48H340l4,17.48A6.16,6.16,0,0,1,338,396Z"/><path class="cls-3" d="M338,399H161.63a9.14,9.14,0,0,1-8.91-11.16l4.5-19.8h185.2l4.5,19.8A9.14,9.14,0,0,1,338,399ZM162,374l-3.44,15.17a3.1,3.1,0,0,0,.61,2.67,3.15,3.15,0,0,0,2.48,1.2H338a3.17,3.17,0,0,0,2.48-1.2,3.13,3.13,0,0,0,.61-2.67L337.66,374Z"/><g class="cls-5"><polygon class="cls-6" points="99.22 104.78 104.92 102.27 104.25 96.07 109.28 99.75 114.31 96.07 113.64 102.27 119.34 104.78 113.64 107.29 114.31 113.49 109.28 109.81 104.25 113.49 104.92 107.29 99.22 104.78"/><path class="cls-6" d="M101.19,98.51A1.84,1.84,0,0,1,99.9,98L89.69,87.76a1.82,1.82,0,1,1,2.58-2.57l10.2,10.21a1.82,1.82,0,0,1-1.28,3.11Z"/><path class="cls-6" d="M127.58,124.9a1.86,1.86,0,0,1-1.29-.53l-10.21-10.21a1.82,1.82,0,0,1,2.58-2.58l10.21,10.22a1.82,1.82,0,0,1,0,2.57A1.84,1.84,0,0,1,127.58,124.9Z"/><path class="cls-6" d="M117.37,98.51a1.82,1.82,0,0,1-1.29-3.11l10.21-10.21a1.82,1.82,0,1,1,2.58,2.57L118.66,98A1.84,1.84,0,0,1,117.37,98.51Z"/><path class="cls-6" d="M91,124.9a1.84,1.84,0,0,1-1.29-.53,1.82,1.82,0,0,1,0-2.57L99.9,111.58a1.82,1.82,0,0,1,2.57,2.58l-10.2,10.21A1.84,1.84,0,0,1,91,124.9Z"/><polygon class="cls-6" points="145.62 104.78 151.32 102.27 150.64 96.07 155.67 99.75 160.7 96.07 160.03 102.27 165.73 104.78 160.03 107.29 160.7 113.49 155.67 109.81 150.64 113.49 151.32 107.29 145.62 104.78"/><path class="cls-6" d="M147.58,98.51a1.86,1.86,0,0,1-1.29-.53L136.08,87.76a1.82,1.82,0,1,1,2.58-2.57L148.87,95.4a1.82,1.82,0,0,1-1.29,3.11Z"/><path class="cls-6" d="M174,124.9a1.82,1.82,0,0,1-1.29-.53l-10.21-10.21a1.82,1.82,0,1,1,2.57-2.58l10.21,10.22a1.82,1.82,0,0,1-1.28,3.1Z"/><path class="cls-6" d="M163.76,98.51a1.82,1.82,0,0,1-1.28-3.11l10.21-10.21a1.82,1.82,0,1,1,2.57,2.57L165.05,98A1.82,1.82,0,0,1,163.76,98.51Z"/><path class="cls-6" d="M137.37,124.9a1.84,1.84,0,0,1-1.29-.53,1.82,1.82,0,0,1,0-2.57l10.21-10.22a1.82,1.82,0,0,1,2.58,2.58l-10.21,10.21A1.84,1.84,0,0,1,137.37,124.9Z"/><polygon class="cls-6" points="192.01 104.78 197.71 102.27 197.04 96.07 202.07 99.75 207.1 96.07 206.42 102.27 212.13 104.78 206.42 107.29 207.1 113.49 202.07 109.81 197.04 113.49 197.71 107.29 192.01 104.78"/><path class="cls-6" d="M194,98.51a1.82,1.82,0,0,1-1.29-.53L182.48,87.76a1.82,1.82,0,1,1,2.57-2.57L195.26,95.4A1.82,1.82,0,0,1,194,98.51Z"/><path class="cls-6" d="M220.37,124.9a1.84,1.84,0,0,1-1.29-.53l-10.21-10.21a1.82,1.82,0,0,1,2.58-2.58l10.21,10.22a1.82,1.82,0,0,1,0,2.57A1.84,1.84,0,0,1,220.37,124.9Z"/><path class="cls-6" d="M210.16,98.51a1.82,1.82,0,0,1-1.29-3.11l10.21-10.21a1.82,1.82,0,1,1,2.58,2.57L211.45,98A1.86,1.86,0,0,1,210.16,98.51Z"/><path class="cls-6" d="M183.76,124.9a1.82,1.82,0,0,1-1.28-3.1l10.21-10.22a1.82,1.82,0,0,1,2.57,2.58l-10.21,10.21A1.82,1.82,0,0,1,183.76,124.9Z"/><polygon class="cls-6" points="238.4 104.78 244.11 102.27 243.43 96.07 248.46 99.75 253.49 96.07 252.82 102.27 258.52 104.78 252.82 107.29 253.49 113.49 248.46 109.81 243.43 113.49 244.11 107.29 238.4 104.78"/><path class="cls-6" d="M240.37,98.51a1.86,1.86,0,0,1-1.29-.53L228.87,87.76a1.82,1.82,0,1,1,2.58-2.57L241.66,95.4a1.82,1.82,0,0,1-1.29,3.11Z"/><path class="cls-6" d="M266.76,124.9a1.82,1.82,0,0,1-1.28-.53l-10.21-10.21a1.82,1.82,0,0,1,2.57-2.58l10.21,10.22a1.82,1.82,0,0,1-1.29,3.1Z"/><path class="cls-6" d="M256.55,98.51a1.82,1.82,0,0,1-1.28-3.11l10.21-10.21a1.82,1.82,0,0,1,2.57,2.57L257.84,98A1.84,1.84,0,0,1,256.55,98.51Z"/><path class="cls-6" d="M230.16,124.9a1.84,1.84,0,0,1-1.29-.53,1.82,1.82,0,0,1,0-2.57l10.21-10.22a1.82,1.82,0,0,1,2.58,2.58l-10.21,10.21A1.86,1.86,0,0,1,230.16,124.9Z"/><polygon class="cls-6" points="284.8 104.78 290.5 102.27 289.83 96.07 294.86 99.75 299.88 96.07 299.21 102.27 304.92 104.78 299.21 107.29 299.88 113.49 294.86 109.81 289.83 113.49 290.5 107.29 284.8 104.78"/><path class="cls-6" d="M286.77,98.51a1.82,1.82,0,0,1-1.29-.53L275.27,87.76a1.82,1.82,0,1,1,2.57-2.57L288.05,95.4a1.82,1.82,0,0,1-1.28,3.11Z"/><path class="cls-6" d="M313.16,124.9a1.82,1.82,0,0,1-1.29-.53l-10.21-10.21a1.82,1.82,0,0,1,2.57-2.58l10.21,10.22a1.82,1.82,0,0,1-1.28,3.1Z"/><path class="cls-6" d="M303,98.51a1.82,1.82,0,0,1-1.29-3.11l10.21-10.21a1.82,1.82,0,0,1,2.57,2.57L304.23,98A1.82,1.82,0,0,1,303,98.51Z"/><path class="cls-6" d="M276.55,124.9a1.82,1.82,0,0,1-1.28-3.1l10.21-10.22a1.82,1.82,0,0,1,2.57,2.58l-10.21,10.21A1.82,1.82,0,0,1,276.55,124.9Z"/><polygon class="cls-6" points="331.19 104.78 336.89 102.27 336.22 96.07 341.25 99.75 346.28 96.07 345.61 102.27 351.31 104.78 345.61 107.29 346.28 113.49 341.25 109.81 336.22 113.49 336.89 107.29 331.19 104.78"/><path class="cls-6" d="M333.16,98.51a1.84,1.84,0,0,1-1.29-.53L321.66,87.76a1.82,1.82,0,0,1,2.58-2.57L334.45,95.4a1.82,1.82,0,0,1-1.29,3.11Z"/><path class="cls-6" d="M359.55,124.9a1.84,1.84,0,0,1-1.29-.53l-10.21-10.21a1.82,1.82,0,0,1,2.58-2.58l10.21,10.22a1.82,1.82,0,0,1,0,2.57A1.84,1.84,0,0,1,359.55,124.9Z"/><path class="cls-6" d="M349.34,98.51a1.82,1.82,0,0,1-1.29-3.11l10.21-10.21a1.82,1.82,0,0,1,2.58,2.57L350.63,98A1.86,1.86,0,0,1,349.34,98.51Z"/><path class="cls-6" d="M323,124.9a1.84,1.84,0,0,1-1.29-.53,1.82,1.82,0,0,1,0-2.57l10.21-10.22a1.82,1.82,0,0,1,2.58,2.58l-10.21,10.21A1.86,1.86,0,0,1,323,124.9Z"/><polygon class="cls-6" points="377.58 104.78 383.29 102.27 382.61 96.07 387.64 99.75 392.67 96.07 392 102.27 397.7 104.78 392 107.29 392.67 113.49 387.64 109.81 382.61 113.49 383.29 107.29 377.58 104.78"/><path class="cls-6" d="M379.55,98.51a1.82,1.82,0,0,1-1.28-.53L368.06,87.76a1.82,1.82,0,0,1,2.57-2.57L380.84,95.4a1.82,1.82,0,0,1-1.29,3.11Z"/><path class="cls-6" d="M405.94,124.9a1.82,1.82,0,0,1-1.28-.53l-10.21-10.21a1.82,1.82,0,0,1,2.57-2.58l10.21,10.22a1.82,1.82,0,0,1-1.29,3.1Z"/><path class="cls-6" d="M395.73,98.51a1.82,1.82,0,0,1-1.28-3.11l10.21-10.21a1.82,1.82,0,1,1,2.57,2.57L397,98A1.84,1.84,0,0,1,395.73,98.51Z"/><path class="cls-6" d="M369.34,124.9a1.82,1.82,0,0,1-1.28-.53,1.8,1.8,0,0,1,0-2.57l10.21-10.22a1.82,1.82,0,0,1,2.57,2.58l-10.21,10.21A1.84,1.84,0,0,1,369.34,124.9Z"/><polygon class="cls-6" points="99.22 153.39 104.92 150.88 104.25 144.68 109.28 148.36 114.31 144.68 113.64 150.88 119.34 153.39 113.64 155.91 114.31 162.1 109.28 158.42 104.25 162.1 104.92 155.91 99.22 153.39"/><path class="cls-6" d="M101.19,147.12a1.84,1.84,0,0,1-1.29-.53L89.69,136.38a1.82,1.82,0,1,1,2.58-2.58L102.47,144a1.82,1.82,0,0,1-1.28,3.11Z"/><path class="cls-6" d="M127.58,173.51a1.86,1.86,0,0,1-1.29-.53l-10.21-10.21a1.82,1.82,0,0,1,2.58-2.57l10.21,10.2a1.82,1.82,0,0,1-1.29,3.11Z"/><path class="cls-6" d="M117.37,147.12a1.82,1.82,0,0,1-1.29-3.11l10.21-10.21a1.82,1.82,0,1,1,2.58,2.58l-10.21,10.21A1.84,1.84,0,0,1,117.37,147.12Z"/><path class="cls-6" d="M91,173.51a1.82,1.82,0,0,1-1.29-3.11L99.9,160.2a1.82,1.82,0,0,1,2.57,2.57L92.27,173A1.84,1.84,0,0,1,91,173.51Z"/><polygon class="cls-6" points="145.62 153.39 151.32 150.88 150.64 144.68 155.67 148.36 160.7 144.68 160.03 150.88 165.73 153.39 160.03 155.91 160.7 162.1 155.67 158.42 150.64 162.1 151.32 155.91 145.62 153.39"/><path class="cls-6" d="M147.58,147.12a1.86,1.86,0,0,1-1.29-.53l-10.21-10.21a1.82,1.82,0,0,1,2.58-2.58L148.87,144a1.82,1.82,0,0,1-1.29,3.11Z"/><path class="cls-6" d="M174,173.51a1.82,1.82,0,0,1-1.29-.53l-10.21-10.21a1.82,1.82,0,0,1,2.57-2.57l10.21,10.2a1.82,1.82,0,0,1-1.28,3.11Z"/><path class="cls-6" d="M163.76,147.12a1.82,1.82,0,0,1-1.28-3.11l10.21-10.21a1.82,1.82,0,0,1,2.57,2.58l-10.21,10.21A1.82,1.82,0,0,1,163.76,147.12Z"/><path class="cls-6" d="M137.37,173.51a1.82,1.82,0,0,1-1.29-3.11l10.21-10.2a1.82,1.82,0,0,1,2.58,2.57L138.66,173A1.84,1.84,0,0,1,137.37,173.51Z"/><polygon class="cls-6" points="192.01 153.39 197.71 150.88 197.04 144.68 202.07 148.36 207.1 144.68 206.42 150.88 212.13 153.39 206.42 155.91 207.1 162.1 202.07 158.42 197.04 162.1 197.71 155.91 192.01 153.39"/><path class="cls-6" d="M194,147.12a1.82,1.82,0,0,1-1.29-.53l-10.21-10.21a1.82,1.82,0,1,1,2.57-2.58L195.26,144a1.82,1.82,0,0,1-1.28,3.11Z"/><path class="cls-6" d="M220.37,173.51a1.84,1.84,0,0,1-1.29-.53l-10.21-10.21a1.82,1.82,0,0,1,2.58-2.57l10.21,10.2a1.82,1.82,0,0,1-1.29,3.11Z"/><path class="cls-6" d="M210.16,147.12a1.82,1.82,0,0,1-1.29-3.11l10.21-10.21a1.82,1.82,0,0,1,2.58,2.58l-10.21,10.21A1.86,1.86,0,0,1,210.16,147.12Z"/><path class="cls-6" d="M183.76,173.51a1.82,1.82,0,0,1-1.28-3.11l10.21-10.2a1.82,1.82,0,0,1,2.57,2.57L185.05,173A1.82,1.82,0,0,1,183.76,173.51Z"/><polygon class="cls-6" points="238.4 153.39 244.11 150.88 243.43 144.68 248.46 148.36 253.49 144.68 252.82 150.88 258.52 153.39 252.82 155.91 253.49 162.1 248.46 158.42 243.43 162.1 244.11 155.91 238.4 153.39"/><path class="cls-6" d="M240.37,147.12a1.86,1.86,0,0,1-1.29-.53l-10.21-10.21a1.82,1.82,0,0,1,2.58-2.58L241.66,144a1.82,1.82,0,0,1-1.29,3.11Z"/><path class="cls-6" d="M266.76,173.51a1.82,1.82,0,0,1-1.28-.53l-10.21-10.21a1.82,1.82,0,0,1,2.57-2.57l10.21,10.2a1.82,1.82,0,0,1-1.29,3.11Z"/><path class="cls-6" d="M256.55,147.12a1.82,1.82,0,0,1-1.28-3.11l10.21-10.21a1.82,1.82,0,0,1,2.57,2.58l-10.21,10.21A1.84,1.84,0,0,1,256.55,147.12Z"/><path class="cls-6" d="M230.16,173.51a1.82,1.82,0,0,1-1.29-3.11l10.21-10.2a1.82,1.82,0,0,1,2.58,2.57L231.45,173A1.86,1.86,0,0,1,230.16,173.51Z"/><polygon class="cls-6" points="284.8 153.39 290.5 150.88 289.83 144.68 294.86 148.36 299.88 144.68 299.21 150.88 304.92 153.39 299.21 155.91 299.88 162.1 294.86 158.42 289.83 162.1 290.5 155.91 284.8 153.39"/><path class="cls-6" d="M286.77,147.12a1.82,1.82,0,0,1-1.29-.53l-10.21-10.21a1.82,1.82,0,1,1,2.57-2.58L288.05,144a1.82,1.82,0,0,1-1.28,3.11Z"/><path class="cls-6" d="M313.16,173.51a1.82,1.82,0,0,1-1.29-.53l-10.21-10.21a1.82,1.82,0,0,1,2.57-2.57l10.21,10.2a1.82,1.82,0,0,1-1.28,3.11Z"/><path class="cls-6" d="M303,147.12a1.82,1.82,0,0,1-1.29-3.11l10.21-10.21a1.82,1.82,0,0,1,2.57,2.58l-10.21,10.21A1.82,1.82,0,0,1,303,147.12Z"/><path class="cls-6" d="M276.55,173.51a1.82,1.82,0,0,1-1.28-3.11l10.21-10.2a1.82,1.82,0,0,1,2.57,2.57L277.84,173A1.82,1.82,0,0,1,276.55,173.51Z"/><polygon class="cls-6" points="331.19 153.39 336.89 150.88 336.22 144.68 341.25 148.36 346.28 144.68 345.61 150.88 351.31 153.39 345.61 155.91 346.28 162.1 341.25 158.42 336.22 162.1 336.89 155.91 331.19 153.39"/><path class="cls-6" d="M333.16,147.12a1.84,1.84,0,0,1-1.29-.53l-10.21-10.21a1.82,1.82,0,0,1,2.58-2.58L334.45,144a1.82,1.82,0,0,1-1.29,3.11Z"/><path class="cls-6" d="M359.55,173.51a1.84,1.84,0,0,1-1.29-.53l-10.21-10.21a1.82,1.82,0,0,1,2.58-2.57l10.21,10.2a1.82,1.82,0,0,1-1.29,3.11Z"/><path class="cls-6" d="M349.34,147.12a1.82,1.82,0,0,1-1.29-3.11l10.21-10.21a1.82,1.82,0,0,1,2.58,2.58l-10.21,10.21A1.86,1.86,0,0,1,349.34,147.12Z"/><path class="cls-6" d="M323,173.51a1.82,1.82,0,0,1-1.29-3.11l10.21-10.2a1.82,1.82,0,0,1,2.58,2.57L324.24,173A1.86,1.86,0,0,1,323,173.51Z"/><polygon class="cls-6" points="377.58 153.39 383.29 150.88 382.61 144.68 387.64 148.36 392.67 144.68 392 150.88 397.7 153.39 392 155.91 392.67 162.1 387.64 158.42 382.61 162.1 383.29 155.91 377.58 153.39"/><path class="cls-6" d="M379.55,147.12a1.82,1.82,0,0,1-1.28-.53l-10.21-10.21a1.82,1.82,0,0,1,2.57-2.58L380.84,144a1.82,1.82,0,0,1-1.29,3.11Z"/><path class="cls-6" d="M405.94,173.51a1.82,1.82,0,0,1-1.28-.53l-10.21-10.21A1.82,1.82,0,0,1,397,160.2l10.21,10.2a1.82,1.82,0,0,1-1.29,3.11Z"/><path class="cls-6" d="M395.73,147.12a1.82,1.82,0,0,1-1.28-3.11l10.21-10.21a1.82,1.82,0,1,1,2.57,2.58L397,146.59A1.84,1.84,0,0,1,395.73,147.12Z"/><path class="cls-6" d="M369.34,173.51a1.82,1.82,0,0,1-1.28-3.11l10.21-10.2a1.82,1.82,0,0,1,2.57,2.57L370.63,173A1.84,1.84,0,0,1,369.34,173.51Z"/><polygon class="cls-6" points="99.22 202 104.92 199.49 104.25 193.29 109.28 196.97 114.31 193.29 113.64 199.49 119.34 202 113.64 204.52 114.31 210.72 109.28 207.03 104.25 210.72 104.92 204.52 99.22 202"/><path class="cls-6" d="M101.19,195.74a1.81,1.81,0,0,1-1.29-.54L89.69,185a1.82,1.82,0,1,1,2.58-2.57l10.2,10.21a1.83,1.83,0,0,1-1.28,3.11Z"/><path class="cls-6" d="M127.58,222.13a1.83,1.83,0,0,1-1.29-.54l-10.21-10.21a1.82,1.82,0,0,1,2.58-2.57L128.87,219a1.83,1.83,0,0,1-1.29,3.11Z"/><path class="cls-6" d="M117.37,195.74a1.83,1.83,0,0,1-1.29-3.11l10.21-10.21a1.82,1.82,0,1,1,2.58,2.57L118.66,195.2A1.81,1.81,0,0,1,117.37,195.74Z"/><path class="cls-6" d="M91,222.13A1.83,1.83,0,0,1,89.69,219L99.9,208.81a1.82,1.82,0,0,1,2.57,2.57l-10.2,10.21A1.81,1.81,0,0,1,91,222.13Z"/><polygon class="cls-6" points="145.62 202 151.32 199.49 150.64 193.29 155.67 196.97 160.7 193.29 160.03 199.49 165.73 202 160.03 204.52 160.7 210.72 155.67 207.03 150.64 210.72 151.32 204.52 145.62 202"/><path class="cls-6" d="M147.58,195.74a1.83,1.83,0,0,1-1.29-.54L136.08,185a1.82,1.82,0,1,1,2.58-2.57l10.21,10.21a1.83,1.83,0,0,1-1.29,3.11Z"/><path class="cls-6" d="M174,222.13a1.79,1.79,0,0,1-1.29-.54l-10.21-10.21a1.82,1.82,0,1,1,2.57-2.57L175.26,219a1.82,1.82,0,0,1,0,2.57A1.79,1.79,0,0,1,174,222.13Z"/><path class="cls-6" d="M163.76,195.74a1.79,1.79,0,0,1-1.28-.54,1.82,1.82,0,0,1,0-2.57l10.21-10.21a1.82,1.82,0,1,1,2.57,2.57L165.05,195.2A1.79,1.79,0,0,1,163.76,195.74Z"/><path class="cls-6" d="M137.37,222.13a1.83,1.83,0,0,1-1.29-3.11l10.21-10.21a1.82,1.82,0,0,1,2.58,2.57l-10.21,10.21A1.81,1.81,0,0,1,137.37,222.13Z"/><polygon class="cls-6" points="192.01 202 197.71 199.49 197.04 193.29 202.07 196.97 207.1 193.29 206.42 199.49 212.13 202 206.42 204.52 207.1 210.72 202.07 207.03 197.04 210.72 197.71 204.52 192.01 202"/><path class="cls-6" d="M194,195.74a1.79,1.79,0,0,1-1.29-.54L182.48,185a1.82,1.82,0,1,1,2.57-2.57l10.21,10.21a1.82,1.82,0,0,1,0,2.57A1.79,1.79,0,0,1,194,195.74Z"/><path class="cls-6" d="M220.37,222.13a1.81,1.81,0,0,1-1.29-.54l-10.21-10.21a1.82,1.82,0,0,1,2.58-2.57L221.66,219a1.83,1.83,0,0,1-1.29,3.11Z"/><path class="cls-6" d="M210.16,195.74a1.83,1.83,0,0,1-1.29-3.11l10.21-10.21a1.82,1.82,0,1,1,2.58,2.57L211.45,195.2A1.83,1.83,0,0,1,210.16,195.74Z"/><path class="cls-6" d="M183.76,222.13a1.79,1.79,0,0,1-1.28-.54,1.82,1.82,0,0,1,0-2.57l10.21-10.21a1.82,1.82,0,0,1,2.57,2.57l-10.21,10.21A1.79,1.79,0,0,1,183.76,222.13Z"/><polygon class="cls-6" points="238.4 202 244.11 199.49 243.43 193.29 248.46 196.97 253.49 193.29 252.82 199.49 258.52 202 252.82 204.52 253.49 210.72 248.46 207.03 243.43 210.72 244.11 204.52 238.4 202"/><path class="cls-6" d="M240.37,195.74a1.83,1.83,0,0,1-1.29-.54L228.87,185a1.82,1.82,0,1,1,2.58-2.57l10.21,10.21a1.83,1.83,0,0,1-1.29,3.11Z"/><path class="cls-6" d="M266.76,222.13a1.79,1.79,0,0,1-1.28-.54l-10.21-10.21a1.82,1.82,0,0,1,2.57-2.57L268.05,219a1.82,1.82,0,0,1,0,2.57A1.79,1.79,0,0,1,266.76,222.13Z"/><path class="cls-6" d="M256.55,195.74a1.83,1.83,0,0,1-1.28-3.11l10.21-10.21a1.82,1.82,0,0,1,2.57,2.57L257.84,195.2A1.81,1.81,0,0,1,256.55,195.74Z"/><path class="cls-6" d="M230.16,222.13a1.83,1.83,0,0,1-1.29-3.11l10.21-10.21a1.82,1.82,0,0,1,2.58,2.57l-10.21,10.21A1.83,1.83,0,0,1,230.16,222.13Z"/><polygon class="cls-6" points="284.8 202 290.5 199.49 289.83 193.29 294.86 196.97 299.88 193.29 299.21 199.49 304.92 202 299.21 204.52 299.88 210.72 294.86 207.03 289.83 210.72 290.5 204.52 284.8 202"/><path class="cls-6" d="M286.77,195.74a1.79,1.79,0,0,1-1.29-.54L275.27,185a1.82,1.82,0,1,1,2.57-2.57l10.21,10.21a1.82,1.82,0,0,1,0,2.57A1.79,1.79,0,0,1,286.77,195.74Z"/><path class="cls-6" d="M313.16,222.13a1.79,1.79,0,0,1-1.29-.54l-10.21-10.21a1.82,1.82,0,0,1,2.57-2.57L314.44,219a1.82,1.82,0,0,1,0,2.57A1.79,1.79,0,0,1,313.16,222.13Z"/><path class="cls-6" d="M303,195.74a1.83,1.83,0,0,1-1.29-3.11l10.21-10.21a1.82,1.82,0,0,1,2.57,2.57L304.23,195.2A1.79,1.79,0,0,1,303,195.74Z"/><path class="cls-6" d="M276.55,222.13a1.79,1.79,0,0,1-1.28-.54,1.82,1.82,0,0,1,0-2.57l10.21-10.21a1.82,1.82,0,0,1,2.57,2.57l-10.21,10.21A1.79,1.79,0,0,1,276.55,222.13Z"/><polygon class="cls-6" points="331.19 202 336.89 199.49 336.22 193.29 341.25 196.97 346.28 193.29 345.61 199.49 351.31 202 345.61 204.52 346.28 210.72 341.25 207.03 336.22 210.72 336.89 204.52 331.19 202"/><path class="cls-6" d="M333.16,195.74a1.81,1.81,0,0,1-1.29-.54L321.66,185a1.82,1.82,0,0,1,2.58-2.57l10.21,10.21a1.83,1.83,0,0,1-1.29,3.11Z"/><path class="cls-6" d="M359.55,222.13a1.81,1.81,0,0,1-1.29-.54l-10.21-10.21a1.82,1.82,0,0,1,2.58-2.57L360.84,219a1.83,1.83,0,0,1-1.29,3.11Z"/><path class="cls-6" d="M349.34,195.74a1.83,1.83,0,0,1-1.29-3.11l10.21-10.21a1.82,1.82,0,0,1,2.58,2.57L350.63,195.2A1.83,1.83,0,0,1,349.34,195.74Z"/><path class="cls-6" d="M323,222.13a1.83,1.83,0,0,1-1.29-3.11l10.21-10.21a1.82,1.82,0,0,1,2.58,2.57l-10.21,10.21A1.83,1.83,0,0,1,323,222.13Z"/><polygon class="cls-6" points="377.58 202 383.29 199.49 382.61 193.29 387.64 196.97 392.67 193.29 392 199.49 397.7 202 392 204.52 392.67 210.72 387.64 207.03 382.61 210.72 383.29 204.52 377.58 202"/><path class="cls-6" d="M379.55,195.74a1.79,1.79,0,0,1-1.28-.54L368.06,185a1.82,1.82,0,0,1,2.57-2.57l10.21,10.21a1.82,1.82,0,0,1,0,2.57A1.79,1.79,0,0,1,379.55,195.74Z"/><path class="cls-6" d="M405.94,222.13a1.79,1.79,0,0,1-1.28-.54l-10.21-10.21a1.82,1.82,0,0,1,2.57-2.57L407.23,219a1.82,1.82,0,0,1,0,2.57A1.79,1.79,0,0,1,405.94,222.13Z"/><path class="cls-6" d="M395.73,195.74a1.83,1.83,0,0,1-1.28-3.11l10.21-10.21a1.82,1.82,0,1,1,2.57,2.57L397,195.2A1.81,1.81,0,0,1,395.73,195.74Z"/><path class="cls-6" d="M369.34,222.13a1.83,1.83,0,0,1-1.28-3.11l10.21-10.21a1.82,1.82,0,0,1,2.57,2.57l-10.21,10.21A1.81,1.81,0,0,1,369.34,222.13Z"/><polygon class="cls-6" points="99.22 250.62 104.92 248.1 104.25 241.91 109.28 245.59 114.31 241.91 113.64 248.1 119.34 250.62 113.64 253.13 114.31 259.33 109.28 255.65 104.25 259.33 104.92 253.13 99.22 250.62"/><path class="cls-6" d="M101.19,244.34a1.8,1.8,0,0,1-1.29-.53L89.69,233.6A1.82,1.82,0,1,1,92.27,231l10.2,10.21a1.8,1.8,0,0,1,0,2.57A1.78,1.78,0,0,1,101.19,244.34Z"/><path class="cls-6" d="M127.58,270.74a1.86,1.86,0,0,1-1.29-.53L116.08,260a1.82,1.82,0,0,1,2.58-2.57l10.21,10.21a1.82,1.82,0,0,1-1.29,3.11Z"/><path class="cls-6" d="M117.37,244.34a1.82,1.82,0,0,1-1.29-3.1L126.29,231a1.82,1.82,0,1,1,2.58,2.57l-10.21,10.21A1.8,1.8,0,0,1,117.37,244.34Z"/><path class="cls-6" d="M91,270.74a1.82,1.82,0,0,1-1.29-3.11L99.9,257.42a1.82,1.82,0,0,1,2.57,2.57l-10.2,10.22A1.84,1.84,0,0,1,91,270.74Z"/><polygon class="cls-6" points="145.62 250.62 151.32 248.1 150.64 241.91 155.67 245.59 160.7 241.91 160.03 248.1 165.73 250.62 160.03 253.13 160.7 259.33 155.67 255.65 150.64 259.33 151.32 253.13 145.62 250.62"/><path class="cls-6" d="M147.58,244.34a1.82,1.82,0,0,1-1.29-.53L136.08,233.6a1.82,1.82,0,0,1,2.58-2.57l10.21,10.21a1.82,1.82,0,0,1-1.29,3.1Z"/><path class="cls-6" d="M174,270.74a1.82,1.82,0,0,1-1.29-.53L162.48,260a1.82,1.82,0,0,1,2.57-2.57l10.21,10.21a1.82,1.82,0,0,1-1.28,3.11Z"/><path class="cls-6" d="M163.76,244.34a1.78,1.78,0,0,1-1.28-.53,1.82,1.82,0,0,1,0-2.57L172.69,231a1.82,1.82,0,0,1,2.57,2.57l-10.21,10.21A1.78,1.78,0,0,1,163.76,244.34Z"/><path class="cls-6" d="M137.37,270.74a1.82,1.82,0,0,1-1.29-3.11l10.21-10.21a1.82,1.82,0,0,1,2.58,2.57l-10.21,10.22A1.84,1.84,0,0,1,137.37,270.74Z"/><polygon class="cls-6" points="192.01 250.62 197.71 248.1 197.04 241.91 202.07 245.59 207.1 241.91 206.42 248.1 212.13 250.62 206.42 253.13 207.1 259.33 202.07 255.65 197.04 259.33 197.71 253.13 192.01 250.62"/><path class="cls-6" d="M194,244.34a1.78,1.78,0,0,1-1.29-.53L182.48,233.6a1.82,1.82,0,1,1,2.57-2.57l10.21,10.21a1.82,1.82,0,0,1,0,2.57A1.78,1.78,0,0,1,194,244.34Z"/><path class="cls-6" d="M220.37,270.74a1.84,1.84,0,0,1-1.29-.53L208.87,260a1.82,1.82,0,0,1,2.58-2.57l10.21,10.21a1.82,1.82,0,0,1-1.29,3.11Z"/><path class="cls-6" d="M210.16,244.34a1.82,1.82,0,0,1-1.29-3.1L219.08,231a1.82,1.82,0,0,1,2.58,2.57l-10.21,10.21A1.82,1.82,0,0,1,210.16,244.34Z"/><path class="cls-6" d="M183.76,270.74a1.82,1.82,0,0,1-1.28-3.11l10.21-10.21a1.82,1.82,0,0,1,2.57,2.57l-10.21,10.22A1.82,1.82,0,0,1,183.76,270.74Z"/><polygon class="cls-6" points="238.4 250.62 244.11 248.1 243.43 241.91 248.46 245.59 253.49 241.91 252.82 248.1 258.52 250.62 252.82 253.13 253.49 259.33 248.46 255.65 243.43 259.33 244.11 253.13 238.4 250.62"/><path class="cls-6" d="M240.37,244.34a1.82,1.82,0,0,1-1.29-.53L228.87,233.6a1.82,1.82,0,0,1,2.58-2.57l10.21,10.21a1.82,1.82,0,0,1-1.29,3.1Z"/><path class="cls-6" d="M266.76,270.74a1.82,1.82,0,0,1-1.28-.53L255.27,260a1.82,1.82,0,0,1,2.57-2.57l10.21,10.21a1.82,1.82,0,0,1-1.29,3.11Z"/><path class="cls-6" d="M256.55,244.34a1.78,1.78,0,0,1-1.28-.53,1.8,1.8,0,0,1,0-2.57L265.48,231a1.82,1.82,0,0,1,2.57,2.57l-10.21,10.21A1.8,1.8,0,0,1,256.55,244.34Z"/><path class="cls-6" d="M230.16,270.74a1.82,1.82,0,0,1-1.29-3.11l10.21-10.21a1.82,1.82,0,0,1,2.58,2.57l-10.21,10.22A1.86,1.86,0,0,1,230.16,270.74Z"/><polygon class="cls-6" points="284.8 250.62 290.5 248.1 289.83 241.91 294.86 245.59 299.88 241.91 299.21 248.1 304.92 250.62 299.21 253.13 299.88 259.33 294.86 255.65 289.83 259.33 290.5 253.13 284.8 250.62"/><path class="cls-6" d="M286.77,244.34a1.78,1.78,0,0,1-1.29-.53L275.27,233.6a1.82,1.82,0,1,1,2.57-2.57l10.21,10.21a1.82,1.82,0,0,1,0,2.57A1.78,1.78,0,0,1,286.77,244.34Z"/><path class="cls-6" d="M313.16,270.74a1.82,1.82,0,0,1-1.29-.53L301.66,260a1.82,1.82,0,0,1,2.57-2.57l10.21,10.21a1.82,1.82,0,0,1-1.28,3.11Z"/><path class="cls-6" d="M303,244.34a1.82,1.82,0,0,1-1.29-3.1L311.87,231a1.82,1.82,0,0,1,2.57,2.57l-10.21,10.21A1.78,1.78,0,0,1,303,244.34Z"/><path class="cls-6" d="M276.55,270.74a1.82,1.82,0,0,1-1.28-3.11l10.21-10.21a1.82,1.82,0,0,1,2.57,2.57l-10.21,10.22A1.82,1.82,0,0,1,276.55,270.74Z"/><polygon class="cls-6" points="331.19 250.62 336.89 248.1 336.22 241.91 341.25 245.59 346.28 241.91 345.61 248.1 351.31 250.62 345.61 253.13 346.28 259.33 341.25 255.65 336.22 259.33 336.89 253.13 331.19 250.62"/><path class="cls-6" d="M333.16,244.34a1.8,1.8,0,0,1-1.29-.53L321.66,233.6a1.82,1.82,0,0,1,2.58-2.57l10.21,10.21a1.82,1.82,0,0,1-1.29,3.1Z"/><path class="cls-6" d="M359.55,270.74a1.84,1.84,0,0,1-1.29-.53L348.05,260a1.82,1.82,0,0,1,2.58-2.57l10.21,10.21a1.82,1.82,0,0,1-1.29,3.11Z"/><path class="cls-6" d="M349.34,244.34a1.82,1.82,0,0,1-1.29-3.1L358.26,231a1.82,1.82,0,0,1,2.58,2.57l-10.21,10.21A1.82,1.82,0,0,1,349.34,244.34Z"/><path class="cls-6" d="M323,270.74a1.82,1.82,0,0,1-1.29-3.11l10.21-10.21a1.82,1.82,0,0,1,2.58,2.57l-10.21,10.22A1.86,1.86,0,0,1,323,270.74Z"/><polygon class="cls-6" points="377.58 250.62 383.29 248.1 382.61 241.91 387.64 245.59 392.67 241.91 392 248.1 397.7 250.62 392 253.13 392.67 259.33 387.64 255.65 382.61 259.33 383.29 253.13 377.58 250.62"/><path class="cls-6" d="M379.55,244.34a1.78,1.78,0,0,1-1.28-.53L368.06,233.6a1.82,1.82,0,0,1,2.57-2.57l10.21,10.21a1.82,1.82,0,0,1,0,2.57A1.78,1.78,0,0,1,379.55,244.34Z"/><path class="cls-6" d="M405.94,270.74a1.82,1.82,0,0,1-1.28-.53L394.45,260a1.82,1.82,0,0,1,2.57-2.57l10.21,10.21a1.82,1.82,0,0,1-1.29,3.11Z"/><path class="cls-6" d="M395.73,244.34a1.78,1.78,0,0,1-1.28-.53,1.8,1.8,0,0,1,0-2.57L404.66,231a1.82,1.82,0,1,1,2.57,2.57L397,243.81A1.8,1.8,0,0,1,395.73,244.34Z"/><path class="cls-6" d="M369.34,270.74a1.82,1.82,0,0,1-1.28-3.11l10.21-10.21a1.82,1.82,0,0,1,2.57,2.57l-10.21,10.22A1.84,1.84,0,0,1,369.34,270.74Z"/><polygon class="cls-6" points="99.22 299.23 104.92 296.71 104.25 290.52 109.28 294.2 114.31 290.52 113.64 296.71 119.34 299.23 113.64 301.74 114.31 307.94 109.28 304.26 104.25 307.94 104.92 301.74 99.22 299.23"/><path class="cls-6" d="M101.19,293a1.81,1.81,0,0,1-1.29-.54L89.69,282.21a1.82,1.82,0,1,1,2.58-2.57l10.2,10.21a1.83,1.83,0,0,1-1.28,3.11Z"/><path class="cls-6" d="M127.58,319.35a1.86,1.86,0,0,1-1.29-.53l-10.21-10.21a1.82,1.82,0,0,1,2.58-2.58l10.21,10.21a1.82,1.82,0,0,1-1.29,3.11Z"/><path class="cls-6" d="M117.37,293a1.83,1.83,0,0,1-1.29-3.11l10.21-10.21a1.82,1.82,0,1,1,2.58,2.57l-10.21,10.21A1.81,1.81,0,0,1,117.37,293Z"/><path class="cls-6" d="M91,319.35a1.82,1.82,0,0,1-1.29-3.11L99.9,306a1.82,1.82,0,0,1,2.57,2.58l-10.2,10.21A1.84,1.84,0,0,1,91,319.35Z"/><polygon class="cls-6" points="145.62 299.23 151.32 296.71 150.64 290.52 155.67 294.2 160.7 290.52 160.03 296.71 165.73 299.23 160.03 301.74 160.7 307.94 155.67 304.26 150.64 307.94 151.32 301.74 145.62 299.23"/><path class="cls-6" d="M147.58,293a1.83,1.83,0,0,1-1.29-.54l-10.21-10.21a1.82,1.82,0,1,1,2.58-2.57l10.21,10.21a1.83,1.83,0,0,1-1.29,3.11Z"/><path class="cls-6" d="M174,319.35a1.82,1.82,0,0,1-1.29-.53l-10.21-10.21a1.82,1.82,0,1,1,2.57-2.58l10.21,10.21a1.82,1.82,0,0,1-1.28,3.11Z"/><path class="cls-6" d="M163.76,293a1.79,1.79,0,0,1-1.28-.54,1.82,1.82,0,0,1,0-2.57l10.21-10.21a1.82,1.82,0,1,1,2.57,2.57l-10.21,10.21A1.79,1.79,0,0,1,163.76,293Z"/><path class="cls-6" d="M137.37,319.35a1.82,1.82,0,0,1-1.29-3.11L146.29,306a1.82,1.82,0,0,1,2.58,2.58l-10.21,10.21A1.84,1.84,0,0,1,137.37,319.35Z"/><polygon class="cls-6" points="192.01 299.23 197.71 296.71 197.04 290.52 202.07 294.2 207.1 290.52 206.42 296.71 212.13 299.23 206.42 301.74 207.1 307.94 202.07 304.26 197.04 307.94 197.71 301.74 192.01 299.23"/><path class="cls-6" d="M194,293a1.79,1.79,0,0,1-1.29-.54l-10.21-10.21a1.82,1.82,0,1,1,2.57-2.57l10.21,10.21a1.82,1.82,0,0,1,0,2.57A1.79,1.79,0,0,1,194,293Z"/><path class="cls-6" d="M220.37,319.35a1.84,1.84,0,0,1-1.29-.53l-10.21-10.21a1.82,1.82,0,0,1,2.58-2.58l10.21,10.21a1.82,1.82,0,0,1-1.29,3.11Z"/><path class="cls-6" d="M210.16,293a1.83,1.83,0,0,1-1.29-3.11l10.21-10.21a1.82,1.82,0,1,1,2.58,2.57l-10.21,10.21A1.83,1.83,0,0,1,210.16,293Z"/><path class="cls-6" d="M183.76,319.35a1.82,1.82,0,0,1-1.28-3.11L192.69,306a1.82,1.82,0,0,1,2.57,2.58l-10.21,10.21A1.82,1.82,0,0,1,183.76,319.35Z"/><polygon class="cls-6" points="238.4 299.23 244.11 296.71 243.43 290.52 248.46 294.2 253.49 290.52 252.82 296.71 258.52 299.23 252.82 301.74 253.49 307.94 248.46 304.26 243.43 307.94 244.11 301.74 238.4 299.23"/><path class="cls-6" d="M240.37,293a1.83,1.83,0,0,1-1.29-.54l-10.21-10.21a1.82,1.82,0,1,1,2.58-2.57l10.21,10.21a1.83,1.83,0,0,1-1.29,3.11Z"/><path class="cls-6" d="M266.76,319.35a1.82,1.82,0,0,1-1.28-.53l-10.21-10.21a1.82,1.82,0,0,1,2.57-2.58l10.21,10.21a1.82,1.82,0,0,1-1.29,3.11Z"/><path class="cls-6" d="M256.55,293a1.83,1.83,0,0,1-1.28-3.11l10.21-10.21a1.82,1.82,0,0,1,2.57,2.57l-10.21,10.21A1.81,1.81,0,0,1,256.55,293Z"/><path class="cls-6" d="M230.16,319.35a1.82,1.82,0,0,1-1.29-3.11L239.08,306a1.82,1.82,0,1,1,2.58,2.58l-10.21,10.21A1.86,1.86,0,0,1,230.16,319.35Z"/><polygon class="cls-6" points="284.8 299.23 290.5 296.71 289.83 290.52 294.86 294.2 299.88 290.52 299.21 296.71 304.92 299.23 299.21 301.74 299.88 307.94 294.86 304.26 289.83 307.94 290.5 301.74 284.8 299.23"/><path class="cls-6" d="M286.77,293a1.79,1.79,0,0,1-1.29-.54l-10.21-10.21a1.82,1.82,0,1,1,2.57-2.57l10.21,10.21a1.82,1.82,0,0,1,0,2.57A1.79,1.79,0,0,1,286.77,293Z"/><path class="cls-6" d="M313.16,319.35a1.82,1.82,0,0,1-1.29-.53l-10.21-10.21a1.82,1.82,0,0,1,2.57-2.58l10.21,10.21a1.82,1.82,0,0,1-1.28,3.11Z"/><path class="cls-6" d="M303,293a1.83,1.83,0,0,1-1.29-3.11l10.21-10.21a1.82,1.82,0,0,1,2.57,2.57l-10.21,10.21A1.79,1.79,0,0,1,303,293Z"/><path class="cls-6" d="M276.55,319.35a1.82,1.82,0,0,1-1.28-3.11L285.48,306a1.82,1.82,0,0,1,2.57,2.58l-10.21,10.21A1.82,1.82,0,0,1,276.55,319.35Z"/><polygon class="cls-6" points="331.19 299.23 336.89 296.71 336.22 290.52 341.25 294.2 346.28 290.52 345.61 296.71 351.31 299.23 345.61 301.74 346.28 307.94 341.25 304.26 336.22 307.94 336.89 301.74 331.19 299.23"/><path class="cls-6" d="M333.16,293a1.81,1.81,0,0,1-1.29-.54l-10.21-10.21a1.82,1.82,0,0,1,2.58-2.57l10.21,10.21a1.83,1.83,0,0,1-1.29,3.11Z"/><path class="cls-6" d="M359.55,319.35a1.84,1.84,0,0,1-1.29-.53l-10.21-10.21a1.82,1.82,0,0,1,2.58-2.58l10.21,10.21a1.82,1.82,0,0,1-1.29,3.11Z"/><path class="cls-6" d="M349.34,293a1.83,1.83,0,0,1-1.29-3.11l10.21-10.21a1.82,1.82,0,0,1,2.58,2.57l-10.21,10.21A1.83,1.83,0,0,1,349.34,293Z"/><path class="cls-6" d="M323,319.35a1.82,1.82,0,0,1-1.29-3.11L331.87,306a1.82,1.82,0,0,1,2.58,2.58l-10.21,10.21A1.86,1.86,0,0,1,323,319.35Z"/><polygon class="cls-6" points="377.58 299.23 383.29 296.71 382.61 290.52 387.64 294.2 392.67 290.52 392 296.71 397.7 299.23 392 301.74 392.67 307.94 387.64 304.26 382.61 307.94 383.29 301.74 377.58 299.23"/><path class="cls-6" d="M379.55,293a1.79,1.79,0,0,1-1.28-.54l-10.21-10.21a1.82,1.82,0,0,1,2.57-2.57l10.21,10.21a1.82,1.82,0,0,1,0,2.57A1.79,1.79,0,0,1,379.55,293Z"/><path class="cls-6" d="M405.94,319.35a1.82,1.82,0,0,1-1.28-.53l-10.21-10.21A1.82,1.82,0,0,1,397,306l10.21,10.21a1.82,1.82,0,0,1-1.29,3.11Z"/><path class="cls-6" d="M395.73,293a1.83,1.83,0,0,1-1.28-3.11l10.21-10.21a1.82,1.82,0,1,1,2.57,2.57L397,292.42A1.81,1.81,0,0,1,395.73,293Z"/><path class="cls-6" d="M369.34,319.35a1.82,1.82,0,0,1-1.28-3.11L378.27,306a1.82,1.82,0,0,1,2.57,2.58l-10.21,10.21A1.84,1.84,0,0,1,369.34,319.35Z"/><polygon class="cls-6" points="99.22 347.84 104.92 345.33 104.25 339.13 109.28 342.81 114.31 339.13 113.64 345.33 119.34 347.84 113.64 350.36 114.31 356.55 109.28 352.87 104.25 356.55 104.92 350.36 99.22 347.84"/><path class="cls-6" d="M101.19,341.57A1.84,1.84,0,0,1,99.9,341L89.69,330.83a1.82,1.82,0,1,1,2.58-2.58l10.2,10.21a1.82,1.82,0,0,1-1.28,3.11Z"/><path class="cls-6" d="M127.58,368a1.83,1.83,0,0,1-1.29-.54l-10.21-10.21a1.82,1.82,0,0,1,2.58-2.57l10.21,10.21a1.83,1.83,0,0,1-1.29,3.11Z"/><path class="cls-6" d="M117.37,341.57a1.82,1.82,0,0,1-1.29-3.11l10.21-10.21a1.82,1.82,0,1,1,2.58,2.58L118.66,341A1.84,1.84,0,0,1,117.37,341.57Z"/><path class="cls-6" d="M91,368a1.83,1.83,0,0,1-1.29-3.11L99.9,354.65a1.82,1.82,0,0,1,2.57,2.57l-10.2,10.21A1.81,1.81,0,0,1,91,368Z"/><polygon class="cls-6" points="145.62 347.84 151.32 345.33 150.64 339.13 155.67 342.81 160.7 339.13 160.03 345.33 165.73 347.84 160.03 350.36 160.7 356.55 155.67 352.87 150.64 356.55 151.32 350.36 145.62 347.84"/><path class="cls-6" d="M147.58,341.57a1.86,1.86,0,0,1-1.29-.53l-10.21-10.21a1.82,1.82,0,1,1,2.58-2.58l10.21,10.21a1.82,1.82,0,0,1-1.29,3.11Z"/><path class="cls-6" d="M174,368a1.79,1.79,0,0,1-1.29-.54l-10.21-10.21a1.82,1.82,0,1,1,2.57-2.57l10.21,10.21a1.82,1.82,0,0,1,0,2.57A1.79,1.79,0,0,1,174,368Z"/><path class="cls-6" d="M163.76,341.57a1.82,1.82,0,0,1-1.28-3.11l10.21-10.21a1.82,1.82,0,1,1,2.57,2.58L165.05,341A1.82,1.82,0,0,1,163.76,341.57Z"/><path class="cls-6" d="M137.37,368a1.83,1.83,0,0,1-1.29-3.11l10.21-10.21a1.82,1.82,0,0,1,2.58,2.57l-10.21,10.21A1.81,1.81,0,0,1,137.37,368Z"/><polygon class="cls-6" points="192.01 347.84 197.71 345.33 197.04 339.13 202.07 342.81 207.1 339.13 206.42 345.33 212.13 347.84 206.42 350.36 207.1 356.55 202.07 352.87 197.04 356.55 197.71 350.36 192.01 347.84"/><path class="cls-6" d="M194,341.57a1.82,1.82,0,0,1-1.29-.53l-10.21-10.21a1.82,1.82,0,1,1,2.57-2.58l10.21,10.21a1.82,1.82,0,0,1-1.28,3.11Z"/><path class="cls-6" d="M220.37,368a1.81,1.81,0,0,1-1.29-.54l-10.21-10.21a1.82,1.82,0,0,1,2.58-2.57l10.21,10.21a1.83,1.83,0,0,1-1.29,3.11Z"/><path class="cls-6" d="M210.16,341.57a1.82,1.82,0,0,1-1.29-3.11l10.21-10.21a1.82,1.82,0,1,1,2.58,2.58L211.45,341A1.86,1.86,0,0,1,210.16,341.57Z"/><path class="cls-6" d="M183.76,368a1.79,1.79,0,0,1-1.28-.54,1.82,1.82,0,0,1,0-2.57l10.21-10.21a1.82,1.82,0,0,1,2.57,2.57l-10.21,10.21A1.79,1.79,0,0,1,183.76,368Z"/><polygon class="cls-6" points="238.4 347.84 244.11 345.33 243.43 339.13 248.46 342.81 253.49 339.13 252.82 345.33 258.52 347.84 252.82 350.36 253.49 356.55 248.46 352.87 243.43 356.55 244.11 350.36 238.4 347.84"/><path class="cls-6" d="M240.37,341.57a1.86,1.86,0,0,1-1.29-.53l-10.21-10.21a1.82,1.82,0,1,1,2.58-2.58l10.21,10.21a1.82,1.82,0,0,1-1.29,3.11Z"/><path class="cls-6" d="M266.76,368a1.79,1.79,0,0,1-1.28-.54l-10.21-10.21a1.82,1.82,0,0,1,2.57-2.57l10.21,10.21a1.82,1.82,0,0,1,0,2.57A1.79,1.79,0,0,1,266.76,368Z"/><path class="cls-6" d="M256.55,341.57a1.82,1.82,0,0,1-1.28-3.11l10.21-10.21a1.82,1.82,0,0,1,2.57,2.58L257.84,341A1.84,1.84,0,0,1,256.55,341.57Z"/><path class="cls-6" d="M230.16,368a1.83,1.83,0,0,1-1.29-3.11l10.21-10.21a1.82,1.82,0,1,1,2.58,2.57l-10.21,10.21A1.83,1.83,0,0,1,230.16,368Z"/><polygon class="cls-6" points="284.8 347.84 290.5 345.33 289.83 339.13 294.86 342.81 299.88 339.13 299.21 345.33 304.92 347.84 299.21 350.36 299.88 356.55 294.86 352.87 289.83 356.55 290.5 350.36 284.8 347.84"/><path class="cls-6" d="M286.77,341.57a1.82,1.82,0,0,1-1.29-.53l-10.21-10.21a1.82,1.82,0,1,1,2.57-2.58l10.21,10.21a1.82,1.82,0,0,1-1.28,3.11Z"/><path class="cls-6" d="M313.16,368a1.79,1.79,0,0,1-1.29-.54l-10.21-10.21a1.82,1.82,0,0,1,2.57-2.57l10.21,10.21a1.82,1.82,0,0,1,0,2.57A1.79,1.79,0,0,1,313.16,368Z"/><path class="cls-6" d="M303,341.57a1.82,1.82,0,0,1-1.29-3.11l10.21-10.21a1.82,1.82,0,0,1,2.57,2.58L304.23,341A1.82,1.82,0,0,1,303,341.57Z"/><path class="cls-6" d="M276.55,368a1.79,1.79,0,0,1-1.28-.54,1.82,1.82,0,0,1,0-2.57l10.21-10.21a1.82,1.82,0,0,1,2.57,2.57l-10.21,10.21A1.79,1.79,0,0,1,276.55,368Z"/><polygon class="cls-6" points="331.19 347.84 336.89 345.33 336.22 339.13 341.25 342.81 346.28 339.13 345.61 345.33 351.31 347.84 345.61 350.36 346.28 356.55 341.25 352.87 336.22 356.55 336.89 350.36 331.19 347.84"/><path class="cls-6" d="M333.16,341.57a1.84,1.84,0,0,1-1.29-.53l-10.21-10.21a1.82,1.82,0,0,1,2.58-2.58l10.21,10.21a1.82,1.82,0,0,1-1.29,3.11Z"/><path class="cls-6" d="M359.55,368a1.81,1.81,0,0,1-1.29-.54l-10.21-10.21a1.82,1.82,0,0,1,2.58-2.57l10.21,10.21a1.83,1.83,0,0,1-1.29,3.11Z"/><path class="cls-6" d="M349.34,341.57a1.82,1.82,0,0,1-1.29-3.11l10.21-10.21a1.82,1.82,0,0,1,2.58,2.58L350.63,341A1.86,1.86,0,0,1,349.34,341.57Z"/><path class="cls-6" d="M323,368a1.83,1.83,0,0,1-1.29-3.11l10.21-10.21a1.82,1.82,0,0,1,2.58,2.57l-10.21,10.21A1.83,1.83,0,0,1,323,368Z"/><polygon class="cls-6" points="377.58 347.84 383.29 345.33 382.61 339.13 387.64 342.81 392.67 339.13 392 345.33 397.7 347.84 392 350.36 392.67 356.55 387.64 352.87 382.61 356.55 383.29 350.36 377.58 347.84"/><path class="cls-6" d="M379.55,341.57a1.82,1.82,0,0,1-1.28-.53l-10.21-10.21a1.82,1.82,0,0,1,2.57-2.58l10.21,10.21a1.82,1.82,0,0,1-1.29,3.11Z"/><path class="cls-6" d="M405.94,368a1.79,1.79,0,0,1-1.28-.54l-10.21-10.21a1.82,1.82,0,0,1,2.57-2.57l10.21,10.21a1.82,1.82,0,0,1,0,2.57A1.79,1.79,0,0,1,405.94,368Z"/><path class="cls-6" d="M395.73,341.57a1.82,1.82,0,0,1-1.28-3.11l10.21-10.21a1.82,1.82,0,1,1,2.57,2.58L397,341A1.84,1.84,0,0,1,395.73,341.57Z"/><path class="cls-6" d="M369.34,368a1.83,1.83,0,0,1-1.28-3.11l10.21-10.21a1.82,1.82,0,0,1,2.57,2.57l-10.21,10.21A1.81,1.81,0,0,1,369.34,368Z"/><polygon class="cls-6" points="99.22 396.45 104.92 393.94 104.25 387.74 109.28 391.42 114.31 387.74 113.64 393.94 119.34 396.45 113.64 398.97 114.31 405.17 109.28 401.48 104.25 405.17 104.92 398.97 99.22 396.45"/><path class="cls-6" d="M101.19,390.18a1.8,1.8,0,0,1-1.29-.53L89.69,379.44a1.82,1.82,0,1,1,2.58-2.57l10.2,10.21a1.8,1.8,0,0,1,0,2.57A1.78,1.78,0,0,1,101.19,390.18Z"/><path class="cls-6" d="M127.58,416.57a1.82,1.82,0,0,1-1.29-.53l-10.21-10.21a1.82,1.82,0,1,1,2.58-2.57l10.21,10.21a1.82,1.82,0,0,1-1.29,3.1Z"/><path class="cls-6" d="M117.37,390.18a1.82,1.82,0,0,1-1.29-3.1l10.21-10.21a1.82,1.82,0,1,1,2.58,2.57l-10.21,10.21A1.8,1.8,0,0,1,117.37,390.18Z"/><path class="cls-6" d="M91,416.57a1.82,1.82,0,0,1-1.29-3.1L99.9,403.26a1.82,1.82,0,1,1,2.57,2.57L92.27,416A1.8,1.8,0,0,1,91,416.57Z"/><polygon class="cls-6" points="145.62 396.45 151.32 393.94 150.64 387.74 155.67 391.42 160.7 387.74 160.03 393.94 165.73 396.45 160.03 398.97 160.7 405.17 155.67 401.48 150.64 405.17 151.32 398.97 145.62 396.45"/><path class="cls-6" d="M147.58,390.18a1.82,1.82,0,0,1-1.29-.53l-10.21-10.21a1.82,1.82,0,1,1,2.58-2.57l10.21,10.21a1.82,1.82,0,0,1-1.29,3.1Z"/><path class="cls-6" d="M174,416.57a1.78,1.78,0,0,1-1.29-.53l-10.21-10.21a1.82,1.82,0,1,1,2.57-2.57l10.21,10.21a1.82,1.82,0,0,1,0,2.57A1.78,1.78,0,0,1,174,416.57Z"/><path class="cls-6" d="M163.76,390.18a1.78,1.78,0,0,1-1.28-.53,1.82,1.82,0,0,1,0-2.57l10.21-10.21a1.82,1.82,0,1,1,2.57,2.57l-10.21,10.21A1.78,1.78,0,0,1,163.76,390.18Z"/><path class="cls-6" d="M137.37,416.57a1.82,1.82,0,0,1-1.29-3.1l10.21-10.21a1.82,1.82,0,1,1,2.58,2.57L138.66,416A1.8,1.8,0,0,1,137.37,416.57Z"/><polygon class="cls-6" points="192.01 396.45 197.71 393.94 197.04 387.74 202.07 391.42 207.1 387.74 206.42 393.94 212.13 396.45 206.42 398.97 207.1 405.17 202.07 401.48 197.04 405.17 197.71 398.97 192.01 396.45"/><path class="cls-6" d="M194,390.18a1.78,1.78,0,0,1-1.29-.53l-10.21-10.21a1.82,1.82,0,1,1,2.57-2.57l10.21,10.21a1.82,1.82,0,0,1,0,2.57A1.78,1.78,0,0,1,194,390.18Z"/><path class="cls-6" d="M220.37,416.57a1.8,1.8,0,0,1-1.29-.53l-10.21-10.21a1.82,1.82,0,1,1,2.58-2.57l10.21,10.21a1.82,1.82,0,0,1-1.29,3.1Z"/><path class="cls-6" d="M210.16,390.18a1.82,1.82,0,0,1-1.29-3.1l10.21-10.21a1.82,1.82,0,1,1,2.58,2.57l-10.21,10.21A1.82,1.82,0,0,1,210.16,390.18Z"/><path class="cls-6" d="M183.76,416.57a1.78,1.78,0,0,1-1.28-.53,1.82,1.82,0,0,1,0-2.57l10.21-10.21a1.82,1.82,0,1,1,2.57,2.57L185.05,416A1.78,1.78,0,0,1,183.76,416.57Z"/><polygon class="cls-6" points="238.4 396.45 244.11 393.94 243.43 387.74 248.46 391.42 253.49 387.74 252.82 393.94 258.52 396.45 252.82 398.97 253.49 405.17 248.46 401.48 243.43 405.17 244.11 398.97 238.4 396.45"/><path class="cls-6" d="M240.37,390.18a1.82,1.82,0,0,1-1.29-.53l-10.21-10.21a1.82,1.82,0,1,1,2.58-2.57l10.21,10.21a1.82,1.82,0,0,1-1.29,3.1Z"/><path class="cls-6" d="M266.76,416.57a1.78,1.78,0,0,1-1.28-.53l-10.21-10.21a1.82,1.82,0,1,1,2.57-2.57l10.21,10.21a1.82,1.82,0,0,1,0,2.57A1.78,1.78,0,0,1,266.76,416.57Z"/><path class="cls-6" d="M256.55,390.18a1.78,1.78,0,0,1-1.28-.53,1.8,1.8,0,0,1,0-2.57l10.21-10.21a1.82,1.82,0,0,1,2.57,2.57l-10.21,10.21A1.8,1.8,0,0,1,256.55,390.18Z"/><path class="cls-6" d="M230.16,416.57a1.82,1.82,0,0,1-1.29-3.1l10.21-10.21a1.82,1.82,0,1,1,2.58,2.57L231.45,416A1.82,1.82,0,0,1,230.16,416.57Z"/><polygon class="cls-6" points="284.8 396.45 290.5 393.94 289.83 387.74 294.86 391.42 299.88 387.74 299.21 393.94 304.92 396.45 299.21 398.97 299.88 405.17 294.86 401.48 289.83 405.17 290.5 398.97 284.8 396.45"/><path class="cls-6" d="M286.77,390.18a1.78,1.78,0,0,1-1.29-.53l-10.21-10.21a1.82,1.82,0,1,1,2.57-2.57l10.21,10.21a1.82,1.82,0,0,1,0,2.57A1.78,1.78,0,0,1,286.77,390.18Z"/><path class="cls-6" d="M313.16,416.57a1.78,1.78,0,0,1-1.29-.53l-10.21-10.21a1.82,1.82,0,0,1,2.57-2.57l10.21,10.21a1.82,1.82,0,0,1,0,2.57A1.78,1.78,0,0,1,313.16,416.57Z"/><path class="cls-6" d="M303,390.18a1.82,1.82,0,0,1-1.29-3.1l10.21-10.21a1.82,1.82,0,0,1,2.57,2.57l-10.21,10.21A1.78,1.78,0,0,1,303,390.18Z"/><path class="cls-6" d="M276.55,416.57a1.78,1.78,0,0,1-1.28-.53,1.82,1.82,0,0,1,0-2.57l10.21-10.21a1.82,1.82,0,0,1,2.57,2.57L277.84,416A1.78,1.78,0,0,1,276.55,416.57Z"/><polygon class="cls-6" points="331.19 396.45 336.89 393.94 336.22 387.74 341.25 391.42 346.28 387.74 345.61 393.94 351.31 396.45 345.61 398.97 346.28 405.17 341.25 401.48 336.22 405.17 336.89 398.97 331.19 396.45"/><path class="cls-6" d="M333.16,390.18a1.8,1.8,0,0,1-1.29-.53l-10.21-10.21a1.82,1.82,0,0,1,2.58-2.57l10.21,10.21a1.82,1.82,0,0,1-1.29,3.1Z"/><path class="cls-6" d="M359.55,416.57a1.8,1.8,0,0,1-1.29-.53l-10.21-10.21a1.82,1.82,0,0,1,2.58-2.57l10.21,10.21a1.82,1.82,0,0,1-1.29,3.1Z"/><path class="cls-6" d="M349.34,390.18a1.82,1.82,0,0,1-1.29-3.1l10.21-10.21a1.82,1.82,0,0,1,2.58,2.57l-10.21,10.21A1.82,1.82,0,0,1,349.34,390.18Z"/><path class="cls-6" d="M323,416.57a1.82,1.82,0,0,1-1.29-3.1l10.21-10.21a1.82,1.82,0,0,1,2.58,2.57L324.24,416A1.82,1.82,0,0,1,323,416.57Z"/><polygon class="cls-6" points="377.58 396.45 383.29 393.94 382.61 387.74 387.64 391.42 392.67 387.74 392 393.94 397.7 396.45 392 398.97 392.67 405.17 387.64 401.48 382.61 405.17 383.29 398.97 377.58 396.45"/><path class="cls-6" d="M379.55,390.18a1.78,1.78,0,0,1-1.28-.53l-10.21-10.21a1.82,1.82,0,0,1,2.57-2.57l10.21,10.21a1.82,1.82,0,0,1,0,2.57A1.78,1.78,0,0,1,379.55,390.18Z"/><path class="cls-6" d="M405.94,416.57a1.78,1.78,0,0,1-1.28-.53l-10.21-10.21a1.82,1.82,0,0,1,2.57-2.57l10.21,10.21a1.82,1.82,0,0,1,0,2.57A1.78,1.78,0,0,1,405.94,416.57Z"/><path class="cls-6" d="M395.73,390.18a1.78,1.78,0,0,1-1.28-.53,1.8,1.8,0,0,1,0-2.57l10.21-10.21a1.82,1.82,0,1,1,2.57,2.57L397,389.65A1.8,1.8,0,0,1,395.73,390.18Z"/><path class="cls-6" d="M369.34,416.57a1.78,1.78,0,0,1-1.28-.53,1.8,1.8,0,0,1,0-2.57l10.21-10.21a1.82,1.82,0,0,1,2.57,2.57L370.63,416A1.8,1.8,0,0,1,369.34,416.57Z"/></g></g></svg>