<svg xmlns="http://www.w3.org/2000/svg" xmlns:xlink="http://www.w3.org/1999/xlink" viewBox="0 0 500 500"><defs><style>.cls-1{fill:none;}.cls-2{fill:#ea81a1;}.cls-3{clip-path:url(#clip-path);}.cls-4{fill:#fff;}.cls-5{fill:#333;}.cls-6{fill:#f1f1f1;}.cls-7{fill:#ff94b2;}.cls-8{clip-path:url(#clip-path-2);}</style><clipPath id="clip-path"><path class="cls-1" d="M205.75,201.73,189,111a14,14,0,0,1,12.46-16.47l75.82-7.05a14,14,0,0,1,14.95,10.9l30.59,137.69a47.51,47.51,0,0,1,.86,5.14l.74,6.55a49.08,49.08,0,0,1-12.54,38.62h0a49,49,0,0,0-5.16,6.75l-61.92,97.28a49.11,49.11,0,0,1-18.12,16.85l-13.42,7.24a49.11,49.11,0,0,1-48.82-1.27l-1.54-.94a49.11,49.11,0,0,1-22.53-31.82l-1.76-8.36a49.1,49.1,0,0,1,5-33.69l57-104.21A49.07,49.07,0,0,0,205.75,201.73Z"/></clipPath><clipPath id="clip-path-2"><path class="cls-1" d="M246.38,206.57l6.58-92a14,14,0,0,1,16.2-12.81L344.32,114a14,14,0,0,1,11.73,14.31l-5,141a50,50,0,0,1-.46,5.19l-.94,6.53a49.08,49.08,0,0,1-21.84,34.22h0a49.83,49.83,0,0,0-6.7,5.23L236.68,399a49.07,49.07,0,0,1-21.78,11.75l-14.8,3.63a49.1,49.1,0,0,1-46.93-13.51l-1.26-1.3a49.09,49.09,0,0,1-13.8-36.46l.4-8.53a49.19,49.19,0,0,1,13.28-31.36l81.38-86.52A49.06,49.06,0,0,0,246.38,206.57Z"/></clipPath></defs><g id="레이어_3" data-name="레이어 3"><path class="cls-2" d="M205.75,201.73,189,111a14,14,0,0,1,12.46-16.47l75.82-7.05a14,14,0,0,1,14.95,10.9l30.59,137.69a47.51,47.51,0,0,1,.86,5.14l.74,6.55a49.08,49.08,0,0,1-12.54,38.62h0a49,49,0,0,0-5.16,6.75l-61.92,97.28a49.11,49.11,0,0,1-18.12,16.85l-13.42,7.24a49.11,49.11,0,0,1-48.82-1.27l-1.54-.94a49.11,49.11,0,0,1-22.53-31.82l-1.76-8.36a49.1,49.1,0,0,1,5-33.69l57-104.21A49.07,49.07,0,0,0,205.75,201.73Z"/><g class="cls-3"><ellipse class="cls-4" cx="241.69" cy="169.73" rx="9.19" ry="7.61" transform="translate(-34.92 66.26) rotate(-14.57)"/><ellipse class="cls-4" cx="293.54" cy="193.65" rx="9.19" ry="7.61" transform="translate(-39.27 80.07) rotate(-14.57)"/><ellipse class="cls-4" cx="241.58" cy="220.96" rx="9.19" ry="7.61" transform="translate(-47.81 67.88) rotate(-14.57)"/><ellipse class="cls-4" cx="282.48" cy="252.9" rx="9.19" ry="7.61" transform="translate(-54.53 79.19) rotate(-14.57)"/><ellipse class="cls-4" cx="316.27" cy="275.18" rx="9.19" ry="7.61" transform="translate(-59.05 88.41) rotate(-14.57)"/><ellipse class="cls-4" cx="273.84" cy="300.78" rx="9.19" ry="7.61" transform="matrix(0.97, -0.25, 0.25, 0.97, -66.86, 78.56)"/><ellipse class="cls-4" cx="188.05" cy="262.87" rx="9.19" ry="7.61" transform="translate(-60.08 55.76) rotate(-14.57)"/><ellipse class="cls-4" cx="217.22" cy="282.9" rx="9.19" ry="7.61" transform="translate(-64.18 63.74) rotate(-14.57)"/><ellipse class="cls-4" cx="265.76" cy="129.54" rx="9.19" ry="7.61" transform="translate(-24.04 71.02) rotate(-14.57)"/><ellipse class="cls-4" cx="169.2" cy="327.59" rx="9.19" ry="7.61" transform="translate(-76.97 53.1) rotate(-14.57)"/><ellipse class="cls-4" cx="219.84" cy="331.69" rx="9.19" ry="7.61" transform="translate(-76.37 65.97) rotate(-14.57)"/><ellipse class="cls-4" cx="252.9" cy="363.37" rx="9.19" ry="7.61" transform="translate(-83.27 75.3) rotate(-14.57)"/><ellipse class="cls-4" cx="202.89" cy="150.29" rx="9.19" ry="7.61" transform="translate(-31.28 55.87) rotate(-14.57)"/></g><path class="cls-4" d="M140.3,360.61s60.16-16.4,100.25,34.54L227,404.82l-26.5,16.09L169.29,419l-24.21-28.22Z"/><path class="cls-5" d="M189.94,424.07a52.87,52.87,0,0,1-27.45-7.66l-1.55-.94a53.05,53.05,0,0,1-24.23-34.22L135,372.89a52.86,52.86,0,0,1,5.35-36.24l57-104.21a45.45,45.45,0,0,0,4.8-30h0l-16.78-90.71a17.68,17.68,0,0,1,15.77-20.84l75.82-7a17.69,17.69,0,0,1,18.92,13.78l30.58,137.7a52.7,52.7,0,0,1,.92,5.53l.74,6.55a52.78,52.78,0,0,1-13.48,41.53,45.43,45.43,0,0,0-4.78,6.24l-61.92,97.28a52.79,52.79,0,0,1-19.48,18.12L215,417.77A52.84,52.84,0,0,1,189.94,424.07Zm19.46-223A53,53,0,0,1,203.8,236l-57,104.21a45.47,45.47,0,0,0-4.59,31.15l1.76,8.36a45.59,45.59,0,0,0,20.82,29.41l1.55.94a45.59,45.59,0,0,0,45.13,1.18L224.89,404a45.47,45.47,0,0,0,16.75-15.58l61.92-97.28a53.19,53.19,0,0,1,5.55-7.26,45.32,45.32,0,0,0,11.59-35.7l-.73-6.55a45.27,45.27,0,0,0-.8-4.75L288.58,99.19a10.3,10.3,0,0,0-11-8l-75.82,7a10.28,10.28,0,0,0-9.16,12.11Z"/><path class="cls-6" d="M296.35,88.86,301,107.75a11.7,11.7,0,0,1-10.16,14.1l-93.74,10.33a11.71,11.71,0,0,1-12.85-9.89l-2.74-18.17a11.71,11.71,0,0,1,11-13.43l91.81-11A11.68,11.68,0,0,1,296.35,88.86Z"/><path class="cls-5" d="M195.8,136a15.36,15.36,0,0,1-15.2-13.12l-2.73-18.16A15.39,15.39,0,0,1,192.34,87L283.9,76A15.35,15.35,0,0,1,300,88l4.65,18.83a15.4,15.4,0,0,1-13.35,18.67l-93.74,10.33A16.88,16.88,0,0,1,195.8,136Zm89.12-52.62h-.4L193,94.38a8.09,8.09,0,0,0-6.05,2.94,7.9,7.9,0,0,0-1.72,6.25l2.73,18.16a8,8,0,0,0,8.78,6.76l93.75-10.33a8,8,0,0,0,6.94-9.63l-4.65-18.77a.36.36,0,0,0,0-.11A8,8,0,0,0,284.92,83.34Z"/><path class="cls-7" d="M246.38,206.57l6.58-92a14,14,0,0,1,16.2-12.81L344.32,114a14,14,0,0,1,11.73,14.31l-5,141a50,50,0,0,1-.46,5.19l-.94,6.53a49.08,49.08,0,0,1-21.84,34.22h0a49.83,49.83,0,0,0-6.7,5.23L236.68,399a49.07,49.07,0,0,1-21.78,11.75l-14.8,3.63a49.1,49.1,0,0,1-46.93-13.51l-1.26-1.3a49.09,49.09,0,0,1-13.8-36.46l.4-8.53a49.19,49.19,0,0,1,13.28-31.36l81.38-86.52A49.06,49.06,0,0,0,246.38,206.57Z"/><g class="cls-8"><ellipse class="cls-4" cx="289.22" cy="184.64" rx="9.19" ry="7.61"/><ellipse class="cls-4" cx="333.39" cy="220.83" rx="9.19" ry="7.61"/><ellipse class="cls-4" cx="276.23" cy="234.2" rx="9.19" ry="7.61"/><ellipse class="cls-4" cx="307.78" cy="275.4" rx="9.19" ry="7.61"/><ellipse class="cls-4" cx="334.87" cy="305.46" rx="9.19" ry="7.61"/><ellipse class="cls-4" cx="287.36" cy="319.57" rx="9.19" ry="7.61"/><ellipse class="cls-4" cx="213.87" cy="261.29" rx="9.19" ry="7.61"/><ellipse class="cls-4" cx="237.07" cy="288.02" rx="9.19" ry="7.61"/><ellipse class="cls-4" cx="322.62" cy="151.8" rx="9.19" ry="7.61"/><ellipse class="cls-4" cx="179.35" cy="319.2" rx="9.19" ry="7.61"/><ellipse class="cls-4" cx="227.32" cy="335.9" rx="9.19" ry="7.61"/><ellipse class="cls-4" cx="251.36" cy="374.87" rx="9.19" ry="7.61"/><ellipse class="cls-4" cx="256.55" cy="156.06" rx="9.19" ry="7.61"/></g><path class="cls-4" d="M143.07,343.88s62.35-.74,88.34,58.65l-15.59,5.93-29.7,8.91-29.69-9.65-16.33-33.4Z"/><path class="cls-5" d="M188.5,419.49a53,53,0,0,1-38-16l-1.25-1.3A53,53,0,0,1,134.41,363l.4-8.53a52.87,52.87,0,0,1,14.28-33.73l81.38-86.52a45.47,45.47,0,0,0,12.22-27.86l6.57-92a17.68,17.68,0,0,1,20.5-16.21l75.16,12.26a17.73,17.73,0,0,1,14.84,18.09l-5,141a51.18,51.18,0,0,1-.49,5.58l-.94,6.52a52.79,52.79,0,0,1-23.49,36.81,45.13,45.13,0,0,0-6.2,4.84l-84.39,78.57a52.78,52.78,0,0,1-23.43,12.64L201,418A52.46,52.46,0,0,1,188.5,419.49Zm78.37-314.23a10.29,10.29,0,0,0-10.22,9.56l-6.57,92h0a52.91,52.91,0,0,1-14.21,32.42l-81.38,86.52a45.5,45.5,0,0,0-12.28,29l-.39,8.53A45.56,45.56,0,0,0,154.57,397l1.26,1.3a45.55,45.55,0,0,0,43.39,12.49l14.8-3.62a45.58,45.58,0,0,0,20.14-10.87l84.39-78.58a53.55,53.55,0,0,1,7.21-5.63A45.36,45.36,0,0,0,346,280.45l.93-6.52a45.51,45.51,0,0,0,.43-4.8l5-141a10.3,10.3,0,0,0-8.63-10.52L268.57,105.4A10.93,10.93,0,0,0,266.87,105.26Z"/><path class="cls-4" d="M362.46,120.13l-.23,19.45a11.7,11.7,0,0,1-13.38,11.09l-93.32-13.59a11.7,11.7,0,0,1-10-12.8L247.5,106a11.7,11.7,0,0,1,14-10.23l91.63,12.4A11.7,11.7,0,0,1,362.46,120.13Z"/><path class="cls-5" d="M350.53,154.5a15.17,15.17,0,0,1-2.22-.16L255,140.75a15.35,15.35,0,0,1-13.1-16.86l1.92-18.27a15.41,15.41,0,0,1,18.46-13.47l91.38,12.36a15.41,15.41,0,0,1,12.52,15.71l-.24,19.4a15.41,15.41,0,0,1-15.4,14.88ZM259.12,99.26a7.94,7.94,0,0,0-7.93,7.14l-1.93,18.27a8,8,0,0,0,6.8,8.75L349.38,147a8,8,0,0,0,6.26-1.76,7.89,7.89,0,0,0,2.88-5.82l.24-19.34V120a8,8,0,0,0-6.36-8.16L261,99.46A9.1,9.1,0,0,0,259.12,99.26Z"/></g></svg>