<svg xmlns="http://www.w3.org/2000/svg" xmlns:xlink="http://www.w3.org/1999/xlink" viewBox="0 0 500 500"><defs><style>.cls-1{fill:none;}.cls-2{fill:#395f8c;}.cls-3{fill:#333;}.cls-4{clip-path:url(#clip-path);}.cls-5{fill:#34557c;}.cls-6{fill:#33547b;}.cls-7{fill:#33547a;}.cls-8{fill:#335379;}.cls-9{fill:#325378;}.cls-10{fill:#325277;}.cls-11{fill:#325176;}.cls-12{fill:#315175;}.cls-13{fill:#315074;}.cls-14{fill:#314f73;}.cls-15{fill:#304f72;}.cls-16{fill:#304e71;}.cls-17{fill:#304e70;}.cls-18{fill:#2f4d6f;}.cls-19{fill:#2f4c6e;}.cls-20{fill:#2f4c6d;}.cls-21{fill:#2e4b6c;}.cls-22{fill:#2e4b6b;}.cls-23{fill:#2e4a6a;}.cls-24{fill:#2d4969;}.cls-25{fill:#2d4968;}.cls-26{fill:#2d4867;}.cls-27{fill:#2c4766;}.cls-28{fill:#2c4765;}.cls-29{fill:#2c4663;}.cls-30{fill:#2c4662;}.cls-31{fill:#2b4561;}.cls-32{fill:#2b4460;}.cls-33{fill:#2b445f;}.cls-34{fill:#2a435e;}.cls-35{fill:#2a425d;}.cls-36{fill:#2a425c;}.cls-37{fill:#29415b;}.cls-38{fill:#29415a;}.cls-39{fill:#294059;}.cls-40{fill:#283f58;}.cls-41{fill:#283f57;}.cls-42{fill:#283e56;}.cls-43{fill:#273e55;}.cls-44{fill:#273d54;}.cls-45{fill:#273c53;}.cls-46{fill:#263c52;}.cls-47{fill:#263b51;}.cls-48{fill:#263a50;}.cls-49{fill:#253a4f;}.cls-50{fill:#25394e;}.cls-51{fill:#25394d;}.cls-52{fill:#24384c;}.cls-53{fill:#24374b;}.cls-54{fill:#24374a;}.cls-55{fill:#233649;}.cls-56{fill:#233548;}.cls-57{fill:#233547;}.cls-58{fill:#223446;}.cls-59{fill:#223445;}.cls-60{fill:#234;}.cls-61{fill:#213243;}.cls-62{fill:#213242;}.cls-63{fill:#213141;}.cls-64{fill:#203040;}.cls-65{fill:#20303f;}.cls-66{fill:#202f3e;}.cls-67{fill:#1f2f3d;}.cls-68{fill:#1f2e3c;}</style><clipPath id="clip-path"><path class="cls-1" d="M362.85,237.2c-2.4-19.2-29.6-48.8-46.4-72-15.58-21.52-60.74-21-67.19-20.83-6.46-.18-51.62-.69-67.2,20.83-16.8,23.2-44,52.8-46.4,72s4,60.8,36,82.4,37.6,16,48,16,19.2-25.6,9.6-61.6c-9.6-27.2-27.2-50.4-32-56s-8.8-31.2,0-44c8.29-12.06,41.4-19.14,55.92-18.58l.08.18c.36,0,.78-.06,1.17-.09s.86.05,1.23.09l-.09-.18C269,154.84,293,161.93,301.25,174c8.8,12.8,4.8,38.4,0,44s-22.4,28.8-32,56c-9.6,36-.8,61.6,9.6,61.6s16,5.6,48-16S365.25,256.4,362.85,237.2Z"/></clipPath></defs><g id="레이어_3" data-name="레이어 3"><path class="cls-2" d="M261.12,135.6h1.11c64.32,2,92.17,24.54,124,82.23s-31.83,115.38-37.8,119.36-49.07,48.41-77.58,14.59c-37.8-43.11,21.88-120.69,21.88-120.69s26.53-25.2,11.27-50.4c-15.25-23.65-38.46-23.87-38.46-23.87H234.18S211,157,195.72,180.69c-15.25,25.2,11.28,50.4,11.28,50.4s59.68,77.58,21.88,120.69c-28.51,33.82-71.62-10.61-77.59-14.59S81.67,275.52,113.5,217.83s59.68-80.24,124-82.23h23.62Z"/><path class="cls-3" d="M203.37,367.06c-20.79,0-41.18-17.28-50.13-24.86-1.52-1.29-2.83-2.4-3.42-2.8-10.21-6.8-70.52-65.11-38.65-122.86,34.28-62.13,63.78-81.67,126.25-83.6h24.81c62.55,1.93,92,21.47,126.33,83.6,31.87,57.75-28.45,116.06-38.65,122.86-.59.4-1.9,1.51-3.42,2.8-9.38,7.95-31.44,26.53-53.17,24.73-9.41-.79-17.65-5.31-24.51-13.44-38.76-44.2,19.32-120.78,21.81-124a2.06,2.06,0,0,1,.28-.31c1-1,24.77-24,10.83-47.09-14.2-22-35.33-22.57-36.22-22.59H234.18c-.86,0-22,.58-36.22,22.66-13.91,23,9.85,46.05,10.87,47a2.06,2.06,0,0,1,.28.31c2.49,3.24,60.56,79.82,21.77,124.06-6.82,8.09-15.06,12.61-24.47,13.4C205.39,367,204.38,367.06,203.37,367.06Zm91.37-134.21c-2.77,3.68-57.07,77-21.89,117.17,5.94,7.05,13,10.94,20.92,11.6,19.52,1.66,40.4-16,49.27-23.49,1.85-1.56,3.07-2.59,3.92-3.16s69.25-57.28,36.94-115.86c-33.16-60.09-61.61-79-121.75-80.84H237.5C177.43,140.13,149,159,115.83,219.11,83.51,277.69,152,334.48,152.77,335s2.06,1.6,3.91,3.16c8.88,7.52,29.59,25.2,49.28,23.49,7.95-.66,15-4.55,20.88-11.56C262.06,309.9,207.77,236.54,205,232.85c-2.33-2.32-27.05-27.92-11.54-53.54,15.88-24.64,39.7-25.14,40.71-25.15h31.38c1,0,24.85.51,40.7,25.09C321.78,204.92,297.07,230.53,294.74,232.85Z"/><g class="cls-4"><rect class="cls-5" x="133.26" y="143.68" width="231.99" height="0.09"/><rect class="cls-6" x="133.26" y="143.77" width="231.99" height="2.02"/><rect class="cls-7" x="133.26" y="145.79" width="231.99" height="2.02"/><rect class="cls-8" x="133.26" y="147.81" width="231.99" height="2.02"/><rect class="cls-9" x="133.26" y="149.83" width="231.99" height="2.02"/><rect class="cls-10" x="133.26" y="151.85" width="231.99" height="2.02"/><rect class="cls-11" x="133.26" y="153.86" width="231.99" height="2.02"/><rect class="cls-12" x="133.26" y="155.88" width="231.99" height="2.02"/><rect class="cls-13" x="133.26" y="157.9" width="231.99" height="2.02"/><rect class="cls-14" x="133.26" y="159.92" width="231.99" height="2.02"/><rect class="cls-15" x="133.26" y="161.93" width="231.99" height="2.02"/><rect class="cls-16" x="133.26" y="163.95" width="231.99" height="2.02"/><rect class="cls-17" x="133.26" y="165.97" width="231.99" height="2.02"/><rect class="cls-18" x="133.26" y="167.99" width="231.99" height="2.02"/><rect class="cls-19" x="133.26" y="170.01" width="231.99" height="2.02"/><rect class="cls-20" x="133.26" y="172.02" width="231.99" height="2.02"/><rect class="cls-21" x="133.26" y="174.04" width="231.99" height="2.02"/><rect class="cls-22" x="133.26" y="176.06" width="231.99" height="2.02"/><rect class="cls-23" x="133.26" y="178.08" width="231.99" height="2.02"/><rect class="cls-24" x="133.26" y="180.1" width="231.99" height="2.02"/><rect class="cls-25" x="133.26" y="182.11" width="231.99" height="2.02"/><rect class="cls-26" x="133.26" y="184.13" width="231.99" height="2.02"/><rect class="cls-27" x="133.26" y="186.15" width="231.99" height="2.02"/><rect class="cls-28" x="133.26" y="188.17" width="231.99" height="2.02"/><rect class="cls-29" x="133.26" y="190.19" width="231.99" height="2.02"/><rect class="cls-30" x="133.26" y="192.2" width="231.99" height="2.02"/><rect class="cls-31" x="133.26" y="194.22" width="231.99" height="2.02"/><rect class="cls-32" x="133.26" y="196.24" width="231.99" height="2.02"/><rect class="cls-33" x="133.26" y="198.26" width="231.99" height="2.02"/><rect class="cls-34" x="133.26" y="200.27" width="231.99" height="2.02"/><rect class="cls-35" x="133.26" y="202.29" width="231.99" height="2.02"/><rect class="cls-36" x="133.26" y="204.31" width="231.99" height="2.02"/><rect class="cls-37" x="133.26" y="206.33" width="231.99" height="2.02"/><rect class="cls-38" x="133.26" y="208.35" width="231.99" height="2.02"/><rect class="cls-39" x="133.26" y="210.36" width="231.99" height="2.02"/><rect class="cls-40" x="133.26" y="212.38" width="231.99" height="2.02"/><rect class="cls-41" x="133.26" y="214.4" width="231.99" height="2.02"/><rect class="cls-42" x="133.26" y="216.42" width="231.99" height="2.02"/><rect class="cls-43" x="133.26" y="218.44" width="231.99" height="2.02"/><rect class="cls-44" x="133.26" y="220.45" width="231.99" height="2.02"/><rect class="cls-45" x="133.26" y="222.47" width="231.99" height="2.02"/><rect class="cls-46" x="133.26" y="224.49" width="231.99" height="2.02"/><rect class="cls-47" x="133.26" y="226.51" width="231.99" height="2.02"/><rect class="cls-48" x="133.26" y="228.53" width="231.99" height="2.02"/><rect class="cls-49" x="133.26" y="230.54" width="231.99" height="2.02"/><rect class="cls-50" x="133.26" y="232.56" width="231.99" height="2.02"/><rect class="cls-51" x="133.26" y="234.58" width="231.99" height="2.02"/><rect class="cls-52" x="133.26" y="236.6" width="231.99" height="2.02"/><rect class="cls-53" x="133.26" y="238.62" width="231.99" height="2.02"/><rect class="cls-54" x="133.26" y="240.63" width="231.99" height="2.02"/><rect class="cls-55" x="133.26" y="242.65" width="231.99" height="2.02"/><rect class="cls-56" x="133.26" y="244.67" width="231.99" height="2.02"/><rect class="cls-57" x="133.26" y="246.69" width="231.99" height="2.02"/><rect class="cls-58" x="133.26" y="248.7" width="231.99" height="2.02"/><rect class="cls-59" x="133.26" y="250.72" width="231.99" height="2.02"/><rect class="cls-60" x="133.26" y="252.74" width="231.99" height="2.02"/><rect class="cls-61" x="133.26" y="254.76" width="231.99" height="2.02"/><rect class="cls-62" x="133.26" y="256.78" width="231.99" height="2.02"/><rect class="cls-63" x="133.26" y="258.79" width="231.99" height="2.02"/><rect class="cls-64" x="133.26" y="260.81" width="231.99" height="2.02"/><rect class="cls-65" x="133.26" y="262.83" width="231.99" height="2.02"/><rect class="cls-66" x="133.26" y="264.85" width="231.99" height="2.02"/><rect class="cls-67" x="133.26" y="266.87" width="231.99" height="2.02"/><rect class="cls-68" x="133.26" y="268.88" width="231.99" height="2.02"/><rect class="cls-68" x="133.26" y="270.9" width="231.99" height="70.29"/></g><path class="cls-68" d="M289.22,339.4a55.46,55.46,0,0,1-5.65-.37c-1.6-.15-3.11-.3-4.72-.3-2.41,0-6-.93-9.4-5.36-7.12-9.27-10.88-31.47-3.22-60.18,11.34-32.16,32.43-57,32.65-57.23,4-4.7,7.54-28.91-.21-40.18-6.7-9.76-25.39-16-38-17.1l.28.57-5.67-.54-.61-.05h-.43l-.59.05-2.32.29-.21-.48c-14.65.12-44.15,6.89-51.27,17.26-7.75,11.27-4.23,35.48-.2,40.18.21.25,21.31,25.09,32.57,57,7.73,28.95,4,51.15-3.15,60.42-3.4,4.43-7,5.36-9.4,5.36-1.61,0-3.12.15-4.72.3-8.63.86-17.52,1.74-45-16.84-32.26-21.78-40-63.93-37.35-85.38,1.92-15.36,17.9-35.82,33.35-55.6,4.91-6.29,9.54-12.22,13.62-17.85,16.3-22.5,61-22.37,69.83-22.12,8.6-.23,53.34-.38,69.64,22.12,4.07,5.63,8.71,11.56,13.61,17.83C348.06,201,364,221.45,366,236.81h0c2.68,21.45-5.09,63.6-37.35,85.38C306.88,336.86,296.76,339.4,289.22,339.4Zm-43-191.93c-11.71,0-48.52,1.46-61.63,19.57-4.14,5.72-8.81,11.7-13.75,18-14.23,18.23-30.37,38.89-32.07,52.53-2.5,20,4.7,59.2,34.64,79.41,25.65,17.32,33.4,16.54,40.92,15.8a51.4,51.4,0,0,1,5.33-.34c1.81,0,3.41-1.58,4.43-2.91,6-7.79,9.21-28.24,2.14-54.74-9-25.34-25.67-48.14-31.35-54.77-5.89-6.87-9.77-33.91-.2-47.81,9.07-13.2,43.67-20.5,58.61-19.94l1.49.05.65-.05c14-.65,39.3,6.68,48.41,19.94,9.56,13.9,5.68,40.94-.21,47.81-5.68,6.62-22.39,29.42-31.42,55-7,26.27-3.77,46.72,2.21,54.51,1,1.33,2.62,2.91,4.43,2.91a51.4,51.4,0,0,1,5.33.34c7.53.75,15.27,1.51,40.92-15.8,29.95-20.22,37.14-59.44,34.64-79.41h0c-1.7-13.65-17.84-34.31-32.08-52.54-4.94-6.32-9.6-12.29-13.74-18-14.75-20.37-59.52-19.71-64.57-19.53C248.76,147.49,247.69,147.47,246.22,147.47Z"/></g></svg>