<svg xmlns="http://www.w3.org/2000/svg" xmlns:xlink="http://www.w3.org/1999/xlink" viewBox="0 0 500 500"><defs><style>.cls-1{fill:none;}.cls-2{fill:#5c564f;}.cls-3{fill:#333;}.cls-4{fill:#4c403a;}.cls-5{clip-path:url(#clip-path);}.cls-6{fill:#483c36;}.cls-7{fill:#473b35;}.cls-8{fill:#463a34;}.cls-9{fill:#453934;}.cls-10{fill:#443833;}.cls-11{fill:#433732;}.cls-12{fill:#423631;}.cls-13{fill:#413530;}.cls-14{fill:#40342f;}.cls-15{fill:#3f332e;}.cls-16{fill:#3e322d;}.cls-17{fill:#3d312c;}.cls-18{fill:#3c302b;}.cls-19{fill:#3b2f2a;}.cls-20{fill:#3a2e29;}.cls-21{fill:#392d28;}.cls-22{fill:#382c28;}.cls-23{fill:#362b27;}.cls-24{fill:#352a26;}.cls-25{fill:#342925;}.cls-26{fill:#332824;}.cls-27{fill:#322723;}.cls-28{fill:#312622;}.cls-29{fill:#302521;}.cls-30{fill:#2f2420;}.cls-31{fill:#2e231f;}.cls-32{fill:#2d221e;}.cls-33{fill:#2c211d;}.cls-34{fill:#2b201c;}.cls-35{fill:#2a1f1b;}.cls-36{fill:#291e1b;}.cls-37{fill:#281d1a;}.cls-38{fill:#271c19;}.cls-39{fill:#261b18;}.cls-40{fill:#251a17;}.cls-41{fill:#241916;}.cls-42{fill:#231815;}</style><clipPath id="clip-path"><path class="cls-1" d="M165.35,266.72H326.82c10.08,0,18-9.23,17.11-20l-5.7-69.35C334.92,147,310.81,124,282.15,124H211.7c-26.25,0-49,19.34-55,46.66l-8.34,73.61C146.78,255.43,154.83,266.72,165.35,266.72Z"/></clipPath></defs><g id="레이어_3" data-name="레이어 3"><path class="cls-2" d="M171.78,269s-4.78,56.34,4.1,79.9c5.62,14.91,13,28,38.93,34.15,20.49,5.46,25.27,11.61,25.27,11.61l-15.71,5.46L175.2,383.74,146.51,351l-4.78-82.64,7.51-11.61Z"/><path class="cls-3" d="M267.28,402.78a2.61,2.61,0,0,1-.87-.15l-15.71-5.47a2.6,2.6,0,0,1-1.66-1.74,2.65,2.65,0,0,1,.44-2.37c.55-.71,5.93-7,26.68-12.55,25.23-6,32-18.79,37.14-32.52,8.56-22.73,4-78.19,3.93-78.75a2.66,2.66,0,0,1,1.37-2.54l22.54-12.3a2.65,2.65,0,0,1,3.48.89l7.52,11.61a2.7,2.7,0,0,1,.42,1.59l-4.78,82.63a2.72,2.72,0,0,1-.65,1.59l-28.69,32.78a2.63,2.63,0,0,1-1.15.77l-49.17,16.39A2.69,2.69,0,0,1,267.28,402.78Zm-10.31-9,10.33,3.59,47.64-15.88,27.61-31.56L347.23,269l-5.71-8.82-18.88,10.3c.74,9.85,3.81,57.55-4.4,79.33-5.47,14.52-13.12,29.24-40.79,35.79C266.54,388.54,260.31,391.64,257,393.75Z"/><path class="cls-2" d="M319.87,269s4.78,56.34-4.1,79.9c-5.62,14.91-13,28-38.93,34.15-20.49,5.46-25.27,11.61-25.27,11.61l15.71,5.46,49.17-16.39L345.14,351l4.78-82.64-7.52-11.61Z"/><path class="cls-3" d="M224.37,402.78a2.69,2.69,0,0,1-.84-.14l-49.17-16.39a2.58,2.58,0,0,1-1.15-.77L144.52,352.7a2.65,2.65,0,0,1-.65-1.59l-4.78-82.63a2.7,2.7,0,0,1,.42-1.59L147,255.28a2.66,2.66,0,0,1,3.49-.89l22.54,12.3a2.66,2.66,0,0,1,1.37,2.54c0,.56-4.63,56,3.93,78.75,5.18,13.73,11.9,26.55,37.07,32.5,20.82,5.56,26.2,11.86,26.74,12.57a2.63,2.63,0,0,1-1.21,4.11l-15.71,5.47A2.65,2.65,0,0,1,224.37,402.78Zm-47.66-21.32,47.64,15.88,10.33-3.59c-3.33-2.11-9.59-5.21-20.55-8.14-27.6-6.53-35.26-21.25-40.72-35.77-8.21-21.78-5.14-69.48-4.4-79.33l-18.88-10.3L144.42,269l4.68,80.87Z"/><path class="cls-4" d="M364,164.11C346.42,84,261.39,87.88,261.39,87.88H230.77s-85-3.91-102.61,76.23,5.86,172,5.86,172S140.1,395.73,213,405.5l19.22.22c6,.21,6.6-3.18,6.87-6.53l.08-.42c0-5.84-4.77-2.61-20.84-5.65L200,387.47s-20.09-6.4-35.72-39.63-8.8-101.64-8.8-101.64h76.23s0-6.95-.11-17.92h28.89c-.07,11-.11,17.92-.11,17.92h76.23s6.84,68.41-8.8,101.64-35.73,39.63-35.73,39.63l-18.24,5.65c-16.07,3-20.85-.19-20.85,5.65l.09.42c.27,3.35.89,6.74,6.86,6.53l19.22-.22c72.86-9.77,78.95-69.39,78.95-69.39S381.6,244.25,364,164.11Z"/><path class="cls-2" d="M157.21,115.68s14.19,3.92,19.12,21.52H318.5c4.94-17.6,19.12-21.52,19.12-21.52L318.5,99.19,280.1,87.85l-49.33,0-22.38,1.91-26,5.86Z"/><path class="cls-3" d="M318.5,139.84a2.53,2.53,0,0,1-.71-.1,2.65,2.65,0,0,1-1.84-3.26c5.28-18.82,20.33-23.17,21-23.34a2.64,2.64,0,0,1,1.41,5.09c-.57.16-12.85,3.87-17.28,19.68A2.65,2.65,0,0,1,318.5,139.84Z"/><path class="cls-3" d="M176.34,139.84a2.65,2.65,0,0,1-2.55-1.93c-4.44-15.85-16.77-19.53-17.29-19.68a2.64,2.64,0,0,1,1.41-5.09c.64.17,15.69,4.52,21,23.34a2.63,2.63,0,0,1-1.83,3.26A2.53,2.53,0,0,1,176.34,139.84Z"/><path class="cls-3" d="M246.08,126.68a2.64,2.64,0,0,1-2.64-2.64V87.85a2.65,2.65,0,0,1,5.29,0V124A2.65,2.65,0,0,1,246.08,126.68Z"/><path class="cls-3" d="M259.41,408.37c-8.05,0-8.69-6-8.91-8.8l-.06-.27a3.27,3.27,0,0,1-.05-.53c0-6.14,4.48-6.4,9.67-6.71a95.66,95.66,0,0,0,13.33-1.54l18-5.57c.15-.06,19.23-6.63,34.11-38.24,13.52-28.74,9.77-85.56,8.76-97.86h-73.8a2.65,2.65,0,0,1-1.88-.78,2.7,2.7,0,0,1-.77-1.88l.1-15.26H234.3l.09,15.26a2.65,2.65,0,0,1-2.64,2.66H157.94c-1,12.3-4.75,69.12,8.77,97.86,14.87,31.61,33.95,38.18,34.15,38.25l18.21,5.63a96.48,96.48,0,0,0,13,1.47c5.19.31,9.67.57,9.67,6.71a3.27,3.27,0,0,1-.05.53l-.06.27c-.23,2.86-.87,9.13-9.58,8.79l-19.16-.22-.32,0c-71.84-9.64-80.67-67.48-81.19-71.52-1.12-4.5-23-94.85-5.84-173.06C143.44,82.17,230,85.18,230.89,85.24H261.4c.75,0,87.33-3.07,105.19,78.3,17.17,78.21-4.72,168.56-5.84,173.06-.53,4-9.36,61.88-81.19,71.52l-.33,0-19.22.22Zm-3.73-9.85,0,.14c0,.11,0,.22,0,.32.24,3.14.58,4.17,4.13,4.09l19.12-.22c69.69-9.42,76.26-64.66,76.51-67a1.59,1.59,0,0,1,.07-.38c.23-.92,23.09-92.2,5.84-170.78-16.92-77.08-99.09-74.19-99.91-74.16H230.77c-3.47-.15-83.13-2.84-100,74.15-17.25,78.58,5.61,169.86,5.84,170.78a1.59,1.59,0,0,1,.07.38c.25,2.35,6.82,57.59,76.51,67l19.05.22c3.68.11,3.95-.95,4.2-4.09a1.92,1.92,0,0,1,.05-.32l0-.14a2.35,2.35,0,0,0-.1-.72,26.9,26.9,0,0,0-4.59-.46,101.2,101.2,0,0,1-14-1.62L199.26,390c-.89-.29-21.39-7.16-37.34-41-15.76-33.5-9.31-100.2-9-103a2.65,2.65,0,0,1,2.63-2.38h73.57L229,228.3a2.65,2.65,0,0,1,2.64-2.66h28.89a2.65,2.65,0,0,1,2.64,2.66l-.09,15.26h73.56a2.66,2.66,0,0,1,2.64,2.38c.28,2.82,6.73,69.52-9,103-15.94,33.88-36.45,40.75-37.31,41l-18.27,5.65a99.44,99.44,0,0,1-14.29,1.7,20,20,0,0,0-4.65.55S255.69,398.11,255.68,398.52Z"/><path class="cls-2" d="M363,255.65h0a3.09,3.09,0,0,1-3.09-3.1V173.07A3.09,3.09,0,0,1,363,170h9a19.23,19.23,0,0,1,19.22,19.22v38.28A28.18,28.18,0,0,1,363,255.65Z"/><path class="cls-2" d="M129.14,255.65h0a3.09,3.09,0,0,0,3.09-3.1V173.07a3.09,3.09,0,0,0-3.09-3.1h-9A19.22,19.22,0,0,0,101,189.19v38.28A28.18,28.18,0,0,0,129.14,255.65Z"/><path class="cls-3" d="M363,258.29a5.74,5.74,0,0,1-5.73-5.74V173.07a5.74,5.74,0,0,1,5.73-5.74h9a21.88,21.88,0,0,1,21.86,21.86v38.28A30.85,30.85,0,0,1,363,258.29Zm0-85.67a.45.45,0,0,0-.45.45v79.48a.46.46,0,0,0,.45.46,25.57,25.57,0,0,0,25.54-25.54V189.19A16.59,16.59,0,0,0,372,172.62Z"/><path class="cls-3" d="M129.14,258.29a30.85,30.85,0,0,1-30.82-30.82V189.19a21.88,21.88,0,0,1,21.86-21.86h9a5.74,5.74,0,0,1,5.73,5.74v79.48A5.74,5.74,0,0,1,129.14,258.29Zm-9-85.67a16.59,16.59,0,0,0-16.58,16.57v38.28A25.57,25.57,0,0,0,129.14,253a.46.46,0,0,0,.45-.46V173.07a.45.45,0,0,0-.45-.45Z"/><g class="cls-5"><rect class="cls-6" x="146.78" y="124.04" width="198.03" height="0.18"/><rect class="cls-7" x="146.78" y="124.22" width="198.03" height="2.99"/><rect class="cls-8" x="146.78" y="127.21" width="198.03" height="2.99"/><rect class="cls-9" x="146.78" y="130.2" width="198.03" height="2.99"/><rect class="cls-10" x="146.78" y="133.19" width="198.03" height="2.99"/><rect class="cls-11" x="146.78" y="136.17" width="198.03" height="2.99"/><rect class="cls-12" x="146.78" y="139.16" width="198.03" height="2.99"/><rect class="cls-13" x="146.78" y="142.15" width="198.03" height="2.99"/><rect class="cls-14" x="146.78" y="145.14" width="198.03" height="2.99"/><rect class="cls-15" x="146.78" y="148.13" width="198.03" height="2.99"/><rect class="cls-16" x="146.78" y="151.12" width="198.03" height="2.99"/><rect class="cls-17" x="146.78" y="154.11" width="198.03" height="2.99"/><rect class="cls-18" x="146.78" y="157.1" width="198.03" height="2.99"/><rect class="cls-19" x="146.78" y="160.09" width="198.03" height="2.99"/><rect class="cls-20" x="146.78" y="163.08" width="198.03" height="2.99"/><rect class="cls-21" x="146.78" y="166.07" width="198.03" height="2.99"/><rect class="cls-22" x="146.78" y="169.06" width="198.03" height="2.99"/><rect class="cls-23" x="146.78" y="172.05" width="198.03" height="2.99"/><rect class="cls-24" x="146.78" y="175.04" width="198.03" height="2.99"/><rect class="cls-25" x="146.78" y="178.03" width="198.03" height="2.99"/><rect class="cls-26" x="146.78" y="181.02" width="198.03" height="2.99"/><rect class="cls-27" x="146.78" y="184.01" width="198.03" height="2.99"/><rect class="cls-28" x="146.78" y="187" width="198.03" height="2.99"/><rect class="cls-29" x="146.78" y="189.99" width="198.03" height="2.99"/><rect class="cls-30" x="146.78" y="192.98" width="198.03" height="2.99"/><rect class="cls-31" x="146.78" y="195.97" width="198.03" height="2.99"/><rect class="cls-32" x="146.78" y="198.95" width="198.03" height="2.99"/><rect class="cls-33" x="146.78" y="201.94" width="198.03" height="2.99"/><rect class="cls-34" x="146.78" y="204.93" width="198.03" height="2.99"/><rect class="cls-35" x="146.78" y="207.92" width="198.03" height="2.99"/><rect class="cls-36" x="146.78" y="210.91" width="198.03" height="2.99"/><rect class="cls-37" x="146.78" y="213.9" width="198.03" height="2.99"/><rect class="cls-38" x="146.78" y="216.89" width="198.03" height="2.99"/><rect class="cls-39" x="146.78" y="219.88" width="198.03" height="2.99"/><rect class="cls-40" x="146.78" y="222.87" width="198.03" height="2.99"/><rect class="cls-41" x="146.78" y="225.86" width="198.03" height="2.99"/><rect class="cls-42" x="146.78" y="228.85" width="198.03" height="2.99"/><rect class="cls-42" x="146.78" y="231.84" width="198.03" height="34.88"/></g><path class="cls-3" d="M326.82,269.37H165.34a18.59,18.59,0,0,1-14.08-6.78,23.72,23.72,0,0,1-5.51-18.65l8.34-73.54c6.29-29,30-49,57.61-49h70.45c30,0,55.25,23.95,58.71,55.72l5.7,69.43A21.68,21.68,0,0,1,341,263,19.12,19.12,0,0,1,326.82,269.37ZM211.7,126.68c-25.13,0-46.68,18.34-52.4,44.58L151,244.61a18.41,18.41,0,0,0,4.26,14.52,13.36,13.36,0,0,0,10.08,4.95H326.82a13.89,13.89,0,0,0,10.29-4.62A16.45,16.45,0,0,0,341.3,247l-5.7-69.36c-3.17-29-26.14-50.94-53.45-50.94Z"/></g></svg>