<svg xmlns="http://www.w3.org/2000/svg" viewBox="0 0 500 500"><defs><style>.cls-1{isolation:isolate;}.cls-2{fill:#f1f153;}.cls-3{fill:#e360f7;}.cls-4{fill:none;}.cls-5{fill:#a8d6c6;}.cls-6{fill:#53470f;}.cls-7{opacity:0.4;mix-blend-mode:lighten;}.cls-8{fill:#fff;}.cls-9{fill:#333;}</style></defs><g class="cls-1"><g id="레이어_3" data-name="레이어 3"><path class="cls-2" d="M240.56,139.15h0c.53-14,1-8.92,1-8.92-.11-15.56,14.82-32.38,14.82-32.38L138.78,110.3s2.45,14.27,4.94,51.61c9-.55,38.4-2.38,64.79-4.32C240.09,155.28,240.56,139.15,240.56,139.15Z"/><path class="cls-3" d="M199.18,373.48c22.5,3.69,67.95,14.26,92.88,11.26,29.35-3.52,71-15.48,71-15.48l.91-.17c0-5.12,0-13.78.07-19.36.18-14.14-24.86-8.62-63.44-10.1-34.17-7.11-60-38.65-60.84-71-2.83-8.37-.6-92.25.84-129.48,0,0-.48,16.13-32.05,18.44-26.39,1.94-55.83,3.77-64.79,4.32,1.64,24.67,3.3,67.58,4.28,93.88,3.21,63.86-9.46,78.66-11.52,89.28-1,5.18-.28,20.46.74,31.93C140.15,376.63,185.06,371.18,199.18,373.48Z"/><path class="cls-4" d="M237.74,145.88a15.47,15.47,0,0,0,2.43-4.73A15.47,15.47,0,0,1,237.74,145.88Z"/><path class="cls-4" d="M237.13,146.64c.21-.25.41-.49.59-.74C237.54,146.15,237.34,146.39,237.13,146.64Z"/><path class="cls-4" d="M240.56,139.15h0a9.16,9.16,0,0,1-.39,2A9.05,9.05,0,0,0,240.56,139.15Z"/><path class="cls-4" d="M236.37,147.5a25.47,25.47,0,0,1-7.65,5.4A25.47,25.47,0,0,0,236.37,147.5Z"/><path class="cls-4" d="M236.4,147.47l.69-.77Z"/><path class="cls-4" d="M215.47,156.78a49.18,49.18,0,0,0,13-3.75A49.18,49.18,0,0,1,215.47,156.78Z"/><path class="cls-4" d="M208.51,157.59c1.5-.11,2.91-.26,4.27-.43C211.42,157.33,210,157.48,208.51,157.59Z"/><path class="cls-5" d="M228.45,153l.27-.13Z"/><path d="M228.46,156.09a3.06,3.06,0,0,1-1.29-5.84l.09.19,1.46,2.45,1.36,2.75s-.32.15-.34.17A3.12,3.12,0,0,1,228.46,156.09Z"/><path class="cls-5" d="M212.78,157.16c.93-.11,1.82-.24,2.69-.38C214.6,156.92,213.71,157.05,212.78,157.16Z"/><path d="M212.78,159.87a2.7,2.7,0,0,1-2.68-2.37c0-.11,0-.22,0-.33a2.71,2.71,0,0,1,2.36-2.69c.9-.11,1.76-.23,2.6-.36a2.69,2.69,0,0,1,3.1,2.23,3.25,3.25,0,0,1,0,.44,2.7,2.7,0,0,1-2.27,2.66c-.9.15-1.83.28-2.78.4Z"/><path class="cls-5" d="M236.37,147.5l0,0Z"/><path d="M236.37,150.56a3,3,0,0,1-1.69-.51,3.05,3.05,0,0,1-.85-4.25,3.13,3.13,0,0,1,.41-.49,3.06,3.06,0,0,1,5.22,2.16,3.09,3.09,0,0,1-3.09,3.09Z"/><path class="cls-5" d="M237.72,145.9l0,0Z"/><path d="M237.72,149a3.08,3.08,0,0,1-2.74-4.44,2.9,2.9,0,0,1,.2-.33h0a.22.22,0,0,0,0-.08,4.32,4.32,0,0,1,.34-.39,3.06,3.06,0,0,1,4.91,3.53c-.06.1-.12.21-.18.3A3.08,3.08,0,0,1,237.72,149Z"/><path class="cls-5" d="M240.17,141.15h0Z"/><path d="M240.17,144.21a3.05,3.05,0,0,1-2.17-.9,3,3,0,0,1-.89-2.16,2.91,2.91,0,0,1,.14-.93,3.06,3.06,0,1,1,2.92,4Z"/><path class="cls-5" d="M237.09,146.7a.21.21,0,0,0,0-.06A.21.21,0,0,1,237.09,146.7Z"/><path d="M237.1,149.72a3,3,0,0,1-1.9-.66,3.07,3.07,0,0,1-1.16-2.39,3,3,0,0,1,.66-1.89l0-.05a3.07,3.07,0,0,1,4.79,3.83A3.13,3.13,0,0,1,237.1,149.72Z"/><path class="cls-6" d="M363.93,369.09l-.91.17s-41.61,12-71,15.48c-24.93,3-70.38-7.57-92.88-11.26-.58-.09-1.23-.17-1.9-.24l-.51,0c-.67-.07-1.37-.12-2.11-.16h-.08c-.82-.05-1.7-.07-2.61-.09h-.35c-18.33-.33-51.88,3.74-54.4,4.05,1.07,12,2.44,22.9,2.44,22.9h64.48v-8.05c22.26-2.64,36.35,11.4,78.64,10.24S364,382.93,364,382.93,363.94,376.94,363.93,369.09Z"/><g class="cls-7"><path class="cls-8" d="M363.93,352.12c-.58,8-15.5,13.47-33.34,12.19s-31.83-8.82-31.25-16.84,14.46-9,32.29-7.68S364.51,344.1,363.93,352.12Z"/></g><g class="cls-7"><path class="cls-8" d="M191.09,173.33c2.45-39.29,4.29-69.07,4.29-69.07l-57,6s2.45,28.8,4.94,66.13c1.64,24.67,3.3,53.06,4.28,79.36,3.21,63.86-9.46,78.66-11.53,89.28-1,5.18,2.17,43.35,3.19,54.82,1.64-.2,58.59,0,64.48,0-1.55-12.66-15.83-44.44-17.17-56.24-1.3-11.54-4.15-34-3.41-45.62C185.64,260.18,188.66,212.12,191.09,173.33Z"/></g><path class="cls-9" d="M143.71,165a3.07,3.07,0,0,1-3.05-2.86c-2.44-36.75-4.87-51.16-4.9-51.3a3.07,3.07,0,0,1,2.7-3.56L256,94.8a3.07,3.07,0,0,1,2.61,5.08c-.14.16-14.15,16.15-14,30.33A3.1,3.1,0,0,1,244,132c-.1,1.29-.23,3.49-.37,7.22,0,1.1-1.28,18.92-34.88,21.39-26.5,1.94-56.32,3.79-64.84,4.31Zm-1.43-52c.81,5.82,2.51,19.91,4.29,45.65,11.19-.69,37.81-2.37,61.72-4.12,27.91-2,29.16-14.87,29.21-15.52.24-6.3.36-9.54,1-11.17.79-10.1,6.68-20.12,11-26.2Z"/><path class="cls-9" d="M282.19,388.33c-19.92,0-46.5-5-66.76-8.79-6.32-1.19-12-2.26-16.75-3h0C187.63,374.7,153.89,378,137.6,380a3.08,3.08,0,0,1-2.3-.66,3,3,0,0,1-1.13-2.11c-.82-9.28-1.9-26.63-.7-32.79a53.27,53.27,0,0,1,2.58-8.11c4.27-11.43,11.4-30.57,8.89-80.43-1.08-28.87-2.69-70-4.28-93.83a3.06,3.06,0,0,1,2.87-3.26c8.5-.52,38.3-2.37,64.76-4.31,28.05-2.06,29.17-15,29.21-15.54a3.12,3.12,0,0,1,3.21-2.89,3.06,3.06,0,0,1,2.91,3.15c-1.91,49.44-3.31,121.56-1,128.39a2.75,2.75,0,0,1,.16.9c.82,31.45,26.33,61.28,58.15,68,10.23.38,19.49.28,27.65.18,18.11-.2,30-.35,35.5,5.12a10.48,10.48,0,0,1,3,7.89C367,355.34,367,364,367,369.09a3.08,3.08,0,0,1-2.48,3l-.91.17c-.16.06-41.91,12-71.18,15.51A85.73,85.73,0,0,1,282.19,388.33Zm-82.52-17.87c4.75.78,10.51,1.86,16.89,3.06,23.6,4.43,55.92,10.48,75.13,8.18,25.89-3.11,61.9-13,69.17-15,0-5.15,0-12.2.08-17a4.44,4.44,0,0,0-1.19-3.49c-3.64-3.64-15.75-3.5-31.09-3.31-8.31.1-17.73.21-28.22-.2a2.22,2.22,0,0,1-.51-.06c-34.46-7.17-62.17-39.42-63.26-73.53-2.79-11.07-.58-87.76.41-117.93-4.89,4.31-13.43,8.38-28.34,9.48-23.92,1.75-50.55,3.43-61.77,4.12,1.53,24.28,3.06,63.23,4.09,90.9,2.57,51.09-4.84,71-9.27,82.84a49.76,49.76,0,0,0-2.31,7.14c-.81,4.17-.37,16.66.53,27.93,11.44-1.34,46.9-5.2,59.66-3.12Z"/><path class="cls-9" d="M277.88,405.21c-20.74,0-34.59-3.68-45.88-6.68-9.09-2.41-16.44-4.37-24.8-3.88v5.24a3.06,3.06,0,0,1-3.06,3.06H139.66a3.07,3.07,0,0,1-3-2.68c0-.1-1.39-11.06-2.45-23a3.07,3.07,0,0,1,2.68-3.31c3.68-.45,36.42-4.41,54.82-4.07h.39c.91,0,1.82,0,2.68.09s1.6.1,2.3.16l.56.06c.74.07,1.44.16,2.07.26,4.75.78,10.51,1.86,16.89,3.06,23.6,4.43,55.92,10.48,75.13,8.18,28.78-3.45,70.07-15.26,70.48-15.38l1.18-.24a3.05,3.05,0,0,1,3.64,3c0,7.83.07,13.8.07,13.81a3.06,3.06,0,0,1-1.77,2.81c-1.62.75-40,18.27-82.43,19.43C281.16,405.19,279.5,405.21,277.88,405.21Zm-68.15-16.76c8.17,0,15.55,2,23.85,4.17,12.4,3.29,26.48,7,49.11,6.4,36.09-1,70.16-14.63,78.23-18.08,0-1.76,0-4.54-.05-7.9-9.73,2.7-43.6,11.76-68.45,14.74-20.18,2.42-53-3.74-77-8.24-6.32-1.19-12-2.26-16.75-3-.52-.09-1.1-.16-1.72-.22l-.19-3.1-.28,3.05-2-.14c-.87-.05-1.72-.07-2.59-.09h-.39c-15.39-.3-41.78,2.61-51,3.68.68,7.18,1.42,13.67,1.83,17.15h58.71v-5a3.07,3.07,0,0,1,2.7-3A50.83,50.83,0,0,1,209.73,388.45Z"/></g></g></svg>