<svg xmlns="http://www.w3.org/2000/svg" viewBox="0 0 500 500"><defs><style>.cls-1{fill:#e360f7;}.cls-2{opacity:0.4;}.cls-3{fill:#fff;}.cls-4{fill:#f1f153;}.cls-5{fill:#b64dd0;}.cls-6{fill:#333;}</style></defs><g id="레이어_3" data-name="레이어 3"><path class="cls-1" d="M215.75,169.86s-14.55,3.92-20.24,13.78S183,213.22,170.86,272c-11.76,58.78-15.93,97.84-15.93,97.84l36.41,7.21,7.2-37.93.09-.82c0,36.21.48,69.19,1.43,79.33h99.88c.95-10.14,1.44-43.12,1.43-79.32l.09.82,7.2,37.92,36.41-7.2S340.9,330.78,329.14,272c-12.13-58.78-19-78.5-24.65-88.36s-20.23-14-20.23-14"/><path class="cls-1" d="M271.26,174.86s44.92-9.45,16.56-63.66C272,81,250,82.38,250,82.38h0S228,81,212.18,111.21c-28.36,54.21,16.56,63.65,16.56,63.65s.51,3.35,2.35,10.43"/><g class="cls-2"><polygon class="cls-3" points="199.06 231.8 167.96 282.62 163.41 309.93 198.3 293.24 199.06 231.8"/></g><g class="cls-2"><path class="cls-3" d="M265.55,90s-20.73,5-25.78,12.13S218.53,119.8,218,138s-15.17,4.05-15.17,4.05-1-34.39,28.32-55.62c.42-.31.84-.61,1.25-.89C254.94,74.8,265.55,90,265.55,90Z"/></g><g class="cls-2"><path class="cls-3" d="M307.52,196.66,217.26,368.33C211.54,379.58,224.65,391,235,383.8l95.27-90.56S327,210.31,307.52,196.66Z"/></g><polygon class="cls-4" points="341.28 350.13 345.07 369.85 309.8 378.19 306.39 360.74 341.28 350.13"/><polygon class="cls-4" points="158.48 350.13 154.69 369.85 189.96 378.19 193.37 360.74 158.48 350.13"/><path class="cls-5" d="M250.07,97.36c-14.79,0-24.84,18.39-24.84,18.39-5.31,8.35-15.17,31.1,2.27,41.72s22,28.82,22,28.82h1.14s4.55-18.2,22-28.82,7.59-33.37,2.28-41.72C274.91,115.75,264.86,97.36,250.07,97.36Z"/><path class="cls-6" d="M308.66,379.4a2.3,2.3,0,0,1-1.31-.4,2.36,2.36,0,0,1-1-1.51l-7.21-37.92a2.36,2.36,0,1,1,4.63-.88l6.76,35.59,32-6.32c-1-8.94-5.58-45.16-15.65-95.5-12.86-62.28-19.54-79.25-24.38-87.65-5.13-8.9-18.7-12.9-18.84-12.94a2.36,2.36,0,0,1,1.3-4.53c.63.18,15.52,4.56,21.62,15.12,5.28,9.16,12,26.28,24.92,89.06,11.64,58.23,15.92,97.68,16,98.07a2.36,2.36,0,0,1-1.88,2.57l-36.41,7.2A2.38,2.38,0,0,1,308.66,379.4Z"/><path class="cls-6" d="M299.94,420H246.09a2.35,2.35,0,1,1,0-4.7h51.67c2.08-30,1.5-177.9-1.65-193.63-3.52-17.62,5.84-38.14,6.24-39a2.36,2.36,0,0,1,4.28,2c-.09.19-9.12,20-5.9,36.09,3.41,17.05,3.94,171.73,1.56,197.13A2.36,2.36,0,0,1,299.94,420Z"/><path class="cls-6" d="M304.49,363.1a2.36,2.36,0,0,1-.55-4.65l37.93-9.1a2.36,2.36,0,0,1,1.1,4.58L305,363A2.08,2.08,0,0,1,304.49,363.1Z"/><path class="cls-6" d="M231.09,187.64a2.35,2.35,0,0,1-2.28-1.76c-1.16-4.46-1.8-7.46-2.12-9.12-4.44-1.29-17-6-23.06-18.73-5.86-12.4-3.68-28.52,6.46-47.91,15.69-30,37.3-30.17,39.85-30.09,1.76-.11,24-.53,40,30.08,10.14,19.39,12.32,35.51,6.46,47.92-6,12.76-18.62,17.44-23.06,18.73-.32,1.65-1,4.66-2.12,9.11a2.36,2.36,0,1,1-4.56-1.18c1.78-6.84,2.29-10.15,2.3-10.19a2.35,2.35,0,0,1,1.84-1.94c.15,0,15.17-3.39,21.37-16.59,5.16-11,3-25.69-6.41-43.67-14.42-27.58-33.63-27.65-35.47-27.57h-.41c-.85,0-20.74-.82-35.58,27.56-9.43,18-11.57,32.72-6.38,43.72,6.23,13.23,21.19,16.51,21.34,16.54a2.35,2.35,0,0,1,1.84,1.95s.52,3.35,2.3,10.18a2.37,2.37,0,0,1-1.69,2.88A2.44,2.44,0,0,1,231.09,187.64Z"/><path class="cls-6" d="M191.34,379.41a2.38,2.38,0,0,1-.46,0l-36.41-7.21a2.36,2.36,0,0,1-1.88-2.56c0-.39,4.32-39.84,16-98.05,13-62.8,19.64-79.93,24.92-89.08,6.11-10.58,21-14.71,21.66-14.88a2.35,2.35,0,1,1,1.23,4.54c-.13,0-13.69,3.81-18.81,12.69-4.84,8.39-11.52,25.37-24.39,87.66C163.1,322.8,158.56,359,157.52,368l31.95,6.33,6.76-35.6a2.36,2.36,0,0,1,4.63.88l-7.21,37.93a2.36,2.36,0,0,1-2.31,1.91Z"/><path class="cls-6" d="M253.91,420H200.06a2.37,2.37,0,0,1-2.35-2.14c-2.38-25.39-1.85-180.07,1.56-197.12,3.22-16.1-5.81-35.9-5.9-36.1a2.36,2.36,0,0,1,4.28-2c.4.87,9.76,21.38,6.24,39-3.15,15.74-3.73,163.59-1.65,193.63h51.67a2.36,2.36,0,1,1,0,4.71Z"/><path class="cls-6" d="M195.51,363.1A2.57,2.57,0,0,1,195,363L157,353.94a2.36,2.36,0,1,1,1.1-4.58l37.92,9.1a2.35,2.35,0,0,1-.55,4.64Z"/><path class="cls-6" d="M250.64,188.65a2.38,2.38,0,0,1-.58-.08,2.35,2.35,0,0,1-1.71-2.85,53.76,53.76,0,0,1,23.06-30.26,17.2,17.2,0,0,0,8.22-11c2.27-9.75-3.15-21.81-6.71-27.4-.17-.31-9.65-17.3-22.85-17.3a2.36,2.36,0,0,1,0-4.71c16,0,26.47,18.81,26.91,19.61,4.82,7.58,9.69,20.33,7.23,30.87a21.72,21.72,0,0,1-10.35,14c-16.36,10-20.9,27.21-20.94,27.39A2.37,2.37,0,0,1,250.64,188.65Z"/><path class="cls-6" d="M249.5,418.72a2.35,2.35,0,0,1-2.35-2.35V186.61c-.64-2.19-5.6-17.83-20.87-27.13a21.72,21.72,0,0,1-10.35-14c-2.46-10.54,2.4-23.29,7.31-31,.36-.67,10.83-19.48,26.83-19.48a2.36,2.36,0,0,1,0,4.71c-13.2,0-22.68,17-22.78,17.17-3.63,5.72-9,17.78-6.78,27.53a17.2,17.2,0,0,0,8.22,11,53.67,53.67,0,0,1,23.05,30.26,2.22,2.22,0,0,1,.07.57V416.37A2.35,2.35,0,0,1,249.5,418.72Z"/><path class="cls-6" d="M260.5,230.74a2.35,2.35,0,0,1-2.35-2.35v-42.1a2.35,2.35,0,0,1,4.7,0v42.1A2.35,2.35,0,0,1,260.5,230.74Z"/><path class="cls-6" d="M238.5,230.74a2.35,2.35,0,0,1-2.35-2.35v-42.1a2.36,2.36,0,0,1,4.71,0v42.1A2.36,2.36,0,0,1,238.5,230.74Z"/><circle class="cls-6" cx="260.62" cy="247.6" r="2.91"/><circle class="cls-6" cx="260.62" cy="273.64" r="2.91"/><circle class="cls-6" cx="260.62" cy="299.69" r="2.91"/><circle class="cls-6" cx="260.62" cy="325.73" r="2.91"/><circle class="cls-6" cx="260.62" cy="351.77" r="2.91"/><circle class="cls-6" cx="260.62" cy="377.81" r="2.91"/></g></svg>