<svg xmlns="http://www.w3.org/2000/svg" viewBox="0 0 500 500"><defs><style>.cls-1{fill:#333;}.cls-2{fill:#e1ff00;}.cls-3{fill:#cad600;}.cls-4{fill:#f7ff91;}</style></defs><g id="레이어_3" data-name="레이어 3"><path class="cls-1" d="M250,120.53a6.64,6.64,0,0,1-6.64-6.64V98.18a6.64,6.64,0,0,1,13.28,0v15.71A6.64,6.64,0,0,1,250,120.53Z"/><rect class="cls-1" x="246.68" y="126.45" width="6.64" height="225"/><path class="cls-2" d="M250.33,115.24s-99.51-8.5-175.37,92c0,0,29.56-15.77,56.16,15.76,0,0,56.57-11.93,119.21-13.42C313,211.07,369.54,223,369.54,223c26.6-31.53,56.16-15.76,56.16-15.76-75.86-100.5-175.25-92-175.25-92Z"/><path class="cls-1" d="M131.12,225.82a2.85,2.85,0,0,1-2.16-1c-24.74-29.33-51.55-15.68-52.68-15.09a2.82,2.82,0,0,1-3.57-4.19c74.62-98.85,173.41-93.41,177.72-93.12h0c.77-.07,101.57-7.46,177.5,93.12a2.82,2.82,0,0,1-3.58,4.19c-1.12-.59-27.93-14.23-52.67,15.09a2.82,2.82,0,0,1-2.74.94c-.56-.12-57.06-11.9-118.7-13.36-61.5,1.46-118,13.24-118.56,13.36A2.86,2.86,0,0,1,131.12,225.82Zm119.14-19.06c56.4,1.33,108.44,11.2,118.22,13.15,18.29-20.76,38-20.67,49.28-18.25-73.29-90.49-166.1-83.68-167.07-83.61a3,3,0,0,1-.6,0c-1-.07-94-6.74-167.19,83.61,11.26-2.43,31-2.51,49.28,18.25C142,218,194,208.09,250.26,206.76Z"/><path class="cls-1" d="M369.7,233.7a2.83,2.83,0,0,1-2.64-1.83l-2.87-7.63c-.41-1-45.39-106.18-113.86-106.18a2.82,2.82,0,0,1,0-5.64c72.23,0,117.22,105.25,119.1,109.73l2.92,7.74a2.84,2.84,0,0,1-1.65,3.63A2.71,2.71,0,0,1,369.7,233.7Z"/><line class="cls-2" x1="425.7" y1="207.24" x2="429.8" y2="212.65"/><path class="cls-1" d="M429.8,215.48a2.84,2.84,0,0,1-2.25-1.12l-4.1-5.42a2.82,2.82,0,0,1,4.5-3.41l4.1,5.42a2.82,2.82,0,0,1-2.25,4.53Z"/><path class="cls-1" d="M128.82,233.7a2.63,2.63,0,0,1-1-.18,2.82,2.82,0,0,1-1.65-3.63l2.87-7.64C131,217.67,176,112.42,248.19,112.42a2.82,2.82,0,0,1,0,5.64c-68.47,0-113.45,105.22-113.89,106.28l-2.84,7.53A2.82,2.82,0,0,1,128.82,233.7Z"/><line class="cls-2" x1="74.31" y1="207.97" x2="70.2" y2="213.39"/><path class="cls-1" d="M70.2,216.21A2.81,2.81,0,0,1,68,211.69l4.11-5.42a2.82,2.82,0,1,1,4.5,3.41l-4.11,5.42A2.83,2.83,0,0,1,70.2,216.21Z"/><path class="cls-1" d="M232.17,408.45a24.57,24.57,0,0,1-24.55-24.54,6.64,6.64,0,0,1,13.28,0,11.27,11.27,0,0,0,22.54,0V356.86a6.64,6.64,0,0,1,13.28,0v27.05A24.57,24.57,0,0,1,232.17,408.45Z"/><rect class="cls-1" x="243.45" y="339.56" width="13.28" height="21.92"/><path class="cls-3" d="M251,115.49h-.12c67.58,0,111.83,97.3,116.12,107.14l3.09.62c26.6-31.53,56.15-15.77,56.15-15.77C350.4,107,251,115.49,251,115.49Z"/><path class="cls-4" d="M250,115.49h.13c-67.59,0-111.83,97.3-116.13,107.14l-3.09.62c-26.6-31.53-56.15-15.77-56.15-15.77C150.64,107,250,115.49,250,115.49Z"/><path class="cls-1" d="M131.12,225.82a2.85,2.85,0,0,1-2.16-1c-24.74-29.33-51.55-15.68-52.68-15.09a2.82,2.82,0,0,1-3.57-4.19c74.62-98.85,173.41-93.41,177.72-93.12h0c.77-.07,101.57-7.46,177.5,93.12a2.82,2.82,0,0,1-3.58,4.19c-1.12-.59-27.93-14.23-52.67,15.09a2.82,2.82,0,0,1-2.74.94c-.56-.12-57.06-11.9-118.7-13.36-61.5,1.46-118,13.24-118.56,13.36A2.86,2.86,0,0,1,131.12,225.82Zm119.14-19.06c56.4,1.33,108.44,11.2,118.22,13.15,18.29-20.76,38-20.67,49.28-18.25-73.29-90.49-166.1-83.68-167.07-83.61a3,3,0,0,1-.6,0c-1-.07-94-6.74-167.19,83.61,11.26-2.43,31-2.51,49.28,18.25C142,218,194,208.09,250.26,206.76Z"/><path class="cls-1" d="M369.7,233.7a2.83,2.83,0,0,1-2.64-1.83l-2.87-7.63c-.41-1-45.39-106.18-113.86-106.18a2.82,2.82,0,0,1,0-5.64c72.23,0,117.22,105.25,119.1,109.73l2.92,7.74a2.84,2.84,0,0,1-1.65,3.63A2.71,2.71,0,0,1,369.7,233.7Z"/><path class="cls-1" d="M429.8,215.48a2.84,2.84,0,0,1-2.25-1.12l-4.1-5.42a2.82,2.82,0,0,1,4.5-3.41l4.1,5.42a2.82,2.82,0,0,1-2.25,4.53Z"/><path class="cls-1" d="M128.82,233.7a2.63,2.63,0,0,1-1-.18,2.82,2.82,0,0,1-1.65-3.63l2.87-7.64C131,217.67,176,112.42,248.19,112.42a2.82,2.82,0,0,1,0,5.64c-68.47,0-113.45,105.22-113.89,106.28l-2.84,7.53A2.82,2.82,0,0,1,128.82,233.7Z"/><path class="cls-1" d="M70.2,216.21A2.81,2.81,0,0,1,68,211.69l4.11-5.42a2.82,2.82,0,1,1,4.5,3.41l-4.11,5.42A2.83,2.83,0,0,1,70.2,216.21Z"/></g></svg>